<?xml version="1.0" encoding="UTF-8"?>
<svg xmlns="http://www.w3.org/2000/svg" xmlns:xlink="http://www.w3.org/1999/xlink" width="30pt" height="30.000001pt" viewBox="0 0 30 30.000001" version="1.2">
<g id="surface1">
<path style=" stroke:none;fill-rule:nonzero;fill:rgb(0%,0%,0%);fill-opacity:1;" d="M 3.359375 3.652344 C 2.550781 3.652344 2.097656 3.984375 1.863281 4.265625 C 0.613281 5.753906 2.53125 8.949219 3.300781 9.949219 C 3.367188 10.035156 3.433594 10.117188 3.503906 10.203125 C 3.480469 10.222656 3.457031 10.246094 3.4375 10.269531 C 3.199219 10.519531 2.933594 10.988281 3.023438 11.78125 C 3.144531 12.867188 3.949219 14.425781 5.269531 15.449219 C 4.589844 16.785156 6.492188 18.34375 6.882812 18.644531 C 7.171875 18.867188 7.488281 19.058594 7.824219 19.222656 C 5.554688 21.089844 3.957031 21.511719 2.878906 21.792969 C 2.59375 21.867188 1.644531 21.929688 1.601562 22.234375 C 1.566406 22.480469 2.117188 22.75 2.382812 22.875 C 6.488281 24.800781 10.683594 25.421875 12.503906 25.378906 C 14.066406 25.34375 20.175781 25.191406 24.03125 20.378906 C 26.285156 17.566406 27.289062 13.796875 26.722656 10.394531 C 26.921875 10.199219 27.109375 9.988281 27.277344 9.769531 C 28.179688 8.59375 28.464844 7.355469 28.542969 6.519531 C 28.574219 6.1875 28.441406 5.863281 28.1875 5.648438 C 28.003906 5.496094 27.773438 5.414062 27.539062 5.414062 C 27.449219 5.414062 27.359375 5.425781 27.269531 5.449219 L 25.90625 5.824219 L 24.808594 6.125 C 23.699219 4.894531 22.21875 4.226562 20.570312 4.226562 C 17.148438 4.226562 15.308594 6.386719 14.121094 8.59375 C 6.753906 4.179688 4.449219 3.652344 3.359375 3.652344 Z M 3.359375 4.664062 C 4.679688 4.664062 7.789062 5.917969 14.535156 10.027344 C 15.765625 7.382812 17.386719 5.238281 20.570312 5.238281 C 22.226562 5.238281 23.535156 6.023438 24.4375 7.273438 C 25.472656 6.992188 26.503906 6.707031 27.539062 6.421875 C 27.488281 6.949219 27.304688 8.074219 26.476562 9.152344 C 26.195312 9.515625 25.898438 9.800781 25.621094 10.023438 C 26.890625 15.691406 23.25 24.367188 12.503906 24.367188 C 9.714844 24.367188 6.445312 23.785156 2.660156 22.410156 C 2.660156 22.410156 2.695312 22.414062 2.757812 22.414062 C 3.3125 22.414062 6.226562 22.238281 9.894531 18.789062 C 9.035156 18.667969 8.207031 18.386719 7.5 17.84375 C 6.847656 17.34375 5.9375 16.34375 6.175781 15.898438 C 6.28125 15.699219 6.609375 15.636719 7 15.636719 C 7.636719 15.636719 8.433594 15.804688 8.652344 15.804688 C 8.691406 15.804688 8.710938 15.800781 8.710938 15.789062 C 8.726562 15.699219 7.3125 15.625 6.117188 14.816406 C 4.511719 13.730469 3.632812 11.535156 4.171875 10.957031 C 4.265625 10.859375 4.417969 10.789062 4.671875 10.789062 C 5.015625 10.789062 5.546875 10.921875 6.367188 11.285156 C 5.78125 10.957031 4.886719 10.355469 4.101562 9.332031 C 3.019531 7.925781 2.054688 5.605469 2.636719 4.914062 C 2.769531 4.757812 2.996094 4.664062 3.359375 4.664062 "/>
<path style=" stroke:none;fill-rule:nonzero;fill:rgb(99.609375%,66.668701%,20.779419%);fill-opacity:1;" d="M 23.589844 7.507812 C 24.90625 7.144531 26.222656 6.785156 27.539062 6.421875 C 27.488281 6.949219 27.304688 8.074219 26.476562 9.152344 C 26.003906 9.765625 25.480469 10.160156 25.101562 10.398438 C 24.832031 10 24.550781 9.542969 24.28125 9.027344 C 23.996094 8.488281 23.769531 7.976562 23.589844 7.507812 "/>
<path style=" stroke:none;fill-rule:nonzero;fill:rgb(0%,56.469727%,82.348633%);fill-opacity:1;" d="M 20.570312 5.238281 C 30.183594 5.238281 28.101562 31.640625 2.660156 22.410156 C 2.660156 22.410156 6.050781 22.644531 10.351562 18.34375 C 14.09375 14.601562 13.910156 5.238281 20.570312 5.238281 "/>
<path style=" stroke:none;fill-rule:nonzero;fill:rgb(0%,0%,0%);fill-opacity:1;" d="M 22.085938 7.503906 C 21.707031 7.503906 21.398438 7.8125 21.398438 8.191406 C 21.398438 8.574219 21.707031 8.882812 22.085938 8.882812 C 22.46875 8.882812 22.777344 8.574219 22.777344 8.191406 C 22.777344 7.8125 22.46875 7.503906 22.085938 7.503906 "/>
<path style=" stroke:none;fill-rule:nonzero;fill:rgb(0%,56.469727%,82.348633%);fill-opacity:1;" d="M 2.640625 4.914062 C 2.058594 5.605469 3.019531 7.925781 4.101562 9.332031 C 4.886719 10.355469 5.78125 10.957031 6.367188 11.285156 C 4.949219 10.65625 4.394531 10.722656 4.175781 10.957031 C 3.632812 11.535156 4.511719 13.730469 6.117188 14.816406 C 7.3125 15.625 8.730469 15.699219 8.710938 15.789062 C 8.691406 15.902344 6.484375 15.3125 6.175781 15.898438 C 5.9375 16.34375 6.847656 17.34375 7.5 17.84375 C 9.875 19.671875 13.632812 18.578125 15.175781 18.035156 L 17.382812 11.792969 C 6.511719 4.929688 3.3125 4.113281 2.640625 4.914062 "/>
<path style=" stroke:none;fill-rule:nonzero;fill:rgb(0%,0%,0%);fill-opacity:1;" d="M 14.394531 18.710938 C 14.394531 18.710938 14.023438 18.878906 13.433594 19.066406 C 12.84375 19.25 12.035156 19.429688 11.191406 19.496094 C 10.785156 19.527344 10.351562 19.535156 9.960938 19.523438 C 9.566406 19.507812 9.195312 19.46875 8.878906 19.425781 C 8.246094 19.332031 7.828125 19.21875 7.828125 19.21875 L 7.804688 19.214844 C 7.535156 19.140625 7.375 18.863281 7.445312 18.589844 C 7.519531 18.320312 7.796875 18.160156 8.070312 18.234375 C 8.09375 18.238281 8.121094 18.25 8.144531 18.261719 C 8.144531 18.261719 8.5 18.417969 9.0625 18.589844 C 9.339844 18.675781 9.675781 18.761719 10.039062 18.835938 C 10.40625 18.90625 10.785156 18.960938 11.195312 18.992188 C 11.585938 19.019531 11.992188 19.023438 12.367188 19.007812 C 12.746094 18.992188 13.097656 18.953125 13.398438 18.910156 C 14 18.820312 14.394531 18.710938 14.394531 18.710938 "/>
</g>
</svg>
