<?xml version="1.0" encoding="UTF-8"?><svg xmlns="http://www.w3.org/2000/svg" xmlns:xlink="http://www.w3.org/1999/xlink" contentScriptType="text/ecmascript" width="30pt" zoomAndPan="magnify" contentStyleType="text/css" viewBox="0 0 30 30.000001" height="30.000001pt" preserveAspectRatio="xMidYMid meet" version="1.2"><defs><clipPath xml:id="clip1" id="clip1"><path d="M 0.484375 0 L 29.515625 0 L 29.515625 29.03125 L 0.484375 29.03125 Z M 0.484375 0 "/></clipPath></defs><g xml:id="surface1" id="surface1"><g clip-rule="nonzero" clip-path="url(#clip1)"><path style=" stroke:none;fill-rule:nonzero;fill:rgb(89.7995%,66.668701%,9.01947%);fill-opacity:1;" d="M 29.515625 14.515625 C 29.515625 6.5 23.015625 0 15 0 C 6.984375 0 0.484375 6.5 0.484375 14.515625 C 0.484375 22.53125 6.984375 29.03125 15 29.03125 C 23.015625 29.03125 29.515625 22.53125 29.515625 14.515625 Z M 29.515625 14.515625 "/></g><path style=" stroke:none;fill-rule:nonzero;fill:rgb(100%,100%,100%);fill-opacity:1;" d="M 14.984375 7.332031 C 14.785156 7.21875 14.539062 7.230469 14.351562 7.355469 L 8.785156 10.96875 L 6.726562 10.96875 C 6.386719 10.96875 6.105469 11.246094 6.105469 11.589844 L 6.105469 17.015625 C 6.105469 17.355469 6.382812 17.632812 6.726562 17.632812 L 8.785156 17.632812 L 14.351562 21.25 C 14.449219 21.316406 14.574219 21.351562 14.691406 21.351562 C 14.789062 21.351562 14.894531 21.328125 14.984375 21.273438 C 15.179688 21.164062 15.304688 20.957031 15.304688 20.730469 L 15.304688 7.875 C 15.304688 7.648438 15.179688 7.4375 14.984375 7.332031 Z M 17.023438 18.683594 C 17.078125 18.683594 17.128906 18.671875 17.183594 18.652344 C 18.597656 18.101562 19.550781 16.398438 19.550781 14.417969 C 19.550781 12.660156 18.78125 11.082031 17.585938 10.378906 C 17.382812 10.257812 17.113281 10.328125 16.988281 10.539062 C 16.867188 10.742188 16.9375 11.011719 17.148438 11.132812 C 18.082031 11.683594 18.6875 12.972656 18.6875 14.421875 C 18.6875 16.027344 17.9375 17.429688 16.867188 17.84375 C 16.644531 17.933594 16.53125 18.183594 16.621094 18.40625 C 16.691406 18.578125 16.855469 18.683594 17.023438 18.683594 Z M 17.023438 18.683594 "/><path style=" stroke:none;fill-rule:nonzero;fill:rgb(100%,100%,100%);fill-opacity:1;" d="M 18.160156 20.488281 C 18.210938 20.488281 18.265625 20.476562 18.316406 20.460938 C 20.308594 19.6875 21.699219 17.183594 21.699219 14.375 C 21.699219 11.847656 20.59375 9.566406 18.886719 8.566406 C 18.679688 8.441406 18.410156 8.511719 18.289062 8.722656 C 18.164062 8.929688 18.234375 9.199219 18.445312 9.320312 C 19.898438 10.167969 20.832031 12.160156 20.832031 14.382812 C 20.832031 16.839844 19.667969 19.007812 18 19.660156 C 17.777344 19.746094 17.667969 20 17.753906 20.222656 C 17.820312 20.382812 17.984375 20.488281 18.160156 20.488281 Z M 18.160156 20.488281 "/><path style=" stroke:none;fill-rule:nonzero;fill:rgb(100%,100%,100%);fill-opacity:1;" d="M 19.328125 22.214844 C 19.152344 22.214844 18.992188 22.109375 18.921875 21.933594 C 18.832031 21.707031 18.945312 21.457031 19.171875 21.367188 C 21.441406 20.484375 23.023438 17.597656 23.023438 14.347656 C 23.023438 11.414062 21.757812 8.777344 19.796875 7.628906 C 19.585938 7.507812 19.515625 7.238281 19.640625 7.027344 C 19.761719 6.816406 20.03125 6.746094 20.242188 6.867188 C 22.460938 8.167969 23.898438 11.105469 23.898438 14.339844 C 23.898438 17.949219 22.085938 21.175781 19.488281 22.179688 C 19.433594 22.210938 19.382812 22.214844 19.328125 22.214844 Z M 19.328125 22.214844 "/></g></svg>