<svg width="77" height="56" viewBox="0 0 77 56" fill="none" xmlns="http://www.w3.org/2000/svg">
<path d="M28.7486 11.554C20.2912 11.517 14.5852 17.0568 14.6222 24.7386C14.5852 31.8295 19.5341 36.9446 26.2372 36.9446C30.392 36.9446 34.0852 34.9318 35.7656 31.608H36.0241C36.0057 39.1051 33.402 43.6662 28.4716 43.6662C25.5724 43.6662 23.4858 42.0781 22.8764 39.3267H14.9915C15.7301 45.6974 20.9006 50.517 28.4716 50.517C37.8338 50.517 43.8352 42.946 43.8537 30.1122C43.8352 16.2812 36.5227 11.5724 28.7486 11.554ZM28.804 17.8324C32.4787 17.8324 35.1932 20.8239 35.2301 24.4801C35.1932 28.1548 32.3864 31.1463 28.7301 31.1463C25.0369 31.1463 22.3409 28.2656 22.3778 24.517C22.3409 20.7315 25.0923 17.8324 28.804 17.8324ZM58.9167 11.554C50.4593 11.517 44.7534 17.0568 44.7903 24.7386C44.7534 31.8295 49.7022 36.9446 56.4053 36.9446C60.5602 36.9446 64.2534 34.9318 65.9338 31.608H66.1923C66.1738 39.1051 63.5701 43.6662 58.6397 43.6662C55.7406 43.6662 53.6539 42.0781 53.0445 39.3267H45.1596C45.8982 45.6974 51.0687 50.517 58.6397 50.517C68.0019 50.517 74.0034 42.946 74.0218 30.1122C74.0034 16.2812 66.6909 11.5724 58.9167 11.554ZM58.9721 17.8324C62.6468 17.8324 65.3613 20.8239 65.3982 24.4801C65.3613 28.1548 62.5545 31.1463 58.8982 31.1463C55.2051 31.1463 52.509 28.2656 52.546 24.517C52.509 20.7315 55.2605 17.8324 58.9721 17.8324Z" fill="black"/>
<path d="M3.60742 22.0909H4.40856L4.41282 21.1321C6.21538 21 7.24663 19.9688 7.24663 18.5881C7.24663 17.0156 5.84464 16.4062 4.73668 16.1335L4.4256 16.0526L4.43413 13.3168C5.231 13.4233 5.77646 13.8665 5.85742 14.5653H7.12731C7.09322 13.2656 6.01935 12.294 4.43839 12.1662L4.44265 11.1818H3.64151L3.63725 12.1747C2.10742 12.3281 0.986683 13.2827 0.986683 14.6591C0.986683 15.8736 1.856 16.5852 3.25799 16.9645L3.62447 17.0625L3.61594 19.9645C2.78498 19.8622 2.14151 19.4105 2.07333 18.5881H0.752308C0.833274 20.0582 1.89435 21.0043 3.61168 21.1321L3.60742 22.0909ZM4.41708 19.9645L4.4256 17.2841C5.29066 17.5227 5.94265 17.8381 5.94265 18.5753C5.94265 19.321 5.32049 19.8452 4.41708 19.9645ZM3.62873 15.8395C2.99379 15.652 2.29492 15.3153 2.29918 14.5824C2.29918 13.9432 2.80629 13.4446 3.63299 13.321L3.62873 15.8395Z" fill="#363636"/>
</svg>
