<?xml version="1.0" encoding="UTF-8"?><svg xmlns="http://www.w3.org/2000/svg" xmlns:xlink="http://www.w3.org/1999/xlink" width="30" zoomAndPan="magnify" viewBox="0 0 30 30.000001" height="30.000001" preserveAspectRatio="xMidYMid meet" version="1.0"><defs><clipPath id="clip-0"><path d="M 9 4 L 26.613281 4 L 26.613281 28.628906 L 9 28.628906 Z M 9 4 " clip-rule="nonzero"/></clipPath><clipPath id="clip-1"><path d="M 3.386719 0.324219 L 21 0.324219 L 21 27 L 3.386719 27 Z M 3.386719 0.324219 " clip-rule="nonzero"/></clipPath></defs><g clip-path="url(#clip-0)"><path fill="rgb(0%, 0%, 0%)" d="M 24.613281 28.640625 L 11.777344 28.640625 C 11.519531 28.640625 11.269531 28.589844 11.03125 28.492188 C 10.792969 28.394531 10.585938 28.253906 10.402344 28.070312 C 10.21875 27.890625 10.078125 27.679688 9.980469 27.441406 C 9.878906 27.203125 9.832031 26.957031 9.832031 26.699219 L 9.832031 6.339844 C 9.832031 6.082031 9.878906 5.835938 9.980469 5.597656 C 10.078125 5.359375 10.21875 5.148438 10.402344 4.96875 C 10.585938 4.785156 10.792969 4.644531 11.03125 4.546875 C 11.269531 4.449219 11.519531 4.398438 11.777344 4.398438 L 24.613281 4.398438 C 24.871094 4.398438 25.121094 4.449219 25.359375 4.546875 C 25.597656 4.644531 25.808594 4.785156 25.988281 4.96875 C 26.171875 5.148438 26.3125 5.359375 26.410156 5.597656 C 26.511719 5.835938 26.558594 6.082031 26.558594 6.339844 L 26.558594 26.699219 C 26.558594 26.957031 26.511719 27.203125 26.410156 27.441406 C 26.3125 27.679688 26.171875 27.890625 25.988281 28.070312 C 25.808594 28.253906 25.597656 28.394531 25.359375 28.492188 C 25.121094 28.589844 24.871094 28.640625 24.613281 28.640625 Z M 11.777344 5.261719 C 11.632812 5.261719 11.496094 5.289062 11.363281 5.34375 C 11.230469 5.398438 11.113281 5.476562 11.011719 5.578125 C 10.910156 5.675781 10.832031 5.792969 10.777344 5.925781 C 10.722656 6.058594 10.695312 6.195312 10.695312 6.339844 L 10.695312 26.699219 C 10.695312 26.84375 10.722656 26.980469 10.777344 27.113281 C 10.832031 27.242188 10.910156 27.359375 11.011719 27.460938 C 11.113281 27.5625 11.230469 27.640625 11.363281 27.695312 C 11.496094 27.75 11.632812 27.777344 11.777344 27.777344 L 24.613281 27.777344 C 24.757812 27.777344 24.894531 27.75 25.027344 27.695312 C 25.160156 27.640625 25.277344 27.5625 25.378906 27.460938 C 25.480469 27.359375 25.558594 27.242188 25.613281 27.113281 C 25.667969 26.980469 25.695312 26.84375 25.695312 26.699219 L 25.695312 6.339844 C 25.695312 6.195312 25.667969 6.058594 25.613281 5.925781 C 25.558594 5.792969 25.480469 5.675781 25.378906 5.578125 C 25.277344 5.476562 25.160156 5.398438 25.027344 5.34375 C 24.894531 5.289062 24.757812 5.261719 24.613281 5.261719 Z M 11.777344 5.261719 " fill-opacity="1" fill-rule="nonzero"/></g><path fill="rgb(0%, 0%, 0%)" d="M 18.195312 20.226562 C 18.039062 20.226562 17.917969 20.160156 17.832031 20.03125 L 15.679688 16.753906 C 15.578125 16.597656 15.578125 16.441406 15.679688 16.28125 L 17.835938 12.976562 C 17.875 12.914062 17.925781 12.867188 17.992188 12.832031 C 18.054688 12.796875 18.125 12.777344 18.199219 12.777344 C 18.269531 12.777344 18.339844 12.796875 18.40625 12.832031 C 18.46875 12.867188 18.519531 12.914062 18.5625 12.976562 L 20.714844 16.28125 C 20.820312 16.441406 20.820312 16.597656 20.714844 16.753906 L 18.554688 20.03125 C 18.46875 20.160156 18.351562 20.226562 18.195312 20.226562 Z M 16.558594 16.515625 L 18.195312 19.007812 L 19.835938 16.515625 L 18.195312 14 Z M 16.558594 16.515625 " fill-opacity="1" fill-rule="nonzero"/><path fill="rgb(0%, 0%, 0%)" d="M 23.390625 10.234375 C 23.234375 10.238281 23.113281 10.171875 23.027344 10.042969 L 21.839844 8.238281 C 21.738281 8.082031 21.738281 7.921875 21.839844 7.765625 L 23.027344 5.945312 C 23.066406 5.886719 23.117188 5.835938 23.183594 5.800781 C 23.246094 5.765625 23.316406 5.75 23.390625 5.75 C 23.460938 5.75 23.53125 5.765625 23.597656 5.800781 C 23.660156 5.835938 23.710938 5.886719 23.753906 5.945312 L 24.9375 7.765625 C 25.039062 7.921875 25.039062 8.078125 24.9375 8.238281 L 23.75 10.039062 C 23.664062 10.171875 23.546875 10.234375 23.390625 10.234375 Z M 22.71875 8 L 23.390625 9.019531 L 24.058594 8 L 23.390625 6.972656 Z M 22.71875 8 " fill-opacity="1" fill-rule="nonzero"/><path fill="rgb(0%, 0%, 0%)" d="M 13.003906 27.289062 C 12.847656 27.289062 12.726562 27.222656 12.640625 27.09375 L 11.453125 25.289062 C 11.351562 25.132812 11.351562 24.976562 11.453125 24.820312 L 12.640625 23 C 12.679688 22.9375 12.730469 22.886719 12.796875 22.851562 C 12.859375 22.816406 12.929688 22.800781 13.003906 22.800781 C 13.074219 22.800781 13.144531 22.816406 13.210938 22.851562 C 13.273438 22.886719 13.324219 22.9375 13.367188 23 L 14.550781 24.816406 C 14.65625 24.976562 14.65625 25.132812 14.550781 25.289062 L 13.367188 27.09375 C 13.28125 27.222656 13.160156 27.289062 13.003906 27.289062 Z M 12.332031 25.050781 L 13.003906 26.070312 L 13.671875 25.050781 L 13.003906 24.023438 Z M 12.332031 25.050781 " fill-opacity="1" fill-rule="nonzero"/><g clip-path="url(#clip-1)"><path fill="rgb(0%, 0%, 0%)" d="M 9.347656 26.761719 C 9.113281 26.761719 8.886719 26.722656 8.664062 26.644531 C 8.445312 26.566406 8.246094 26.449219 8.0625 26.300781 C 7.882812 26.152344 7.734375 25.980469 7.613281 25.777344 C 7.496094 25.578125 7.414062 25.363281 7.367188 25.132812 L 3.546875 5.269531 C 3.496094 5.007812 3.5 4.746094 3.554688 4.488281 C 3.605469 4.226562 3.707031 3.984375 3.859375 3.765625 C 4.007812 3.542969 4.195312 3.359375 4.417969 3.214844 C 4.640625 3.066406 4.882812 2.96875 5.144531 2.917969 L 17.621094 0.53125 C 17.882812 0.484375 18.144531 0.484375 18.40625 0.539062 C 18.667969 0.59375 18.910156 0.695312 19.128906 0.84375 C 19.351562 0.992188 19.535156 1.179688 19.683594 1.402344 C 19.828125 1.625 19.925781 1.867188 19.976562 2.128906 L 20.484375 4.75 C 20.507812 4.882812 20.476562 5 20.390625 5.105469 C 20.304688 5.207031 20.195312 5.261719 20.058594 5.261719 L 11.84375 5.261719 C 11.691406 5.261719 11.546875 5.289062 11.40625 5.347656 C 11.265625 5.40625 11.140625 5.488281 11.03125 5.597656 C 10.925781 5.703125 10.839844 5.828125 10.78125 5.96875 C 10.722656 6.109375 10.695312 6.253906 10.695312 6.40625 L 10.695312 26.1875 C 10.695312 26.289062 10.660156 26.382812 10.597656 26.460938 C 10.53125 26.539062 10.445312 26.589844 10.34375 26.609375 L 9.726562 26.726562 C 9.601562 26.75 9.472656 26.761719 9.347656 26.761719 Z M 10.261719 26.1875 Z M 18 1.359375 C 17.925781 1.359375 17.855469 1.363281 17.78125 1.378906 L 5.308594 3.765625 C 5.160156 3.792969 5.019531 3.851562 4.894531 3.933594 C 4.765625 4.015625 4.660156 4.121094 4.574219 4.25 C 4.488281 4.375 4.429688 4.511719 4.398438 4.660156 C 4.367188 4.808594 4.367188 4.957031 4.398438 5.109375 L 8.21875 24.972656 C 8.246094 25.121094 8.304688 25.257812 8.386719 25.386719 C 8.46875 25.511719 8.574219 25.617188 8.703125 25.703125 C 8.828125 25.789062 8.964844 25.847656 9.113281 25.878906 C 9.265625 25.910156 9.414062 25.910156 9.5625 25.882812 L 9.832031 25.828125 L 9.832031 6.40625 C 9.832031 6.140625 9.882812 5.882812 9.984375 5.636719 C 10.085938 5.394531 10.234375 5.175781 10.421875 4.988281 C 10.609375 4.800781 10.828125 4.652344 11.074219 4.550781 C 11.320312 4.449219 11.578125 4.398438 11.84375 4.398438 L 19.535156 4.398438 L 19.128906 2.289062 C 19.078125 2.019531 18.945312 1.796875 18.730469 1.621094 C 18.519531 1.445312 18.277344 1.359375 18 1.359375 Z M 18 1.359375 " fill-opacity="1" fill-rule="nonzero"/></g></svg>