<?xml version="1.0" encoding="UTF-8"?><svg xmlns="http://www.w3.org/2000/svg" xmlns:xlink="http://www.w3.org/1999/xlink" width="30" zoomAndPan="magnify" viewBox="0 0 30 30.000001" height="30.000001" preserveAspectRatio="xMidYMid meet" version="1.0"><defs><clipPath id="clip-0"><path d="M 0.960938 5 L 29.269531 5 L 29.269531 24.460938 L 0.960938 24.460938 Z M 0.960938 5 " clip-rule="nonzero"/></clipPath></defs><g clip-path="url(#clip-0)"><path fill="rgb(99.609375%, 66.668701%, 20.779419%)" d="M 26.941406 17.394531 C 27.953125 16.371094 28.839844 16.703125 28.917969 18.160156 L 29.175781 23.042969 C 29.207031 23.765625 28.660156 24.320312 27.945312 24.277344 L 23.089844 24.019531 C 21.652344 23.945312 21.3125 23.054688 22.328125 22.023438 L 23.714844 20.636719 L 16.347656 13.222656 L 12.664062 16.921875 C 12.152344 17.4375 11.328125 17.4375 10.816406 16.921875 L 1.152344 7.199219 C 0.898438 6.945312 0.894531 6.523438 1.152344 6.261719 L 2.066406 5.339844 C 2.332031 5.074219 2.738281 5.089844 2.996094 5.339844 L 11.742188 14.152344 L 15.425781 10.4375 C 15.933594 9.929688 16.761719 9.929688 17.261719 10.4375 L 25.550781 18.789062 Z M 26.941406 17.394531 " fill-opacity="1" fill-rule="evenodd"/></g></svg>