<?xml version="1.0" encoding="UTF-8"?><svg xmlns="http://www.w3.org/2000/svg" xmlns:xlink="http://www.w3.org/1999/xlink" width="30" zoomAndPan="magnify" viewBox="0 0 30 30.000001" height="30.000001" preserveAspectRatio="xMidYMid meet" version="1.0"><defs><clipPath id="clip-0"><path d="M 6.074219 5.589844 L 24.21875 5.589844 L 24.21875 23.734375 L 6.074219 23.734375 Z M 6.074219 5.589844 " clip-rule="nonzero"/></clipPath></defs><g clip-path="url(#clip-0)"><path fill="rgb(0%, 0%, 0%)" d="M 15.144531 5.738281 C 10.136719 5.738281 6.074219 9.800781 6.074219 14.8125 C 6.074219 19.0625 9 22.621094 12.945312 23.605469 C 12.902344 23.484375 12.878906 23.339844 12.878906 23.164062 L 12.878906 21.613281 C 12.507812 21.613281 11.890625 21.613281 11.738281 21.613281 C 11.117188 21.613281 10.5625 21.347656 10.296875 20.851562 C 10 20.300781 9.949219 19.457031 9.210938 18.941406 C 8.992188 18.769531 9.160156 18.574219 9.410156 18.601562 C 9.875 18.730469 10.261719 19.050781 10.625 19.523438 C 10.984375 20 11.15625 20.105469 11.832031 20.105469 C 12.160156 20.105469 12.648438 20.085938 13.109375 20.015625 C 13.359375 19.382812 13.785156 18.804688 14.308594 18.53125 C 11.289062 18.21875 9.847656 16.71875 9.847656 14.675781 C 9.847656 13.796875 10.222656 12.949219 10.859375 12.230469 C 10.648438 11.519531 10.386719 10.070312 10.9375 9.519531 C 12.296875 9.519531 13.117188 10.402344 13.316406 10.640625 C 13.992188 10.40625 14.738281 10.277344 15.519531 10.277344 C 16.300781 10.277344 17.050781 10.40625 17.730469 10.640625 C 17.921875 10.40625 18.746094 9.519531 20.109375 9.519531 C 20.660156 10.074219 20.398438 11.527344 20.1875 12.238281 C 20.816406 12.953125 21.191406 13.800781 21.191406 14.675781 C 21.191406 16.714844 19.75 18.21875 16.734375 18.53125 C 17.5625 18.964844 18.167969 20.179688 18.167969 21.097656 L 18.167969 23.164062 C 18.167969 23.242188 18.152344 23.300781 18.144531 23.367188 C 21.679688 22.128906 24.21875 18.769531 24.21875 14.8125 C 24.21875 9.800781 20.15625 5.738281 15.144531 5.738281 Z M 15.144531 5.738281 " fill-opacity="1" fill-rule="nonzero"/></g></svg>