<?xml version="1.0" encoding="UTF-8"?><svg xmlns="http://www.w3.org/2000/svg" xmlns:xlink="http://www.w3.org/1999/xlink" width="30" zoomAndPan="magnify" viewBox="0 0 30 30.000001" height="30.000001" preserveAspectRatio="xMidYMid meet" version="1.0"><defs><clipPath id="clip-0"><path d="M 1.410156 10 L 28.265625 10 L 28.265625 29.03125 L 1.410156 29.03125 Z M 1.410156 10 " clip-rule="nonzero"/></clipPath></defs><path fill="rgb(0%, 50.19989%, 21.569824%)" d="M 14.523438 2.203125 C 14.523438 2.492188 14.46875 2.769531 14.359375 3.039062 C 14.25 3.304688 14.09375 3.542969 13.890625 3.746094 C 13.691406 3.953125 13.457031 4.109375 13.191406 4.21875 C 12.929688 4.332031 12.652344 4.386719 12.367188 4.386719 C 12.082031 4.386719 11.804688 4.332031 11.542969 4.21875 C 11.277344 4.109375 11.042969 3.953125 10.84375 3.746094 C 10.640625 3.542969 10.484375 3.304688 10.375 3.039062 C 10.265625 2.769531 10.210938 2.492188 10.210938 2.203125 C 10.210938 1.914062 10.265625 1.636719 10.375 1.367188 C 10.484375 1.101562 10.640625 0.867188 10.84375 0.660156 C 11.042969 0.457031 11.277344 0.296875 11.542969 0.1875 C 11.804688 0.078125 12.082031 0.0234375 12.367188 0.0234375 C 12.652344 0.0234375 12.929688 0.078125 13.191406 0.1875 C 13.457031 0.296875 13.691406 0.457031 13.890625 0.660156 C 14.09375 0.867188 14.25 1.101562 14.359375 1.367188 C 14.46875 1.636719 14.523438 1.914062 14.523438 2.203125 Z M 14.523438 2.203125 " fill-opacity="1" fill-rule="nonzero"/><path fill="rgb(0%, 50.19989%, 21.569824%)" d="M 13.808594 9.265625 C 13.910156 9.398438 14.050781 9.496094 14.207031 9.546875 L 17.363281 10.558594 C 17.449219 10.582031 17.53125 10.597656 17.613281 10.597656 C 17.964844 10.597656 18.289062 10.371094 18.398438 10.015625 C 18.535156 9.574219 18.296875 9.105469 17.863281 8.96875 L 14.949219 8.035156 C 14.652344 7.65625 14.359375 7.277344 14.066406 6.894531 C 13.601562 6.296875 13.167969 5.589844 12.605469 5.085938 C 12.21875 4.738281 11.792969 4.554688 11.269531 4.617188 C 11.027344 4.648438 10.597656 4.699219 10.414062 4.882812 L 6.9375 7.523438 C 6.773438 7.644531 6.664062 7.824219 6.625 8.023438 L 5.878906 11.792969 C 5.789062 12.242188 6.078125 12.683594 6.527344 12.773438 C 6.582031 12.785156 6.632812 12.789062 6.6875 12.789062 C 7.074219 12.789062 7.417969 12.515625 7.496094 12.117188 L 8.175781 8.664062 L 9.78125 7.445312 L 9.617188 12.507812 C 9.605469 12.855469 9.699219 13.183594 9.871094 13.453125 C 9.046875 16.957031 7.964844 21.5 7.785156 22.082031 C 7.582031 22.570312 7.75 23.148438 8.207031 23.441406 C 8.390625 23.5625 8.59375 23.617188 8.796875 23.617188 C 9.160156 23.617188 9.511719 23.4375 9.722656 23.105469 C 9.976562 22.707031 10.042969 22.128906 10.15625 21.683594 C 10.394531 20.753906 10.621094 19.820312 10.84375 18.886719 C 11.027344 18.128906 11.207031 17.367188 11.386719 16.609375 C 11.496094 16.152344 11.601562 15.691406 11.710938 15.234375 C 11.773438 14.976562 11.851562 13.894531 12.21875 14.039062 C 12.964844 14.332031 13.714844 14.621094 14.460938 14.910156 L 14.203125 18.066406 C 14.152344 18.679688 14.605469 19.214844 15.207031 19.265625 C 15.238281 19.269531 15.269531 19.269531 15.300781 19.269531 C 15.867188 19.269531 16.347656 18.828125 16.394531 18.25 L 16.71875 14.265625 C 16.757812 13.773438 16.472656 13.3125 16.015625 13.136719 L 12.933594 11.9375 L 13.050781 8.289062 Z M 13.808594 9.265625 " fill-opacity="1" fill-rule="nonzero"/><g clip-path="url(#clip-0)"><path fill="rgb(0%, 50.19989%, 21.569824%)" d="M 1.886719 29.011719 L 7.675781 29.011719 C 7.9375 29.011719 8.152344 28.792969 8.152344 28.527344 L 8.152344 24.730469 L 12.789062 24.730469 C 13.050781 24.730469 13.265625 24.515625 13.265625 24.25 L 13.265625 20.453125 L 17.902344 20.453125 C 18.167969 20.453125 18.378906 20.238281 18.378906 19.972656 L 18.378906 16.175781 L 23.015625 16.175781 C 23.28125 16.175781 23.496094 15.960938 23.496094 15.691406 L 23.496094 11.898438 L 27.78125 11.898438 C 28.046875 11.898438 28.261719 11.679688 28.261719 11.414062 C 28.261719 11.148438 28.046875 10.929688 27.78125 10.929688 L 23.015625 10.929688 C 22.753906 10.929688 22.539062 11.148438 22.539062 11.414062 L 22.539062 15.210938 L 17.902344 15.210938 C 17.640625 15.210938 17.425781 15.425781 17.425781 15.691406 L 17.425781 19.488281 L 12.789062 19.488281 C 12.523438 19.488281 12.3125 19.703125 12.3125 19.972656 L 12.3125 23.765625 L 7.675781 23.765625 C 7.410156 23.765625 7.195312 23.980469 7.195312 24.25 L 7.195312 28.042969 L 1.886719 28.042969 C 1.625 28.042969 1.410156 28.261719 1.410156 28.527344 C 1.410156 28.792969 1.625 29.011719 1.886719 29.011719 Z M 1.886719 29.011719 " fill-opacity="1" fill-rule="nonzero"/></g></svg>