<?xml version="1.0" encoding="UTF-8"?><svg xmlns="http://www.w3.org/2000/svg" xmlns:xlink="http://www.w3.org/1999/xlink" width="30" zoomAndPan="magnify" viewBox="0 0 30 30.000001" height="30.000001" preserveAspectRatio="xMidYMid meet" version="1.0"><defs><clipPath id="clip-0"><path d="M 7 6 L 23 6 L 23 28.160156 L 7 28.160156 Z M 7 6 " clip-rule="nonzero"/></clipPath><clipPath id="clip-1"><path d="M 0.484375 0.582031 L 29.515625 0.582031 L 29.515625 9 L 0.484375 9 Z M 0.484375 0.582031 " clip-rule="nonzero"/></clipPath></defs><path fill="rgb(13.729858%, 12.159729%, 12.548828%)" d="M 15 11.851562 C 13.519531 11.851562 12.324219 10.664062 12.324219 9.199219 C 12.324219 7.738281 13.519531 6.550781 15 6.550781 C 16.480469 6.550781 17.675781 7.738281 17.675781 9.199219 C 17.675781 10.664062 16.480469 11.851562 15 11.851562 " fill-opacity="1" fill-rule="nonzero"/><g clip-path="url(#clip-0)"><path fill="rgb(13.729858%, 12.159729%, 12.548828%)" d="M 16.789062 28.15625 C 16.21875 28.15625 15.753906 27.628906 15.753906 26.976562 L 15.753906 21.179688 C 15.578125 20.953125 15.300781 20.800781 14.921875 20.800781 C 14.648438 20.800781 14.429688 20.882812 14.261719 21.011719 L 14.261719 26.976562 C 14.261719 27.628906 13.800781 28.15625 13.226562 28.15625 C 12.65625 28.15625 12.195312 27.628906 12.195312 26.976562 L 12.195312 20.617188 C 12.195312 20.609375 12.195312 20.597656 12.195312 20.589844 C 12.183594 20.511719 12.175781 20.4375 12.175781 20.359375 L 12.175781 14.324219 C 12.105469 14.339844 12.03125 14.347656 11.960938 14.347656 C 11.546875 14.347656 11.125 14.082031 10.910156 13.640625 L 8.113281 7.917969 C 7.828125 7.332031 8.011719 6.65625 8.527344 6.410156 C 8.65625 6.347656 8.789062 6.320312 8.925781 6.320312 C 9.339844 6.320312 9.761719 6.585938 9.976562 7.027344 L 12.675781 12.546875 C 12.972656 12.257812 13.378906 12.082031 13.828125 12.082031 L 16.171875 12.082031 C 16.691406 12.082031 17.15625 12.320312 17.457031 12.691406 L 20.222656 7.027344 C 20.441406 6.585938 20.859375 6.320312 21.273438 6.320312 C 21.410156 6.320312 21.546875 6.347656 21.675781 6.410156 C 22.1875 6.65625 22.375 7.332031 22.085938 7.917969 L 19.289062 13.640625 C 19.074219 14.082031 18.65625 14.347656 18.242188 14.347656 C 18.105469 14.347656 17.96875 14.320312 17.839844 14.257812 L 17.824219 14.25 L 17.824219 20.359375 C 17.824219 20.402344 17.820312 20.445312 17.816406 20.488281 C 17.820312 20.53125 17.824219 20.574219 17.824219 20.617188 L 17.824219 26.976562 C 17.824219 27.628906 17.359375 28.15625 16.789062 28.15625 " fill-opacity="1" fill-rule="nonzero"/></g><g clip-path="url(#clip-1)"><path fill="rgb(13.729858%, 12.159729%, 12.548828%)" d="M 24.179688 8.460938 L 23.980469 8.460938 C 23.597656 8.460938 23.257812 8.214844 23.039062 7.835938 C 23.023438 7.804688 23.003906 7.777344 22.992188 7.75 C 22.980469 7.730469 22.972656 7.707031 22.964844 7.6875 C 22.953125 7.667969 22.941406 7.644531 22.933594 7.621094 C 22.925781 7.601562 22.917969 7.582031 22.910156 7.558594 C 22.902344 7.535156 22.894531 7.511719 22.882812 7.488281 C 22.878906 7.46875 22.871094 7.445312 22.863281 7.425781 C 22.859375 7.398438 22.851562 7.375 22.84375 7.347656 C 22.839844 7.324219 22.835938 7.304688 22.828125 7.28125 C 22.824219 7.253906 22.816406 7.226562 22.8125 7.199219 C 22.808594 7.175781 22.804688 7.15625 22.804688 7.136719 C 22.796875 7.101562 22.792969 7.070312 22.792969 7.035156 C 22.789062 7.019531 22.789062 7 22.785156 6.984375 C 22.78125 6.933594 22.78125 6.878906 22.78125 6.828125 L 22.78125 5.097656 L 7.042969 5.097656 L 7.042969 6.828125 C 7.042969 6.878906 7.042969 6.933594 7.039062 6.984375 C 7.039062 7 7.035156 7.019531 7.035156 7.035156 C 7.03125 7.070312 7.027344 7.101562 7.023438 7.136719 C 7.019531 7.15625 7.015625 7.175781 7.011719 7.195312 C 7.007812 7.226562 7.003906 7.253906 6.996094 7.285156 C 6.992188 7.304688 6.988281 7.324219 6.980469 7.347656 C 6.972656 7.375 6.96875 7.398438 6.960938 7.425781 C 6.953125 7.445312 6.949219 7.46875 6.941406 7.488281 C 6.933594 7.511719 6.925781 7.539062 6.914062 7.5625 C 6.90625 7.582031 6.898438 7.601562 6.890625 7.621094 C 6.882812 7.648438 6.871094 7.671875 6.859375 7.695312 C 6.851562 7.710938 6.84375 7.730469 6.835938 7.746094 C 6.816406 7.785156 6.792969 7.824219 6.773438 7.859375 C 6.550781 8.226562 6.21875 8.460938 5.84375 8.460938 L 5.648438 8.460938 C 4.984375 8.460938 4.445312 7.730469 4.445312 6.828125 L 4.445312 5.097656 L 4.359375 5.097656 L 4.359375 6.066406 C 4.359375 6.144531 4.351562 6.21875 4.335938 6.289062 C 4.320312 6.359375 4.296875 6.429688 4.265625 6.492188 C 4.25 6.527344 4.234375 6.558594 4.214844 6.589844 C 4.011719 6.929688 3.617188 7.164062 3.160156 7.164062 L 2.964844 7.164062 C 2.933594 7.164062 2.898438 7.160156 2.867188 7.160156 C 2.851562 7.15625 2.835938 7.15625 2.824219 7.15625 L 2.820312 7.15625 C 2.226562 7.089844 1.765625 6.628906 1.765625 6.066406 L 1.765625 5.097656 L 1.632812 5.097656 C 1.59375 5.097656 1.558594 5.097656 1.523438 5.097656 C 1.515625 5.09375 1.503906 5.09375 1.492188 5.09375 C 1.46875 5.09375 1.445312 5.089844 1.421875 5.089844 C 1.410156 5.085938 1.394531 5.085938 1.382812 5.085938 C 1.359375 5.082031 1.339844 5.078125 1.316406 5.074219 C 1.304688 5.074219 1.292969 5.074219 1.285156 5.070312 C 1.253906 5.066406 1.222656 5.0625 1.195312 5.054688 C 1.179688 5.050781 1.167969 5.046875 1.152344 5.046875 C 1.136719 5.042969 1.121094 5.039062 1.105469 5.035156 C 1.089844 5.03125 1.074219 5.027344 1.058594 5.019531 C 1.046875 5.019531 1.035156 5.015625 1.023438 5.011719 C 1.007812 5.003906 0.992188 5 0.972656 4.992188 L 0.957031 4.988281 C 0.894531 4.964844 0.835938 4.9375 0.785156 4.910156 L 0.777344 4.90625 C 0.636719 4.828125 0.542969 4.730469 0.503906 4.625 C 0.5 4.605469 0.492188 4.589844 0.492188 4.574219 C 0.488281 4.558594 0.484375 4.539062 0.484375 4.523438 C 0.484375 4.203125 1 3.945312 1.632812 3.945312 L 1.765625 3.945312 L 1.765625 2.976562 C 1.765625 2.417969 2.226562 1.957031 2.820312 1.890625 L 2.824219 1.890625 C 2.835938 1.886719 2.851562 1.886719 2.867188 1.886719 C 2.898438 1.882812 2.933594 1.882812 2.964844 1.882812 L 3.160156 1.882812 C 3.617188 1.882812 4.011719 2.113281 4.214844 2.453125 C 4.234375 2.484375 4.25 2.519531 4.265625 2.550781 C 4.296875 2.617188 4.320312 2.683594 4.335938 2.757812 C 4.351562 2.828125 4.359375 2.902344 4.359375 2.976562 L 4.359375 3.945312 L 4.445312 3.945312 L 4.445312 2.21875 C 4.445312 1.34375 4.953125 0.628906 5.589844 0.589844 C 5.609375 0.585938 5.628906 0.585938 5.648438 0.585938 L 5.84375 0.585938 C 6.507812 0.585938 7.042969 1.316406 7.042969 2.21875 L 7.042969 3.945312 L 22.78125 3.945312 L 22.78125 2.21875 C 22.78125 1.316406 23.320312 0.585938 23.980469 0.585938 L 24.179688 0.585938 C 24.199219 0.585938 24.214844 0.585938 24.234375 0.589844 C 24.871094 0.628906 25.378906 1.34375 25.378906 2.21875 L 25.378906 3.945312 L 25.464844 3.945312 L 25.464844 2.976562 C 25.464844 2.902344 25.472656 2.828125 25.492188 2.757812 C 25.507812 2.683594 25.53125 2.617188 25.558594 2.550781 C 25.574219 2.519531 25.59375 2.484375 25.609375 2.453125 C 25.8125 2.113281 26.210938 1.882812 26.664062 1.882812 L 26.859375 1.882812 C 26.894531 1.882812 26.925781 1.882812 26.957031 1.886719 C 26.972656 1.886719 26.988281 1.886719 27.003906 1.890625 C 27.597656 1.957031 28.058594 2.417969 28.058594 2.976562 L 28.058594 3.945312 L 28.367188 3.945312 C 28.75 3.945312 29.085938 4.039062 29.292969 4.183594 L 29.300781 4.1875 C 29.316406 4.199219 29.332031 4.210938 29.34375 4.222656 L 29.359375 4.234375 C 29.371094 4.242188 29.382812 4.253906 29.394531 4.265625 L 29.410156 4.28125 C 29.417969 4.292969 29.425781 4.300781 29.433594 4.3125 C 29.441406 4.320312 29.445312 4.324219 29.449219 4.332031 C 29.457031 4.34375 29.460938 4.351562 29.46875 4.359375 C 29.472656 4.371094 29.476562 4.378906 29.480469 4.386719 C 29.484375 4.394531 29.488281 4.402344 29.492188 4.414062 C 29.496094 4.421875 29.5 4.433594 29.503906 4.445312 L 29.507812 4.464844 C 29.511719 4.484375 29.515625 4.503906 29.515625 4.523438 C 29.515625 4.539062 29.511719 4.558594 29.507812 4.574219 C 29.457031 4.867188 28.96875 5.097656 28.367188 5.097656 L 28.058594 5.097656 L 28.058594 6.066406 C 28.058594 6.628906 27.597656 7.089844 27.003906 7.15625 C 26.988281 7.15625 26.972656 7.15625 26.957031 7.160156 C 26.925781 7.160156 26.894531 7.164062 26.859375 7.164062 L 26.664062 7.164062 C 26.210938 7.164062 25.8125 6.929688 25.609375 6.589844 C 25.59375 6.558594 25.574219 6.527344 25.558594 6.492188 C 25.53125 6.429688 25.507812 6.359375 25.492188 6.289062 C 25.472656 6.21875 25.464844 6.144531 25.464844 6.066406 L 25.464844 5.097656 L 25.378906 5.097656 L 25.378906 6.828125 C 25.378906 7.730469 24.84375 8.460938 24.179688 8.460938 " fill-opacity="1" fill-rule="nonzero"/></g></svg>