<?xml version="1.0" encoding="UTF-8"?><svg xmlns="http://www.w3.org/2000/svg" xmlns:xlink="http://www.w3.org/1999/xlink" width="30" zoomAndPan="magnify" viewBox="0 0 30 30.000001" height="30.000001" preserveAspectRatio="xMidYMid meet" version="1.0"><defs><clipPath id="clip-0"><path d="M 0.484375 0 L 29.515625 0 L 29.515625 29 L 0.484375 29 Z M 0.484375 0 " clip-rule="nonzero"/></clipPath><clipPath id="clip-1"><path d="M 17 0 L 29.515625 0 L 29.515625 29 L 17 29 Z M 17 0 " clip-rule="nonzero"/></clipPath><clipPath id="clip-2"><path d="M 0.484375 0 L 29.515625 0 L 29.515625 29.03125 L 0.484375 29.03125 Z M 0.484375 0 " clip-rule="nonzero"/></clipPath></defs><g clip-path="url(#clip-0)"><path fill="rgb(0%, 0%, 0%)" d="M 14.996094 27.3125 C 7.925781 27.3125 2.191406 21.582031 2.191406 14.511719 C 2.191406 7.441406 7.925781 1.707031 14.996094 1.707031 C 22.066406 1.707031 27.796875 7.441406 27.796875 14.511719 C 27.796875 21.582031 22.066406 27.3125 14.996094 27.3125 M 14.996094 0.160156 C 7.066406 0.160156 0.644531 6.585938 0.644531 14.511719 C 0.644531 22.4375 7.066406 28.863281 14.996094 28.863281 C 22.921875 28.863281 29.347656 22.4375 29.347656 14.511719 C 29.347656 6.585938 22.921875 0.160156 14.996094 0.160156 " fill-opacity="1" fill-rule="nonzero"/></g><path fill="rgb(0%, 0%, 0%)" d="M 12.042969 27.136719 C 6.058594 26.0625 1.519531 20.832031 1.519531 14.539062 C 1.519531 8.597656 5.566406 3.601562 11.054688 2.15625 C 7.300781 3.355469 4.289062 6.21875 2.882812 9.875 C 2.320312 11.320312 2.007812 12.894531 2.007812 14.539062 C 2.007812 17.625 3.101562 20.460938 4.925781 22.671875 C 6.710938 24.867188 9.199219 26.472656 12.042969 27.136719 " fill-opacity="1" fill-rule="nonzero"/><g clip-path="url(#clip-1)"><path fill="rgb(0%, 0%, 0%)" d="M 18.660156 28.21875 C 24.464844 26.378906 28.671875 20.953125 28.671875 14.539062 C 28.671875 7.710938 23.90625 2 17.519531 0.546875 C 21.472656 1.261719 24.863281 3.617188 26.953125 6.882812 C 28.351562 9.101562 29.164062 11.722656 29.164062 14.539062 C 29.164062 16.046875 28.929688 17.503906 28.496094 18.871094 C 27.023438 23.421875 23.308594 26.972656 18.660156 28.21875 " fill-opacity="1" fill-rule="nonzero"/></g><g clip-path="url(#clip-2)"><path fill="rgb(0%, 0%, 0%)" d="M 14.996094 1.871094 C 8.027344 1.871094 2.355469 7.542969 2.355469 14.511719 C 2.355469 21.480469 8.027344 27.148438 14.996094 27.148438 C 21.964844 27.148438 27.632812 21.480469 27.632812 14.511719 C 27.632812 7.542969 21.964844 1.871094 14.996094 1.871094 M 14.996094 27.476562 C 7.84375 27.476562 2.027344 21.660156 2.027344 14.511719 C 2.027344 7.359375 7.84375 1.542969 14.996094 1.542969 C 22.144531 1.542969 27.960938 7.359375 27.960938 14.511719 C 27.960938 21.660156 22.144531 27.476562 14.996094 27.476562 M 14.996094 0.324219 C 7.171875 0.324219 0.808594 6.6875 0.808594 14.511719 C 0.808594 22.332031 7.171875 28.699219 14.996094 28.699219 C 22.816406 28.699219 29.183594 22.332031 29.183594 14.511719 C 29.183594 6.6875 22.816406 0.324219 14.996094 0.324219 M 14.996094 29.027344 C 6.992188 29.027344 0.480469 22.515625 0.480469 14.511719 C 0.480469 6.507812 6.992188 -0.00390625 14.996094 -0.00390625 C 23 -0.00390625 29.511719 6.507812 29.511719 14.511719 C 29.511719 22.515625 23 29.027344 14.996094 29.027344 " fill-opacity="1" fill-rule="nonzero"/></g><path fill="rgb(0%, 0%, 0%)" d="M 16.105469 20.078125 C 16.03125 20.855469 15.921875 21.375 15.289062 21.335938 L 14.699219 21.335938 C 14.144531 21.320312 14.011719 20.910156 13.882812 20.078125 L 12.328125 5.375 C 12.328125 4.679688 14.003906 4.113281 14.699219 4.113281 L 15.289062 4.113281 C 15.984375 4.113281 17.660156 4.679688 17.660156 5.375 L 16.105469 20.078125 " fill-opacity="1" fill-rule="nonzero"/><path fill="rgb(0%, 0%, 0%)" d="M 15.460938 21.367188 C 15.441406 21.367188 15.417969 21.367188 15.398438 21.363281 L 15.394531 21.363281 C 15.398438 21.355469 15.402344 21.347656 15.40625 21.335938 C 15.933594 21.304688 16.035156 20.804688 16.105469 20.078125 L 17.660156 5.375 C 17.660156 4.867188 16.773438 4.429688 16.023438 4.230469 C 16.792969 4.414062 17.769531 4.871094 17.769531 5.402344 L 16.214844 20.105469 C 16.140625 20.855469 16.035156 21.367188 15.460938 21.367188 " fill-opacity="1" fill-rule="nonzero"/><path fill="rgb(0%, 0%, 0%)" d="M 15.40625 21.335938 C 15.488281 21.125 15.53125 20.84375 15.5625 20.511719 L 17.117188 5.808594 C 17.117188 5.113281 15.441406 4.550781 14.746094 4.550781 L 14.152344 4.550781 C 13.804688 4.550781 13.203125 4.691406 12.695312 4.925781 C 13.191406 4.464844 14.28125 4.140625 14.804688 4.140625 L 15.398438 4.140625 C 15.5625 4.140625 15.78125 4.171875 16.023438 4.230469 C 16.773438 4.429688 17.660156 4.867188 17.660156 5.375 L 16.105469 20.078125 C 16.035156 20.804688 15.933594 21.304688 15.40625 21.335938 " fill-opacity="1" fill-rule="nonzero"/><path fill="rgb(0%, 0%, 0%)" d="M 15.289062 21.171875 C 15.316406 21.175781 15.335938 21.175781 15.351562 21.175781 C 15.726562 21.175781 15.859375 20.925781 15.941406 20.0625 L 17.496094 5.367188 C 17.484375 4.835938 15.960938 4.277344 15.289062 4.277344 L 14.699219 4.277344 C 14.027344 4.277344 12.507812 4.835938 12.492188 5.367188 L 14.046875 20.058594 C 14.183594 20.941406 14.3125 21.160156 14.703125 21.171875 Z M 15.351562 21.503906 C 15.328125 21.503906 15.304688 21.503906 15.28125 21.5 L 14.699219 21.5 C 13.988281 21.476562 13.847656 20.90625 13.722656 20.101562 L 12.164062 5.390625 L 12.164062 5.375 C 12.164062 4.507812 14.046875 3.949219 14.699219 3.949219 L 15.289062 3.949219 C 15.941406 3.949219 17.824219 4.507812 17.824219 5.375 L 17.824219 5.390625 L 16.269531 20.09375 C 16.210938 20.6875 16.132812 21.503906 15.351562 21.503906 " fill-opacity="1" fill-rule="nonzero"/><path fill="rgb(0%, 0%, 0%)" d="M 16.996094 23.558594 C 16.996094 24.664062 16.097656 25.558594 14.996094 25.558594 C 13.890625 25.558594 12.996094 24.664062 12.996094 23.558594 C 12.996094 22.453125 13.890625 21.558594 14.996094 21.558594 C 16.097656 21.558594 16.996094 22.453125 16.996094 23.558594 " fill-opacity="1" fill-rule="nonzero"/><path fill="rgb(0%, 0%, 0%)" d="M 15.953125 25.394531 C 16.023438 25.332031 16.085938 25.265625 16.144531 25.195312 C 16.660156 24.835938 16.996094 24.234375 16.996094 23.558594 C 16.996094 22.644531 16.378906 21.871094 15.542969 21.636719 C 16.433594 21.835938 17.101562 22.632812 17.101562 23.585938 C 17.101562 24.386719 16.632812 25.074219 15.953125 25.394531 " fill-opacity="1" fill-rule="nonzero"/><path fill="rgb(0%, 0%, 0%)" d="M 16.144531 25.195312 C 16.4375 24.847656 16.613281 24.402344 16.613281 23.914062 C 16.613281 22.808594 15.71875 21.914062 14.613281 21.914062 C 14.308594 21.914062 14.019531 21.984375 13.761719 22.105469 C 14.117188 21.785156 14.585938 21.585938 15.101562 21.585938 C 15.253906 21.585938 15.398438 21.601562 15.542969 21.636719 C 16.378906 21.871094 16.996094 22.644531 16.996094 23.558594 C 16.996094 24.234375 16.660156 24.835938 16.144531 25.195312 " fill-opacity="1" fill-rule="nonzero"/><path fill="rgb(0%, 0%, 0%)" d="M 14.996094 21.722656 C 13.980469 21.722656 13.15625 22.546875 13.15625 23.558594 C 13.15625 24.574219 13.980469 25.394531 14.996094 25.394531 C 16.007812 25.394531 16.832031 24.574219 16.832031 23.558594 C 16.832031 22.546875 16.007812 21.722656 14.996094 21.722656 Z M 14.996094 25.722656 C 13.800781 25.722656 12.832031 24.753906 12.832031 23.558594 C 12.832031 22.367188 13.800781 21.394531 14.996094 21.394531 C 16.1875 21.394531 17.160156 22.367188 17.160156 23.558594 C 17.160156 24.753906 16.1875 25.722656 14.996094 25.722656 " fill-opacity="1" fill-rule="nonzero"/></svg>