<?xml version="1.0" encoding="UTF-8"?><svg xmlns="http://www.w3.org/2000/svg" xmlns:xlink="http://www.w3.org/1999/xlink" width="30" zoomAndPan="magnify" viewBox="0 0 30 30.000001" height="30.000001" preserveAspectRatio="xMidYMid meet" version="1.0"><defs><clipPath id="clip-0"><path d="M 2.84375 3.832031 L 27.519531 3.832031 L 27.519531 24.878906 L 2.84375 24.878906 Z M 2.84375 3.832031 " clip-rule="nonzero"/></clipPath></defs><g clip-path="url(#clip-0)"><path fill="rgb(91.369629%, 28.239441%, 16.859436%)" d="M 15.179688 5.886719 L 25.195312 22.722656 L 5.167969 22.722656 Z M 27 21.804688 L 17.007812 5.003906 C 16.566406 4.257812 15.898438 3.832031 15.179688 3.832031 C 14.460938 3.832031 13.796875 4.257812 13.351562 5.003906 L 3.363281 21.804688 C 2.917969 22.546875 2.871094 23.320312 3.230469 23.925781 C 3.589844 24.53125 4.300781 24.875 5.1875 24.875 L 25.171875 24.875 C 26.058594 24.875 26.773438 24.53125 27.132812 23.925781 C 27.492188 23.320312 27.445312 22.546875 27 21.804688 " fill-opacity="1" fill-rule="nonzero"/></g><path fill="rgb(91.369629%, 28.239441%, 16.859436%)" d="M 15.507812 18.570312 C 15.789062 18.570312 16.035156 18.347656 16.050781 18.074219 L 16.46875 11.058594 C 16.484375 10.785156 16.269531 10.558594 15.984375 10.558594 L 14.359375 10.558594 C 14.078125 10.558594 13.859375 10.785156 13.875 11.058594 L 14.308594 18.074219 C 14.328125 18.347656 14.574219 18.570312 14.855469 18.570312 L 15.507812 18.570312 " fill-opacity="1" fill-rule="nonzero"/><path fill="rgb(91.369629%, 28.239441%, 16.859436%)" d="M 15.179688 19.125 C 14.414062 19.125 13.835938 19.707031 13.835938 20.480469 C 13.835938 21.253906 14.414062 21.835938 15.179688 21.835938 C 15.960938 21.835938 16.527344 21.265625 16.527344 20.480469 C 16.527344 19.679688 15.972656 19.125 15.179688 19.125 " fill-opacity="1" fill-rule="nonzero"/></svg>