<?xml version="1.0" encoding="UTF-8"?><svg xmlns="http://www.w3.org/2000/svg" xmlns:xlink="http://www.w3.org/1999/xlink" width="30" zoomAndPan="magnify" viewBox="0 0 30 30.000001" height="30.000001" preserveAspectRatio="xMidYMid meet" version="1.0"><defs><clipPath id="clip-0"><path d="M 1.355469 0 L 29.515625 0 L 29.515625 29 L 1.355469 29 Z M 1.355469 0 " clip-rule="nonzero"/></clipPath></defs><g clip-path="url(#clip-0)"><path fill="rgb(0%, 0%, 0%)" d="M 25.289062 4.746094 C 24.648438 4.105469 23.953125 3.535156 23.199219 3.035156 C 22.449219 2.53125 21.652344 2.105469 20.816406 1.761719 C 19.980469 1.414062 19.121094 1.152344 18.234375 0.976562 C 17.347656 0.800781 16.449219 0.710938 15.546875 0.710938 C 14.640625 0.710938 13.746094 0.800781 12.859375 0.976562 C 11.96875 1.152344 11.109375 1.414062 10.273438 1.761719 C 9.4375 2.105469 8.644531 2.53125 7.890625 3.035156 C 7.140625 3.535156 6.441406 4.105469 5.804688 4.746094 C 5.164062 5.386719 4.59375 6.082031 4.089844 6.835938 C 3.585938 7.585938 3.164062 8.378906 2.816406 9.214844 C 2.472656 10.050781 2.210938 10.914062 2.03125 11.800781 C 1.855469 12.6875 1.769531 13.582031 1.769531 14.488281 C 1.769531 15.394531 1.855469 16.289062 2.03125 17.175781 C 2.210938 18.0625 2.472656 18.925781 2.816406 19.761719 C 3.164062 20.597656 3.585938 21.390625 4.089844 22.140625 C 4.59375 22.894531 5.164062 23.589844 5.804688 24.230469 C 6.441406 24.871094 7.140625 25.441406 7.890625 25.945312 C 8.644531 26.445312 9.4375 26.871094 10.273438 27.214844 C 11.109375 27.5625 11.96875 27.824219 12.859375 28 C 13.746094 28.175781 14.640625 28.265625 15.546875 28.265625 C 16.449219 28.265625 17.347656 28.175781 18.234375 28 C 19.121094 27.824219 19.980469 27.5625 20.816406 27.214844 C 21.652344 26.871094 22.449219 26.445312 23.199219 25.945312 C 23.953125 25.441406 24.648438 24.871094 25.289062 24.230469 C 25.925781 23.589844 26.496094 22.894531 27 22.140625 C 27.5 21.390625 27.925781 20.597656 28.273438 19.761719 C 28.617188 18.925781 28.878906 18.0625 29.054688 17.175781 C 29.230469 16.289062 29.320312 15.394531 29.320312 14.488281 C 29.320312 13.582031 29.230469 12.6875 29.054688 11.800781 C 28.878906 10.914062 28.617188 10.050781 28.273438 9.21875 C 27.925781 8.382812 27.5 7.585938 27 6.835938 C 26.496094 6.082031 25.925781 5.386719 25.289062 4.746094 Z M 23.988281 22.933594 C 23.433594 23.488281 22.832031 23.980469 22.179688 24.417969 C 21.527344 24.851562 20.839844 25.21875 20.113281 25.519531 C 19.390625 25.820312 18.644531 26.046875 17.875 26.199219 C 17.105469 26.351562 16.328125 26.429688 15.546875 26.429688 C 14.761719 26.429688 13.984375 26.351562 13.214844 26.199219 C 12.449219 26.046875 11.699219 25.820312 10.976562 25.519531 C 10.253906 25.21875 9.5625 24.851562 8.914062 24.417969 C 8.261719 23.980469 7.65625 23.488281 7.101562 22.933594 C 6.546875 22.378906 6.054688 21.773438 5.617188 21.121094 C 5.183594 20.472656 4.816406 19.78125 4.515625 19.058594 C 4.214844 18.335938 3.988281 17.585938 3.835938 16.820312 C 3.683594 16.050781 3.605469 15.273438 3.605469 14.488281 C 3.605469 13.707031 3.683594 12.929688 3.835938 12.160156 C 3.988281 11.390625 4.214844 10.644531 4.515625 9.921875 C 4.816406 9.195312 5.183594 8.507812 5.617188 7.855469 C 6.054688 7.203125 6.546875 6.601562 7.101562 6.046875 C 7.65625 5.492188 8.261719 4.996094 8.914062 4.5625 C 9.5625 4.125 10.253906 3.757812 10.976562 3.457031 C 11.699219 3.160156 12.449219 2.933594 13.214844 2.777344 C 13.984375 2.625 14.761719 2.550781 15.546875 2.550781 C 16.328125 2.550781 17.105469 2.625 17.875 2.777344 C 18.644531 2.933594 19.390625 3.160156 20.113281 3.457031 C 20.839844 3.757812 21.527344 4.125 22.179688 4.5625 C 22.832031 4.996094 23.433594 5.492188 23.988281 6.046875 C 24.542969 6.601562 25.035156 7.203125 25.472656 7.855469 C 25.90625 8.507812 26.273438 9.195312 26.574219 9.921875 C 26.875 10.644531 27.101562 11.390625 27.253906 12.160156 C 27.40625 12.929688 27.484375 13.707031 27.484375 14.488281 C 27.484375 15.273438 27.40625 16.050781 27.253906 16.820312 C 27.101562 17.585938 26.875 18.332031 26.574219 19.058594 C 26.273438 19.78125 25.90625 20.46875 25.472656 21.121094 C 25.035156 21.773438 24.542969 22.378906 23.988281 22.933594 Z M 23.988281 22.933594 " fill-opacity="1" fill-rule="evenodd"/></g><path fill="rgb(0%, 0%, 0%)" d="M 20.636719 18.203125 L 17.71875 13.574219 L 11.816406 13.574219 L 9.996094 7.785156 L 8.242188 8.335938 L 10.46875 15.410156 L 16.703125 15.410156 L 19.144531 19.28125 L 17.078125 18.808594 L 16.667969 20.597656 L 21.78125 21.769531 L 22.878906 16.402344 L 21.078125 16.035156 Z M 20.636719 18.203125 " fill-opacity="1" fill-rule="evenodd"/></svg>