<?xml version="1.0" encoding="UTF-8"?><svg xmlns="http://www.w3.org/2000/svg" xmlns:xlink="http://www.w3.org/1999/xlink" width="30" zoomAndPan="magnify" viewBox="0 0 30 30.000001" height="30.000001" preserveAspectRatio="xMidYMid meet" version="1.0"><defs><clipPath id="clip-0"><path d="M 5 6.167969 L 9 6.167969 L 9 22.863281 L 5 22.863281 Z M 5 6.167969 " clip-rule="nonzero"/></clipPath><clipPath id="clip-1"><path d="M 21 6.167969 L 25 6.167969 L 25 22.863281 L 21 22.863281 Z M 21 6.167969 " clip-rule="nonzero"/></clipPath><clipPath id="clip-2"><path d="M 0.484375 10 L 3 10 L 3 19 L 0.484375 19 Z M 0.484375 10 " clip-rule="nonzero"/></clipPath><clipPath id="clip-3"><path d="M 27 10 L 29.515625 10 L 29.515625 19 L 27 19 Z M 27 10 " clip-rule="nonzero"/></clipPath></defs><g clip-path="url(#clip-0)"><path fill="rgb(32.159424%, 44.309998%, 100%)" d="M 8.195312 21.714844 C 8.195312 22.34375 7.621094 22.851562 6.914062 22.851562 C 6.207031 22.851562 5.632812 22.34375 5.632812 21.714844 L 5.632812 7.316406 C 5.632812 6.6875 6.207031 6.179688 6.914062 6.179688 C 7.621094 6.179688 8.195312 6.6875 8.195312 7.316406 L 8.195312 21.714844 " fill-opacity="1" fill-rule="nonzero"/></g><g clip-path="url(#clip-1)"><path fill="rgb(32.159424%, 44.309998%, 100%)" d="M 21.804688 21.714844 C 21.804688 22.34375 22.375 22.851562 23.082031 22.851562 C 23.789062 22.851562 24.363281 22.34375 24.363281 21.714844 L 24.363281 7.316406 C 24.363281 6.6875 23.789062 6.179688 23.082031 6.179688 C 22.375 6.179688 21.804688 6.6875 21.804688 7.316406 L 21.804688 21.714844 " fill-opacity="1" fill-rule="nonzero"/></g><path fill="rgb(32.159424%, 44.309998%, 100%)" d="M 5.144531 8.566406 C 4.921875 8.398438 4.640625 8.296875 4.328125 8.296875 C 3.621094 8.296875 3.046875 8.804688 3.046875 9.433594 L 3.046875 19.59375 C 3.046875 20.222656 3.621094 20.734375 4.328125 20.734375 C 4.640625 20.734375 4.921875 20.628906 5.144531 20.464844 L 5.144531 8.566406 " fill-opacity="1" fill-rule="nonzero"/><g clip-path="url(#clip-2)"><path fill="rgb(32.159424%, 44.309998%, 100%)" d="M 2.585938 10.316406 C 2.363281 10.148438 2.078125 10.042969 1.765625 10.042969 C 1.058594 10.042969 0.484375 10.554688 0.484375 11.183594 L 0.484375 17.847656 C 0.484375 18.472656 1.058594 18.984375 1.765625 18.984375 C 2.078125 18.984375 2.363281 18.878906 2.585938 18.714844 L 2.585938 10.316406 " fill-opacity="1" fill-rule="nonzero"/></g><g clip-path="url(#clip-3)"><path fill="rgb(32.159424%, 44.309998%, 100%)" d="M 28.230469 10.042969 C 27.90625 10.042969 27.613281 10.15625 27.386719 10.335938 L 27.386719 18.695312 C 27.613281 18.875 27.90625 18.984375 28.230469 18.984375 C 28.941406 18.984375 29.511719 18.472656 29.511719 17.847656 L 29.511719 11.183594 C 29.511719 10.554688 28.941406 10.042969 28.230469 10.042969 " fill-opacity="1" fill-rule="nonzero"/></g><path fill="rgb(32.159424%, 44.309998%, 100%)" d="M 25.671875 8.296875 C 25.34375 8.296875 25.050781 8.40625 24.824219 8.585938 L 24.824219 20.445312 C 25.050781 20.621094 25.34375 20.734375 25.671875 20.734375 C 26.378906 20.734375 26.953125 20.222656 26.953125 19.59375 L 26.953125 9.433594 C 26.953125 8.804688 26.378906 8.296875 25.671875 8.296875 " fill-opacity="1" fill-rule="nonzero"/><path fill="rgb(32.159424%, 44.309998%, 100%)" d="M 8.835938 16.796875 L 21.164062 16.796875 L 21.164062 13.128906 L 8.835938 13.128906 L 8.835938 16.796875 " fill-opacity="1" fill-rule="nonzero"/></svg>