<svg xmlns="http://www.w3.org/2000/svg" xmlns:xlink="http://www.w3.org/1999/xlink" width="1080" zoomAndPan="magnify" viewBox="0 0 810 809.999993" height="1080" preserveAspectRatio="xMidYMid meet" version="1.0"><defs><g/><clipPath id="id1"><path d="M 91 206.125 L 730 206.125 L 730 534 L 91 534 Z M 91 206.125 " clip-rule="nonzero"/></clipPath><clipPath id="id2"><path d="M 378.035156 231 L 432 231 L 432 261 L 378.035156 261 Z M 378.035156 231 " clip-rule="nonzero"/></clipPath></defs><g clip-path="url(#id1)"><path fill="#bcbbbc" d="M 703.972656 328.105469 C 673.296875 261.144531 623.109375 214.875 578.703125 207.308594 C 577.242188 206.609375 575.683594 206.199219 574.03125 206.199219 L 253.121094 206.199219 L 252.742188 206.230469 C 205.855469 207.375 149.753906 255.585938 116.570312 328.105469 C 76.585938 415.4375 84.945312 504.929688 135.261719 527.941406 C 174.453125 545.894531 227.566406 518.214844 268 463.808594 L 552.542969 463.808594 C 592.976562 518.214844 646.089844 545.894531 685.28125 527.941406 C 735.597656 504.929688 743.957031 415.4375 703.972656 328.105469 " fill-opacity="1" fill-rule="nonzero"/></g><path fill="#d3d2d2" d="M 365.039062 333.859375 C 365.039062 378.03125 329.21875 413.816406 285.035156 413.816406 C 240.851562 413.816406 205.0625 378.03125 205.0625 333.859375 C 205.0625 289.683594 240.851562 253.867188 285.035156 253.867188 C 329.21875 253.867188 365.039062 289.683594 365.039062 333.859375 " fill-opacity="1" fill-rule="nonzero"/><path fill="#d3d2d2" d="M 606.578125 333.859375 C 606.578125 378.03125 570.757812 413.816406 526.574219 413.816406 C 482.394531 413.816406 446.570312 378.03125 446.570312 333.859375 C 446.570312 289.683594 482.394531 253.867188 526.574219 253.867188 C 570.757812 253.867188 606.578125 289.683594 606.578125 333.859375 " fill-opacity="1" fill-rule="nonzero"/><path fill="#fddd0f" d="M 550.03125 290.890625 C 550.03125 302.394531 540.71875 311.707031 529.214844 311.707031 C 517.738281 311.707031 508.425781 302.394531 508.425781 290.890625 C 508.425781 279.417969 517.738281 270.109375 529.214844 270.109375 C 540.71875 270.109375 550.03125 279.417969 550.03125 290.890625 " fill-opacity="1" fill-rule="nonzero"/><path fill="#2aa442" d="M 547.363281 377.554688 C 547.363281 389.058594 538.050781 398.371094 526.574219 398.371094 C 515.070312 398.371094 505.753906 389.058594 505.753906 377.554688 C 505.753906 366.082031 515.070312 356.773438 526.574219 356.773438 C 538.050781 356.773438 547.363281 366.082031 547.363281 377.554688 " fill-opacity="1" fill-rule="nonzero"/><path fill="#293d9b" d="M 502.132812 335.957031 C 502.132812 347.429688 492.785156 356.773438 481.3125 356.773438 C 469.804688 356.773438 460.492188 347.429688 460.492188 335.957031 C 460.492188 324.453125 469.804688 315.140625 481.3125 315.140625 C 492.785156 315.140625 502.132812 324.453125 502.132812 335.957031 " fill-opacity="1" fill-rule="nonzero"/><path fill="#ec1b24" d="M 591.640625 333.859375 C 591.640625 345.332031 582.328125 354.675781 570.851562 354.675781 C 559.347656 354.675781 550.03125 345.332031 550.03125 333.859375 C 550.03125 322.355469 559.347656 313.042969 570.851562 313.042969 C 582.328125 313.042969 591.640625 322.355469 591.640625 333.859375 " fill-opacity="1" fill-rule="nonzero"/><path fill="#4e4b4c" d="M 340.277344 319.78125 L 340.214844 319.78125 L 298.863281 319.96875 L 298.863281 278.625 C 298.863281 270.996094 292.664062 264.800781 285.035156 264.800781 C 277.40625 264.800781 271.242188 270.996094 271.242188 278.625 L 271.242188 320.097656 L 229.726562 320.289062 C 222.101562 320.320312 215.933594 326.515625 215.996094 334.144531 C 215.996094 341.773438 222.195312 347.90625 229.792969 347.90625 L 229.855469 347.90625 L 271.242188 347.714844 L 271.242188 389.09375 C 271.242188 396.71875 277.40625 402.886719 285.035156 402.886719 C 292.664062 402.886719 298.863281 396.71875 298.863281 389.09375 L 298.863281 347.585938 L 340.34375 347.398438 C 347.972656 347.363281 354.136719 341.167969 354.105469 333.539062 C 354.042969 325.945312 347.875 319.78125 340.277344 319.78125 " fill-opacity="1" fill-rule="nonzero"/><g clip-path="url(#id2)"><path fill="#190d1b" d="M 428.347656 246.050781 C 428.800781 245.6875 429.214844 245.28125 429.585938 244.832031 C 429.957031 244.382812 430.277344 243.898438 430.546875 243.382812 C 430.816406 242.863281 431.03125 242.324219 431.1875 241.765625 C 431.34375 241.203125 431.4375 240.632812 431.476562 240.050781 C 431.511719 239.46875 431.488281 238.886719 431.40625 238.3125 C 431.320312 237.734375 431.175781 237.171875 430.972656 236.625 C 430.773438 236.082031 430.515625 235.5625 430.203125 235.066406 C 429.890625 234.574219 429.535156 234.121094 429.125 233.703125 C 428.71875 233.285156 428.273438 232.914062 427.789062 232.589844 C 427.304688 232.265625 426.792969 231.996094 426.253906 231.78125 C 425.710938 231.5625 425.152344 231.40625 424.582031 231.308594 C 424.007812 231.207031 423.429688 231.167969 422.847656 231.191406 C 422.265625 231.210938 421.691406 231.292969 421.125 231.4375 C 420.5625 231.578125 420.015625 231.777344 419.492188 232.035156 C 418.96875 232.292969 418.480469 232.597656 418.019531 232.957031 C 417.5625 233.316406 417.144531 233.722656 416.773438 234.167969 C 416.410156 234.601562 415.972656 234.9375 415.460938 235.175781 C 414.949219 235.414062 414.414062 235.535156 413.847656 235.535156 L 396.179688 235.535156 C 395.632812 235.535156 395.113281 235.421875 394.617188 235.1875 C 394.121094 234.957031 393.699219 234.628906 393.347656 234.207031 C 392.976562 233.757812 392.5625 233.351562 392.105469 232.988281 C 391.648438 232.625 391.15625 232.3125 390.632812 232.054688 C 390.113281 231.792969 389.566406 231.59375 389.003906 231.445312 C 388.4375 231.300781 387.863281 231.214844 387.28125 231.191406 C 386.695312 231.167969 386.117188 231.203125 385.542969 231.300781 C 384.964844 231.398438 384.40625 231.554688 383.863281 231.765625 C 383.320312 231.980469 382.808594 232.25 382.320312 232.574219 C 381.835938 232.894531 381.386719 233.265625 380.976562 233.683594 C 380.570312 234.101562 380.207031 234.554688 379.894531 235.046875 C 379.582031 235.539062 379.324219 236.058594 379.117188 236.609375 C 378.914062 237.15625 378.769531 237.71875 378.683594 238.292969 C 378.597656 238.871094 378.574219 239.453125 378.609375 240.035156 C 378.644531 240.617188 378.738281 241.191406 378.894531 241.753906 C 379.050781 242.316406 379.265625 242.855469 379.535156 243.375 C 379.804688 243.894531 380.125 244.378906 380.496094 244.828125 C 380.867188 245.277344 381.28125 245.6875 381.738281 246.050781 C 381.269531 246.421875 380.84375 246.839844 380.464844 247.304688 C 380.085938 247.769531 379.757812 248.269531 379.488281 248.804688 C 379.214844 249.335938 379.003906 249.894531 378.851562 250.476562 C 378.699219 251.054688 378.613281 251.644531 378.589844 252.246094 C 378.566406 252.84375 378.605469 253.4375 378.707031 254.03125 C 378.8125 254.621094 378.976562 255.195312 379.207031 255.75 C 379.433594 256.304688 379.71875 256.828125 380.058594 257.320312 C 380.398438 257.816406 380.789062 258.265625 381.226562 258.675781 C 381.664062 259.085938 382.140625 259.441406 382.65625 259.75 C 383.171875 260.054688 383.714844 260.304688 384.28125 260.492188 C 384.851562 260.683594 385.433594 260.808594 386.027344 260.875 C 386.625 260.9375 387.222656 260.9375 387.816406 260.871094 C 388.414062 260.808594 388.996094 260.679688 389.5625 260.488281 C 390.132812 260.296875 390.671875 260.050781 391.1875 259.742188 C 391.703125 259.433594 392.179688 259.074219 392.617188 258.664062 C 393.054688 258.253906 393.441406 257.800781 393.78125 257.308594 C 394.0625 256.902344 394.421875 256.585938 394.859375 256.359375 C 395.292969 256.128906 395.757812 256.015625 396.253906 256.015625 L 413.59375 256.015625 C 414.144531 256.011719 414.667969 256.136719 415.160156 256.382812 C 415.652344 256.632812 416.0625 256.980469 416.386719 257.425781 C 416.734375 257.914062 417.125 258.355469 417.566406 258.757812 C 418.011719 259.15625 418.488281 259.507812 419.003906 259.804688 C 419.523438 260.105469 420.066406 260.34375 420.632812 260.527344 C 421.199219 260.707031 421.78125 260.828125 422.375 260.882812 C 422.96875 260.941406 423.5625 260.933594 424.15625 260.863281 C 424.746094 260.792969 425.324219 260.660156 425.886719 260.464844 C 426.453125 260.269531 426.988281 260.019531 427.5 259.707031 C 428.007812 259.398438 428.480469 259.039062 428.910156 258.625 C 429.34375 258.214844 429.726562 257.761719 430.0625 257.269531 C 430.398438 256.777344 430.675781 256.253906 430.898438 255.699219 C 431.121094 255.144531 431.285156 254.574219 431.382812 253.984375 C 431.484375 253.398438 431.523438 252.804688 431.496094 252.210938 C 431.46875 251.613281 431.378906 251.027344 431.226562 250.449219 C 431.074219 249.871094 430.859375 249.320312 430.589844 248.785156 C 430.316406 248.253906 429.992188 247.757812 429.613281 247.296875 C 429.238281 246.835938 428.8125 246.421875 428.347656 246.050781 Z M 428.347656 246.050781 " fill-opacity="1" fill-rule="nonzero"/></g><g fill="#ffc1b2" fill-opacity="0.302"><g transform="translate(446.120811, 588.71231)"><g><path d="M 38.988281 -3.023438 L 38.988281 -32.761719 C 38.988281 -33.550781 39.238281 -34.273438 39.816406 -34.882812 C 39.960938 -35.0625 39.996094 -35.242188 39.925781 -35.460938 C 39.816406 -35.675781 39.671875 -35.785156 39.457031 -35.785156 L 31.859375 -35.785156 L 31.824219 -35.746094 L 31.824219 -35.785156 L 30.851562 -35.785156 C 30.601562 -35.785156 30.421875 -35.675781 30.347656 -35.460938 C 30.238281 -35.242188 30.238281 -35.0625 30.382812 -34.882812 C 30.527344 -34.667969 30.492188 -34.523438 30.347656 -34.414062 L 22.933594 -27.574219 C 22.679688 -27.359375 22.390625 -27.289062 22.105469 -27.289062 C 21.816406 -27.289062 21.5625 -27.359375 21.347656 -27.574219 L 13.824219 -34.488281 C 13.679688 -34.597656 13.679688 -34.703125 13.824219 -34.847656 C 13.96875 -35.027344 14.003906 -35.242188 13.933594 -35.460938 C 13.824219 -35.675781 13.644531 -35.785156 13.390625 -35.785156 L 4.894531 -35.785156 C 4.644531 -35.785156 4.464844 -35.675781 4.390625 -35.460938 C 4.285156 -35.242188 4.285156 -35.0625 4.429688 -34.882812 L 4.464844 -34.847656 C 5.003906 -34.234375 5.292969 -33.515625 5.292969 -32.722656 L 5.292969 -3.058594 C 5.292969 -2.230469 5.003906 -1.511719 4.464844 -0.9375 L 4.429688 -0.898438 C 4.285156 -0.683594 4.285156 -0.503906 4.390625 -0.289062 C 4.464844 -0.0703125 4.644531 0 4.894531 0 L 12.851562 0 C 13.066406 0 13.246094 -0.0703125 13.355469 -0.289062 C 13.429688 -0.503906 13.429688 -0.683594 13.320312 -0.898438 L 13.246094 -0.972656 C 12.671875 -1.546875 12.421875 -2.269531 12.421875 -3.097656 L 12.421875 -24.910156 C 12.421875 -25.128906 12.492188 -25.273438 12.707031 -25.34375 C 12.925781 -25.414062 13.105469 -25.414062 13.285156 -25.273438 L 21.347656 -17.785156 C 21.5625 -17.566406 21.816406 -17.460938 22.140625 -17.460938 C 22.429688 -17.460938 22.714844 -17.566406 22.933594 -17.785156 L 30.996094 -25.273438 C 31.140625 -25.414062 31.320312 -25.414062 31.535156 -25.34375 C 31.753906 -25.273438 31.859375 -25.128906 31.859375 -24.910156 L 31.859375 -3.132812 C 31.859375 -2.339844 31.570312 -1.621094 30.996094 -1.007812 L 30.925781 -0.898438 C 30.78125 -0.683594 30.78125 -0.503906 30.886719 -0.289062 C 30.960938 -0.0703125 31.140625 0 31.390625 0 L 39.457031 0 C 39.671875 0 39.816406 -0.0703125 39.925781 -0.289062 C 39.996094 -0.503906 39.960938 -0.683594 39.816406 -0.898438 C 39.238281 -1.476562 38.988281 -2.195312 38.988281 -3.023438 Z M 38.988281 -3.023438 "/></g></g></g><g fill="#ffc1b2" fill-opacity="0.302"><g transform="translate(490.400895, 588.71231)"><g><path d="M 27.214844 -30.167969 C 25.847656 -31.96875 24.226562 -33.335938 22.429688 -34.308594 C 20.59375 -35.242188 18.683594 -35.746094 16.667969 -35.746094 C 14.652344 -35.746094 12.707031 -35.242188 10.871094 -34.308594 C 9.035156 -33.335938 7.453125 -31.96875 6.085938 -30.167969 C 4.789062 -28.476562 3.816406 -26.566406 3.167969 -24.480469 C 2.484375 -22.390625 2.160156 -20.160156 2.160156 -17.855469 C 2.160156 -15.550781 2.484375 -13.320312 3.167969 -11.230469 C 3.816406 -9.109375 4.789062 -7.234375 6.085938 -5.578125 C 7.453125 -3.78125 9.035156 -2.375 10.871094 -1.441406 C 12.707031 -0.46875 14.652344 0 16.667969 0 C 18.683594 0 20.59375 -0.46875 22.429688 -1.441406 C 24.226562 -2.375 25.847656 -3.78125 27.214844 -5.578125 C 28.511719 -7.234375 29.484375 -9.109375 30.167969 -11.230469 C 30.816406 -13.320312 31.175781 -15.550781 31.175781 -17.855469 C 31.175781 -20.160156 30.816406 -22.390625 30.167969 -24.480469 C 29.484375 -26.566406 28.511719 -28.476562 27.214844 -30.167969 Z M 16.667969 -7.128906 C 15.660156 -7.128906 14.6875 -7.414062 13.824219 -7.992188 C 12.925781 -8.566406 12.132812 -9.324219 11.484375 -10.296875 C 10.800781 -11.269531 10.261719 -12.421875 9.863281 -13.714844 C 9.46875 -15.011719 9.289062 -16.378906 9.289062 -17.855469 C 9.289062 -19.296875 9.46875 -20.699219 9.863281 -21.996094 C 10.261719 -23.292969 10.800781 -24.40625 11.484375 -25.414062 C 12.132812 -26.386719 12.925781 -27.179688 13.824219 -27.757812 C 14.6875 -28.332031 15.660156 -28.621094 16.667969 -28.621094 C 17.675781 -28.621094 18.613281 -28.332031 19.511719 -27.757812 C 20.375 -27.179688 21.167969 -26.386719 21.816406 -25.414062 C 22.464844 -24.40625 23.003906 -23.292969 23.398438 -21.996094 C 23.796875 -20.699219 24.011719 -19.296875 24.011719 -17.855469 C 24.011719 -16.378906 23.796875 -15.011719 23.398438 -13.714844 C 23.003906 -12.421875 22.464844 -11.269531 21.816406 -10.296875 C 21.167969 -9.324219 20.375 -8.566406 19.511719 -7.992188 C 18.613281 -7.414062 17.675781 -7.128906 16.667969 -7.128906 Z M 16.667969 -7.128906 "/></g></g></g><g fill="#ffc1b2" fill-opacity="0.302"><g transform="translate(523.736961, 588.71231)"><g><path d="M 30.816406 -1.007812 L 30.132812 -1.546875 C 29.628906 -1.871094 29.195312 -2.304688 28.835938 -2.878906 L 18.792969 -17.101562 C 18.574219 -17.316406 18.503906 -17.605469 18.503906 -17.890625 C 18.503906 -18.179688 18.574219 -18.433594 18.792969 -18.683594 L 28.835938 -32.941406 C 29.195312 -33.40625 29.628906 -33.875 30.167969 -34.308594 L 30.816406 -34.777344 C 31.03125 -34.957031 31.105469 -35.207031 30.996094 -35.496094 C 30.851562 -35.675781 30.671875 -35.785156 30.492188 -35.785156 L 21.132812 -35.785156 C 20.878906 -35.785156 20.699219 -35.675781 20.628906 -35.460938 C 20.519531 -35.242188 20.519531 -35.0625 20.664062 -34.882812 L 20.699219 -34.847656 C 20.914062 -34.558594 20.953125 -34.273438 20.773438 -33.984375 L 13.644531 -23.832031 C 13.429688 -23.578125 13.210938 -23.507812 12.925781 -23.578125 C 12.636719 -23.652344 12.527344 -23.867188 12.527344 -24.191406 L 12.527344 -32.867188 C 12.527344 -33.589844 12.78125 -34.273438 13.320312 -34.847656 C 13.464844 -35.027344 13.5 -35.242188 13.429688 -35.460938 C 13.320312 -35.675781 13.140625 -35.785156 12.925781 -35.785156 L 4.859375 -35.785156 C 4.609375 -35.785156 4.429688 -35.675781 4.355469 -35.460938 C 4.246094 -35.242188 4.285156 -35.0625 4.464844 -34.882812 C 5.074219 -34.199219 5.398438 -33.40625 5.398438 -32.472656 L 5.398438 -3.132812 C 5.398438 -2.304688 5.113281 -1.585938 4.570312 -1.007812 L 4.464844 -0.898438 C 4.320312 -0.683594 4.320312 -0.503906 4.429688 -0.289062 C 4.5 -0.0703125 4.679688 0 4.933594 0 L 12.996094 0 C 13.210938 0 13.390625 -0.109375 13.464844 -0.324219 C 13.535156 -0.539062 13.535156 -0.71875 13.390625 -0.898438 C 12.816406 -1.511719 12.527344 -2.230469 12.527344 -3.023438 L 12.527344 -11.628906 C 12.527344 -11.914062 12.636719 -12.097656 12.925781 -12.203125 C 13.210938 -12.277344 13.429688 -12.203125 13.644531 -11.953125 L 20.773438 -1.835938 C 20.953125 -1.476562 20.914062 -1.1875 20.699219 -0.972656 L 20.664062 -0.898438 C 20.519531 -0.683594 20.519531 -0.503906 20.628906 -0.289062 C 20.699219 -0.0703125 20.878906 0 21.132812 0 L 30.492188 0 C 30.707031 0 30.851562 -0.109375 30.996094 -0.324219 C 31.03125 -0.433594 31.03125 -0.539062 31.03125 -0.683594 C 30.996094 -0.828125 30.925781 -0.9375 30.816406 -1.007812 Z M 30.816406 -1.007812 "/></g></g></g><g fill="#ffc1b2" fill-opacity="0.302"><g transform="translate(559.125031, 588.71231)"><g><path d="M 26.207031 -36.035156 C 25.597656 -35.460938 24.875 -35.207031 24.085938 -35.207031 L 4.894531 -35.207031 C 4.644531 -35.207031 4.464844 -35.101562 4.390625 -34.882812 C 4.285156 -34.667969 4.285156 -34.488281 4.429688 -34.308594 L 4.535156 -34.199219 C 5.113281 -33.550781 5.398438 -32.796875 5.398438 -31.933594 L 5.398438 -2.699219 C 5.398438 -2.269531 5.328125 -1.871094 5.183594 -1.476562 C 5.039062 -1.078125 4.824219 -0.71875 4.535156 -0.433594 L 4.429688 -0.324219 C 4.285156 -0.109375 4.285156 0.0703125 4.390625 0.289062 C 4.464844 0.503906 4.644531 0.574219 4.894531 0.574219 L 24.085938 0.574219 C 24.875 0.574219 25.597656 0.863281 26.207031 1.402344 C 26.386719 1.585938 26.605469 1.621094 26.820312 1.511719 C 27.035156 1.441406 27.179688 1.261719 27.179688 0.972656 L 27.179688 -7.054688 C 27.179688 -7.273438 27.070312 -7.453125 26.855469 -7.558594 C 26.640625 -7.632812 26.425781 -7.597656 26.28125 -7.453125 C 25.632812 -6.839844 24.875 -6.550781 24.011719 -6.550781 L 13.429688 -6.550781 C 13.175781 -6.550781 12.960938 -6.625 12.78125 -6.804688 C 12.601562 -6.949219 12.527344 -7.164062 12.527344 -7.453125 L 12.527344 -12.851562 C 12.527344 -13.105469 12.601562 -13.320312 12.78125 -13.5 C 12.960938 -13.644531 13.175781 -13.753906 13.429688 -13.753906 L 16.597656 -13.753906 C 17.460938 -13.753906 18.214844 -13.429688 18.863281 -12.851562 C 19.042969 -12.707031 19.222656 -12.707031 19.441406 -12.816406 C 19.65625 -12.925781 19.765625 -13.105469 19.765625 -13.320312 L 19.765625 -21.3125 C 19.765625 -21.527344 19.65625 -21.671875 19.441406 -21.78125 C 19.222656 -21.886719 19.042969 -21.886719 18.863281 -21.78125 C 18.214844 -21.167969 17.460938 -20.878906 16.597656 -20.878906 L 13.429688 -20.878906 C 13.175781 -20.878906 12.960938 -20.953125 12.78125 -21.132812 C 12.601562 -21.277344 12.527344 -21.492188 12.527344 -21.78125 L 12.527344 -27.179688 C 12.527344 -27.433594 12.601562 -27.648438 12.78125 -27.828125 C 12.960938 -27.972656 13.175781 -28.078125 13.429688 -28.078125 L 24.011719 -28.078125 C 24.875 -28.078125 25.632812 -27.757812 26.28125 -27.179688 C 26.425781 -27 26.640625 -26.964844 26.855469 -27.070312 C 27.070312 -27.144531 27.179688 -27.324219 27.179688 -27.574219 L 27.179688 -35.640625 C 27.179688 -35.855469 27.035156 -36.035156 26.820312 -36.144531 C 26.605469 -36.214844 26.386719 -36.179688 26.207031 -36.035156 Z M 26.207031 -36.035156 "/></g></g></g><g fill="#ffc1b2" fill-opacity="0.302"><g transform="translate(590.625099, 588.71231)"><g><path d="M 25.738281 -31.464844 C 24.589844 -32.832031 23.183594 -33.910156 21.601562 -34.667969 C 19.980469 -35.386719 18.214844 -35.785156 16.34375 -35.785156 L 4.859375 -35.785156 C 4.609375 -35.785156 4.429688 -35.675781 4.355469 -35.460938 C 4.246094 -35.242188 4.285156 -35.0625 4.464844 -34.882812 C 5.113281 -34.164062 5.472656 -33.300781 5.472656 -32.328125 L 5.472656 -3.457031 C 5.472656 -2.449219 5.113281 -1.621094 4.464844 -0.898438 C 4.285156 -0.683594 4.246094 -0.503906 4.355469 -0.289062 C 4.429688 -0.0703125 4.609375 0 4.859375 0 L 12.996094 0 C 13.210938 0 13.390625 -0.0703125 13.464844 -0.289062 C 13.535156 -0.503906 13.535156 -0.683594 13.390625 -0.898438 C 12.851562 -1.476562 12.601562 -2.125 12.601562 -2.84375 L 12.601562 -8.101562 C 12.601562 -8.460938 12.707031 -8.785156 12.996094 -9.070312 C 13.246094 -9.324219 13.570312 -9.46875 13.96875 -9.46875 L 16.34375 -9.46875 C 18.214844 -9.46875 19.980469 -9.828125 21.601562 -10.546875 C 23.183594 -11.269531 24.589844 -12.347656 25.738281 -13.753906 C 26.710938 -14.941406 27.46875 -16.308594 27.972656 -17.820312 C 28.476562 -19.332031 28.765625 -20.914062 28.765625 -22.570312 C 28.765625 -24.226562 28.476562 -25.847656 27.972656 -27.359375 C 27.46875 -28.871094 26.710938 -30.238281 25.738281 -31.464844 Z M 20.230469 -18.289062 C 19.332031 -17.136719 18.035156 -16.597656 16.34375 -16.597656 L 13.609375 -16.597656 C 13.320312 -16.597656 13.105469 -16.667969 12.886719 -16.882812 C 12.671875 -17.0625 12.601562 -17.28125 12.601562 -17.566406 L 12.601562 -27.648438 C 12.601562 -27.898438 12.671875 -28.117188 12.886719 -28.332031 C 13.105469 -28.546875 13.320312 -28.65625 13.609375 -28.65625 L 16.34375 -28.65625 C 17.640625 -28.65625 18.613281 -28.367188 19.332031 -27.792969 C 20.050781 -27.214844 20.554688 -26.566406 20.914062 -25.847656 C 21.238281 -25.128906 21.457031 -24.445312 21.527344 -23.796875 C 21.601562 -23.148438 21.636719 -22.714844 21.636719 -22.570312 C 21.636719 -21.707031 21.492188 -20.914062 21.277344 -20.195312 C 21.023438 -19.476562 20.664062 -18.828125 20.230469 -18.289062 Z M 20.230469 -18.289062 "/></g></g></g><g fill="#ffc1b2" fill-opacity="0.302"><g transform="translate(622.305159, 588.71231)"><g><path d="M 27.214844 -30.167969 C 25.847656 -31.96875 24.226562 -33.335938 22.429688 -34.308594 C 20.59375 -35.242188 18.683594 -35.746094 16.667969 -35.746094 C 14.652344 -35.746094 12.707031 -35.242188 10.871094 -34.308594 C 9.035156 -33.335938 7.453125 -31.96875 6.085938 -30.167969 C 4.789062 -28.476562 3.816406 -26.566406 3.167969 -24.480469 C 2.484375 -22.390625 2.160156 -20.160156 2.160156 -17.855469 C 2.160156 -15.550781 2.484375 -13.320312 3.167969 -11.230469 C 3.816406 -9.109375 4.789062 -7.234375 6.085938 -5.578125 C 7.453125 -3.78125 9.035156 -2.375 10.871094 -1.441406 C 12.707031 -0.46875 14.652344 0 16.667969 0 C 18.683594 0 20.59375 -0.46875 22.429688 -1.441406 C 24.226562 -2.375 25.847656 -3.78125 27.214844 -5.578125 C 28.511719 -7.234375 29.484375 -9.109375 30.167969 -11.230469 C 30.816406 -13.320312 31.175781 -15.550781 31.175781 -17.855469 C 31.175781 -20.160156 30.816406 -22.390625 30.167969 -24.480469 C 29.484375 -26.566406 28.511719 -28.476562 27.214844 -30.167969 Z M 16.667969 -7.128906 C 15.660156 -7.128906 14.6875 -7.414062 13.824219 -7.992188 C 12.925781 -8.566406 12.132812 -9.324219 11.484375 -10.296875 C 10.800781 -11.269531 10.261719 -12.421875 9.863281 -13.714844 C 9.46875 -15.011719 9.289062 -16.378906 9.289062 -17.855469 C 9.289062 -19.296875 9.46875 -20.699219 9.863281 -21.996094 C 10.261719 -23.292969 10.800781 -24.40625 11.484375 -25.414062 C 12.132812 -26.386719 12.925781 -27.179688 13.824219 -27.757812 C 14.6875 -28.332031 15.660156 -28.621094 16.667969 -28.621094 C 17.675781 -28.621094 18.613281 -28.332031 19.511719 -27.757812 C 20.375 -27.179688 21.167969 -26.386719 21.816406 -25.414062 C 22.464844 -24.40625 23.003906 -23.292969 23.398438 -21.996094 C 23.796875 -20.699219 24.011719 -19.296875 24.011719 -17.855469 C 24.011719 -16.378906 23.796875 -15.011719 23.398438 -13.714844 C 23.003906 -12.421875 22.464844 -11.269531 21.816406 -10.296875 C 21.167969 -9.324219 20.375 -8.566406 19.511719 -7.992188 C 18.613281 -7.414062 17.675781 -7.128906 16.667969 -7.128906 Z M 16.667969 -7.128906 "/></g></g></g><g fill="#ffc1b2" fill-opacity="0.302"><g transform="translate(655.641225, 588.71231)"><g><path d="M 33.550781 -0.898438 L 33.515625 -0.9375 C 32.941406 -1.511719 32.6875 -2.230469 32.6875 -3.097656 L 32.6875 -32.6875 C 32.6875 -33.515625 32.941406 -34.234375 33.515625 -34.847656 L 33.550781 -34.882812 C 33.660156 -35.0625 33.660156 -35.242188 33.589844 -35.460938 C 33.480469 -35.675781 33.300781 -35.785156 33.085938 -35.785156 L 25.128906 -35.785156 C 24.875 -35.785156 24.695312 -35.675781 24.625 -35.460938 C 24.515625 -35.242188 24.515625 -35.0625 24.660156 -34.882812 L 24.695312 -34.847656 C 25.234375 -34.234375 25.523438 -33.515625 25.523438 -32.6875 L 25.523438 -14.796875 C 25.523438 -14.652344 25.453125 -14.542969 25.308594 -14.507812 C 25.164062 -14.472656 25.054688 -14.507812 24.984375 -14.652344 L 13.714844 -33.589844 C 13.429688 -34.019531 13.5 -34.453125 13.859375 -34.882812 C 13.96875 -35.0625 13.96875 -35.242188 13.894531 -35.460938 C 13.789062 -35.675781 13.609375 -35.785156 13.390625 -35.785156 L 12.421875 -35.785156 L 12.421875 -35.746094 L 12.421875 -35.785156 L 4.894531 -35.785156 C 4.644531 -35.785156 4.464844 -35.675781 4.390625 -35.460938 C 4.285156 -35.242188 4.285156 -35.0625 4.429688 -34.882812 C 5.003906 -34.234375 5.292969 -33.515625 5.292969 -32.722656 L 5.292969 -3.058594 C 5.292969 -2.230469 5.003906 -1.511719 4.429688 -0.898438 C 4.285156 -0.683594 4.285156 -0.503906 4.390625 -0.289062 C 4.464844 -0.0703125 4.644531 0 4.894531 0 L 12.851562 0 C 13.066406 0 13.246094 -0.0703125 13.355469 -0.289062 C 13.429688 -0.503906 13.429688 -0.683594 13.320312 -0.898438 L 13.246094 -0.972656 C 12.671875 -1.546875 12.421875 -2.269531 12.421875 -3.132812 L 12.421875 -20.988281 C 12.421875 -21.132812 12.457031 -21.203125 12.601562 -21.238281 C 12.742188 -21.277344 12.851562 -21.238281 12.960938 -21.132812 L 24.265625 -2.160156 C 24.480469 -1.691406 24.445312 -1.261719 24.121094 -0.898438 C 23.976562 -0.683594 23.976562 -0.503906 24.085938 -0.289062 C 24.15625 -0.0703125 24.335938 0 24.589844 0 L 33.085938 0 C 33.300781 0 33.480469 -0.0703125 33.589844 -0.289062 C 33.660156 -0.503906 33.660156 -0.683594 33.550781 -0.898438 Z M 33.550781 -0.898438 "/></g></g></g><g fill="#ffc1b2" fill-opacity="0.502"><g transform="translate(447.073517, 589.116734)"><g><path d="M 38.988281 -3.023438 L 38.988281 -32.761719 C 38.988281 -33.550781 39.238281 -34.273438 39.816406 -34.882812 C 39.960938 -35.0625 39.996094 -35.242188 39.925781 -35.460938 C 39.816406 -35.675781 39.671875 -35.785156 39.457031 -35.785156 L 31.859375 -35.785156 L 31.824219 -35.746094 L 31.824219 -35.785156 L 30.851562 -35.785156 C 30.601562 -35.785156 30.421875 -35.675781 30.347656 -35.460938 C 30.238281 -35.242188 30.238281 -35.0625 30.382812 -34.882812 C 30.527344 -34.667969 30.492188 -34.523438 30.347656 -34.414062 L 22.933594 -27.574219 C 22.679688 -27.359375 22.390625 -27.289062 22.105469 -27.289062 C 21.816406 -27.289062 21.5625 -27.359375 21.347656 -27.574219 L 13.824219 -34.488281 C 13.679688 -34.597656 13.679688 -34.703125 13.824219 -34.847656 C 13.96875 -35.027344 14.003906 -35.242188 13.933594 -35.460938 C 13.824219 -35.675781 13.644531 -35.785156 13.390625 -35.785156 L 4.894531 -35.785156 C 4.644531 -35.785156 4.464844 -35.675781 4.390625 -35.460938 C 4.285156 -35.242188 4.285156 -35.0625 4.429688 -34.882812 L 4.464844 -34.847656 C 5.003906 -34.234375 5.292969 -33.515625 5.292969 -32.722656 L 5.292969 -3.058594 C 5.292969 -2.230469 5.003906 -1.511719 4.464844 -0.9375 L 4.429688 -0.898438 C 4.285156 -0.683594 4.285156 -0.503906 4.390625 -0.289062 C 4.464844 -0.0703125 4.644531 0 4.894531 0 L 12.851562 0 C 13.066406 0 13.246094 -0.0703125 13.355469 -0.289062 C 13.429688 -0.503906 13.429688 -0.683594 13.320312 -0.898438 L 13.246094 -0.972656 C 12.671875 -1.546875 12.421875 -2.269531 12.421875 -3.097656 L 12.421875 -24.910156 C 12.421875 -25.128906 12.492188 -25.273438 12.707031 -25.34375 C 12.925781 -25.414062 13.105469 -25.414062 13.285156 -25.273438 L 21.347656 -17.785156 C 21.5625 -17.566406 21.816406 -17.460938 22.140625 -17.460938 C 22.429688 -17.460938 22.714844 -17.566406 22.933594 -17.785156 L 30.996094 -25.273438 C 31.140625 -25.414062 31.320312 -25.414062 31.535156 -25.34375 C 31.753906 -25.273438 31.859375 -25.128906 31.859375 -24.910156 L 31.859375 -3.132812 C 31.859375 -2.339844 31.570312 -1.621094 30.996094 -1.007812 L 30.925781 -0.898438 C 30.78125 -0.683594 30.78125 -0.503906 30.886719 -0.289062 C 30.960938 -0.0703125 31.140625 0 31.390625 0 L 39.457031 0 C 39.671875 0 39.816406 -0.0703125 39.925781 -0.289062 C 39.996094 -0.503906 39.960938 -0.683594 39.816406 -0.898438 C 39.238281 -1.476562 38.988281 -2.195312 38.988281 -3.023438 Z M 38.988281 -3.023438 "/></g></g></g><g fill="#ffc1b2" fill-opacity="0.502"><g transform="translate(491.353601, 589.116734)"><g><path d="M 27.214844 -30.167969 C 25.847656 -31.96875 24.226562 -33.335938 22.429688 -34.308594 C 20.59375 -35.242188 18.683594 -35.746094 16.667969 -35.746094 C 14.652344 -35.746094 12.707031 -35.242188 10.871094 -34.308594 C 9.035156 -33.335938 7.453125 -31.96875 6.085938 -30.167969 C 4.789062 -28.476562 3.816406 -26.566406 3.167969 -24.480469 C 2.484375 -22.390625 2.160156 -20.160156 2.160156 -17.855469 C 2.160156 -15.550781 2.484375 -13.320312 3.167969 -11.230469 C 3.816406 -9.109375 4.789062 -7.234375 6.085938 -5.578125 C 7.453125 -3.78125 9.035156 -2.375 10.871094 -1.441406 C 12.707031 -0.46875 14.652344 0 16.667969 0 C 18.683594 0 20.59375 -0.46875 22.429688 -1.441406 C 24.226562 -2.375 25.847656 -3.78125 27.214844 -5.578125 C 28.511719 -7.234375 29.484375 -9.109375 30.167969 -11.230469 C 30.816406 -13.320312 31.175781 -15.550781 31.175781 -17.855469 C 31.175781 -20.160156 30.816406 -22.390625 30.167969 -24.480469 C 29.484375 -26.566406 28.511719 -28.476562 27.214844 -30.167969 Z M 16.667969 -7.128906 C 15.660156 -7.128906 14.6875 -7.414062 13.824219 -7.992188 C 12.925781 -8.566406 12.132812 -9.324219 11.484375 -10.296875 C 10.800781 -11.269531 10.261719 -12.421875 9.863281 -13.714844 C 9.46875 -15.011719 9.289062 -16.378906 9.289062 -17.855469 C 9.289062 -19.296875 9.46875 -20.699219 9.863281 -21.996094 C 10.261719 -23.292969 10.800781 -24.40625 11.484375 -25.414062 C 12.132812 -26.386719 12.925781 -27.179688 13.824219 -27.757812 C 14.6875 -28.332031 15.660156 -28.621094 16.667969 -28.621094 C 17.675781 -28.621094 18.613281 -28.332031 19.511719 -27.757812 C 20.375 -27.179688 21.167969 -26.386719 21.816406 -25.414062 C 22.464844 -24.40625 23.003906 -23.292969 23.398438 -21.996094 C 23.796875 -20.699219 24.011719 -19.296875 24.011719 -17.855469 C 24.011719 -16.378906 23.796875 -15.011719 23.398438 -13.714844 C 23.003906 -12.421875 22.464844 -11.269531 21.816406 -10.296875 C 21.167969 -9.324219 20.375 -8.566406 19.511719 -7.992188 C 18.613281 -7.414062 17.675781 -7.128906 16.667969 -7.128906 Z M 16.667969 -7.128906 "/></g></g></g><g fill="#ffc1b2" fill-opacity="0.502"><g transform="translate(524.689667, 589.116734)"><g><path d="M 30.816406 -1.007812 L 30.132812 -1.546875 C 29.628906 -1.871094 29.195312 -2.304688 28.835938 -2.878906 L 18.792969 -17.101562 C 18.574219 -17.316406 18.503906 -17.605469 18.503906 -17.890625 C 18.503906 -18.179688 18.574219 -18.433594 18.792969 -18.683594 L 28.835938 -32.941406 C 29.195312 -33.40625 29.628906 -33.875 30.167969 -34.308594 L 30.816406 -34.777344 C 31.03125 -34.957031 31.105469 -35.207031 30.996094 -35.496094 C 30.851562 -35.675781 30.671875 -35.785156 30.492188 -35.785156 L 21.132812 -35.785156 C 20.878906 -35.785156 20.699219 -35.675781 20.628906 -35.460938 C 20.519531 -35.242188 20.519531 -35.0625 20.664062 -34.882812 L 20.699219 -34.847656 C 20.914062 -34.558594 20.953125 -34.273438 20.773438 -33.984375 L 13.644531 -23.832031 C 13.429688 -23.578125 13.210938 -23.507812 12.925781 -23.578125 C 12.636719 -23.652344 12.527344 -23.867188 12.527344 -24.191406 L 12.527344 -32.867188 C 12.527344 -33.589844 12.78125 -34.273438 13.320312 -34.847656 C 13.464844 -35.027344 13.5 -35.242188 13.429688 -35.460938 C 13.320312 -35.675781 13.140625 -35.785156 12.925781 -35.785156 L 4.859375 -35.785156 C 4.609375 -35.785156 4.429688 -35.675781 4.355469 -35.460938 C 4.246094 -35.242188 4.285156 -35.0625 4.464844 -34.882812 C 5.074219 -34.199219 5.398438 -33.40625 5.398438 -32.472656 L 5.398438 -3.132812 C 5.398438 -2.304688 5.113281 -1.585938 4.570312 -1.007812 L 4.464844 -0.898438 C 4.320312 -0.683594 4.320312 -0.503906 4.429688 -0.289062 C 4.5 -0.0703125 4.679688 0 4.933594 0 L 12.996094 0 C 13.210938 0 13.390625 -0.109375 13.464844 -0.324219 C 13.535156 -0.539062 13.535156 -0.71875 13.390625 -0.898438 C 12.816406 -1.511719 12.527344 -2.230469 12.527344 -3.023438 L 12.527344 -11.628906 C 12.527344 -11.914062 12.636719 -12.097656 12.925781 -12.203125 C 13.210938 -12.277344 13.429688 -12.203125 13.644531 -11.953125 L 20.773438 -1.835938 C 20.953125 -1.476562 20.914062 -1.1875 20.699219 -0.972656 L 20.664062 -0.898438 C 20.519531 -0.683594 20.519531 -0.503906 20.628906 -0.289062 C 20.699219 -0.0703125 20.878906 0 21.132812 0 L 30.492188 0 C 30.707031 0 30.851562 -0.109375 30.996094 -0.324219 C 31.03125 -0.433594 31.03125 -0.539062 31.03125 -0.683594 C 30.996094 -0.828125 30.925781 -0.9375 30.816406 -1.007812 Z M 30.816406 -1.007812 "/></g></g></g><g fill="#ffc1b2" fill-opacity="0.502"><g transform="translate(560.077738, 589.116734)"><g><path d="M 26.207031 -36.035156 C 25.597656 -35.460938 24.875 -35.207031 24.085938 -35.207031 L 4.894531 -35.207031 C 4.644531 -35.207031 4.464844 -35.101562 4.390625 -34.882812 C 4.285156 -34.667969 4.285156 -34.488281 4.429688 -34.308594 L 4.535156 -34.199219 C 5.113281 -33.550781 5.398438 -32.796875 5.398438 -31.933594 L 5.398438 -2.699219 C 5.398438 -2.269531 5.328125 -1.871094 5.183594 -1.476562 C 5.039062 -1.078125 4.824219 -0.71875 4.535156 -0.433594 L 4.429688 -0.324219 C 4.285156 -0.109375 4.285156 0.0703125 4.390625 0.289062 C 4.464844 0.503906 4.644531 0.574219 4.894531 0.574219 L 24.085938 0.574219 C 24.875 0.574219 25.597656 0.863281 26.207031 1.402344 C 26.386719 1.585938 26.605469 1.621094 26.820312 1.511719 C 27.035156 1.441406 27.179688 1.261719 27.179688 0.972656 L 27.179688 -7.054688 C 27.179688 -7.273438 27.070312 -7.453125 26.855469 -7.558594 C 26.640625 -7.632812 26.425781 -7.597656 26.28125 -7.453125 C 25.632812 -6.839844 24.875 -6.550781 24.011719 -6.550781 L 13.429688 -6.550781 C 13.175781 -6.550781 12.960938 -6.625 12.78125 -6.804688 C 12.601562 -6.949219 12.527344 -7.164062 12.527344 -7.453125 L 12.527344 -12.851562 C 12.527344 -13.105469 12.601562 -13.320312 12.78125 -13.5 C 12.960938 -13.644531 13.175781 -13.753906 13.429688 -13.753906 L 16.597656 -13.753906 C 17.460938 -13.753906 18.214844 -13.429688 18.863281 -12.851562 C 19.042969 -12.707031 19.222656 -12.707031 19.441406 -12.816406 C 19.65625 -12.925781 19.765625 -13.105469 19.765625 -13.320312 L 19.765625 -21.3125 C 19.765625 -21.527344 19.65625 -21.671875 19.441406 -21.78125 C 19.222656 -21.886719 19.042969 -21.886719 18.863281 -21.78125 C 18.214844 -21.167969 17.460938 -20.878906 16.597656 -20.878906 L 13.429688 -20.878906 C 13.175781 -20.878906 12.960938 -20.953125 12.78125 -21.132812 C 12.601562 -21.277344 12.527344 -21.492188 12.527344 -21.78125 L 12.527344 -27.179688 C 12.527344 -27.433594 12.601562 -27.648438 12.78125 -27.828125 C 12.960938 -27.972656 13.175781 -28.078125 13.429688 -28.078125 L 24.011719 -28.078125 C 24.875 -28.078125 25.632812 -27.757812 26.28125 -27.179688 C 26.425781 -27 26.640625 -26.964844 26.855469 -27.070312 C 27.070312 -27.144531 27.179688 -27.324219 27.179688 -27.574219 L 27.179688 -35.640625 C 27.179688 -35.855469 27.035156 -36.035156 26.820312 -36.144531 C 26.605469 -36.214844 26.386719 -36.179688 26.207031 -36.035156 Z M 26.207031 -36.035156 "/></g></g></g><g fill="#ffc1b2" fill-opacity="0.502"><g transform="translate(591.577805, 589.116734)"><g><path d="M 25.738281 -31.464844 C 24.589844 -32.832031 23.183594 -33.910156 21.601562 -34.667969 C 19.980469 -35.386719 18.214844 -35.785156 16.34375 -35.785156 L 4.859375 -35.785156 C 4.609375 -35.785156 4.429688 -35.675781 4.355469 -35.460938 C 4.246094 -35.242188 4.285156 -35.0625 4.464844 -34.882812 C 5.113281 -34.164062 5.472656 -33.300781 5.472656 -32.328125 L 5.472656 -3.457031 C 5.472656 -2.449219 5.113281 -1.621094 4.464844 -0.898438 C 4.285156 -0.683594 4.246094 -0.503906 4.355469 -0.289062 C 4.429688 -0.0703125 4.609375 0 4.859375 0 L 12.996094 0 C 13.210938 0 13.390625 -0.0703125 13.464844 -0.289062 C 13.535156 -0.503906 13.535156 -0.683594 13.390625 -0.898438 C 12.851562 -1.476562 12.601562 -2.125 12.601562 -2.84375 L 12.601562 -8.101562 C 12.601562 -8.460938 12.707031 -8.785156 12.996094 -9.070312 C 13.246094 -9.324219 13.570312 -9.46875 13.96875 -9.46875 L 16.34375 -9.46875 C 18.214844 -9.46875 19.980469 -9.828125 21.601562 -10.546875 C 23.183594 -11.269531 24.589844 -12.347656 25.738281 -13.753906 C 26.710938 -14.941406 27.46875 -16.308594 27.972656 -17.820312 C 28.476562 -19.332031 28.765625 -20.914062 28.765625 -22.570312 C 28.765625 -24.226562 28.476562 -25.847656 27.972656 -27.359375 C 27.46875 -28.871094 26.710938 -30.238281 25.738281 -31.464844 Z M 20.230469 -18.289062 C 19.332031 -17.136719 18.035156 -16.597656 16.34375 -16.597656 L 13.609375 -16.597656 C 13.320312 -16.597656 13.105469 -16.667969 12.886719 -16.882812 C 12.671875 -17.0625 12.601562 -17.28125 12.601562 -17.566406 L 12.601562 -27.648438 C 12.601562 -27.898438 12.671875 -28.117188 12.886719 -28.332031 C 13.105469 -28.546875 13.320312 -28.65625 13.609375 -28.65625 L 16.34375 -28.65625 C 17.640625 -28.65625 18.613281 -28.367188 19.332031 -27.792969 C 20.050781 -27.214844 20.554688 -26.566406 20.914062 -25.847656 C 21.238281 -25.128906 21.457031 -24.445312 21.527344 -23.796875 C 21.601562 -23.148438 21.636719 -22.714844 21.636719 -22.570312 C 21.636719 -21.707031 21.492188 -20.914062 21.277344 -20.195312 C 21.023438 -19.476562 20.664062 -18.828125 20.230469 -18.289062 Z M 20.230469 -18.289062 "/></g></g></g><g fill="#ffc1b2" fill-opacity="0.502"><g transform="translate(623.257865, 589.116734)"><g><path d="M 27.214844 -30.167969 C 25.847656 -31.96875 24.226562 -33.335938 22.429688 -34.308594 C 20.59375 -35.242188 18.683594 -35.746094 16.667969 -35.746094 C 14.652344 -35.746094 12.707031 -35.242188 10.871094 -34.308594 C 9.035156 -33.335938 7.453125 -31.96875 6.085938 -30.167969 C 4.789062 -28.476562 3.816406 -26.566406 3.167969 -24.480469 C 2.484375 -22.390625 2.160156 -20.160156 2.160156 -17.855469 C 2.160156 -15.550781 2.484375 -13.320312 3.167969 -11.230469 C 3.816406 -9.109375 4.789062 -7.234375 6.085938 -5.578125 C 7.453125 -3.78125 9.035156 -2.375 10.871094 -1.441406 C 12.707031 -0.46875 14.652344 0 16.667969 0 C 18.683594 0 20.59375 -0.46875 22.429688 -1.441406 C 24.226562 -2.375 25.847656 -3.78125 27.214844 -5.578125 C 28.511719 -7.234375 29.484375 -9.109375 30.167969 -11.230469 C 30.816406 -13.320312 31.175781 -15.550781 31.175781 -17.855469 C 31.175781 -20.160156 30.816406 -22.390625 30.167969 -24.480469 C 29.484375 -26.566406 28.511719 -28.476562 27.214844 -30.167969 Z M 16.667969 -7.128906 C 15.660156 -7.128906 14.6875 -7.414062 13.824219 -7.992188 C 12.925781 -8.566406 12.132812 -9.324219 11.484375 -10.296875 C 10.800781 -11.269531 10.261719 -12.421875 9.863281 -13.714844 C 9.46875 -15.011719 9.289062 -16.378906 9.289062 -17.855469 C 9.289062 -19.296875 9.46875 -20.699219 9.863281 -21.996094 C 10.261719 -23.292969 10.800781 -24.40625 11.484375 -25.414062 C 12.132812 -26.386719 12.925781 -27.179688 13.824219 -27.757812 C 14.6875 -28.332031 15.660156 -28.621094 16.667969 -28.621094 C 17.675781 -28.621094 18.613281 -28.332031 19.511719 -27.757812 C 20.375 -27.179688 21.167969 -26.386719 21.816406 -25.414062 C 22.464844 -24.40625 23.003906 -23.292969 23.398438 -21.996094 C 23.796875 -20.699219 24.011719 -19.296875 24.011719 -17.855469 C 24.011719 -16.378906 23.796875 -15.011719 23.398438 -13.714844 C 23.003906 -12.421875 22.464844 -11.269531 21.816406 -10.296875 C 21.167969 -9.324219 20.375 -8.566406 19.511719 -7.992188 C 18.613281 -7.414062 17.675781 -7.128906 16.667969 -7.128906 Z M 16.667969 -7.128906 "/></g></g></g><g fill="#ffc1b2" fill-opacity="0.502"><g transform="translate(656.593931, 589.116734)"><g><path d="M 33.550781 -0.898438 L 33.515625 -0.9375 C 32.941406 -1.511719 32.6875 -2.230469 32.6875 -3.097656 L 32.6875 -32.6875 C 32.6875 -33.515625 32.941406 -34.234375 33.515625 -34.847656 L 33.550781 -34.882812 C 33.660156 -35.0625 33.660156 -35.242188 33.589844 -35.460938 C 33.480469 -35.675781 33.300781 -35.785156 33.085938 -35.785156 L 25.128906 -35.785156 C 24.875 -35.785156 24.695312 -35.675781 24.625 -35.460938 C 24.515625 -35.242188 24.515625 -35.0625 24.660156 -34.882812 L 24.695312 -34.847656 C 25.234375 -34.234375 25.523438 -33.515625 25.523438 -32.6875 L 25.523438 -14.796875 C 25.523438 -14.652344 25.453125 -14.542969 25.308594 -14.507812 C 25.164062 -14.472656 25.054688 -14.507812 24.984375 -14.652344 L 13.714844 -33.589844 C 13.429688 -34.019531 13.5 -34.453125 13.859375 -34.882812 C 13.96875 -35.0625 13.96875 -35.242188 13.894531 -35.460938 C 13.789062 -35.675781 13.609375 -35.785156 13.390625 -35.785156 L 12.421875 -35.785156 L 12.421875 -35.746094 L 12.421875 -35.785156 L 4.894531 -35.785156 C 4.644531 -35.785156 4.464844 -35.675781 4.390625 -35.460938 C 4.285156 -35.242188 4.285156 -35.0625 4.429688 -34.882812 C 5.003906 -34.234375 5.292969 -33.515625 5.292969 -32.722656 L 5.292969 -3.058594 C 5.292969 -2.230469 5.003906 -1.511719 4.429688 -0.898438 C 4.285156 -0.683594 4.285156 -0.503906 4.390625 -0.289062 C 4.464844 -0.0703125 4.644531 0 4.894531 0 L 12.851562 0 C 13.066406 0 13.246094 -0.0703125 13.355469 -0.289062 C 13.429688 -0.503906 13.429688 -0.683594 13.320312 -0.898438 L 13.246094 -0.972656 C 12.671875 -1.546875 12.421875 -2.269531 12.421875 -3.132812 L 12.421875 -20.988281 C 12.421875 -21.132812 12.457031 -21.203125 12.601562 -21.238281 C 12.742188 -21.277344 12.851562 -21.238281 12.960938 -21.132812 L 24.265625 -2.160156 C 24.480469 -1.691406 24.445312 -1.261719 24.121094 -0.898438 C 23.976562 -0.683594 23.976562 -0.503906 24.085938 -0.289062 C 24.15625 -0.0703125 24.335938 0 24.589844 0 L 33.085938 0 C 33.300781 0 33.480469 -0.0703125 33.589844 -0.289062 C 33.660156 -0.503906 33.660156 -0.683594 33.550781 -0.898438 Z M 33.550781 -0.898438 "/></g></g></g><g fill="#3f2046" fill-opacity="1"><g transform="translate(448.02625, 589.521134)"><g><path d="M 38.988281 -3.023438 L 38.988281 -32.761719 C 38.988281 -33.550781 39.238281 -34.273438 39.816406 -34.882812 C 39.960938 -35.0625 39.996094 -35.242188 39.925781 -35.460938 C 39.816406 -35.675781 39.671875 -35.785156 39.457031 -35.785156 L 31.859375 -35.785156 L 31.824219 -35.746094 L 31.824219 -35.785156 L 30.851562 -35.785156 C 30.601562 -35.785156 30.421875 -35.675781 30.347656 -35.460938 C 30.238281 -35.242188 30.238281 -35.0625 30.382812 -34.882812 C 30.527344 -34.667969 30.492188 -34.523438 30.347656 -34.414062 L 22.933594 -27.574219 C 22.679688 -27.359375 22.390625 -27.289062 22.105469 -27.289062 C 21.816406 -27.289062 21.5625 -27.359375 21.347656 -27.574219 L 13.824219 -34.488281 C 13.679688 -34.597656 13.679688 -34.703125 13.824219 -34.847656 C 13.96875 -35.027344 14.003906 -35.242188 13.933594 -35.460938 C 13.824219 -35.675781 13.644531 -35.785156 13.390625 -35.785156 L 4.894531 -35.785156 C 4.644531 -35.785156 4.464844 -35.675781 4.390625 -35.460938 C 4.285156 -35.242188 4.285156 -35.0625 4.429688 -34.882812 L 4.464844 -34.847656 C 5.003906 -34.234375 5.292969 -33.515625 5.292969 -32.722656 L 5.292969 -3.058594 C 5.292969 -2.230469 5.003906 -1.511719 4.464844 -0.9375 L 4.429688 -0.898438 C 4.285156 -0.683594 4.285156 -0.503906 4.390625 -0.289062 C 4.464844 -0.0703125 4.644531 0 4.894531 0 L 12.851562 0 C 13.066406 0 13.246094 -0.0703125 13.355469 -0.289062 C 13.429688 -0.503906 13.429688 -0.683594 13.320312 -0.898438 L 13.246094 -0.972656 C 12.671875 -1.546875 12.421875 -2.269531 12.421875 -3.097656 L 12.421875 -24.910156 C 12.421875 -25.128906 12.492188 -25.273438 12.707031 -25.34375 C 12.925781 -25.414062 13.105469 -25.414062 13.285156 -25.273438 L 21.347656 -17.785156 C 21.5625 -17.566406 21.816406 -17.460938 22.140625 -17.460938 C 22.429688 -17.460938 22.714844 -17.566406 22.933594 -17.785156 L 30.996094 -25.273438 C 31.140625 -25.414062 31.320312 -25.414062 31.535156 -25.34375 C 31.753906 -25.273438 31.859375 -25.128906 31.859375 -24.910156 L 31.859375 -3.132812 C 31.859375 -2.339844 31.570312 -1.621094 30.996094 -1.007812 L 30.925781 -0.898438 C 30.78125 -0.683594 30.78125 -0.503906 30.886719 -0.289062 C 30.960938 -0.0703125 31.140625 0 31.390625 0 L 39.457031 0 C 39.671875 0 39.816406 -0.0703125 39.925781 -0.289062 C 39.996094 -0.503906 39.960938 -0.683594 39.816406 -0.898438 C 39.238281 -1.476562 38.988281 -2.195312 38.988281 -3.023438 Z M 38.988281 -3.023438 "/></g></g></g><g fill="#3f2046" fill-opacity="1"><g transform="translate(492.306334, 589.521134)"><g><path d="M 27.214844 -30.167969 C 25.847656 -31.96875 24.226562 -33.335938 22.429688 -34.308594 C 20.59375 -35.242188 18.683594 -35.746094 16.667969 -35.746094 C 14.652344 -35.746094 12.707031 -35.242188 10.871094 -34.308594 C 9.035156 -33.335938 7.453125 -31.96875 6.085938 -30.167969 C 4.789062 -28.476562 3.816406 -26.566406 3.167969 -24.480469 C 2.484375 -22.390625 2.160156 -20.160156 2.160156 -17.855469 C 2.160156 -15.550781 2.484375 -13.320312 3.167969 -11.230469 C 3.816406 -9.109375 4.789062 -7.234375 6.085938 -5.578125 C 7.453125 -3.78125 9.035156 -2.375 10.871094 -1.441406 C 12.707031 -0.46875 14.652344 0 16.667969 0 C 18.683594 0 20.59375 -0.46875 22.429688 -1.441406 C 24.226562 -2.375 25.847656 -3.78125 27.214844 -5.578125 C 28.511719 -7.234375 29.484375 -9.109375 30.167969 -11.230469 C 30.816406 -13.320312 31.175781 -15.550781 31.175781 -17.855469 C 31.175781 -20.160156 30.816406 -22.390625 30.167969 -24.480469 C 29.484375 -26.566406 28.511719 -28.476562 27.214844 -30.167969 Z M 16.667969 -7.128906 C 15.660156 -7.128906 14.6875 -7.414062 13.824219 -7.992188 C 12.925781 -8.566406 12.132812 -9.324219 11.484375 -10.296875 C 10.800781 -11.269531 10.261719 -12.421875 9.863281 -13.714844 C 9.46875 -15.011719 9.289062 -16.378906 9.289062 -17.855469 C 9.289062 -19.296875 9.46875 -20.699219 9.863281 -21.996094 C 10.261719 -23.292969 10.800781 -24.40625 11.484375 -25.414062 C 12.132812 -26.386719 12.925781 -27.179688 13.824219 -27.757812 C 14.6875 -28.332031 15.660156 -28.621094 16.667969 -28.621094 C 17.675781 -28.621094 18.613281 -28.332031 19.511719 -27.757812 C 20.375 -27.179688 21.167969 -26.386719 21.816406 -25.414062 C 22.464844 -24.40625 23.003906 -23.292969 23.398438 -21.996094 C 23.796875 -20.699219 24.011719 -19.296875 24.011719 -17.855469 C 24.011719 -16.378906 23.796875 -15.011719 23.398438 -13.714844 C 23.003906 -12.421875 22.464844 -11.269531 21.816406 -10.296875 C 21.167969 -9.324219 20.375 -8.566406 19.511719 -7.992188 C 18.613281 -7.414062 17.675781 -7.128906 16.667969 -7.128906 Z M 16.667969 -7.128906 "/></g></g></g><g fill="#3f2046" fill-opacity="1"><g transform="translate(525.6424, 589.521134)"><g><path d="M 30.816406 -1.007812 L 30.132812 -1.546875 C 29.628906 -1.871094 29.195312 -2.304688 28.835938 -2.878906 L 18.792969 -17.101562 C 18.574219 -17.316406 18.503906 -17.605469 18.503906 -17.890625 C 18.503906 -18.179688 18.574219 -18.433594 18.792969 -18.683594 L 28.835938 -32.941406 C 29.195312 -33.40625 29.628906 -33.875 30.167969 -34.308594 L 30.816406 -34.777344 C 31.03125 -34.957031 31.105469 -35.207031 30.996094 -35.496094 C 30.851562 -35.675781 30.671875 -35.785156 30.492188 -35.785156 L 21.132812 -35.785156 C 20.878906 -35.785156 20.699219 -35.675781 20.628906 -35.460938 C 20.519531 -35.242188 20.519531 -35.0625 20.664062 -34.882812 L 20.699219 -34.847656 C 20.914062 -34.558594 20.953125 -34.273438 20.773438 -33.984375 L 13.644531 -23.832031 C 13.429688 -23.578125 13.210938 -23.507812 12.925781 -23.578125 C 12.636719 -23.652344 12.527344 -23.867188 12.527344 -24.191406 L 12.527344 -32.867188 C 12.527344 -33.589844 12.78125 -34.273438 13.320312 -34.847656 C 13.464844 -35.027344 13.5 -35.242188 13.429688 -35.460938 C 13.320312 -35.675781 13.140625 -35.785156 12.925781 -35.785156 L 4.859375 -35.785156 C 4.609375 -35.785156 4.429688 -35.675781 4.355469 -35.460938 C 4.246094 -35.242188 4.285156 -35.0625 4.464844 -34.882812 C 5.074219 -34.199219 5.398438 -33.40625 5.398438 -32.472656 L 5.398438 -3.132812 C 5.398438 -2.304688 5.113281 -1.585938 4.570312 -1.007812 L 4.464844 -0.898438 C 4.320312 -0.683594 4.320312 -0.503906 4.429688 -0.289062 C 4.5 -0.0703125 4.679688 0 4.933594 0 L 12.996094 0 C 13.210938 0 13.390625 -0.109375 13.464844 -0.324219 C 13.535156 -0.539062 13.535156 -0.71875 13.390625 -0.898438 C 12.816406 -1.511719 12.527344 -2.230469 12.527344 -3.023438 L 12.527344 -11.628906 C 12.527344 -11.914062 12.636719 -12.097656 12.925781 -12.203125 C 13.210938 -12.277344 13.429688 -12.203125 13.644531 -11.953125 L 20.773438 -1.835938 C 20.953125 -1.476562 20.914062 -1.1875 20.699219 -0.972656 L 20.664062 -0.898438 C 20.519531 -0.683594 20.519531 -0.503906 20.628906 -0.289062 C 20.699219 -0.0703125 20.878906 0 21.132812 0 L 30.492188 0 C 30.707031 0 30.851562 -0.109375 30.996094 -0.324219 C 31.03125 -0.433594 31.03125 -0.539062 31.03125 -0.683594 C 30.996094 -0.828125 30.925781 -0.9375 30.816406 -1.007812 Z M 30.816406 -1.007812 "/></g></g></g><g fill="#3f2046" fill-opacity="1"><g transform="translate(561.030471, 589.521134)"><g><path d="M 26.207031 -36.035156 C 25.597656 -35.460938 24.875 -35.207031 24.085938 -35.207031 L 4.894531 -35.207031 C 4.644531 -35.207031 4.464844 -35.101562 4.390625 -34.882812 C 4.285156 -34.667969 4.285156 -34.488281 4.429688 -34.308594 L 4.535156 -34.199219 C 5.113281 -33.550781 5.398438 -32.796875 5.398438 -31.933594 L 5.398438 -2.699219 C 5.398438 -2.269531 5.328125 -1.871094 5.183594 -1.476562 C 5.039062 -1.078125 4.824219 -0.71875 4.535156 -0.433594 L 4.429688 -0.324219 C 4.285156 -0.109375 4.285156 0.0703125 4.390625 0.289062 C 4.464844 0.503906 4.644531 0.574219 4.894531 0.574219 L 24.085938 0.574219 C 24.875 0.574219 25.597656 0.863281 26.207031 1.402344 C 26.386719 1.585938 26.605469 1.621094 26.820312 1.511719 C 27.035156 1.441406 27.179688 1.261719 27.179688 0.972656 L 27.179688 -7.054688 C 27.179688 -7.273438 27.070312 -7.453125 26.855469 -7.558594 C 26.640625 -7.632812 26.425781 -7.597656 26.28125 -7.453125 C 25.632812 -6.839844 24.875 -6.550781 24.011719 -6.550781 L 13.429688 -6.550781 C 13.175781 -6.550781 12.960938 -6.625 12.78125 -6.804688 C 12.601562 -6.949219 12.527344 -7.164062 12.527344 -7.453125 L 12.527344 -12.851562 C 12.527344 -13.105469 12.601562 -13.320312 12.78125 -13.5 C 12.960938 -13.644531 13.175781 -13.753906 13.429688 -13.753906 L 16.597656 -13.753906 C 17.460938 -13.753906 18.214844 -13.429688 18.863281 -12.851562 C 19.042969 -12.707031 19.222656 -12.707031 19.441406 -12.816406 C 19.65625 -12.925781 19.765625 -13.105469 19.765625 -13.320312 L 19.765625 -21.3125 C 19.765625 -21.527344 19.65625 -21.671875 19.441406 -21.78125 C 19.222656 -21.886719 19.042969 -21.886719 18.863281 -21.78125 C 18.214844 -21.167969 17.460938 -20.878906 16.597656 -20.878906 L 13.429688 -20.878906 C 13.175781 -20.878906 12.960938 -20.953125 12.78125 -21.132812 C 12.601562 -21.277344 12.527344 -21.492188 12.527344 -21.78125 L 12.527344 -27.179688 C 12.527344 -27.433594 12.601562 -27.648438 12.78125 -27.828125 C 12.960938 -27.972656 13.175781 -28.078125 13.429688 -28.078125 L 24.011719 -28.078125 C 24.875 -28.078125 25.632812 -27.757812 26.28125 -27.179688 C 26.425781 -27 26.640625 -26.964844 26.855469 -27.070312 C 27.070312 -27.144531 27.179688 -27.324219 27.179688 -27.574219 L 27.179688 -35.640625 C 27.179688 -35.855469 27.035156 -36.035156 26.820312 -36.144531 C 26.605469 -36.214844 26.386719 -36.179688 26.207031 -36.035156 Z M 26.207031 -36.035156 "/></g></g></g><g fill="#3f2046" fill-opacity="1"><g transform="translate(592.530538, 589.521134)"><g><path d="M 25.738281 -31.464844 C 24.589844 -32.832031 23.183594 -33.910156 21.601562 -34.667969 C 19.980469 -35.386719 18.214844 -35.785156 16.34375 -35.785156 L 4.859375 -35.785156 C 4.609375 -35.785156 4.429688 -35.675781 4.355469 -35.460938 C 4.246094 -35.242188 4.285156 -35.0625 4.464844 -34.882812 C 5.113281 -34.164062 5.472656 -33.300781 5.472656 -32.328125 L 5.472656 -3.457031 C 5.472656 -2.449219 5.113281 -1.621094 4.464844 -0.898438 C 4.285156 -0.683594 4.246094 -0.503906 4.355469 -0.289062 C 4.429688 -0.0703125 4.609375 0 4.859375 0 L 12.996094 0 C 13.210938 0 13.390625 -0.0703125 13.464844 -0.289062 C 13.535156 -0.503906 13.535156 -0.683594 13.390625 -0.898438 C 12.851562 -1.476562 12.601562 -2.125 12.601562 -2.84375 L 12.601562 -8.101562 C 12.601562 -8.460938 12.707031 -8.785156 12.996094 -9.070312 C 13.246094 -9.324219 13.570312 -9.46875 13.96875 -9.46875 L 16.34375 -9.46875 C 18.214844 -9.46875 19.980469 -9.828125 21.601562 -10.546875 C 23.183594 -11.269531 24.589844 -12.347656 25.738281 -13.753906 C 26.710938 -14.941406 27.46875 -16.308594 27.972656 -17.820312 C 28.476562 -19.332031 28.765625 -20.914062 28.765625 -22.570312 C 28.765625 -24.226562 28.476562 -25.847656 27.972656 -27.359375 C 27.46875 -28.871094 26.710938 -30.238281 25.738281 -31.464844 Z M 20.230469 -18.289062 C 19.332031 -17.136719 18.035156 -16.597656 16.34375 -16.597656 L 13.609375 -16.597656 C 13.320312 -16.597656 13.105469 -16.667969 12.886719 -16.882812 C 12.671875 -17.0625 12.601562 -17.28125 12.601562 -17.566406 L 12.601562 -27.648438 C 12.601562 -27.898438 12.671875 -28.117188 12.886719 -28.332031 C 13.105469 -28.546875 13.320312 -28.65625 13.609375 -28.65625 L 16.34375 -28.65625 C 17.640625 -28.65625 18.613281 -28.367188 19.332031 -27.792969 C 20.050781 -27.214844 20.554688 -26.566406 20.914062 -25.847656 C 21.238281 -25.128906 21.457031 -24.445312 21.527344 -23.796875 C 21.601562 -23.148438 21.636719 -22.714844 21.636719 -22.570312 C 21.636719 -21.707031 21.492188 -20.914062 21.277344 -20.195312 C 21.023438 -19.476562 20.664062 -18.828125 20.230469 -18.289062 Z M 20.230469 -18.289062 "/></g></g></g><g fill="#3f2046" fill-opacity="1"><g transform="translate(624.210598, 589.521134)"><g><path d="M 27.214844 -30.167969 C 25.847656 -31.96875 24.226562 -33.335938 22.429688 -34.308594 C 20.59375 -35.242188 18.683594 -35.746094 16.667969 -35.746094 C 14.652344 -35.746094 12.707031 -35.242188 10.871094 -34.308594 C 9.035156 -33.335938 7.453125 -31.96875 6.085938 -30.167969 C 4.789062 -28.476562 3.816406 -26.566406 3.167969 -24.480469 C 2.484375 -22.390625 2.160156 -20.160156 2.160156 -17.855469 C 2.160156 -15.550781 2.484375 -13.320312 3.167969 -11.230469 C 3.816406 -9.109375 4.789062 -7.234375 6.085938 -5.578125 C 7.453125 -3.78125 9.035156 -2.375 10.871094 -1.441406 C 12.707031 -0.46875 14.652344 0 16.667969 0 C 18.683594 0 20.59375 -0.46875 22.429688 -1.441406 C 24.226562 -2.375 25.847656 -3.78125 27.214844 -5.578125 C 28.511719 -7.234375 29.484375 -9.109375 30.167969 -11.230469 C 30.816406 -13.320312 31.175781 -15.550781 31.175781 -17.855469 C 31.175781 -20.160156 30.816406 -22.390625 30.167969 -24.480469 C 29.484375 -26.566406 28.511719 -28.476562 27.214844 -30.167969 Z M 16.667969 -7.128906 C 15.660156 -7.128906 14.6875 -7.414062 13.824219 -7.992188 C 12.925781 -8.566406 12.132812 -9.324219 11.484375 -10.296875 C 10.800781 -11.269531 10.261719 -12.421875 9.863281 -13.714844 C 9.46875 -15.011719 9.289062 -16.378906 9.289062 -17.855469 C 9.289062 -19.296875 9.46875 -20.699219 9.863281 -21.996094 C 10.261719 -23.292969 10.800781 -24.40625 11.484375 -25.414062 C 12.132812 -26.386719 12.925781 -27.179688 13.824219 -27.757812 C 14.6875 -28.332031 15.660156 -28.621094 16.667969 -28.621094 C 17.675781 -28.621094 18.613281 -28.332031 19.511719 -27.757812 C 20.375 -27.179688 21.167969 -26.386719 21.816406 -25.414062 C 22.464844 -24.40625 23.003906 -23.292969 23.398438 -21.996094 C 23.796875 -20.699219 24.011719 -19.296875 24.011719 -17.855469 C 24.011719 -16.378906 23.796875 -15.011719 23.398438 -13.714844 C 23.003906 -12.421875 22.464844 -11.269531 21.816406 -10.296875 C 21.167969 -9.324219 20.375 -8.566406 19.511719 -7.992188 C 18.613281 -7.414062 17.675781 -7.128906 16.667969 -7.128906 Z M 16.667969 -7.128906 "/></g></g></g><g fill="#3f2046" fill-opacity="1"><g transform="translate(657.546664, 589.521134)"><g><path d="M 33.550781 -0.898438 L 33.515625 -0.9375 C 32.941406 -1.511719 32.6875 -2.230469 32.6875 -3.097656 L 32.6875 -32.6875 C 32.6875 -33.515625 32.941406 -34.234375 33.515625 -34.847656 L 33.550781 -34.882812 C 33.660156 -35.0625 33.660156 -35.242188 33.589844 -35.460938 C 33.480469 -35.675781 33.300781 -35.785156 33.085938 -35.785156 L 25.128906 -35.785156 C 24.875 -35.785156 24.695312 -35.675781 24.625 -35.460938 C 24.515625 -35.242188 24.515625 -35.0625 24.660156 -34.882812 L 24.695312 -34.847656 C 25.234375 -34.234375 25.523438 -33.515625 25.523438 -32.6875 L 25.523438 -14.796875 C 25.523438 -14.652344 25.453125 -14.542969 25.308594 -14.507812 C 25.164062 -14.472656 25.054688 -14.507812 24.984375 -14.652344 L 13.714844 -33.589844 C 13.429688 -34.019531 13.5 -34.453125 13.859375 -34.882812 C 13.96875 -35.0625 13.96875 -35.242188 13.894531 -35.460938 C 13.789062 -35.675781 13.609375 -35.785156 13.390625 -35.785156 L 12.421875 -35.785156 L 12.421875 -35.746094 L 12.421875 -35.785156 L 4.894531 -35.785156 C 4.644531 -35.785156 4.464844 -35.675781 4.390625 -35.460938 C 4.285156 -35.242188 4.285156 -35.0625 4.429688 -34.882812 C 5.003906 -34.234375 5.292969 -33.515625 5.292969 -32.722656 L 5.292969 -3.058594 C 5.292969 -2.230469 5.003906 -1.511719 4.429688 -0.898438 C 4.285156 -0.683594 4.285156 -0.503906 4.390625 -0.289062 C 4.464844 -0.0703125 4.644531 0 4.894531 0 L 12.851562 0 C 13.066406 0 13.246094 -0.0703125 13.355469 -0.289062 C 13.429688 -0.503906 13.429688 -0.683594 13.320312 -0.898438 L 13.246094 -0.972656 C 12.671875 -1.546875 12.421875 -2.269531 12.421875 -3.132812 L 12.421875 -20.988281 C 12.421875 -21.132812 12.457031 -21.203125 12.601562 -21.238281 C 12.742188 -21.277344 12.851562 -21.238281 12.960938 -21.132812 L 24.265625 -2.160156 C 24.480469 -1.691406 24.445312 -1.261719 24.121094 -0.898438 C 23.976562 -0.683594 23.976562 -0.503906 24.085938 -0.289062 C 24.15625 -0.0703125 24.335938 0 24.589844 0 L 33.085938 0 C 33.300781 0 33.480469 -0.0703125 33.589844 -0.289062 C 33.660156 -0.503906 33.660156 -0.683594 33.550781 -0.898438 Z M 33.550781 -0.898438 "/></g></g></g></svg>