<svg xmlns="http://www.w3.org/2000/svg" xmlns:xlink="http://www.w3.org/1999/xlink" width="1080" zoomAndPan="magnify" viewBox="0 0 810 809.999993" height="1080" preserveAspectRatio="xMidYMid meet" version="1.0"><defs><clipPath id="id1"><path d="M 244 337 L 567 337 L 567 473.535156 L 244 473.535156 Z M 244 337 " clip-rule="nonzero"/></clipPath><clipPath id="id2"><path d="M 243 336.285156 L 566 336.285156 L 566 468 L 243 468 Z M 243 336.285156 " clip-rule="nonzero"/></clipPath></defs><path fill="#008ca1" d="M 501.179688 339.089844 C 496.542969 339.089844 492.027344 339.589844 487.671875 340.527344 L 323.820312 340.527344 C 319.464844 339.589844 314.953125 339.089844 310.316406 339.089844 C 275.09375 339.089844 246.539062 372.964844 246.539062 408.140625 C 246.539062 443.320312 275.09375 471.835938 310.316406 471.835938 C 324.007812 471.835938 336.691406 467.527344 347.082031 460.191406 L 464.414062 460.191406 C 474.804688 467.527344 487.488281 471.835938 501.175781 471.835938 C 536.402344 471.835938 564.957031 443.320312 564.957031 408.140625 C 564.957031 372.964844 536.402344 339.089844 501.179688 339.089844 " fill-opacity="1" fill-rule="nonzero"/><g clip-path="url(#id1)"><path fill="#303030" d="M 346.546875 458.507812 L 464.949219 458.507812 L 465.390625 458.8125 C 475.894531 466.230469 488.269531 470.148438 501.179688 470.148438 C 535.414062 470.148438 563.265625 442.332031 563.265625 408.140625 C 563.265625 372.257812 534.253906 340.777344 501.179688 340.777344 C 496.761719 340.777344 492.339844 341.246094 488.03125 342.175781 L 487.855469 342.214844 L 323.644531 342.214844 L 323.464844 342.175781 C 319.160156 341.246094 314.734375 340.777344 310.316406 340.777344 C 277.242188 340.777344 248.230469 372.257812 248.230469 408.140625 C 248.230469 442.332031 276.082031 470.148438 310.316406 470.148438 C 323.222656 470.148438 335.601562 466.230469 346.109375 458.8125 Z M 501.179688 473.523438 C 487.746094 473.523438 474.863281 469.5 463.878906 461.878906 L 347.617188 461.878906 C 336.628906 469.5 323.746094 473.523438 310.316406 473.523438 C 274.21875 473.523438 244.847656 444.191406 244.847656 408.140625 C 244.847656 390.636719 251.8125 372.835938 263.960938 359.296875 C 276.625 345.175781 293.089844 337.402344 310.316406 337.402344 C 314.914062 337.402344 319.515625 337.882812 324 338.835938 L 487.496094 338.835938 C 491.980469 337.882812 496.582031 337.402344 501.179688 337.402344 C 518.40625 337.402344 534.871094 345.175781 547.535156 359.296875 C 559.679688 372.835938 566.644531 390.636719 566.644531 408.140625 C 566.644531 444.191406 537.277344 473.523438 501.179688 473.523438 " fill-opacity="1" fill-rule="nonzero"/></g><path fill="#fdcc4a" d="M 499.753906 338.046875 C 495.121094 338.046875 490.605469 338.546875 486.25 339.484375 L 322.398438 339.484375 C 318.042969 338.546875 313.527344 338.046875 308.894531 338.046875 C 273.671875 338.046875 245.113281 366.5625 245.113281 401.742188 C 245.113281 436.921875 273.671875 465.441406 308.894531 465.441406 C 322.585938 465.441406 335.269531 461.128906 345.65625 453.792969 L 462.992188 453.792969 C 473.378906 461.128906 486.0625 465.441406 499.753906 465.441406 C 534.976562 465.441406 563.535156 436.921875 563.535156 401.742188 C 563.535156 366.5625 534.976562 338.046875 499.753906 338.046875 " fill-opacity="1" fill-rule="nonzero"/><g clip-path="url(#id2)"><path fill="#231f20" d="M 345.09375 452.019531 L 463.554688 452.019531 L 464.015625 452.34375 C 474.507812 459.75 486.867188 463.664062 499.753906 463.664062 C 533.941406 463.664062 561.753906 435.886719 561.753906 401.742188 C 561.753906 367.601562 533.941406 339.820312 499.753906 339.820312 C 495.347656 339.820312 490.929688 340.292969 486.625 341.21875 L 486.4375 341.257812 L 322.210938 341.257812 L 322.023438 341.21875 C 317.722656 340.292969 313.304688 339.820312 308.894531 339.820312 C 274.707031 339.820312 246.894531 367.601562 246.894531 401.742188 C 246.894531 435.886719 274.707031 463.664062 308.894531 463.664062 C 321.78125 463.664062 334.140625 459.75 344.632812 452.34375 Z M 499.753906 467.21875 C 486.316406 467.21875 473.425781 463.191406 462.429688 455.574219 L 346.21875 455.574219 C 335.222656 463.191406 322.332031 467.21875 308.894531 467.21875 C 272.746094 467.21875 243.335938 437.847656 243.335938 401.742188 C 243.335938 365.644531 272.746094 336.269531 308.894531 336.269531 C 313.488281 336.269531 318.097656 336.753906 322.585938 337.707031 L 486.0625 337.707031 C 490.550781 336.753906 495.160156 336.269531 499.753906 336.269531 C 535.902344 336.269531 565.3125 365.644531 565.3125 401.742188 C 565.3125 437.847656 535.902344 467.21875 499.753906 467.21875 " fill-opacity="1" fill-rule="nonzero"/></g><path fill="#fdcc4a" d="M 361.515625 401.742188 C 361.515625 430.769531 337.957031 454.300781 308.894531 454.300781 C 279.832031 454.300781 256.269531 430.769531 256.269531 401.742188 C 256.269531 372.71875 279.832031 349.1875 308.894531 349.1875 C 337.957031 349.1875 361.515625 372.71875 361.515625 401.742188 " fill-opacity="1" fill-rule="nonzero"/><path fill="#231f20" d="M 308.894531 350.964844 C 280.859375 350.964844 258.050781 373.742188 258.050781 401.742188 C 258.050781 429.742188 280.859375 452.523438 308.894531 452.523438 C 336.929688 452.523438 359.738281 429.742188 359.738281 401.742188 C 359.738281 373.742188 336.929688 350.964844 308.894531 350.964844 Z M 308.894531 456.074219 C 278.898438 456.074219 254.492188 431.703125 254.492188 401.742188 C 254.492188 371.785156 278.898438 347.410156 308.894531 347.410156 C 338.890625 347.410156 363.292969 371.785156 363.292969 401.742188 C 363.292969 431.703125 338.890625 456.074219 308.894531 456.074219 " fill-opacity="1" fill-rule="nonzero"/><path fill="#fdcc4a" d="M 552.378906 401.742188 C 552.378906 430.769531 528.816406 454.300781 499.753906 454.300781 C 470.691406 454.300781 447.132812 430.769531 447.132812 401.742188 C 447.132812 372.71875 470.691406 349.1875 499.753906 349.1875 C 528.816406 349.1875 552.378906 372.71875 552.378906 401.742188 " fill-opacity="1" fill-rule="nonzero"/><path fill="#303030" d="M 499.753906 350.878906 C 471.671875 350.878906 448.824219 373.695312 448.824219 401.742188 C 448.824219 429.792969 471.671875 452.613281 499.753906 452.613281 C 527.839844 452.613281 550.6875 429.792969 550.6875 401.742188 C 550.6875 373.695312 527.839844 350.878906 499.753906 350.878906 Z M 499.753906 455.988281 C 469.808594 455.988281 445.441406 431.652344 445.441406 401.742188 C 445.441406 371.835938 469.808594 347.5 499.753906 347.5 C 529.703125 347.5 554.066406 371.835938 554.066406 401.742188 C 554.066406 431.652344 529.703125 455.988281 499.753906 455.988281 " fill-opacity="1" fill-rule="nonzero"/><path fill="#303030" d="M 311.558594 434.839844 L 308.046875 434.839844 C 304.558594 434.839844 301.726562 432.011719 301.726562 428.527344 L 301.726562 374.898438 C 301.726562 371.410156 304.558594 368.585938 308.046875 368.585938 L 311.558594 368.585938 C 315.046875 368.585938 317.878906 371.410156 317.878906 374.898438 L 317.878906 428.527344 C 317.878906 432.011719 315.046875 434.839844 311.558594 434.839844 " fill-opacity="1" fill-rule="nonzero"/><path fill="#303030" d="M 308.046875 370.925781 C 305.855469 370.925781 304.074219 372.707031 304.074219 374.898438 L 304.074219 428.523438 C 304.074219 430.714844 305.855469 432.496094 308.046875 432.496094 L 311.558594 432.496094 C 313.75 432.496094 315.53125 430.714844 315.53125 428.523438 L 315.53125 374.898438 C 315.53125 372.707031 313.75 370.925781 311.558594 370.925781 Z M 311.558594 437.1875 L 308.046875 437.1875 C 303.269531 437.1875 299.378906 433.300781 299.378906 428.523438 L 299.378906 374.898438 C 299.378906 370.121094 303.269531 366.238281 308.046875 366.238281 L 311.558594 366.238281 C 316.339844 366.238281 320.226562 370.121094 320.226562 374.898438 L 320.226562 428.523438 C 320.226562 433.300781 316.339844 437.1875 311.558594 437.1875 " fill-opacity="1" fill-rule="nonzero"/><path fill="#303030" d="M 276.632812 403.464844 L 276.632812 399.957031 C 276.632812 396.46875 279.464844 393.644531 282.953125 393.644531 L 336.652344 393.644531 C 340.140625 393.644531 342.972656 396.46875 342.972656 399.957031 L 342.972656 403.464844 C 342.972656 406.953125 340.140625 409.78125 336.652344 409.78125 L 282.953125 409.78125 C 279.464844 409.78125 276.632812 406.953125 276.632812 403.464844 " fill-opacity="1" fill-rule="nonzero"/><path fill="#303030" d="M 282.953125 395.992188 C 280.761719 395.992188 278.980469 397.769531 278.980469 399.957031 L 278.980469 403.464844 C 278.980469 405.652344 280.761719 407.433594 282.953125 407.433594 L 336.652344 407.433594 C 338.84375 407.433594 340.625 405.652344 340.625 403.464844 L 340.625 399.957031 C 340.625 397.769531 338.84375 395.992188 336.652344 395.992188 Z M 336.652344 412.125 L 282.953125 412.125 C 278.175781 412.125 274.285156 408.238281 274.285156 403.464844 L 274.285156 399.957031 C 274.285156 395.1875 278.175781 391.300781 282.953125 391.300781 L 336.652344 391.300781 C 341.429688 391.300781 345.320312 395.1875 345.320312 399.957031 L 345.320312 403.464844 C 345.320312 408.238281 341.429688 412.125 336.652344 412.125 " fill-opacity="1" fill-rule="nonzero"/><path fill="#e9dcd3" d="M 282.890625 393.445312 C 278.828125 393.445312 275.523438 396.75 275.523438 400.804688 C 275.523438 404.863281 278.828125 408.160156 282.890625 408.160156 L 300.617188 408.160156 L 300.617188 425.867188 C 300.617188 429.921875 303.921875 433.222656 307.984375 433.222656 C 312.046875 433.222656 315.351562 429.921875 315.351562 425.867188 L 315.351562 408.160156 L 333.078125 408.160156 C 337.140625 408.160156 340.445312 404.863281 340.445312 400.804688 C 340.445312 396.75 337.140625 393.445312 333.078125 393.445312 L 315.351562 393.445312 L 315.351562 375.742188 C 315.351562 371.6875 312.046875 368.382812 307.984375 368.382812 C 303.921875 368.382812 300.617188 371.6875 300.617188 375.742188 L 300.617188 393.445312 Z M 307.984375 434.644531 C 303.136719 434.644531 299.195312 430.707031 299.195312 425.867188 L 299.195312 409.582031 L 282.890625 409.582031 C 278.042969 409.582031 274.101562 405.644531 274.101562 400.804688 C 274.101562 395.960938 278.042969 392.023438 282.890625 392.023438 L 299.195312 392.023438 L 299.195312 375.742188 C 299.195312 370.902344 303.136719 366.964844 307.984375 366.964844 C 312.832031 366.964844 316.773438 370.902344 316.773438 375.742188 L 316.773438 392.023438 L 333.078125 392.023438 C 337.925781 392.023438 341.867188 395.960938 341.867188 400.804688 C 341.867188 405.644531 337.925781 409.582031 333.078125 409.582031 L 316.773438 409.582031 L 316.773438 425.867188 C 316.773438 430.707031 312.832031 434.644531 307.984375 434.644531 " fill-opacity="1" fill-rule="nonzero"/><path fill="#fdcc4a" d="M 463.765625 417.925781 L 461.425781 415.3125 C 459.097656 412.710938 459.320312 408.722656 461.925781 406.394531 L 501.941406 370.636719 C 504.542969 368.3125 508.539062 368.53125 510.867188 371.132812 L 513.207031 373.742188 C 515.535156 376.34375 515.3125 380.335938 512.714844 382.664062 L 472.695312 418.421875 C 470.09375 420.746094 466.09375 420.523438 463.765625 417.925781 " fill-opacity="1" fill-rule="nonzero"/><path fill="#303030" d="M 465.515625 416.363281 C 466.976562 417.992188 469.496094 418.132812 471.128906 416.671875 L 511.144531 380.914062 C 511.9375 380.207031 512.40625 379.234375 512.464844 378.175781 C 512.523438 377.113281 512.167969 376.097656 511.460938 375.308594 L 509.117188 372.695312 C 507.65625 371.066406 505.140625 370.925781 503.503906 372.382812 L 463.488281 408.140625 C 462.695312 408.851562 462.230469 409.820312 462.171875 410.882812 C 462.109375 411.941406 462.46875 412.957031 463.175781 413.746094 Z M 468.484375 422.371094 C 466.101562 422.371094 463.726562 421.394531 462.019531 419.488281 L 459.675781 416.875 C 458.132812 415.152344 457.351562 412.933594 457.480469 410.621094 C 457.609375 408.3125 458.632812 406.191406 460.355469 404.648438 L 500.375 368.890625 C 503.9375 365.707031 509.429688 366.007812 512.617188 369.566406 L 514.957031 372.179688 C 516.503906 373.902344 517.285156 376.128906 517.152344 378.4375 C 517.027344 380.746094 516.003906 382.867188 514.277344 384.410156 L 474.261719 420.167969 C 472.609375 421.644531 470.542969 422.371094 468.484375 422.371094 " fill-opacity="1" fill-rule="nonzero"/><path fill="#ff3b78" d="M 506.496094 385.871094 C 501.8125 385.871094 498.003906 382.066406 498.003906 377.390625 C 498.003906 372.707031 501.8125 368.902344 506.496094 368.902344 C 511.183594 368.902344 514.996094 372.707031 514.996094 377.390625 C 514.996094 382.066406 511.183594 385.871094 506.496094 385.871094 " fill-opacity="1" fill-rule="nonzero"/><path fill="#303030" d="M 506.496094 367.128906 C 500.824219 367.128906 496.226562 371.71875 496.226562 377.390625 C 496.226562 383.054688 500.824219 387.648438 506.496094 387.648438 C 512.175781 387.648438 516.773438 383.054688 516.773438 377.390625 C 516.773438 371.71875 512.175781 367.128906 506.496094 367.128906 Z M 506.496094 370.679688 C 510.203125 370.679688 513.214844 373.691406 513.214844 377.390625 C 513.214844 381.089844 510.203125 384.097656 506.496094 384.097656 C 502.792969 384.097656 499.78125 381.089844 499.78125 377.390625 C 499.78125 373.691406 502.792969 370.679688 506.496094 370.679688 " fill-opacity="1" fill-rule="nonzero"/><path fill="#ffb439" d="M 469.269531 419.144531 C 464.582031 419.144531 460.769531 415.339844 460.769531 410.660156 C 460.769531 405.980469 464.582031 402.171875 469.269531 402.171875 C 473.953125 402.171875 477.761719 405.980469 477.761719 410.660156 C 477.761719 415.339844 473.953125 419.144531 469.269531 419.144531 " fill-opacity="1" fill-rule="nonzero"/><path fill="#303030" d="M 469.269531 400.398438 C 463.589844 400.398438 458.992188 404.992188 458.992188 410.660156 C 458.992188 416.324219 463.589844 420.921875 469.269531 420.921875 C 474.941406 420.921875 479.539062 416.324219 479.539062 410.660156 C 479.539062 404.992188 474.941406 400.398438 469.269531 400.398438 Z M 469.269531 403.949219 C 472.972656 403.949219 475.984375 406.960938 475.984375 410.660156 C 475.984375 414.359375 472.972656 417.371094 469.269531 417.371094 C 465.5625 417.371094 462.550781 414.359375 462.550781 410.660156 C 462.550781 406.960938 465.5625 403.949219 469.269531 403.949219 " fill-opacity="1" fill-rule="nonzero"/><path fill="#fdcc4a" d="M 488.609375 430.664062 L 486.265625 428.050781 C 483.941406 425.453125 484.160156 421.460938 486.765625 419.132812 L 526.78125 383.375 C 529.386719 381.050781 533.378906 381.273438 535.710938 383.871094 L 538.050781 386.484375 C 540.378906 389.082031 540.15625 393.074219 537.554688 395.398438 L 497.535156 431.160156 C 494.9375 433.484375 490.9375 433.261719 488.609375 430.664062 " fill-opacity="1" fill-rule="nonzero"/><path fill="#303030" d="M 490.359375 429.097656 C 491.820312 430.730469 494.339844 430.871094 495.972656 429.410156 L 535.988281 393.652344 C 536.78125 392.945312 537.25 391.972656 537.304688 390.914062 C 537.363281 389.855469 537.007812 388.835938 536.300781 388.046875 L 533.960938 385.433594 C 532.5 383.800781 529.980469 383.667969 528.347656 385.125 L 488.332031 420.882812 C 487.539062 421.589844 487.070312 422.5625 487.011719 423.617188 C 486.953125 424.679688 487.3125 425.695312 488.015625 426.488281 Z M 493.324219 435.109375 C 490.941406 435.109375 488.570312 434.136719 486.859375 432.226562 L 484.519531 429.617188 C 482.972656 427.890625 482.195312 425.667969 482.324219 423.359375 C 482.453125 421.050781 483.472656 418.929688 485.199219 417.386719 L 525.21875 381.628906 C 528.777344 378.445312 534.273438 378.75 537.460938 382.308594 L 539.800781 384.921875 C 541.34375 386.640625 542.125 388.863281 541.996094 391.171875 C 541.867188 393.484375 540.847656 395.605469 539.121094 397.148438 L 499.105469 432.90625 C 497.449219 434.382812 495.382812 435.109375 493.324219 435.109375 " fill-opacity="1" fill-rule="nonzero"/><path fill="#00d3ce" d="M 494.34375 431.636719 C 489.679688 431.636719 485.882812 427.84375 485.882812 423.1875 C 485.882812 418.523438 489.679688 414.734375 494.34375 414.734375 C 499.011719 414.734375 502.808594 418.523438 502.808594 423.1875 C 502.808594 427.84375 499.011719 431.636719 494.34375 431.636719 " fill-opacity="1" fill-rule="nonzero"/><path fill="#303030" d="M 494.34375 412.921875 C 488.671875 412.921875 484.070312 417.519531 484.070312 423.1875 C 484.070312 428.851562 488.671875 433.449219 494.34375 433.449219 C 500.019531 433.449219 504.621094 428.851562 504.621094 423.1875 C 504.621094 417.519531 500.019531 412.921875 494.34375 412.921875 Z M 494.34375 416.542969 C 498.011719 416.542969 500.996094 419.523438 500.996094 423.1875 C 500.996094 426.847656 498.011719 429.828125 494.34375 429.828125 C 490.679688 429.828125 487.695312 426.847656 487.695312 423.1875 C 487.695312 419.523438 490.679688 416.542969 494.34375 416.542969 " fill-opacity="1" fill-rule="nonzero"/><path fill="#ff92af" d="M 530.242188 399.59375 C 525.558594 399.59375 521.746094 395.785156 521.746094 391.105469 C 521.746094 386.429688 525.558594 382.621094 530.242188 382.621094 C 534.929688 382.621094 538.742188 386.429688 538.742188 391.105469 C 538.742188 395.785156 534.929688 399.59375 530.242188 399.59375 " fill-opacity="1" fill-rule="nonzero"/><path fill="#303030" d="M 530.242188 380.84375 C 524.570312 380.84375 519.96875 385.441406 519.96875 391.105469 C 519.96875 396.773438 524.570312 401.367188 530.242188 401.367188 C 535.917969 401.367188 540.519531 396.773438 540.519531 391.105469 C 540.519531 385.441406 535.917969 380.84375 530.242188 380.84375 Z M 530.242188 384.398438 C 533.945312 384.398438 536.960938 387.40625 536.960938 391.105469 C 536.960938 394.808594 533.945312 397.816406 530.242188 397.816406 C 526.539062 397.816406 523.523438 394.808594 523.523438 391.105469 C 523.523438 387.40625 526.539062 384.398438 530.242188 384.398438 " fill-opacity="1" fill-rule="nonzero"/><path fill="#303030" d="M 380.535156 434.652344 L 378.910156 432.839844 C 377.851562 431.660156 377.953125 429.847656 379.132812 428.789062 L 399.890625 410.242188 C 401.070312 409.1875 402.886719 409.289062 403.945312 410.46875 L 405.570312 412.28125 C 406.628906 413.460938 406.527344 415.273438 405.34375 416.332031 L 384.589844 434.878906 C 383.40625 435.933594 381.589844 435.835938 380.535156 434.652344 " fill-opacity="1" fill-rule="nonzero"/><path fill="#303030" d="M 381.328125 433.941406 C 381.992188 434.683594 383.136719 434.746094 383.878906 434.082031 L 404.632812 415.539062 C 404.992188 415.21875 405.203125 414.773438 405.234375 414.292969 C 405.257812 413.8125 405.097656 413.351562 404.773438 412.992188 L 403.152344 411.179688 C 402.488281 410.4375 401.34375 410.375 400.601562 411.035156 L 379.84375 429.585938 C 379.488281 429.902344 379.273438 430.347656 379.246094 430.828125 C 379.21875 431.308594 379.382812 431.773438 379.707031 432.132812 Z M 382.675781 436.671875 C 381.59375 436.671875 380.515625 436.230469 379.738281 435.367188 L 379.738281 435.363281 L 378.113281 433.554688 C 377.414062 432.769531 377.058594 431.757812 377.117188 430.707031 C 377.175781 429.660156 377.640625 428.695312 378.421875 427.996094 L 399.179688 409.449219 C 400.796875 408.003906 403.289062 408.140625 404.742188 409.757812 L 406.363281 411.570312 C 407.8125 413.1875 407.675781 415.679688 406.054688 417.125 L 385.300781 435.671875 C 384.550781 436.34375 383.613281 436.671875 382.675781 436.671875 " fill-opacity="1" fill-rule="nonzero"/><path fill="#008ca1" d="M 399.566406 410.847656 C 399.054688 410.847656 398.535156 411.027344 398.125 411.398438 L 377.371094 429.941406 C 376.484375 430.738281 376.40625 432.105469 377.203125 432.992188 L 378.824219 434.804688 C 379.621094 435.691406 380.988281 435.769531 381.878906 434.972656 L 402.632812 416.429688 C 403.519531 415.636719 403.597656 414.265625 402.800781 413.378906 L 401.179688 411.566406 C 400.75 411.089844 400.160156 410.847656 399.566406 410.847656 Z M 380.4375 436.941406 C 379.453125 436.941406 378.472656 436.542969 377.765625 435.75 L 376.140625 433.9375 C 374.824219 432.46875 374.949219 430.199219 376.421875 428.882812 L 397.179688 410.339844 C 398.648438 409.023438 400.921875 409.148438 402.238281 410.617188 L 403.863281 412.429688 C 405.179688 413.902344 405.050781 416.171875 403.578125 417.484375 L 382.828125 436.035156 C 382.144531 436.640625 381.289062 436.941406 380.4375 436.941406 " fill-opacity="1" fill-rule="nonzero"/><path fill="#303030" d="M 406.9375 434.652344 L 405.316406 432.839844 C 404.257812 431.660156 404.359375 429.847656 405.542969 428.789062 L 426.296875 410.242188 C 427.476562 409.1875 429.296875 409.289062 430.355469 410.46875 L 431.976562 412.28125 C 433.035156 413.460938 432.933594 415.273438 431.75 416.332031 L 411 434.878906 C 409.816406 435.933594 407.996094 435.835938 406.9375 434.652344 " fill-opacity="1" fill-rule="nonzero"/><path fill="#303030" d="M 407.734375 433.941406 C 408.398438 434.683594 409.542969 434.746094 410.285156 434.082031 L 431.039062 415.539062 C 431.78125 414.875 431.847656 413.730469 431.183594 412.992188 L 429.558594 411.179688 C 428.894531 410.4375 427.75 410.375 427.007812 411.035156 L 406.253906 429.585938 C 405.511719 430.246094 405.445312 431.386719 406.109375 432.132812 Z M 409.082031 436.671875 C 408 436.671875 406.921875 436.230469 406.144531 435.363281 L 404.523438 433.554688 C 403.820312 432.769531 403.464844 431.757812 403.523438 430.707031 C 403.582031 429.660156 404.046875 428.695312 404.828125 427.996094 L 425.585938 409.449219 C 427.207031 408.003906 429.699219 408.140625 431.148438 409.757812 L 432.769531 411.570312 C 434.222656 413.1875 434.082031 415.679688 432.460938 417.128906 L 411.710938 435.671875 C 410.957031 436.34375 410.015625 436.671875 409.082031 436.671875 " fill-opacity="1" fill-rule="nonzero"/><path fill="#008ca1" d="M 405.234375 434.804688 C 406.027344 435.691406 407.398438 435.769531 408.285156 434.972656 L 429.039062 416.429688 C 429.46875 416.042969 429.722656 415.515625 429.757812 414.9375 C 429.785156 414.363281 429.59375 413.808594 429.210938 413.378906 L 427.585938 411.566406 C 426.792969 410.679688 425.421875 410.605469 424.53125 411.398438 L 403.78125 429.941406 C 403.347656 430.328125 403.09375 430.855469 403.058594 431.433594 C 403.03125 432.007812 403.222656 432.5625 403.609375 432.992188 Z M 406.84375 436.941406 C 405.859375 436.941406 404.878906 436.542969 404.171875 435.75 L 402.546875 433.9375 C 401.910156 433.226562 401.585938 432.308594 401.640625 431.355469 C 401.691406 430.398438 402.117188 429.519531 402.828125 428.882812 L 423.585938 410.339844 C 425.058594 409.023438 427.328125 409.148438 428.644531 410.617188 L 430.269531 412.429688 C 430.90625 413.144531 431.230469 414.0625 431.175781 415.019531 C 431.125 415.96875 430.699219 416.851562 429.988281 417.484375 L 409.234375 436.035156 C 408.550781 436.640625 407.699219 436.941406 406.84375 436.941406 " fill-opacity="1" fill-rule="nonzero"/><path stroke-linecap="round" transform="matrix(-0.608783, 1.486857, -1.486978, -0.608733, 1791.277185, 772.627781)" fill-opacity="1" fill="#ffffff" fill-rule="nonzero" stroke-linejoin="round" d="M 89.470125 1065.899644 C 93.197137 1071.99987 88.988146 1075.90083 83.310508 1078.800615 C 75.281225 1082.899612 55.41251 1080.899191 48.61161 1076.800876 C 42.368439 1072.999616 39.599369 1067.500194 42.569549 1062.60116 " stroke="#000000" stroke-width="4.061" stroke-opacity="1" stroke-miterlimit="4"/><path stroke-linecap="round" transform="matrix(-0.608783, 1.486857, -1.486978, -0.608733, 1791.277185, 772.627781)" fill-opacity="1" fill="#ffffff" fill-rule="nonzero" stroke-linejoin="round" d="M 21.354605 1020.99863 C 20.497303 1036.699015 35.248497 1061.300741 52.718331 1067.0994 C 61.739953 1069.999564 82.043622 1070.899845 89.211271 1065.601067 C 101.488885 1056.599889 107.691141 1044.900377 110.499436 1030.500188 C 111.490456 1025.400056 111.740354 1019.599843 111.449306 1014.801309 C 110.161444 997.236616 96.621517 986.913077 90.844604 982.871014 C 90.662503 971.421041 91.821804 957.619783 93.660072 944.649133 C 96.41048 925.249873 69.318759 930.139194 66.928919 948.340045 C 65.809241 956.860629 63.87132 963.851059 61.819951 982.929975 C 58.674635 972.648512 53.388834 957.889614 51.614462 947.690482 C 48.688174 930.859622 24.555905 940.949756 28.566899 961.450364 C 31.297121 975.408779 35.635284 985.690496 38.30602 998.990252 C 35.498839 1001.200834 22.248175 1004.700209 21.354605 1020.99863 Z M 21.354605 1020.99863 " stroke="#000000" stroke-width="4.061" stroke-opacity="1" stroke-miterlimit="4"/><path fill="#000000" d="M 293.992188 263.105469 C 273.320312 259.914062 261.984375 263.003906 256.511719 263.644531 C 269.578125 265.3125 272.933594 265.386719 286.683594 268.191406 C 289.023438 268.671875 291.660156 269.613281 294.679688 271.265625 Z M 293.992188 263.105469 " fill-opacity="1" fill-rule="nonzero"/><path fill="#000000" d="M 275.554688 306.316406 C 264.117188 301.851562 249.273438 299.222656 239.023438 299.992188 C 251.511719 304.574219 261.375 308.175781 273.371094 312.261719 C 273.382812 312.230469 274.34375 309.257812 275.546875 306.3125 Z M 275.554688 306.316406 " fill-opacity="1" fill-rule="nonzero"/><path stroke-linecap="round" transform="matrix(-0.608783, 1.486857, -1.486978, -0.608733, 1791.277185, 772.627781)" fill="none" stroke-linejoin="round" d="M 79.640839 1058.299494 C 83.677598 1048.600392 83.618919 1045.800421 84.835935 1040.899358 " stroke="#000000" stroke-width="4.061" stroke-opacity="1" stroke-miterlimit="4"/><path stroke-linecap="round" transform="matrix(-0.608783, 1.486857, -1.486978, -0.608733, 1791.277185, 772.627781)" fill="none" stroke-linejoin="round" d="M 70.259951 1059.000885 C 71.953844 1047.500026 71.684875 1041.799283 72.115864 1034.099184 " stroke="#000000" stroke-width="4.061" stroke-opacity="1" stroke-miterlimit="4"/><path stroke-linecap="round" transform="matrix(-0.608783, 1.486857, -1.486978, -0.608733, 1791.277185, 772.627781)" fill="none" stroke-linejoin="round" d="M 59.041671 1059.500931 C 59.138831 1051.4988 58.442263 1047.69904 57.992932 1042.699985 " stroke="#000000" stroke-width="4.061" stroke-opacity="1" stroke-miterlimit="4"/><path fill="#000000" d="M 285.3125 218.664062 C 257.992188 214.234375 251.277344 202.644531 240.699219 192.4375 C 250.652344 205.445312 250.855469 217.671875 282.023438 224.703125 Z M 285.3125 218.664062 " fill-opacity="1" fill-rule="nonzero"/><path stroke-linecap="round" transform="matrix(1.011906, 1.248028, -1.24813, 1.011824, 1520.630207, -579.230687)" fill-opacity="1" fill="#ffffff" fill-rule="nonzero" stroke-linejoin="round" d="M 89.470391 1065.899442 C 93.198095 1072.02628 88.988042 1075.949006 83.310628 1078.847959 C 75.281578 1082.944997 55.413107 1080.94861 48.61163 1076.833361 C 42.367631 1073.057413 39.59849 1067.485512 42.570561 1062.649867 " stroke="#000000" stroke-width="4.061" stroke-opacity="1" stroke-miterlimit="4"/><path stroke-linecap="round" transform="matrix(1.011906, 1.248028, -1.24813, 1.011824, 1520.630207, -579.230687)" fill-opacity="1" fill="#ffffff" fill-rule="nonzero" stroke-linejoin="round" d="M -3.602795 1025.600317 C -7.652549 1033.618312 6.212985 1038.590875 21.41276 1041.396546 C 27.315693 1042.489254 38.9198 1062.350287 52.716566 1067.094964 C 61.693913 1070.182596 82.043121 1070.941301 89.210683 1065.66385 C 101.485225 1056.627503 107.690878 1044.977454 110.497445 1030.574765 C 111.491876 1025.472146 111.744543 1019.639835 111.455313 1014.873565 C 110.503347 999.223257 124.406068 961.208477 123.336613 957.196098 C 120.368514 946.051673 107.463939 952.58362 104.773341 959.747482 C 103.471671 963.217689 90.91657 987.556063 90.844215 982.896768 C 90.662018 971.450899 91.820578 957.652511 93.659101 944.687067 C 96.411098 925.282717 69.318699 930.173685 66.927653 948.368423 C 65.807034 956.892758 63.872056 963.877421 61.819271 982.959818 C 58.673935 972.682586 53.388403 957.922355 51.614446 947.717899 C 48.688439 930.892798 24.557466 940.979513 28.565761 961.476873 C 31.295793 975.435914 38.9666 1000.048076 37.767675 1024.304435 C 28.343181 1016.444561 8.607293 1001.417255 -3.604684 1025.598786 Z M -3.602795 1025.600317 " stroke="#000000" stroke-width="4.061" stroke-opacity="1" stroke-miterlimit="4"/><path fill="#000000" d="M 354.578125 489.28125 C 341.847656 505.878906 339.113281 517.3125 337.101562 522.371094 C 344.800781 511.746094 346.46875 508.84375 355.539062 498.128906 C 357.074219 496.3125 359.167969 494.449219 362.066406 492.597656 Z M 354.578125 489.28125 " fill-opacity="1" fill-rule="nonzero"/><path fill="#000000" d="M 383.628906 526.207031 C 374.230469 534.085938 364.789062 545.847656 360.535156 555.210938 C 365.601562 550.832031 374.242188 543.230469 381.8125 536.425781 C 383.867188 534.578125 386.152344 533.433594 390.074219 533.164062 C 387.449219 531.308594 385.636719 528.671875 383.628906 526.207031 Z M 383.628906 526.207031 " fill-opacity="1" fill-rule="nonzero"/><path stroke-linecap="round" transform="matrix(1.011906, 1.248028, -1.24813, 1.011824, 1520.630207, -579.230687)" fill="none" stroke-linejoin="round" d="M 79.640974 1058.299662 C 83.677931 1048.621949 83.618135 1045.834998 84.83705 1040.895599 " stroke="#000000" stroke-width="4.061" stroke-opacity="1" stroke-miterlimit="4"/><path stroke-linecap="round" transform="matrix(1.011906, 1.248028, -1.24813, 1.011824, 1520.630207, -579.230687)" fill="none" stroke-linejoin="round" d="M 70.259406 1058.999845 C 71.953103 1047.525641 71.682681 1041.848234 72.115561 1034.102696 " stroke="#000000" stroke-width="4.061" stroke-opacity="1" stroke-miterlimit="4"/><path stroke-linecap="round" transform="matrix(1.011906, 1.248028, -1.24813, 1.011824, 1520.630207, -579.230687)" fill="none" stroke-linejoin="round" d="M 59.040255 1059.499659 C 59.137481 1051.51955 58.442011 1047.744652 57.990757 1042.66863 " stroke="#000000" stroke-width="4.061" stroke-opacity="1" stroke-miterlimit="4"/><path stroke-linecap="round" transform="matrix(0.254651, 1.586303, 1.586432, -0.254631, -1055.177295, 474.447188)" fill-opacity="1" fill="#ffffff" fill-rule="nonzero" stroke-linejoin="round" d="M 89.47137 1065.900866 C 93.198529 1072.000008 88.988064 1075.898998 83.309822 1078.799987 C 75.280421 1082.900784 55.411964 1080.899535 48.610146 1076.800852 C 42.368153 1072.998885 39.599121 1067.499406 42.570461 1062.600185 " stroke="#000000" stroke-width="4.061" stroke-opacity="1" stroke-miterlimit="4"/><path stroke-linecap="round" transform="matrix(0.254651, 1.586303, 1.586432, -0.254631, -1055.177295, 474.447188)" fill-opacity="1" fill="#ffffff" fill-rule="nonzero" stroke-linejoin="round" d="M 21.354361 1021.000085 C 20.495879 1036.699537 35.247795 1061.301009 52.719126 1067.099769 C 61.739386 1070.00025 82.044154 1070.899765 89.211357 1065.600345 C 101.490007 1056.599569 107.689119 1044.900939 110.49963 1030.500948 C 111.490769 1025.400043 111.739422 1019.600841 111.448862 1014.79924 C 110.42538 995.18398 104.231754 980.591897 90.844261 982.868874 C 86.754851 966.796525 61.937918 970.647133 61.81903 982.930866 C 49.153442 968.688211 30.731375 981.972119 38.304267 998.989763 C 35.499756 1001.200473 22.249232 1004.698918 21.354361 1021.000085 Z M 21.354361 1021.000085 " stroke="#000000" stroke-width="4.061" stroke-opacity="1" stroke-miterlimit="4"/><path fill="#000000" d="M 521.367188 325.378906 C 542.058594 328.453125 549.851562 324.640625 555.316406 323.96875 C 542.242188 322.375 538.886719 322.320312 525.121094 319.59375 C 522.78125 319.128906 520.371094 318.40625 517.515625 316.394531 L 517.644531 326.328125 C 517.179688 326.46875 519.875 325.386719 521.367188 325.378906 Z M 521.367188 325.378906 " fill-opacity="1" fill-rule="nonzero"/><path fill="#000000" d="M 525.167969 371.25 C 537.433594 371.742188 552.570312 370.953125 562.007812 366.882812 C 555.257812 366.714844 537.835938 365.113281 527.667969 365.0625 C 527.667969 365.039062 527.691406 365.078125 525.164062 371.25 Z M 525.167969 371.25 " fill-opacity="1" fill-rule="nonzero"/><path stroke-linecap="round" transform="matrix(0.254651, 1.586303, 1.586432, -0.254631, -1055.177295, 474.447188)" fill="none" stroke-linejoin="round" d="M 79.642311 1058.299206 C 83.677731 1048.600082 83.617388 1045.8003 84.837568 1040.899009 " stroke="#000000" stroke-width="4.061" stroke-opacity="1" stroke-miterlimit="4"/><path stroke-linecap="round" transform="matrix(0.254651, 1.586303, 1.586432, -0.254631, -1055.177295, 474.447188)" fill="none" stroke-linejoin="round" d="M 70.259477 1059.000155 C 71.952153 1047.500423 71.684967 1041.801259 72.115721 1034.099027 " stroke="#000000" stroke-width="4.061" stroke-opacity="1" stroke-miterlimit="4"/><path stroke-linecap="round" transform="matrix(0.254651, 1.586303, 1.586432, -0.254631, -1055.177295, 474.447188)" fill="none" stroke-linejoin="round" d="M 59.041932 1059.500689 C 59.139113 1051.499895 58.442827 1047.699088 57.992371 1042.699085 " stroke="#000000" stroke-width="4.061" stroke-opacity="1" stroke-miterlimit="4"/><path fill="#000000" d="M 537.289062 277.46875 C 564.898438 279.367188 574.074219 269.609375 586.695312 262.074219 C 574.042969 272.476562 571.066406 284.335938 539.117188 284.09375 Z M 537.289062 277.46875 " fill-opacity="1" fill-rule="nonzero"/></svg>