<svg xmlns="http://www.w3.org/2000/svg" xmlns:xlink="http://www.w3.org/1999/xlink" width="1080" zoomAndPan="magnify" viewBox="0 0 810 809.999993" height="1080" preserveAspectRatio="xMidYMid meet" version="1.0"><path fill="#f66e17" d="M 404.839844 81 C 225.828125 81 81 225.988281 81 405 C 81 584.011719 225.828125 729 404.839844 729 C 583.847656 729 729 584.011719 729 405 C 729 225.988281 583.847656 81 404.839844 81 Z M 405 664.199219 C 261.792969 664.199219 145.800781 548.207031 145.800781 405 C 145.800781 261.792969 261.792969 145.800781 405 145.800781 C 548.207031 145.800781 664.199219 261.792969 664.199219 405 C 664.199219 548.207031 548.207031 664.199219 405 664.199219 Z M 405 664.199219 " fill-opacity="1" fill-rule="nonzero"/><path fill="#f66e17" d="M 421.199219 243 L 372.601562 243 L 372.601562 437.398438 L 542.539062 539.460938 L 567 499.609375 L 421.199219 413.101562 Z M 421.199219 243 " fill-opacity="1" fill-rule="nonzero"/></svg>