<svg xmlns="http://www.w3.org/2000/svg" xmlns:xlink="http://www.w3.org/1999/xlink" width="1080" zoomAndPan="magnify" viewBox="0 0 810 809.999993" height="1080" preserveAspectRatio="xMidYMid meet" version="1.0"><defs><clipPath id="47f2136ab5"><path d="M 127.171875 81 L 682.921875 81 L 682.921875 729 L 127.171875 729 Z M 127.171875 81 " clip-rule="nonzero"/></clipPath></defs><g clip-path="url(#47f2136ab5)"><path fill="#5e17eb" d="M 405.046875 81 L 289.3125 196.714844 L 405.046875 312.429688 L 405.046875 219.855469 L 520.777344 219.855469 C 559.433594 219.855469 590.21875 250.636719 590.21875 289.285156 L 590.21875 548.195312 C 563.414062 557.847656 543.925781 583.347656 543.925781 613.285156 C 543.925781 651.355469 575.289062 682.714844 613.367188 682.714844 C 651.441406 682.714844 682.804688 651.355469 682.804688 613.285156 C 682.804688 583.347656 663.316406 557.847656 636.511719 548.195312 L 636.511719 289.285156 C 636.511719 225.644531 584.433594 173.570312 520.777344 173.570312 L 405.046875 173.570312 Z M 196.722656 127.285156 C 158.648438 127.285156 127.285156 158.644531 127.285156 196.714844 C 127.285156 226.652344 146.773438 252.152344 173.578125 261.804688 L 173.578125 520.714844 C 173.578125 584.355469 225.660156 636.429688 289.3125 636.429688 L 405.046875 636.429688 L 405.046875 729 L 520.777344 613.285156 L 405.046875 497.570312 L 405.046875 590.144531 L 289.3125 590.144531 C 250.65625 590.144531 219.871094 559.363281 219.871094 520.714844 L 219.871094 261.804688 C 246.675781 252.152344 266.164062 226.652344 266.164062 196.714844 C 266.164062 158.644531 234.800781 127.285156 196.722656 127.285156 Z M 196.722656 173.570312 C 209.78125 173.570312 219.871094 183.660156 219.871094 196.714844 C 219.871094 209.769531 209.78125 219.855469 196.722656 219.855469 C 183.667969 219.855469 173.578125 209.769531 173.578125 196.714844 C 173.578125 183.660156 183.667969 173.570312 196.722656 173.570312 Z M 613.367188 590.144531 C 626.421875 590.144531 636.511719 600.230469 636.511719 613.285156 C 636.511719 626.339844 626.421875 636.429688 613.367188 636.429688 C 600.308594 636.429688 590.21875 626.339844 590.21875 613.285156 C 590.21875 600.230469 600.308594 590.144531 613.367188 590.144531 Z M 613.367188 590.144531 " fill-opacity="1" fill-rule="nonzero"/></g></svg>