<svg xmlns="http://www.w3.org/2000/svg" xmlns:xlink="http://www.w3.org/1999/xlink" width="1080" zoomAndPan="magnify" viewBox="0 0 810 809.999993" height="1080" preserveAspectRatio="xMidYMid meet" version="1.0"><defs><clipPath id="db2be761cc"><path d="M 85 85 L 725 85 L 725 724.5 L 85 724.5 Z M 85 85 " clip-rule="nonzero"/></clipPath></defs><g clip-path="url(#db2be761cc)"><path fill="#ffffff" d="M 709.53125 369.910156 L 440.257812 100.542969 C 420.785156 81.0625 389.210938 81.0625 369.738281 100.542969 L 100.46875 369.910156 C 80.992188 389.390625 80.992188 420.972656 100.46875 440.453125 C 115.394531 455.386719 137.425781 458.859375 155.671875 450.898438 L 155.671875 649.605469 C 155.671875 690.929688 189.160156 724.429688 230.472656 724.429688 L 579.527344 724.429688 C 620.839844 724.429688 654.328125 690.929688 654.328125 649.605469 L 654.328125 450.898438 C 672.574219 458.859375 694.605469 455.386719 709.53125 440.453125 C 729.007812 420.972656 729.007812 389.390625 709.53125 369.910156 Z M 492.265625 624.664062 C 492.265625 638.441406 481.101562 649.605469 467.332031 649.605469 L 342.667969 649.605469 C 328.898438 649.605469 317.734375 638.441406 317.734375 624.664062 L 317.734375 475.015625 C 317.734375 461.242188 328.898438 450.074219 342.667969 450.074219 L 467.332031 450.074219 C 481.101562 450.074219 492.265625 461.242188 492.265625 475.015625 Z M 492.265625 624.664062 " fill-opacity="1" fill-rule="nonzero"/></g></svg>