<svg xmlns="http://www.w3.org/2000/svg" xmlns:xlink="http://www.w3.org/1999/xlink" width="1080" zoomAndPan="magnify" viewBox="0 0 810 809.999993" height="1080" preserveAspectRatio="xMidYMid meet" version="1.0"><path fill="#5e17eb" d="M 674.863281 81 L 135.460938 81 C 105.636719 81 81.648438 105.3125 81.648438 134.8125 L 81.648438 675.1875 C 81.648438 705.011719 105.960938 729 135.460938 729 L 674.539062 729 C 704.363281 729 728.351562 704.6875 728.351562 675.1875 L 728.351562 134.8125 C 728.675781 105.3125 704.6875 81 674.863281 81 Z M 273.226562 615.542969 L 177.601562 615.542969 L 177.601562 328.335938 L 273.226562 328.335938 Z M 225.253906 293.648438 C 195.105469 293.648438 170.792969 269.339844 170.792969 239.191406 C 170.792969 209.042969 195.105469 184.730469 225.253906 184.730469 C 255.398438 184.730469 279.710938 209.042969 279.710938 239.191406 C 279.710938 269.339844 255.398438 293.648438 225.253906 293.648438 Z M 633.046875 615.542969 L 537.097656 615.542969 L 534.828125 445.035156 C 534.828125 445.035156 537.097656 399.652344 487.5 399.976562 C 437.902344 400.300781 431.09375 445.035156 431.09375 445.035156 L 431.09375 615.542969 L 334.496094 615.542969 L 334.496094 328.335938 L 427.207031 328.335938 L 427.207031 367.882812 C 427.207031 367.882812 431.09375 354.917969 452.488281 339.679688 C 473.882812 324.445312 509.21875 321.203125 524.453125 321.851562 C 539.6875 322.5 560.4375 319.90625 595.121094 343.894531 C 632.398438 369.503906 633.371094 436.605469 633.371094 436.605469 Z M 633.046875 615.542969 " fill-opacity="1" fill-rule="nonzero"/></svg>