<svg xmlns="http://www.w3.org/2000/svg" xmlns:xlink="http://www.w3.org/1999/xlink" width="1080" zoomAndPan="magnify" viewBox="0 0 810 809.999993" height="1080" preserveAspectRatio="xMidYMid meet" version="1.0"><defs><clipPath id="d48adf45cd"><path d="M 775 246 L 809.882812 246 L 809.882812 281 L 775 281 Z M 775 246 " clip-rule="nonzero"/></clipPath></defs><path fill="#f1bc19" d="M 708.355469 162.53125 C 707.800781 162.53125 707.257812 162.585938 706.714844 162.691406 C 706.175781 162.800781 705.652344 162.960938 705.140625 163.171875 C 704.632812 163.382812 704.148438 163.640625 703.691406 163.945312 C 703.234375 164.253906 702.808594 164.601562 702.421875 164.988281 C 702.03125 165.378906 701.683594 165.804688 701.375 166.261719 C 701.070312 166.71875 700.8125 167.203125 700.601562 167.710938 C 700.390625 168.21875 700.230469 168.746094 700.125 169.285156 C 700.015625 169.824219 699.960938 170.371094 699.960938 170.921875 C 699.960938 171.472656 700.015625 172.019531 700.125 172.558594 C 700.230469 173.101562 700.390625 173.625 700.601562 174.132812 C 700.8125 174.644531 701.070312 175.125 701.375 175.585938 C 701.683594 176.042969 702.03125 176.464844 702.421875 176.855469 C 702.808594 177.246094 703.234375 177.59375 703.691406 177.898438 C 704.148438 178.207031 704.632812 178.464844 705.140625 178.675781 C 705.652344 178.886719 706.175781 179.042969 706.714844 179.152344 C 707.257812 179.257812 707.800781 179.3125 708.355469 179.3125 C 708.90625 179.3125 709.449219 179.257812 709.992188 179.152344 C 710.53125 179.042969 711.054688 178.886719 711.566406 178.675781 C 712.074219 178.464844 712.558594 178.207031 713.015625 177.898438 C 713.472656 177.59375 713.898438 177.246094 714.285156 176.855469 C 714.675781 176.464844 715.023438 176.042969 715.332031 175.585938 C 715.636719 175.125 715.894531 174.644531 716.105469 174.132812 C 716.316406 173.625 716.476562 173.101562 716.582031 172.558594 C 716.691406 172.019531 716.746094 171.472656 716.746094 170.921875 C 716.746094 170.371094 716.691406 169.824219 716.582031 169.285156 C 716.476562 168.746094 716.316406 168.21875 716.105469 167.710938 C 715.894531 167.203125 715.636719 166.71875 715.332031 166.261719 C 715.023438 165.804688 714.675781 165.378906 714.285156 164.988281 C 713.898438 164.601562 713.472656 164.253906 713.015625 163.945312 C 712.558594 163.640625 712.074219 163.382812 711.566406 163.171875 C 711.054688 162.960938 710.53125 162.800781 709.992188 162.691406 C 709.449219 162.585938 708.90625 162.53125 708.355469 162.53125 Z M 708.355469 162.53125 " fill-opacity="1" fill-rule="nonzero"/><path fill="#e4e4f9" d="M 481.800781 170.921875 C 476.722656 170.921875 471.644531 171.046875 466.566406 171.296875 C 461.492188 171.546875 456.429688 171.917969 451.371094 172.417969 C 446.316406 172.914062 441.273438 173.539062 436.246094 174.28125 C 431.222656 175.027344 426.21875 175.898438 421.234375 176.886719 C 416.25 177.878906 411.292969 178.992188 406.367188 180.226562 C 401.4375 181.460938 396.542969 182.816406 391.679688 184.289062 C 386.816406 185.765625 381.996094 187.359375 377.210938 189.070312 C 372.425781 190.78125 367.6875 192.609375 362.992188 194.554688 C 358.300781 196.5 353.65625 198.558594 349.0625 200.730469 C 344.46875 202.902344 339.933594 205.1875 335.453125 207.582031 C 330.972656 209.976562 326.550781 212.480469 322.195312 215.09375 C 317.835938 217.703125 313.542969 220.421875 309.320312 223.246094 C 305.09375 226.066406 300.941406 228.992188 296.859375 232.019531 C 292.78125 235.046875 288.777344 238.171875 284.847656 241.394531 C 280.921875 244.617188 277.074219 247.933594 273.308594 251.347656 C 269.546875 254.757812 265.867188 258.261719 262.273438 261.855469 C 258.679688 265.445312 255.179688 269.125 251.765625 272.890625 C 248.355469 276.65625 245.035156 280.5 241.8125 284.429688 C 238.589844 288.355469 235.464844 292.359375 232.4375 296.441406 C 229.410156 300.523438 226.488281 304.675781 223.664062 308.898438 C 220.839844 313.125 218.125 317.417969 215.511719 321.773438 C 212.898438 326.132812 210.394531 330.550781 208 335.03125 C 205.605469 339.511719 203.320312 344.050781 201.148438 348.644531 C 198.976562 353.238281 196.917969 357.878906 194.972656 362.574219 C 193.03125 367.269531 191.203125 372.007812 189.492188 376.792969 C 187.777344 381.574219 186.183594 386.398438 184.710938 391.261719 C 183.234375 396.121094 181.878906 401.019531 180.644531 405.945312 C 179.410156 410.875 178.296875 415.832031 177.308594 420.816406 C 176.316406 425.796875 175.449219 430.800781 174.703125 435.828125 C 173.957031 440.855469 173.335938 445.894531 172.835938 450.953125 C 172.339844 456.007812 171.964844 461.074219 171.714844 466.148438 C 171.464844 471.222656 171.34375 476.300781 171.34375 481.382812 C 171.34375 486.464844 171.464844 491.542969 171.714844 496.617188 C 171.964844 501.691406 172.339844 506.757812 172.835938 511.8125 C 173.335938 516.867188 173.957031 521.910156 174.703125 526.9375 C 175.449219 531.960938 176.316406 536.964844 177.308594 541.949219 C 178.296875 546.933594 179.410156 551.890625 180.644531 556.816406 C 181.878906 561.746094 183.234375 566.640625 184.710938 571.503906 C 186.183594 576.367188 187.777344 581.1875 189.492188 585.972656 C 191.203125 590.757812 193.03125 595.496094 194.972656 600.191406 C 196.917969 604.882812 198.976562 609.527344 201.148438 614.121094 C 203.320312 618.714844 205.605469 623.25 208 627.730469 C 210.394531 632.214844 212.898438 636.632812 215.511719 640.992188 C 218.125 645.347656 220.839844 649.640625 223.664062 653.863281 C 226.488281 658.089844 229.410156 662.242188 232.4375 666.324219 C 235.464844 670.402344 238.589844 674.410156 241.8125 678.335938 C 245.035156 682.261719 248.355469 686.109375 251.765625 689.875 C 255.179688 693.640625 258.679688 697.316406 262.273438 700.910156 C 265.867188 704.503906 269.546875 708.003906 273.308594 711.417969 C 277.074219 714.828125 280.921875 718.148438 284.847656 721.371094 C 288.777344 724.59375 292.78125 727.71875 296.859375 730.746094 C 300.941406 733.773438 305.09375 736.699219 309.320312 739.519531 C 313.542969 742.34375 317.835938 745.058594 322.195312 747.671875 C 326.550781 750.285156 330.972656 752.789062 335.453125 755.183594 C 339.933594 757.578125 344.46875 759.863281 349.0625 762.035156 C 353.65625 764.207031 358.300781 766.265625 362.992188 768.210938 C 367.6875 770.152344 372.425781 771.980469 377.210938 773.695312 C 381.996094 775.40625 386.816406 777 391.679688 778.472656 C 396.542969 779.949219 401.4375 781.304688 406.367188 782.539062 C 411.292969 783.773438 416.25 784.886719 421.234375 785.875 C 426.21875 786.867188 431.222656 787.734375 436.246094 788.480469 C 441.273438 789.226562 446.316406 789.847656 451.371094 790.347656 C 456.429688 790.84375 461.492188 791.21875 466.566406 791.46875 C 471.644531 791.71875 476.722656 791.84375 481.800781 791.84375 C 486.882812 791.84375 491.960938 791.71875 497.035156 791.46875 C 502.109375 791.21875 507.175781 790.84375 512.230469 790.347656 C 517.289062 789.847656 522.328125 789.226562 527.355469 788.480469 C 532.382812 787.734375 537.386719 786.867188 542.371094 785.875 C 547.351562 784.886719 552.308594 783.773438 557.238281 782.539062 C 562.164062 781.304688 567.0625 779.949219 571.921875 778.472656 C 576.785156 777 581.609375 775.40625 586.390625 773.695312 C 591.175781 771.980469 595.914062 770.152344 600.609375 768.210938 C 605.304688 766.265625 609.945312 764.207031 614.539062 762.035156 C 619.132812 759.863281 623.671875 757.578125 628.152344 755.183594 C 632.632812 752.789062 637.050781 750.285156 641.410156 747.671875 C 645.769531 745.058594 650.058594 742.34375 654.285156 739.519531 C 658.507812 736.699219 662.660156 733.773438 666.742188 730.746094 C 670.824219 727.71875 674.828125 724.59375 678.753906 721.371094 C 682.683594 718.148438 686.527344 714.828125 690.292969 711.417969 C 694.058594 708.003906 697.738281 704.503906 701.328125 700.910156 C 704.921875 697.316406 708.425781 693.640625 711.835938 689.875 C 715.25 686.109375 718.566406 682.261719 721.789062 678.335938 C 725.015625 674.410156 728.140625 670.402344 731.164062 666.324219 C 734.191406 662.242188 737.117188 658.089844 739.941406 653.863281 C 742.761719 649.640625 745.480469 645.347656 748.09375 640.992188 C 750.703125 636.632812 753.207031 632.214844 755.601562 627.730469 C 757.996094 623.25 760.28125 618.714844 762.453125 614.121094 C 764.625 609.527344 766.683594 604.882812 768.628906 600.191406 C 770.574219 595.496094 772.402344 590.757812 774.113281 585.972656 C 775.824219 581.1875 777.417969 576.367188 778.894531 571.503906 C 780.367188 566.640625 781.722656 561.746094 782.957031 556.816406 C 784.191406 551.890625 785.304688 546.933594 786.296875 541.949219 C 787.289062 536.964844 788.15625 531.960938 788.902344 526.9375 C 789.648438 521.910156 790.269531 516.867188 790.765625 511.8125 C 791.265625 506.757812 791.636719 501.691406 791.886719 496.617188 C 792.136719 491.542969 792.261719 486.464844 792.261719 481.382812 C 792.261719 476.300781 792.136719 471.222656 791.886719 466.148438 C 791.636719 461.074219 791.265625 456.007812 790.765625 450.953125 C 790.269531 445.894531 789.648438 440.855469 788.902344 435.828125 C 788.15625 430.800781 787.289062 425.796875 786.296875 420.816406 C 785.304688 415.832031 784.191406 410.875 782.957031 405.945312 C 781.722656 401.019531 780.367188 396.121094 778.894531 391.261719 C 777.417969 386.398438 775.824219 381.574219 774.113281 376.792969 C 772.402344 372.007812 770.574219 367.269531 768.628906 362.574219 C 766.683594 357.878906 764.625 353.238281 762.453125 348.644531 C 760.28125 344.050781 757.996094 339.511719 755.601562 335.03125 C 753.207031 330.550781 750.703125 326.132812 748.09375 321.773438 C 745.480469 317.417969 742.761719 313.125 739.941406 308.898438 C 737.117188 304.675781 734.191406 300.523438 731.164062 296.441406 C 728.140625 292.359375 725.015625 288.355469 721.789062 284.429688 C 718.566406 280.5 715.25 276.65625 711.835938 272.890625 C 708.425781 269.125 704.921875 265.445312 701.328125 261.855469 C 697.738281 258.261719 694.058594 254.757812 690.292969 251.347656 C 686.527344 247.933594 682.683594 244.617188 678.753906 241.394531 C 674.828125 238.171875 670.824219 235.046875 666.742188 232.019531 C 662.660156 228.992188 658.507812 226.066406 654.285156 223.246094 C 650.058594 220.421875 645.769531 217.703125 641.410156 215.09375 C 637.050781 212.480469 632.632812 209.976562 628.152344 207.582031 C 623.671875 205.1875 619.132812 202.902344 614.539062 200.730469 C 609.949219 198.558594 605.304688 196.5 600.609375 194.554688 C 595.914062 192.609375 591.175781 190.78125 586.390625 189.070312 C 581.609375 187.359375 576.785156 185.765625 571.921875 184.289062 C 567.0625 182.816406 562.164062 181.460938 557.238281 180.226562 C 552.308594 178.992188 547.351562 177.878906 542.371094 176.886719 C 537.386719 175.898438 532.382812 175.027344 527.355469 174.28125 C 522.328125 173.539062 517.289062 172.914062 512.230469 172.417969 C 507.175781 171.917969 502.109375 171.546875 497.035156 171.296875 C 491.960938 171.046875 486.882812 170.921875 481.800781 170.921875 Z M 481.800781 170.921875 " fill-opacity="1" fill-rule="nonzero"/><path fill="#f1bc19" d="M 758.699219 154.140625 C 757.597656 154.140625 756.503906 154.195312 755.410156 154.300781 C 754.316406 154.410156 753.230469 154.570312 752.152344 154.785156 C 751.074219 155 750.007812 155.265625 748.957031 155.585938 C 747.902344 155.90625 746.871094 156.273438 745.855469 156.695312 C 744.839844 157.117188 743.847656 157.585938 742.875 158.105469 C 741.90625 158.621094 740.964844 159.1875 740.050781 159.796875 C 739.136719 160.40625 738.253906 161.0625 737.40625 161.757812 C 736.554688 162.457031 735.742188 163.195312 734.964844 163.972656 C 734.1875 164.75 733.449219 165.5625 732.753906 166.410156 C 732.054688 167.261719 731.402344 168.144531 730.792969 169.058594 C 730.179688 169.972656 729.617188 170.914062 729.097656 171.882812 C 728.578125 172.851562 728.109375 173.84375 727.691406 174.859375 C 727.269531 175.875 726.898438 176.910156 726.582031 177.960938 C 726.261719 179.011719 725.996094 180.078125 725.78125 181.15625 C 725.566406 182.234375 725.40625 183.320312 725.296875 184.414062 C 725.1875 185.507812 725.136719 186.605469 725.136719 187.703125 C 725.136719 188.804688 725.1875 189.898438 725.296875 190.992188 C 725.40625 192.089844 725.566406 193.175781 725.78125 194.253906 C 725.996094 195.332031 726.261719 196.394531 726.582031 197.445312 C 726.898438 198.5 727.269531 199.53125 727.691406 200.546875 C 728.109375 201.5625 728.578125 202.554688 729.097656 203.527344 C 729.617188 204.496094 730.179688 205.4375 730.792969 206.351562 C 731.402344 207.265625 732.054688 208.148438 732.753906 208.996094 C 733.449219 209.847656 734.1875 210.660156 734.964844 211.4375 C 735.742188 212.214844 736.554688 212.953125 737.40625 213.648438 C 738.253906 214.347656 739.136719 215 740.050781 215.609375 C 740.964844 216.222656 741.90625 216.785156 742.875 217.304688 C 743.847656 217.824219 744.839844 218.292969 745.855469 218.710938 C 746.871094 219.132812 747.902344 219.503906 748.957031 219.820312 C 750.007812 220.140625 751.074219 220.40625 752.152344 220.621094 C 753.230469 220.835938 754.316406 220.996094 755.410156 221.105469 C 756.503906 221.214844 757.597656 221.265625 758.699219 221.265625 C 759.796875 221.265625 760.894531 221.214844 761.988281 221.105469 C 763.082031 220.996094 764.167969 220.835938 765.246094 220.621094 C 766.324219 220.40625 767.390625 220.140625 768.441406 219.820312 C 769.492188 219.503906 770.527344 219.132812 771.542969 218.710938 C 772.558594 218.292969 773.550781 217.824219 774.519531 217.304688 C 775.488281 216.785156 776.429688 216.222656 777.34375 215.609375 C 778.257812 215 779.140625 214.347656 779.992188 213.648438 C 780.839844 212.953125 781.652344 212.214844 782.429688 211.4375 C 783.207031 210.660156 783.945312 209.847656 784.644531 208.996094 C 785.339844 208.148438 785.996094 207.265625 786.605469 206.351562 C 787.214844 205.4375 787.78125 204.496094 788.296875 203.527344 C 788.816406 202.554688 789.285156 201.5625 789.707031 200.546875 C 790.128906 199.53125 790.496094 198.5 790.816406 197.445312 C 791.136719 196.394531 791.402344 195.332031 791.617188 194.253906 C 791.832031 193.175781 791.992188 192.089844 792.101562 190.992188 C 792.207031 189.898438 792.261719 188.804688 792.261719 187.703125 C 792.261719 186.605469 792.207031 185.507812 792.101562 184.414062 C 791.992188 183.320312 791.832031 182.234375 791.617188 181.15625 C 791.402344 180.078125 791.136719 179.011719 790.816406 177.960938 C 790.496094 176.910156 790.128906 175.875 789.707031 174.859375 C 789.285156 173.84375 788.816406 172.851562 788.296875 171.882812 C 787.78125 170.914062 787.214844 169.972656 786.605469 169.058594 C 785.996094 168.144531 785.339844 167.261719 784.644531 166.410156 C 783.945312 165.5625 783.207031 164.75 782.429688 163.972656 C 781.652344 163.195312 780.839844 162.457031 779.992188 161.757812 C 779.140625 161.0625 778.257812 160.40625 777.34375 159.796875 C 776.429688 159.1875 775.488281 158.621094 774.519531 158.105469 C 773.550781 157.585938 772.558594 157.117188 771.542969 156.695312 C 770.527344 156.273438 769.492188 155.90625 768.441406 155.585938 C 767.390625 155.265625 766.324219 155 765.246094 154.785156 C 764.167969 154.570312 763.082031 154.410156 761.988281 154.300781 C 760.894531 154.195312 759.796875 154.140625 758.699219 154.140625 Z M 758.699219 154.140625 " fill-opacity="1" fill-rule="nonzero"/><g clip-path="url(#d48adf45cd)"><path fill="#8889b9" d="M 792.261719 246.441406 C 791.710938 246.441406 791.164062 246.464844 790.617188 246.519531 C 790.070312 246.574219 789.527344 246.65625 788.988281 246.761719 C 788.449219 246.871094 787.917969 247.003906 787.390625 247.164062 C 786.863281 247.320312 786.347656 247.507812 785.839844 247.71875 C 785.332031 247.925781 784.835938 248.164062 784.351562 248.421875 C 783.867188 248.679688 783.394531 248.960938 782.9375 249.269531 C 782.480469 249.574219 782.039062 249.902344 781.617188 250.25 C 781.191406 250.597656 780.785156 250.964844 780.394531 251.355469 C 780.007812 251.742188 779.636719 252.152344 779.289062 252.574219 C 778.941406 253 778.613281 253.441406 778.308594 253.898438 C 778.003906 254.355469 777.71875 254.824219 777.460938 255.3125 C 777.203125 255.796875 776.96875 256.292969 776.757812 256.800781 C 776.546875 257.308594 776.363281 257.824219 776.203125 258.351562 C 776.042969 258.875 775.910156 259.410156 775.800781 259.949219 C 775.695312 260.488281 775.613281 261.03125 775.5625 261.578125 C 775.507812 262.125 775.480469 262.671875 775.480469 263.222656 C 775.480469 263.769531 775.507812 264.320312 775.5625 264.867188 C 775.613281 265.414062 775.695312 265.957031 775.800781 266.496094 C 775.910156 267.035156 776.042969 267.566406 776.203125 268.09375 C 776.363281 268.617188 776.546875 269.136719 776.757812 269.644531 C 776.96875 270.152344 777.203125 270.648438 777.460938 271.132812 C 777.71875 271.617188 778.003906 272.085938 778.308594 272.542969 C 778.613281 273 778.941406 273.441406 779.289062 273.867188 C 779.636719 274.292969 780.007812 274.699219 780.394531 275.085938 C 780.785156 275.476562 781.191406 275.84375 781.617188 276.195312 C 782.039062 276.542969 782.480469 276.871094 782.9375 277.175781 C 783.394531 277.480469 783.867188 277.761719 784.351562 278.019531 C 784.835938 278.28125 785.332031 278.515625 785.839844 278.726562 C 786.347656 278.9375 786.863281 279.121094 787.390625 279.28125 C 787.917969 279.441406 788.449219 279.574219 788.988281 279.679688 C 789.527344 279.789062 790.070312 279.867188 790.617188 279.921875 C 791.164062 279.976562 791.710938 280.003906 792.261719 280.003906 C 792.8125 280.003906 793.359375 279.976562 793.90625 279.921875 C 794.453125 279.867188 794.996094 279.789062 795.535156 279.679688 C 796.074219 279.574219 796.605469 279.441406 797.132812 279.28125 C 797.660156 279.121094 798.175781 278.9375 798.683594 278.726562 C 799.191406 278.515625 799.6875 278.28125 800.171875 278.019531 C 800.65625 277.761719 801.128906 277.480469 801.585938 277.175781 C 802.042969 276.871094 802.484375 276.542969 802.90625 276.195312 C 803.332031 275.84375 803.738281 275.476562 804.128906 275.085938 C 804.515625 274.699219 804.886719 274.292969 805.234375 273.867188 C 805.582031 273.441406 805.910156 273 806.214844 272.542969 C 806.519531 272.085938 806.800781 271.617188 807.0625 271.132812 C 807.320312 270.648438 807.554688 270.152344 807.765625 269.644531 C 807.976562 269.136719 808.160156 268.617188 808.320312 268.09375 C 808.480469 267.566406 808.613281 267.035156 808.71875 266.496094 C 808.828125 265.957031 808.910156 265.414062 808.960938 264.867188 C 809.015625 264.320312 809.042969 263.769531 809.042969 263.222656 C 809.042969 262.671875 809.015625 262.125 808.960938 261.578125 C 808.910156 261.03125 808.828125 260.488281 808.71875 259.949219 C 808.613281 259.410156 808.480469 258.875 808.320312 258.351562 C 808.160156 257.824219 807.976562 257.308594 807.765625 256.800781 C 807.554688 256.292969 807.320312 255.796875 807.0625 255.3125 C 806.800781 254.824219 806.519531 254.355469 806.214844 253.898438 C 805.910156 253.441406 805.582031 253 805.234375 252.574219 C 804.886719 252.152344 804.515625 251.742188 804.128906 251.355469 C 803.738281 250.964844 803.332031 250.597656 802.90625 250.25 C 802.484375 249.902344 802.042969 249.574219 801.585938 249.269531 C 801.128906 248.960938 800.65625 248.679688 800.171875 248.421875 C 799.6875 248.164062 799.191406 247.925781 798.683594 247.71875 C 798.175781 247.507812 797.660156 247.320312 797.132812 247.164062 C 796.605469 247.003906 796.074219 246.871094 795.535156 246.761719 C 794.996094 246.65625 794.453125 246.574219 793.90625 246.519531 C 793.359375 246.464844 792.8125 246.441406 792.261719 246.441406 Z M 792.261719 246.441406 " fill-opacity="1" fill-rule="nonzero"/></g><path fill="#fbcd59" d="M 741.917969 682.761719 C 741.367188 682.761719 740.820312 682.789062 740.273438 682.84375 C 739.726562 682.894531 739.183594 682.976562 738.644531 683.085938 C 738.105469 683.191406 737.570312 683.324219 737.046875 683.484375 C 736.519531 683.644531 736.003906 683.828125 735.496094 684.039062 C 734.988281 684.25 734.492188 684.484375 734.007812 684.742188 C 733.519531 685.003906 733.050781 685.285156 732.59375 685.589844 C 732.136719 685.894531 731.695312 686.222656 731.269531 686.570312 C 730.847656 686.917969 730.4375 687.289062 730.050781 687.675781 C 729.660156 688.066406 729.292969 688.472656 728.945312 688.898438 C 728.597656 689.320312 728.269531 689.761719 727.964844 690.21875 C 727.65625 690.675781 727.375 691.148438 727.117188 691.632812 C 726.859375 692.117188 726.621094 692.613281 726.414062 693.121094 C 726.203125 693.628906 726.015625 694.144531 725.859375 694.671875 C 725.699219 695.199219 725.566406 695.730469 725.457031 696.269531 C 725.351562 696.808594 725.269531 697.351562 725.214844 697.898438 C 725.160156 698.445312 725.136719 698.992188 725.136719 699.542969 C 725.136719 700.09375 725.160156 700.640625 725.214844 701.1875 C 725.269531 701.734375 725.351562 702.277344 725.457031 702.816406 C 725.566406 703.355469 725.699219 703.890625 725.859375 704.414062 C 726.015625 704.941406 726.203125 705.457031 726.414062 705.964844 C 726.621094 706.472656 726.859375 706.96875 727.117188 707.453125 C 727.375 707.9375 727.65625 708.410156 727.964844 708.867188 C 728.269531 709.324219 728.597656 709.765625 728.945312 710.1875 C 729.292969 710.613281 729.660156 711.019531 730.050781 711.410156 C 730.4375 711.796875 730.847656 712.167969 731.269531 712.515625 C 731.695312 712.863281 732.136719 713.191406 732.59375 713.496094 C 733.050781 713.800781 733.519531 714.085938 734.007812 714.34375 C 734.492188 714.601562 734.988281 714.835938 735.496094 715.046875 C 736.003906 715.257812 736.519531 715.441406 737.046875 715.601562 C 737.570312 715.761719 738.105469 715.894531 738.644531 716.003906 C 739.183594 716.109375 739.726562 716.191406 740.273438 716.242188 C 740.820312 716.296875 741.367188 716.324219 741.917969 716.324219 C 742.464844 716.324219 743.015625 716.296875 743.5625 716.242188 C 744.109375 716.191406 744.652344 716.109375 745.191406 716.003906 C 745.730469 715.894531 746.261719 715.761719 746.789062 715.601562 C 747.3125 715.441406 747.832031 715.257812 748.339844 715.046875 C 748.847656 714.835938 749.34375 714.601562 749.828125 714.34375 C 750.3125 714.085938 750.78125 713.800781 751.238281 713.496094 C 751.695312 713.191406 752.136719 712.863281 752.5625 712.515625 C 752.988281 712.167969 753.394531 711.796875 753.78125 711.410156 C 754.171875 711.019531 754.539062 710.613281 754.890625 710.1875 C 755.238281 709.765625 755.566406 709.324219 755.871094 708.867188 C 756.175781 708.410156 756.457031 707.9375 756.71875 707.453125 C 756.976562 706.96875 757.210938 706.472656 757.421875 705.964844 C 757.632812 705.457031 757.816406 704.941406 757.976562 704.414062 C 758.136719 703.890625 758.269531 703.355469 758.375 702.816406 C 758.484375 702.277344 758.5625 701.734375 758.617188 701.1875 C 758.671875 700.640625 758.699219 700.09375 758.699219 699.542969 C 758.699219 698.992188 758.671875 698.445312 758.617188 697.898438 C 758.5625 697.351562 758.484375 696.808594 758.375 696.269531 C 758.269531 695.730469 758.136719 695.199219 757.976562 694.671875 C 757.816406 694.144531 757.632812 693.628906 757.421875 693.121094 C 757.210938 692.613281 756.976562 692.117188 756.71875 691.632812 C 756.457031 691.148438 756.175781 690.675781 755.871094 690.21875 C 755.566406 689.761719 755.238281 689.320312 754.890625 688.898438 C 754.539062 688.472656 754.171875 688.066406 753.78125 687.675781 C 753.394531 687.289062 752.988281 686.917969 752.5625 686.570312 C 752.136719 686.222656 751.695312 685.894531 751.238281 685.589844 C 750.78125 685.285156 750.3125 685.003906 749.828125 684.742188 C 749.34375 684.484375 748.847656 684.25 748.339844 684.039062 C 747.832031 683.828125 747.3125 683.644531 746.789062 683.484375 C 746.261719 683.324219 745.730469 683.191406 745.191406 683.085938 C 744.652344 682.976562 744.109375 682.894531 743.5625 682.84375 C 743.015625 682.789062 742.464844 682.761719 741.917969 682.761719 Z M 188.125 556.898438 C 187.023438 556.898438 185.929688 556.953125 184.832031 557.0625 C 183.738281 557.167969 182.652344 557.328125 181.574219 557.542969 C 180.496094 557.757812 179.433594 558.027344 178.378906 558.34375 C 177.328125 558.664062 176.296875 559.035156 175.28125 559.453125 C 174.265625 559.875 173.273438 560.34375 172.300781 560.863281 C 171.332031 561.378906 170.390625 561.945312 169.476562 562.554688 C 168.5625 563.167969 167.679688 563.820312 166.832031 564.519531 C 165.980469 565.214844 165.167969 565.953125 164.390625 566.730469 C 163.613281 567.507812 162.875 568.320312 162.179688 569.171875 C 161.480469 570.019531 160.828125 570.902344 160.21875 571.816406 C 159.605469 572.730469 159.042969 573.671875 158.523438 574.640625 C 158.003906 575.609375 157.535156 576.601562 157.117188 577.617188 C 156.695312 578.632812 156.324219 579.667969 156.003906 580.71875 C 155.6875 581.773438 155.417969 582.835938 155.207031 583.914062 C 154.992188 584.992188 154.828125 586.078125 154.722656 587.171875 C 154.613281 588.265625 154.558594 589.363281 154.558594 590.460938 C 154.558594 591.5625 154.613281 592.660156 154.722656 593.753906 C 154.828125 594.847656 154.992188 595.933594 155.207031 597.011719 C 155.417969 598.089844 155.6875 599.152344 156.003906 600.207031 C 156.324219 601.257812 156.695312 602.292969 157.117188 603.308594 C 157.535156 604.324219 158.003906 605.316406 158.523438 606.285156 C 159.042969 607.253906 159.605469 608.195312 160.21875 609.109375 C 160.828125 610.023438 161.480469 610.90625 162.179688 611.753906 C 162.875 612.605469 163.613281 613.417969 164.390625 614.195312 C 165.167969 614.972656 165.980469 615.710938 166.832031 616.40625 C 167.679688 617.105469 168.5625 617.757812 169.476562 618.371094 C 170.390625 618.980469 171.332031 619.542969 172.300781 620.0625 C 173.273438 620.582031 174.265625 621.050781 175.28125 621.472656 C 176.296875 621.890625 177.328125 622.261719 178.378906 622.582031 C 179.433594 622.898438 180.496094 623.167969 181.574219 623.382812 C 182.652344 623.59375 183.738281 623.757812 184.832031 623.863281 C 185.929688 623.972656 187.023438 624.027344 188.125 624.027344 C 189.222656 624.027344 190.320312 623.972656 191.414062 623.863281 C 192.507812 623.757812 193.59375 623.59375 194.671875 623.382812 C 195.75 623.167969 196.816406 622.898438 197.867188 622.582031 C 198.917969 622.261719 199.953125 621.890625 200.96875 621.472656 C 201.984375 621.050781 202.976562 620.582031 203.945312 620.0625 C 204.914062 619.542969 205.855469 618.980469 206.769531 618.371094 C 207.683594 617.757812 208.566406 617.105469 209.414062 616.40625 C 210.265625 615.710938 211.078125 614.972656 211.855469 614.195312 C 212.632812 613.417969 213.371094 612.605469 214.070312 611.753906 C 214.765625 610.90625 215.417969 610.023438 216.03125 609.109375 C 216.640625 608.195312 217.207031 607.253906 217.722656 606.285156 C 218.242188 605.316406 218.710938 604.324219 219.132812 603.308594 C 219.550781 602.292969 219.921875 601.257812 220.242188 600.207031 C 220.5625 599.152344 220.828125 598.089844 221.042969 597.011719 C 221.257812 595.933594 221.417969 594.847656 221.523438 593.753906 C 221.632812 592.660156 221.6875 591.5625 221.6875 590.460938 C 221.6875 589.363281 221.632812 588.265625 221.523438 587.171875 C 221.417969 586.078125 221.257812 584.992188 221.042969 583.914062 C 220.828125 582.835938 220.5625 581.773438 220.242188 580.71875 C 219.921875 579.667969 219.550781 578.632812 219.132812 577.617188 C 218.710938 576.601562 218.242188 575.609375 217.722656 574.640625 C 217.207031 573.671875 216.640625 572.730469 216.03125 571.816406 C 215.417969 570.902344 214.765625 570.019531 214.070312 569.171875 C 213.371094 568.320312 212.632812 567.507812 211.855469 566.730469 C 211.078125 565.953125 210.265625 565.214844 209.414062 564.519531 C 208.566406 563.820312 207.683594 563.167969 206.769531 562.554688 C 205.855469 561.945312 204.914062 561.378906 203.945312 560.863281 C 202.976562 560.34375 201.984375 559.875 200.96875 559.453125 C 199.953125 559.035156 198.917969 558.664062 197.867188 558.34375 C 196.816406 558.027344 195.75 557.757812 194.671875 557.542969 C 193.59375 557.328125 192.507812 557.167969 191.414062 557.0625 C 190.320312 556.953125 189.222656 556.898438 188.125 556.898438 Z M 188.125 556.898438 " fill-opacity="1" fill-rule="nonzero"/><path fill="#8889b9" d="M 272.03125 775.058594 C 271.480469 775.058594 270.933594 775.085938 270.386719 775.140625 C 269.839844 775.195312 269.296875 775.277344 268.757812 775.382812 C 268.21875 775.488281 267.6875 775.625 267.160156 775.78125 C 266.632812 775.941406 266.117188 776.128906 265.609375 776.335938 C 265.101562 776.546875 264.605469 776.78125 264.121094 777.042969 C 263.636719 777.300781 263.164062 777.582031 262.707031 777.890625 C 262.25 778.195312 261.808594 778.519531 261.386719 778.871094 C 260.960938 779.21875 260.554688 779.585938 260.164062 779.976562 C 259.777344 780.363281 259.40625 780.769531 259.058594 781.195312 C 258.710938 781.621094 258.382812 782.0625 258.078125 782.519531 C 257.773438 782.976562 257.492188 783.445312 257.230469 783.929688 C 256.972656 784.414062 256.738281 784.914062 256.527344 785.421875 C 256.316406 785.929688 256.132812 786.445312 255.972656 786.96875 C 255.8125 787.496094 255.679688 788.027344 255.574219 788.566406 C 255.464844 789.105469 255.386719 789.648438 255.332031 790.195312 C 255.277344 790.746094 255.25 791.292969 255.25 791.84375 C 255.25 792.390625 255.277344 792.941406 255.332031 793.488281 C 255.386719 794.035156 255.464844 794.578125 255.574219 795.117188 C 255.679688 795.65625 255.8125 796.1875 255.972656 796.714844 C 256.132812 797.238281 256.316406 797.757812 256.527344 798.265625 C 256.738281 798.773438 256.972656 799.269531 257.230469 799.753906 C 257.492188 800.238281 257.773438 800.707031 258.078125 801.164062 C 258.382812 801.621094 258.710938 802.0625 259.058594 802.488281 C 259.40625 802.914062 259.777344 803.320312 260.164062 803.707031 C 260.554688 804.097656 260.960938 804.464844 261.386719 804.8125 C 261.808594 805.164062 262.25 805.488281 262.707031 805.796875 C 263.164062 806.101562 263.636719 806.382812 264.121094 806.640625 C 264.605469 806.902344 265.101562 807.136719 265.609375 807.347656 C 266.117188 807.554688 266.632812 807.742188 267.160156 807.902344 C 267.6875 808.0625 268.21875 808.195312 268.757812 808.300781 C 269.296875 808.410156 269.839844 808.488281 270.386719 808.542969 C 270.933594 808.597656 271.480469 808.625 272.03125 808.625 C 272.582031 808.625 273.128906 808.597656 273.675781 808.542969 C 274.222656 808.488281 274.765625 808.410156 275.304688 808.300781 C 275.84375 808.195312 276.378906 808.0625 276.902344 807.902344 C 277.429688 807.742188 277.945312 807.554688 278.453125 807.347656 C 278.960938 807.136719 279.457031 806.902344 279.941406 806.640625 C 280.425781 806.382812 280.898438 806.101562 281.355469 805.796875 C 281.8125 805.488281 282.253906 805.164062 282.679688 804.8125 C 283.101562 804.464844 283.507812 804.097656 283.898438 803.707031 C 284.285156 803.320312 284.65625 802.914062 285.003906 802.488281 C 285.351562 802.0625 285.679688 801.621094 285.984375 801.164062 C 286.289062 800.707031 286.574219 800.238281 286.832031 799.753906 C 287.089844 799.269531 287.324219 798.773438 287.535156 798.265625 C 287.746094 797.757812 287.929688 797.238281 288.089844 796.714844 C 288.25 796.1875 288.382812 795.65625 288.492188 795.117188 C 288.597656 794.578125 288.679688 794.035156 288.734375 793.488281 C 288.785156 792.941406 288.8125 792.390625 288.8125 791.84375 C 288.8125 791.292969 288.785156 790.746094 288.734375 790.195312 C 288.679688 789.648438 288.597656 789.105469 288.492188 788.566406 C 288.382812 788.027344 288.25 787.496094 288.089844 786.96875 C 287.929688 786.445312 287.746094 785.929688 287.535156 785.421875 C 287.324219 784.914062 287.089844 784.414062 286.832031 783.929688 C 286.574219 783.445312 286.289062 782.976562 285.984375 782.519531 C 285.679688 782.0625 285.351562 781.621094 285.003906 781.195312 C 284.65625 780.769531 284.285156 780.363281 283.898438 779.976562 C 283.507812 779.585938 283.101562 779.21875 282.679688 778.871094 C 282.253906 778.519531 281.8125 778.195312 281.355469 777.890625 C 280.898438 777.582031 280.425781 777.300781 279.941406 777.042969 C 279.457031 776.78125 278.960938 776.546875 278.453125 776.335938 C 277.945312 776.128906 277.429688 775.941406 276.902344 775.78125 C 276.378906 775.625 275.84375 775.488281 275.304688 775.382812 C 274.765625 775.277344 274.222656 775.195312 273.675781 775.140625 C 273.128906 775.085938 272.582031 775.058594 272.03125 775.058594 Z M 272.03125 775.058594 " fill-opacity="1" fill-rule="nonzero"/><path fill="#ffffff" d="M 217.492188 472.992188 C 216.804688 472.992188 216.117188 473.023438 215.433594 473.09375 C 214.75 473.160156 214.074219 473.261719 213.398438 473.394531 C 212.726562 473.527344 212.058594 473.695312 211.402344 473.894531 C 210.746094 474.09375 210.097656 474.324219 209.464844 474.589844 C 208.828125 474.851562 208.207031 475.144531 207.601562 475.46875 C 206.996094 475.792969 206.410156 476.144531 205.835938 476.527344 C 205.265625 476.910156 204.714844 477.316406 204.183594 477.753906 C 203.652344 478.1875 203.144531 478.648438 202.660156 479.136719 C 202.171875 479.621094 201.710938 480.128906 201.277344 480.660156 C 200.839844 481.191406 200.429688 481.742188 200.050781 482.3125 C 199.667969 482.886719 199.316406 483.472656 198.992188 484.078125 C 198.667969 484.6875 198.375 485.304688 198.109375 485.941406 C 197.847656 486.574219 197.617188 487.222656 197.417969 487.878906 C 197.21875 488.535156 197.050781 489.203125 196.917969 489.875 C 196.785156 490.550781 196.683594 491.230469 196.617188 491.914062 C 196.546875 492.597656 196.515625 493.28125 196.515625 493.96875 C 196.515625 494.65625 196.546875 495.339844 196.617188 496.023438 C 196.683594 496.707031 196.785156 497.386719 196.917969 498.0625 C 197.050781 498.734375 197.21875 499.398438 197.417969 500.058594 C 197.617188 500.714844 197.847656 501.363281 198.109375 501.996094 C 198.375 502.628906 198.667969 503.25 198.992188 503.855469 C 199.316406 504.460938 199.667969 505.050781 200.050781 505.621094 C 200.429688 506.195312 200.839844 506.746094 201.277344 507.277344 C 201.710938 507.808594 202.171875 508.316406 202.660156 508.800781 C 203.144531 509.289062 203.652344 509.75 204.183594 510.183594 C 204.714844 510.621094 205.265625 511.027344 205.835938 511.410156 C 206.410156 511.792969 206.996094 512.144531 207.601562 512.46875 C 208.207031 512.792969 208.828125 513.085938 209.464844 513.347656 C 210.097656 513.613281 210.746094 513.84375 211.402344 514.042969 C 212.058594 514.242188 212.726562 514.410156 213.398438 514.542969 C 214.074219 514.675781 214.75 514.777344 215.433594 514.84375 C 216.117188 514.910156 216.804688 514.945312 217.492188 514.945312 C 218.179688 514.945312 218.863281 514.910156 219.546875 514.84375 C 220.230469 514.777344 220.910156 514.675781 221.582031 514.542969 C 222.257812 514.410156 222.921875 514.242188 223.582031 514.042969 C 224.238281 513.84375 224.882812 513.613281 225.519531 513.347656 C 226.152344 513.085938 226.773438 512.792969 227.378906 512.46875 C 227.984375 512.144531 228.574219 511.792969 229.144531 511.410156 C 229.71875 511.027344 230.269531 510.621094 230.800781 510.183594 C 231.332031 509.75 231.839844 509.289062 232.324219 508.800781 C 232.808594 508.316406 233.269531 507.808594 233.707031 507.277344 C 234.144531 506.746094 234.550781 506.195312 234.933594 505.621094 C 235.316406 505.050781 235.667969 504.460938 235.992188 503.855469 C 236.316406 503.25 236.609375 502.628906 236.871094 501.996094 C 237.132812 501.363281 237.367188 500.714844 237.566406 500.058594 C 237.765625 499.402344 237.929688 498.734375 238.066406 498.0625 C 238.199219 497.386719 238.300781 496.707031 238.367188 496.023438 C 238.433594 495.339844 238.46875 494.65625 238.46875 493.96875 C 238.46875 493.28125 238.433594 492.597656 238.367188 491.914062 C 238.300781 491.230469 238.199219 490.550781 238.066406 489.875 C 237.929688 489.203125 237.765625 488.535156 237.566406 487.878906 C 237.367188 487.222656 237.132812 486.574219 236.871094 485.941406 C 236.609375 485.304688 236.316406 484.6875 235.992188 484.078125 C 235.667969 483.472656 235.316406 482.886719 234.933594 482.3125 C 234.550781 481.742188 234.144531 481.191406 233.707031 480.660156 C 233.269531 480.128906 232.808594 479.621094 232.324219 479.136719 C 231.839844 478.648438 231.332031 478.1875 230.800781 477.753906 C 230.269531 477.316406 229.71875 476.910156 229.144531 476.527344 C 228.574219 476.144531 227.984375 475.792969 227.378906 475.46875 C 226.773438 475.144531 226.152344 474.851562 225.519531 474.589844 C 224.882812 474.324219 224.238281 474.09375 223.582031 473.894531 C 222.921875 473.695312 222.257812 473.527344 221.582031 473.394531 C 220.910156 473.261719 220.230469 473.160156 219.546875 473.09375 C 218.863281 473.023438 218.179688 472.992188 217.492188 472.992188 Z M 729.332031 330.347656 C 728.503906 330.347656 727.6875 330.429688 726.875 330.589844 C 726.066406 330.75 725.277344 330.988281 724.515625 331.304688 C 723.75 331.621094 723.023438 332.011719 722.339844 332.46875 C 721.652344 332.929688 721.015625 333.449219 720.429688 334.035156 C 719.847656 334.617188 719.324219 335.253906 718.867188 335.941406 C 718.40625 336.628906 718.019531 337.355469 717.703125 338.117188 C 717.386719 338.882812 717.148438 339.667969 716.984375 340.480469 C 716.824219 341.289062 716.746094 342.109375 716.746094 342.933594 C 716.746094 343.761719 716.824219 344.578125 716.984375 345.390625 C 717.148438 346.199219 717.386719 346.988281 717.703125 347.75 C 718.019531 348.515625 718.40625 349.238281 718.867188 349.925781 C 719.324219 350.613281 719.847656 351.25 720.429688 351.832031 C 721.015625 352.417969 721.652344 352.941406 722.339844 353.398438 C 723.023438 353.859375 723.75 354.246094 724.515625 354.5625 C 725.277344 354.878906 726.066406 355.117188 726.875 355.277344 C 727.6875 355.441406 728.503906 355.519531 729.332031 355.519531 C 730.15625 355.519531 730.976562 355.441406 731.785156 355.277344 C 732.597656 355.117188 733.382812 354.878906 734.148438 354.5625 C 734.910156 354.246094 735.636719 353.859375 736.324219 353.398438 C 737.011719 352.941406 737.644531 352.417969 738.230469 351.832031 C 738.816406 351.25 739.335938 350.613281 739.796875 349.925781 C 740.253906 349.238281 740.640625 348.515625 740.957031 347.75 C 741.273438 346.988281 741.511719 346.199219 741.675781 345.390625 C 741.835938 344.578125 741.917969 343.761719 741.917969 342.933594 C 741.917969 342.109375 741.835938 341.289062 741.675781 340.480469 C 741.511719 339.667969 741.273438 338.882812 740.957031 338.117188 C 740.640625 337.355469 740.253906 336.628906 739.796875 335.941406 C 739.335938 335.253906 738.816406 334.617188 738.230469 334.035156 C 737.644531 333.449219 737.011719 332.929688 736.324219 332.46875 C 735.636719 332.011719 734.910156 331.621094 734.148438 331.304688 C 733.382812 330.988281 732.597656 330.75 731.785156 330.589844 C 730.976562 330.429688 730.15625 330.347656 729.332031 330.347656 Z M 729.332031 330.347656 " fill-opacity="1" fill-rule="nonzero"/><path fill="#48bed8" d="M 481.800781 276.855469 C 478.472656 276.855469 475.144531 276.9375 471.816406 277.101562 C 468.492188 277.265625 465.171875 277.511719 461.859375 277.835938 C 458.542969 278.164062 455.238281 278.570312 451.945312 279.058594 C 448.652344 279.546875 445.371094 280.117188 442.105469 280.765625 C 438.839844 281.414062 435.589844 282.144531 432.359375 282.953125 C 429.128906 283.761719 425.921875 284.652344 422.734375 285.617188 C 419.550781 286.585938 416.386719 287.628906 413.253906 288.75 C 410.117188 289.871094 407.011719 291.070312 403.933594 292.34375 C 400.859375 293.621094 397.816406 294.96875 394.804688 296.390625 C 391.792969 297.816406 388.820312 299.3125 385.882812 300.882812 C 382.945312 302.453125 380.050781 304.09375 377.195312 305.804688 C 374.335938 307.515625 371.523438 309.296875 368.757812 311.148438 C 365.988281 313 363.265625 314.914062 360.589844 316.898438 C 357.914062 318.882812 355.292969 320.929688 352.71875 323.042969 C 350.144531 325.15625 347.621094 327.332031 345.15625 329.566406 C 342.6875 331.804688 340.277344 334.097656 337.921875 336.453125 C 335.566406 338.808594 333.273438 341.21875 331.035156 343.6875 C 328.800781 346.152344 326.625 348.675781 324.511719 351.25 C 322.398438 353.824219 320.351562 356.449219 318.367188 359.121094 C 316.382812 361.796875 314.46875 364.519531 312.617188 367.289062 C 310.765625 370.054688 308.984375 372.867188 307.273438 375.726562 C 305.5625 378.582031 303.921875 381.476562 302.351562 384.414062 C 300.78125 387.351562 299.285156 390.324219 297.859375 393.335938 C 296.4375 396.347656 295.089844 399.390625 293.8125 402.464844 C 292.539062 405.542969 291.339844 408.648438 290.21875 411.785156 C 289.097656 414.917969 288.054688 418.082031 287.085938 421.265625 C 286.121094 424.453125 285.230469 427.664062 284.421875 430.894531 C 283.613281 434.121094 282.882812 437.371094 282.234375 440.636719 C 281.585938 443.902344 281.015625 447.183594 280.527344 450.476562 C 280.039062 453.769531 279.632812 457.074219 279.304688 460.390625 C 278.976562 463.703125 278.734375 467.023438 278.570312 470.347656 C 278.40625 473.675781 278.324219 477.003906 278.324219 480.332031 C 278.324219 483.664062 278.40625 486.992188 278.570312 490.316406 C 278.734375 493.644531 278.976562 496.964844 279.304688 500.277344 C 279.632812 503.589844 280.039062 506.894531 280.527344 510.191406 C 281.015625 513.484375 281.585938 516.765625 282.234375 520.03125 C 282.882812 523.296875 283.613281 526.542969 284.421875 529.773438 C 285.230469 533.003906 286.121094 536.214844 287.085938 539.398438 C 288.054688 542.585938 289.097656 545.746094 290.21875 548.882812 C 291.339844 552.019531 292.539062 555.125 293.8125 558.199219 C 295.089844 561.277344 296.4375 564.320312 297.859375 567.332031 C 299.285156 570.339844 300.78125 573.316406 302.351562 576.25 C 303.921875 579.1875 305.5625 582.085938 307.273438 584.941406 C 308.984375 587.796875 310.765625 590.609375 312.617188 593.378906 C 314.46875 596.148438 316.382812 598.871094 318.367188 601.542969 C 320.351562 604.21875 322.398438 606.84375 324.511719 609.417969 C 326.625 611.992188 328.800781 614.511719 331.035156 616.980469 C 333.273438 619.449219 335.566406 621.859375 337.921875 624.214844 C 340.277344 626.566406 342.6875 628.863281 345.15625 631.101562 C 347.621094 633.335938 350.144531 635.511719 352.71875 637.625 C 355.292969 639.734375 357.914062 641.785156 360.589844 643.769531 C 363.265625 645.75 365.988281 647.667969 368.757812 649.519531 C 371.523438 651.367188 374.335938 653.148438 377.195312 654.863281 C 380.050781 656.574219 382.945312 658.214844 385.882812 659.785156 C 388.820312 661.355469 391.792969 662.851562 394.804688 664.273438 C 397.816406 665.699219 400.859375 667.046875 403.933594 668.320312 C 407.011719 669.597656 410.117188 670.792969 413.253906 671.917969 C 416.386719 673.039062 419.550781 674.082031 422.734375 675.050781 C 425.921875 676.015625 429.128906 676.902344 432.359375 677.710938 C 435.589844 678.523438 438.839844 679.25 442.105469 679.902344 C 445.371094 680.550781 448.652344 681.121094 451.945312 681.609375 C 455.238281 682.097656 458.542969 682.503906 461.859375 682.832031 C 465.171875 683.15625 468.492188 683.402344 471.816406 683.566406 C 475.144531 683.730469 478.472656 683.808594 481.800781 683.808594 C 485.132812 683.808594 488.460938 683.730469 491.785156 683.566406 C 495.113281 683.402344 498.433594 683.15625 501.746094 682.832031 C 505.058594 682.503906 508.363281 682.097656 511.65625 681.609375 C 514.953125 681.121094 518.230469 680.550781 521.5 679.902344 C 524.765625 679.25 528.011719 678.523438 531.242188 677.710938 C 534.472656 676.902344 537.679688 676.015625 540.867188 675.050781 C 544.054688 674.082031 547.214844 673.039062 550.351562 671.917969 C 553.488281 670.792969 556.59375 669.597656 559.667969 668.320312 C 562.746094 667.046875 565.789062 665.699219 568.800781 664.273438 C 571.808594 662.851562 574.785156 661.355469 577.71875 659.785156 C 580.65625 658.214844 583.554688 656.574219 586.410156 654.863281 C 589.265625 653.148438 592.078125 651.367188 594.847656 649.519531 C 597.617188 647.667969 600.339844 645.75 603.011719 643.769531 C 605.6875 641.785156 608.3125 639.734375 610.886719 637.625 C 613.460938 635.511719 615.980469 633.335938 618.449219 631.101562 C 620.914062 628.863281 623.328125 626.566406 625.683594 624.214844 C 628.035156 621.859375 630.332031 619.449219 632.566406 616.980469 C 634.804688 614.511719 636.980469 611.992188 639.089844 609.417969 C 641.203125 606.84375 643.253906 604.21875 645.234375 601.542969 C 647.21875 598.871094 649.136719 596.148438 650.988281 593.378906 C 652.835938 590.609375 654.617188 587.796875 656.328125 584.941406 C 658.042969 582.085938 659.683594 579.1875 661.253906 576.25 C 662.820312 573.316406 664.320312 570.339844 665.742188 567.332031 C 667.167969 564.320312 668.515625 561.277344 669.789062 558.199219 C 671.0625 555.125 672.261719 552.019531 673.382812 548.882812 C 674.507812 545.746094 675.550781 542.585938 676.515625 539.398438 C 677.484375 536.214844 678.371094 533.003906 679.179688 529.773438 C 679.988281 526.542969 680.71875 523.296875 681.367188 520.03125 C 682.019531 516.765625 682.585938 513.484375 683.078125 510.191406 C 683.566406 506.894531 683.972656 503.589844 684.300781 500.277344 C 684.625 496.964844 684.871094 493.644531 685.035156 490.316406 C 685.195312 486.992188 685.277344 483.664062 685.277344 480.332031 C 685.277344 477.003906 685.195312 473.675781 685.035156 470.347656 C 684.871094 467.023438 684.625 463.703125 684.300781 460.390625 C 683.972656 457.074219 683.566406 453.769531 683.078125 450.476562 C 682.585938 447.183594 682.019531 443.902344 681.367188 440.636719 C 680.71875 437.371094 679.988281 434.121094 679.179688 430.890625 C 678.371094 427.664062 677.484375 424.453125 676.515625 421.265625 C 675.550781 418.082031 674.507812 414.917969 673.382812 411.785156 C 672.261719 408.648438 671.0625 405.542969 669.789062 402.464844 C 668.515625 399.390625 667.167969 396.347656 665.742188 393.335938 C 664.320312 390.324219 662.820312 387.351562 661.253906 384.414062 C 659.683594 381.476562 658.042969 378.582031 656.328125 375.726562 C 654.617188 372.867188 652.835938 370.054688 650.988281 367.289062 C 649.136719 364.519531 647.21875 361.796875 645.234375 359.121094 C 643.253906 356.449219 641.203125 353.824219 639.089844 351.25 C 636.980469 348.675781 634.804688 346.152344 632.566406 343.6875 C 630.332031 341.21875 628.035156 338.808594 625.683594 336.453125 C 623.328125 334.097656 620.914062 331.804688 618.449219 329.566406 C 615.980469 327.332031 613.460938 325.15625 610.886719 323.042969 C 608.3125 320.929688 605.6875 318.882812 603.011719 316.898438 C 600.339844 314.914062 597.617188 313 594.847656 311.148438 C 592.078125 309.296875 589.265625 307.515625 586.410156 305.804688 C 583.554688 304.09375 580.65625 302.453125 577.71875 300.882812 C 574.785156 299.3125 571.808594 297.816406 568.800781 296.390625 C 565.789062 294.96875 562.746094 293.621094 559.667969 292.34375 C 556.59375 291.070312 553.488281 289.871094 550.351562 288.75 C 547.214844 287.628906 544.054688 286.585938 540.867188 285.617188 C 537.679688 284.652344 534.472656 283.761719 531.242188 282.953125 C 528.011719 282.144531 524.765625 281.414062 521.5 280.765625 C 518.230469 280.117188 514.953125 279.546875 511.65625 279.058594 C 508.363281 278.570312 505.058594 278.164062 501.746094 277.835938 C 498.433594 277.511719 495.113281 277.265625 491.785156 277.101562 C 488.460938 276.9375 485.132812 276.855469 481.800781 276.855469 Z M 481.800781 276.855469 " fill-opacity="1" fill-rule="nonzero"/><path fill="#472b29" d="M 481.800781 689.683594 C 366.371094 689.683594 272.453125 595.773438 272.453125 480.332031 C 272.453125 364.894531 366.371094 270.984375 481.800781 270.984375 C 597.234375 270.984375 691.152344 364.894531 691.152344 480.332031 C 691.152344 595.773438 597.234375 689.683594 481.800781 689.683594 Z M 481.800781 282.730469 C 372.847656 282.730469 284.199219 371.371094 284.199219 480.332031 C 284.199219 589.296875 372.847656 677.9375 481.800781 677.9375 C 590.757812 677.9375 679.40625 589.296875 679.40625 480.332031 C 679.40625 371.371094 590.757812 282.730469 481.800781 282.730469 Z M 481.800781 282.730469 " fill-opacity="1" fill-rule="nonzero"/><path fill="#472b29" d="M 644.785156 436.28125 C 642.988281 436.28125 641.328125 435.117188 640.773438 433.3125 C 640.035156 430.902344 639.238281 428.519531 638.390625 426.152344 C 635.101562 416.972656 630.957031 408.039062 626.054688 399.5625 C 624.890625 397.566406 625.578125 394.992188 627.582031 393.832031 C 629.589844 392.648438 632.15625 393.355469 633.316406 395.367188 C 638.464844 404.269531 642.828125 413.675781 646.285156 423.316406 C 647.175781 425.808594 648.015625 428.308594 648.789062 430.84375 C 649.46875 433.058594 648.226562 435.410156 646 436.089844 C 645.597656 436.222656 645.1875 436.28125 644.785156 436.28125 Z M 644.785156 436.28125 " fill-opacity="1" fill-rule="nonzero"/><path fill="#472b29" d="M 481.800781 655.492188 C 385.214844 655.492188 306.644531 577.148438 306.644531 480.855469 C 306.644531 384.5625 385.214844 306.222656 481.800781 306.222656 C 531.9375 306.222656 579.757812 327.703125 613 365.152344 C 615.507812 367.980469 617.933594 370.902344 620.257812 373.886719 C 621.675781 375.71875 621.347656 378.34375 619.527344 379.769531 C 617.699219 381.214844 615.066406 380.867188 613.636719 379.03125 C 611.421875 376.1875 609.105469 373.417969 606.722656 370.722656 C 575.074219 335.0625 529.539062 314.605469 481.800781 314.605469 C 389.847656 314.605469 315.035156 389.183594 315.035156 480.855469 C 315.035156 572.523438 389.847656 647.101562 481.800781 647.101562 C 573.757812 647.101562 648.570312 572.523438 648.570312 480.855469 C 648.570312 472.503906 647.941406 464.105469 646.707031 455.90625 C 646.363281 453.625 647.941406 451.484375 650.230469 451.140625 C 652.578125 450.796875 654.660156 452.375 655.003906 454.664062 C 656.296875 463.265625 656.960938 472.085938 656.960938 480.855469 C 656.960938 577.148438 578.386719 655.492188 481.800781 655.492188 Z M 481.800781 655.492188 " fill-opacity="1" fill-rule="nonzero"/><path fill="#b5cfe4" d="M 470.523438 552.578125 L 433.984375 586.316406 C 433.984375 586.316406 431.128906 588.507812 428 587.132812 L 434.996094 524.453125 Z M 470.523438 552.578125 " fill-opacity="1" fill-rule="nonzero"/><path fill="#472b29" d="M 430.140625 589.683594 C 429.207031 589.683594 428.203125 589.507812 427.167969 589.054688 L 425.757812 588.441406 L 433.34375 520.464844 L 473.753906 552.460938 L 435.410156 587.863281 C 435.183594 588.039062 433 589.683594 430.140625 589.683594 Z M 436.667969 528.445312 L 430.308594 585.488281 C 431.625 585.4375 432.664062 584.679688 432.722656 584.640625 L 467.3125 552.695312 Z M 436.667969 528.445312 " fill-opacity="1" fill-rule="nonzero"/><path fill="#ffffff" d="M 588.53125 385.003906 L 548.5 589.449219 C 548.5 589.449219 542.902344 603.628906 527.5 596.824219 L 435.105469 525.082031 L 401.511719 508.636719 L 344.957031 489.363281 C 344.957031 489.363281 336.273438 486.25 335.433594 479.445312 C 334.59375 472.640625 345.226562 468.957031 345.226562 468.957031 L 570.054688 379.636719 C 570.054688 379.609375 588.53125 371.386719 588.53125 385.003906 Z M 588.53125 385.003906 " fill-opacity="1" fill-rule="nonzero"/><path fill="#472b29" d="M 535.367188 600.773438 C 532.625 600.773438 529.714844 600.09375 526.652344 598.746094 L 433.824219 526.734375 L 400.59375 510.515625 L 344.292969 491.34375 C 343.855469 491.183594 334.351562 487.691406 333.359375 479.6875 C 332.320312 471.296875 344.050781 467.132812 344.554688 466.957031 L 569.285156 377.671875 L 569.308594 377.730469 C 572.09375 376.179688 579.4375 374.222656 584.101562 375.480469 C 586.542969 376.128906 590.628906 378.234375 590.628906 385.003906 L 590.589844 385.410156 L 550.554688 589.851562 C 550.347656 590.496094 547.71875 596.964844 541.199219 599.640625 C 539.355469 600.398438 537.40625 600.773438 535.367188 600.773438 Z M 571.917969 381.121094 L 571.917969 381.136719 L 570.835938 381.574219 L 346.003906 470.894531 C 345.828125 470.960938 336.910156 474.214844 337.511719 479.175781 C 338.175781 484.554688 345.59375 487.355469 345.667969 487.382812 L 402.191406 506.648438 L 436.03125 523.195312 L 528.789062 595.171875 C 532.617188 596.78125 536.390625 597.074219 539.613281 595.757812 C 544.507812 593.753906 546.535156 588.726562 546.554688 588.675781 L 586.433594 384.804688 C 586.402344 382.503906 585.746094 380.976562 584.453125 380.140625 C 581.300781 378.117188 574.796875 380.03125 571.917969 381.121094 Z M 571.917969 381.121094 " fill-opacity="1" fill-rule="nonzero"/><path fill="#d2e5f1" d="M 428 587.140625 C 428 587.140625 425.304688 586.886719 421.941406 576.105469 C 418.585938 565.332031 401.5 508.617188 401.5 508.617188 L 537.296875 421.277344 C 537.296875 421.277344 545.136719 416.453125 544.859375 421.277344 C 544.859375 421.277344 546.25 422.125 542.054688 426.105469 C 537.859375 430.082031 435.375 523.363281 435.375 523.363281 Z M 428 587.140625 " fill-opacity="1" fill-rule="nonzero"/><path fill="#472b29" d="M 429.847656 589.414062 L 427.808594 589.230469 C 426.28125 589.085938 423.226562 587.28125 419.9375 576.734375 C 416.582031 565.960938 399.488281 509.230469 399.488281 509.230469 L 399.027344 507.710938 L 400.359375 506.855469 L 536.15625 419.523438 C 537.996094 418.382812 542.484375 415.984375 545.195312 417.605469 C 545.808594 417.964844 546.753906 418.796875 546.941406 420.492188 L 547.167969 421.503906 C 547.34375 423.175781 546.21875 425.070312 543.507812 427.628906 C 539.464844 431.464844 446.5 516.085938 437.382812 524.394531 Z M 403.960938 509.523438 C 406.695312 518.605469 420.910156 565.75 423.9375 575.476562 C 424.878906 578.488281 425.742188 580.585938 426.472656 582.03125 L 433.378906 522.335938 L 433.957031 521.808594 C 434.980469 520.878906 536.476562 428.496094 540.605469 424.566406 C 541.789062 423.445312 542.382812 422.6875 542.695312 422.242188 L 542.753906 421.238281 C 541.8125 421.355469 539.90625 422.125 538.382812 423.066406 Z M 403.960938 509.523438 " fill-opacity="1" fill-rule="nonzero"/><path fill="#472b29" d="M 535.367188 602.871094 C 532.347656 602.871094 529.144531 602.132812 525.804688 600.65625 L 525.054688 600.230469 L 468.761719 559.9375 L 436.828125 589.398438 C 436.082031 590.007812 431.835938 593.105469 426.785156 591.167969 C 421.816406 589.816406 418.929688 580.554688 417.929688 577.355469 C 415.121094 568.335938 402.667969 527.046875 398.699219 513.886719 L 398.105469 511.917969 L 343.613281 493.339844 C 343.09375 493.15625 332.421875 489.226562 331.277344 479.957031 C 330.289062 471.917969 338.722656 466.765625 343.867188 464.988281 L 568.519531 375.734375 L 568.546875 375.800781 C 572.105469 374.046875 580.351562 371.738281 585.90625 373.871094 C 588.457031 374.859375 592.738281 377.613281 592.738281 385.015625 L 552.621094 590.261719 C 552.101562 591.773438 549.214844 598.628906 541.996094 601.597656 C 539.890625 602.445312 537.683594 602.871094 535.367188 602.871094 Z M 529.578125 593.148438 C 533.128906 594.640625 536.234375 594.851562 538.808594 593.8125 C 542.753906 592.199219 544.582031 587.945312 544.597656 587.902344 L 584.421875 384.199219 C 584.347656 383.386719 584 382.34375 583.320312 381.917969 C 581.476562 380.71875 576.777344 381.589844 573.386719 382.808594 L 573.378906 382.824219 L 346.777344 472.839844 C 344.015625 473.8125 339.300781 476.515625 339.59375 478.914062 C 340.03125 482.441406 345.046875 484.929688 346.375 485.402344 L 404.664062 505.269531 L 405.378906 507.066406 C 405.378906 507.074219 405.890625 508.6875 406.722656 511.445312 C 410.691406 524.59375 423.125 565.828125 425.9375 574.855469 C 427.789062 580.8125 429.273438 582.808594 429.71875 583.304688 C 430.527344 583.625 431.480469 582.953125 431.492188 582.9375 L 468.089844 549.136719 Z M 529.578125 593.148438 " fill-opacity="1" fill-rule="nonzero"/></svg>