<svg xmlns="http://www.w3.org/2000/svg" xmlns:xlink="http://www.w3.org/1999/xlink" width="1080" zoomAndPan="magnify" viewBox="0 0 810 809.999993" height="1080" preserveAspectRatio="xMidYMid meet" version="1.0"><path fill="#f1bc19" d="M 747.414062 329.949219 C 747.074219 329.949219 746.738281 329.980469 746.40625 330.046875 C 746.070312 330.113281 745.75 330.210938 745.433594 330.34375 C 745.121094 330.472656 744.824219 330.632812 744.539062 330.820312 C 744.257812 331.007812 743.996094 331.222656 743.757812 331.464844 C 743.515625 331.703125 743.300781 331.964844 743.113281 332.246094 C 742.925781 332.53125 742.765625 332.828125 742.636719 333.140625 C 742.503906 333.453125 742.40625 333.777344 742.339844 334.113281 C 742.273438 334.445312 742.242188 334.78125 742.242188 335.121094 C 742.242188 335.460938 742.273438 335.796875 742.339844 336.128906 C 742.40625 336.460938 742.503906 336.785156 742.636719 337.101562 C 742.765625 337.414062 742.925781 337.710938 743.113281 337.996094 C 743.300781 338.277344 743.515625 338.539062 743.757812 338.777344 C 743.996094 339.019531 744.257812 339.234375 744.539062 339.421875 C 744.824219 339.609375 745.121094 339.769531 745.433594 339.898438 C 745.75 340.03125 746.070312 340.128906 746.40625 340.195312 C 746.738281 340.261719 747.074219 340.292969 747.414062 340.292969 C 747.753906 340.292969 748.089844 340.261719 748.421875 340.195312 C 748.757812 340.128906 749.078125 340.03125 749.394531 339.898438 C 749.707031 339.769531 750.003906 339.609375 750.289062 339.421875 C 750.570312 339.234375 750.832031 339.019531 751.070312 338.777344 C 751.3125 338.539062 751.527344 338.277344 751.714844 337.996094 C 751.902344 337.710938 752.0625 337.414062 752.191406 337.101562 C 752.324219 336.785156 752.421875 336.460938 752.488281 336.128906 C 752.554688 335.796875 752.585938 335.460938 752.585938 335.121094 C 752.585938 334.78125 752.554688 334.445312 752.488281 334.113281 C 752.421875 333.777344 752.324219 333.453125 752.191406 333.140625 C 752.0625 332.828125 751.902344 332.53125 751.714844 332.246094 C 751.527344 331.964844 751.3125 331.703125 751.070312 331.464844 C 750.832031 331.222656 750.570312 331.007812 750.289062 330.820312 C 750.003906 330.632812 749.707031 330.472656 749.394531 330.34375 C 749.078125 330.210938 748.757812 330.113281 748.421875 330.046875 C 748.089844 329.980469 747.753906 329.949219 747.414062 329.949219 Z M 747.414062 329.949219 " fill-opacity="1" fill-rule="nonzero"/><path fill="#e4e4f9" d="M 607.757812 335.121094 C 604.625 335.121094 601.496094 335.199219 598.367188 335.351562 C 595.238281 335.503906 592.117188 335.734375 589 336.042969 C 585.882812 336.347656 582.777344 336.734375 579.675781 337.191406 C 576.578125 337.652344 573.496094 338.1875 570.421875 338.796875 C 567.351562 339.410156 564.296875 340.09375 561.257812 340.855469 C 558.21875 341.617188 555.203125 342.453125 552.203125 343.363281 C 549.207031 344.269531 546.234375 345.253906 543.285156 346.308594 C 540.335938 347.363281 537.414062 348.488281 534.519531 349.6875 C 531.628906 350.886719 528.765625 352.15625 525.933594 353.496094 C 523.101562 354.835938 520.304688 356.242188 517.542969 357.71875 C 514.78125 359.195312 512.054688 360.738281 509.371094 362.347656 C 506.683594 363.957031 504.039062 365.632812 501.433594 367.375 C 498.828125 369.113281 496.269531 370.917969 493.753906 372.78125 C 491.238281 374.648438 488.769531 376.574219 486.347656 378.5625 C 483.925781 380.546875 481.558594 382.59375 479.234375 384.699219 C 476.914062 386.800781 474.648438 388.960938 472.433594 391.175781 C 470.21875 393.390625 468.058594 395.65625 465.957031 397.976562 C 463.851562 400.296875 461.808594 402.667969 459.820312 405.089844 C 457.832031 407.511719 455.90625 409.980469 454.042969 412.496094 C 452.175781 415.011719 450.371094 417.570312 448.632812 420.175781 C 446.890625 422.78125 445.21875 425.425781 443.605469 428.113281 C 441.996094 430.796875 440.453125 433.523438 438.976562 436.285156 C 437.5 439.046875 436.09375 441.84375 434.753906 444.675781 C 433.414062 447.507812 432.144531 450.367188 430.945312 453.261719 C 429.75 456.15625 428.621094 459.078125 427.566406 462.027344 C 426.511719 464.976562 425.527344 467.949219 424.621094 470.945312 C 423.710938 473.941406 422.875 476.960938 422.113281 480 C 421.355469 483.035156 420.667969 486.09375 420.054688 489.164062 C 419.445312 492.234375 418.910156 495.320312 418.449219 498.417969 C 417.992188 501.515625 417.609375 504.625 417.300781 507.742188 C 416.992188 510.859375 416.761719 513.980469 416.609375 517.109375 C 416.457031 520.238281 416.378906 523.367188 416.378906 526.5 C 416.378906 529.632812 416.457031 532.761719 416.609375 535.890625 C 416.761719 539.019531 416.992188 542.140625 417.300781 545.257812 C 417.609375 548.375 417.992188 551.484375 418.449219 554.582031 C 418.910156 557.679688 419.445312 560.765625 420.054688 563.835938 C 420.667969 566.90625 421.355469 569.964844 422.113281 573 C 422.875 576.039062 423.710938 579.058594 424.621094 582.054688 C 425.527344 585.050781 426.511719 588.023438 427.566406 590.972656 C 428.621094 593.921875 429.75 596.84375 430.945312 599.738281 C 432.144531 602.632812 433.414062 605.492188 434.753906 608.324219 C 436.09375 611.15625 437.5 613.953125 438.976562 616.714844 C 440.453125 619.476562 441.996094 622.203125 443.605469 624.886719 C 445.21875 627.574219 446.890625 630.21875 448.632812 632.824219 C 450.371094 635.429688 452.175781 637.988281 454.042969 640.503906 C 455.90625 643.019531 457.832031 645.488281 459.820312 647.910156 C 461.808594 650.332031 463.851562 652.703125 465.957031 655.023438 C 468.058594 657.34375 470.21875 659.609375 472.433594 661.824219 C 474.648438 664.039062 476.914062 666.199219 479.234375 668.300781 C 481.558594 670.40625 483.925781 672.449219 486.347656 674.4375 C 488.769531 676.425781 491.238281 678.351562 493.753906 680.21875 C 496.269531 682.082031 498.828125 683.886719 501.433594 685.625 C 504.039062 687.367188 506.683594 689.042969 509.371094 690.652344 C 512.054688 692.261719 514.78125 693.804688 517.542969 695.28125 C 520.304688 696.757812 523.101562 698.164062 525.933594 699.503906 C 528.765625 700.84375 531.628906 702.113281 534.519531 703.3125 C 537.414062 704.511719 540.335938 705.636719 543.285156 706.691406 C 546.234375 707.746094 549.207031 708.730469 552.203125 709.636719 C 555.203125 710.546875 558.21875 711.382812 561.257812 712.144531 C 564.296875 712.90625 567.351562 713.589844 570.421875 714.203125 C 573.496094 714.8125 576.578125 715.347656 579.675781 715.808594 C 582.777344 716.265625 585.882812 716.652344 589 716.957031 C 592.117188 717.265625 595.238281 717.496094 598.367188 717.648438 C 601.496094 717.800781 604.625 717.878906 607.757812 717.878906 C 610.890625 717.878906 614.019531 717.800781 617.148438 717.648438 C 620.277344 717.496094 623.398438 717.265625 626.515625 716.957031 C 629.632812 716.652344 632.742188 716.265625 635.839844 715.808594 C 638.9375 715.347656 642.023438 714.8125 645.09375 714.203125 C 648.167969 713.589844 651.222656 712.90625 654.261719 712.144531 C 657.296875 711.382812 660.316406 710.546875 663.3125 709.636719 C 666.308594 708.730469 669.285156 707.746094 672.230469 706.691406 C 675.179688 705.636719 678.101562 704.511719 680.996094 703.3125 C 683.890625 702.113281 686.753906 700.84375 689.582031 699.503906 C 692.414062 698.164062 695.210938 696.757812 697.972656 695.28125 C 700.734375 693.804688 703.460938 692.261719 706.148438 690.652344 C 708.832031 689.042969 711.480469 687.367188 714.082031 685.625 C 716.6875 683.886719 719.246094 682.082031 721.761719 680.21875 C 724.277344 678.351562 726.746094 676.425781 729.167969 674.4375 C 731.589844 672.449219 733.960938 670.40625 736.28125 668.300781 C 738.601562 666.199219 740.871094 664.039062 743.085938 661.824219 C 745.296875 659.609375 747.457031 657.34375 749.5625 655.023438 C 751.664062 652.703125 753.710938 650.332031 755.695312 647.910156 C 757.683594 645.488281 759.609375 643.019531 761.476562 640.503906 C 763.339844 637.988281 765.144531 635.429688 766.882812 632.824219 C 768.625 630.21875 770.300781 627.574219 771.910156 624.886719 C 773.519531 622.203125 775.0625 619.476562 776.539062 616.714844 C 778.015625 613.953125 779.425781 611.15625 780.761719 608.324219 C 782.101562 605.492188 783.371094 602.632812 784.570312 599.738281 C 785.769531 596.84375 786.894531 593.921875 787.949219 590.972656 C 789.003906 588.023438 789.988281 585.050781 790.898438 582.054688 C 791.804688 579.058594 792.640625 576.039062 793.402344 573 C 794.164062 569.964844 794.847656 566.90625 795.460938 563.835938 C 796.070312 560.765625 796.605469 557.679688 797.066406 554.582031 C 797.527344 551.484375 797.910156 548.375 798.214844 545.257812 C 798.523438 542.140625 798.753906 539.019531 798.90625 535.890625 C 799.0625 532.761719 799.136719 529.632812 799.136719 526.5 C 799.136719 523.367188 799.0625 520.238281 798.90625 517.109375 C 798.753906 513.980469 798.523438 510.859375 798.214844 507.742188 C 797.910156 504.625 797.527344 501.515625 797.066406 498.417969 C 796.605469 495.320312 796.070312 492.234375 795.460938 489.164062 C 794.847656 486.09375 794.164062 483.035156 793.402344 480 C 792.640625 476.960938 791.804688 473.941406 790.898438 470.945312 C 789.988281 467.949219 789.003906 464.976562 787.949219 462.027344 C 786.894531 459.078125 785.769531 456.15625 784.570312 453.261719 C 783.371094 450.367188 782.101562 447.507812 780.761719 444.675781 C 779.425781 441.84375 778.015625 439.046875 776.539062 436.285156 C 775.0625 433.523438 773.519531 430.796875 771.910156 428.113281 C 770.300781 425.425781 768.625 422.78125 766.882812 420.175781 C 765.144531 417.570312 763.339844 415.011719 761.476562 412.496094 C 759.609375 409.980469 757.683594 407.511719 755.695312 405.089844 C 753.710938 402.667969 751.664062 400.296875 749.5625 397.976562 C 747.457031 395.65625 745.296875 393.390625 743.085938 391.175781 C 740.871094 388.960938 738.601562 386.800781 736.28125 384.699219 C 733.960938 382.59375 731.589844 380.546875 729.167969 378.5625 C 726.746094 376.574219 724.277344 374.648438 721.761719 372.78125 C 719.246094 370.917969 716.6875 369.113281 714.082031 367.375 C 711.480469 365.632812 708.832031 363.957031 706.148438 362.347656 C 703.460938 360.738281 700.734375 359.195312 697.972656 357.71875 C 695.210938 356.242188 692.414062 354.835938 689.582031 353.496094 C 686.753906 352.15625 683.890625 350.886719 680.996094 349.6875 C 678.101562 348.488281 675.179688 347.363281 672.230469 346.308594 C 669.285156 345.253906 666.308594 344.269531 663.3125 343.363281 C 660.316406 342.453125 657.296875 341.617188 654.261719 340.855469 C 651.222656 340.09375 648.167969 339.410156 645.09375 338.796875 C 642.023438 338.1875 638.9375 337.652344 635.839844 337.191406 C 632.742188 336.734375 629.632812 336.347656 626.515625 336.042969 C 623.398438 335.734375 620.277344 335.503906 617.148438 335.351562 C 614.019531 335.199219 610.890625 335.121094 607.757812 335.121094 Z M 607.757812 335.121094 " fill-opacity="1" fill-rule="nonzero"/><path fill="#f1bc19" d="M 778.449219 324.777344 C 777.769531 324.777344 777.09375 324.808594 776.421875 324.875 C 775.746094 324.941406 775.078125 325.042969 774.410156 325.171875 C 773.746094 325.304688 773.089844 325.46875 772.441406 325.667969 C 771.792969 325.863281 771.15625 326.089844 770.53125 326.351562 C 769.90625 326.609375 769.292969 326.898438 768.695312 327.21875 C 768.097656 327.539062 767.515625 327.886719 766.953125 328.261719 C 766.390625 328.640625 765.847656 329.042969 765.324219 329.472656 C 764.800781 329.902344 764.296875 330.355469 763.820312 330.835938 C 763.339844 331.316406 762.882812 331.816406 762.453125 332.339844 C 762.023438 332.863281 761.621094 333.40625 761.246094 333.972656 C 760.867188 334.535156 760.519531 335.113281 760.203125 335.710938 C 759.882812 336.308594 759.59375 336.921875 759.332031 337.546875 C 759.074219 338.175781 758.847656 338.8125 758.648438 339.460938 C 758.453125 340.109375 758.289062 340.765625 758.15625 341.429688 C 758.023438 342.09375 757.925781 342.761719 757.859375 343.4375 C 757.792969 344.113281 757.757812 344.789062 757.757812 345.464844 C 757.757812 346.144531 757.792969 346.820312 757.859375 347.492188 C 757.925781 348.167969 758.023438 348.835938 758.15625 349.5 C 758.289062 350.167969 758.453125 350.824219 758.648438 351.472656 C 758.847656 352.121094 759.074219 352.757812 759.332031 353.382812 C 759.59375 354.007812 759.882812 354.621094 760.203125 355.21875 C 760.519531 355.816406 760.867188 356.398438 761.246094 356.960938 C 761.621094 357.523438 762.023438 358.066406 762.453125 358.589844 C 762.882812 359.113281 763.339844 359.617188 763.820312 360.09375 C 764.296875 360.574219 764.800781 361.027344 765.324219 361.457031 C 765.847656 361.890625 766.390625 362.292969 766.953125 362.667969 C 767.515625 363.042969 768.097656 363.394531 768.695312 363.710938 C 769.292969 364.03125 769.90625 364.320312 770.53125 364.582031 C 771.15625 364.839844 771.792969 365.066406 772.441406 365.265625 C 773.089844 365.460938 773.746094 365.625 774.410156 365.757812 C 775.078125 365.890625 775.746094 365.988281 776.421875 366.054688 C 777.09375 366.121094 777.769531 366.15625 778.449219 366.15625 C 779.125 366.15625 779.800781 366.121094 780.476562 366.054688 C 781.152344 365.988281 781.820312 365.890625 782.484375 365.757812 C 783.148438 365.625 783.804688 365.460938 784.453125 365.265625 C 785.101562 365.066406 785.738281 364.839844 786.367188 364.582031 C 786.992188 364.320312 787.605469 364.03125 788.203125 363.710938 C 788.796875 363.394531 789.378906 363.042969 789.941406 362.667969 C 790.507812 362.292969 791.050781 361.890625 791.574219 361.457031 C 792.097656 361.027344 792.597656 360.574219 793.078125 360.09375 C 793.558594 359.617188 794.011719 359.113281 794.441406 358.589844 C 794.871094 358.066406 795.273438 357.523438 795.652344 356.960938 C 796.027344 356.398438 796.375 355.816406 796.695312 355.21875 C 797.015625 354.621094 797.304688 354.007812 797.5625 353.382812 C 797.820312 352.757812 798.050781 352.121094 798.246094 351.472656 C 798.445312 350.824219 798.609375 350.167969 798.742188 349.5 C 798.871094 348.835938 798.972656 348.167969 799.039062 347.492188 C 799.105469 346.820312 799.136719 346.144531 799.136719 345.464844 C 799.136719 344.789062 799.105469 344.113281 799.039062 343.4375 C 798.972656 342.761719 798.871094 342.09375 798.742188 341.429688 C 798.609375 340.765625 798.445312 340.109375 798.246094 339.460938 C 798.050781 338.8125 797.820312 338.175781 797.5625 337.546875 C 797.304688 336.921875 797.015625 336.308594 796.695312 335.710938 C 796.375 335.113281 796.027344 334.535156 795.652344 333.972656 C 795.273438 333.40625 794.871094 332.863281 794.441406 332.339844 C 794.011719 331.816406 793.558594 331.316406 793.078125 330.835938 C 792.597656 330.355469 792.097656 329.902344 791.574219 329.472656 C 791.050781 329.042969 790.507812 328.640625 789.941406 328.261719 C 789.378906 327.886719 788.796875 327.539062 788.203125 327.21875 C 787.605469 326.898438 786.992188 326.609375 786.367188 326.351562 C 785.738281 326.089844 785.101562 325.863281 784.453125 325.667969 C 783.804688 325.46875 783.148438 325.304688 782.484375 325.171875 C 781.820312 325.042969 781.152344 324.941406 780.476562 324.875 C 779.800781 324.808594 779.125 324.777344 778.449219 324.777344 Z M 778.449219 324.777344 " fill-opacity="1" fill-rule="nonzero"/><path fill="#8889b9" d="M 799.136719 381.671875 C 798.457031 381.671875 797.785156 381.738281 797.121094 381.871094 C 796.453125 382.003906 795.804688 382.199219 795.179688 382.460938 C 794.550781 382.71875 793.957031 383.039062 793.390625 383.414062 C 792.824219 383.792969 792.304688 384.222656 791.824219 384.703125 C 791.34375 385.183594 790.914062 385.707031 790.535156 386.269531 C 790.160156 386.835938 789.839844 387.429688 789.582031 388.058594 C 789.320312 388.6875 789.125 389.332031 788.992188 390 C 788.859375 390.664062 788.792969 391.339844 788.792969 392.015625 C 788.792969 392.695312 788.859375 393.371094 788.992188 394.035156 C 789.125 394.703125 789.320312 395.347656 789.582031 395.976562 C 789.839844 396.605469 790.160156 397.199219 790.535156 397.765625 C 790.914062 398.328125 791.34375 398.851562 791.824219 399.332031 C 792.304688 399.8125 792.824219 400.242188 793.390625 400.617188 C 793.957031 400.996094 794.550781 401.316406 795.179688 401.574219 C 795.804688 401.835938 796.453125 402.03125 797.121094 402.164062 C 797.785156 402.296875 798.457031 402.363281 799.136719 402.363281 C 799.816406 402.363281 800.488281 402.296875 801.15625 402.164062 C 801.820312 402.03125 802.46875 401.835938 803.097656 401.574219 C 803.722656 401.316406 804.320312 400.996094 804.886719 400.617188 C 805.449219 400.242188 805.972656 399.8125 806.453125 399.332031 C 806.933594 398.851562 807.363281 398.328125 807.738281 397.765625 C 808.117188 397.199219 808.433594 396.605469 808.695312 395.976562 C 808.957031 395.347656 809.152344 394.703125 809.285156 394.035156 C 809.417969 393.371094 809.484375 392.695312 809.484375 392.015625 C 809.484375 391.339844 809.417969 390.664062 809.285156 390 C 809.152344 389.332031 808.957031 388.6875 808.695312 388.058594 C 808.433594 387.429688 808.117188 386.835938 807.738281 386.269531 C 807.363281 385.707031 806.933594 385.183594 806.453125 384.703125 C 805.972656 384.222656 805.449219 383.792969 804.886719 383.414062 C 804.320312 383.039062 803.722656 382.71875 803.097656 382.460938 C 802.46875 382.199219 801.820312 382.003906 801.15625 381.871094 C 800.488281 381.738281 799.816406 381.671875 799.136719 381.671875 Z M 799.136719 381.671875 " fill-opacity="1" fill-rule="nonzero"/><path fill="#fbcd59" d="M 768.101562 650.636719 C 767.425781 650.636719 766.75 650.703125 766.085938 650.835938 C 765.417969 650.96875 764.773438 651.164062 764.144531 651.425781 C 763.515625 651.683594 762.921875 652.003906 762.355469 652.382812 C 761.792969 652.757812 761.269531 653.1875 760.789062 653.667969 C 760.308594 654.148438 759.878906 654.671875 759.5 655.234375 C 759.125 655.800781 758.804688 656.394531 758.546875 657.023438 C 758.285156 657.652344 758.089844 658.296875 757.957031 658.964844 C 757.824219 659.628906 757.757812 660.304688 757.757812 660.984375 C 757.757812 661.660156 757.824219 662.335938 757.957031 663 C 758.089844 663.667969 758.285156 664.3125 758.546875 664.941406 C 758.804688 665.570312 759.125 666.164062 759.5 666.730469 C 759.878906 667.292969 760.308594 667.816406 760.789062 668.296875 C 761.269531 668.777344 761.792969 669.207031 762.355469 669.585938 C 762.921875 669.960938 763.515625 670.28125 764.144531 670.539062 C 764.773438 670.800781 765.417969 670.996094 766.085938 671.128906 C 766.75 671.261719 767.425781 671.328125 768.101562 671.328125 C 768.78125 671.328125 769.457031 671.261719 770.121094 671.128906 C 770.789062 670.996094 771.433594 670.800781 772.0625 670.539062 C 772.691406 670.28125 773.285156 669.960938 773.851562 669.585938 C 774.414062 669.207031 774.9375 668.777344 775.417969 668.296875 C 775.898438 667.816406 776.328125 667.292969 776.703125 666.730469 C 777.082031 666.164062 777.402344 665.570312 777.660156 664.941406 C 777.921875 664.3125 778.117188 663.667969 778.25 663 C 778.382812 662.335938 778.449219 661.660156 778.449219 660.984375 C 778.449219 660.304688 778.382812 659.628906 778.25 658.964844 C 778.117188 658.296875 777.921875 657.652344 777.660156 657.023438 C 777.402344 656.394531 777.082031 655.800781 776.703125 655.234375 C 776.328125 654.671875 775.898438 654.148438 775.417969 653.667969 C 774.9375 653.1875 774.414062 652.757812 773.851562 652.382812 C 773.285156 652.003906 772.691406 651.683594 772.0625 651.425781 C 771.433594 651.164062 770.789062 650.96875 770.121094 650.835938 C 769.457031 650.703125 768.78125 650.636719 768.101562 650.636719 Z M 426.722656 573.050781 C 426.046875 573.050781 425.371094 573.085938 424.695312 573.152344 C 424.023438 573.21875 423.351562 573.316406 422.6875 573.449219 C 422.023438 573.582031 421.367188 573.746094 420.71875 573.941406 C 420.070312 574.140625 419.433594 574.367188 418.804688 574.625 C 418.179688 574.886719 417.570312 575.175781 416.972656 575.496094 C 416.375 575.8125 415.792969 576.160156 415.230469 576.539062 C 414.667969 576.914062 414.121094 577.316406 413.597656 577.746094 C 413.074219 578.179688 412.574219 578.632812 412.09375 579.113281 C 411.613281 579.589844 411.160156 580.09375 410.730469 580.617188 C 410.300781 581.140625 409.898438 581.683594 409.519531 582.246094 C 409.144531 582.808594 408.796875 583.390625 408.476562 583.988281 C 408.15625 584.585938 407.867188 585.199219 407.609375 585.824219 C 407.351562 586.449219 407.121094 587.085938 406.925781 587.734375 C 406.730469 588.382812 406.5625 589.039062 406.433594 589.703125 C 406.300781 590.371094 406.199219 591.039062 406.132812 591.714844 C 406.066406 592.386719 406.035156 593.0625 406.035156 593.742188 C 406.035156 594.417969 406.066406 595.09375 406.132812 595.769531 C 406.199219 596.445312 406.300781 597.113281 406.433594 597.777344 C 406.5625 598.441406 406.730469 599.097656 406.925781 599.746094 C 407.121094 600.394531 407.351562 601.03125 407.609375 601.660156 C 407.867188 602.285156 408.15625 602.898438 408.476562 603.496094 C 408.796875 604.09375 409.144531 604.671875 409.519531 605.234375 C 409.898438 605.800781 410.300781 606.34375 410.730469 606.867188 C 411.160156 607.390625 411.613281 607.890625 412.09375 608.371094 C 412.574219 608.851562 413.074219 609.304688 413.597656 609.734375 C 414.121094 610.164062 414.667969 610.566406 415.230469 610.945312 C 415.792969 611.320312 416.375 611.667969 416.972656 611.988281 C 417.570312 612.308594 418.179688 612.597656 418.804688 612.855469 C 419.433594 613.117188 420.070312 613.34375 420.71875 613.539062 C 421.367188 613.738281 422.023438 613.902344 422.6875 614.035156 C 423.351562 614.164062 424.023438 614.265625 424.695312 614.332031 C 425.371094 614.398438 426.046875 614.429688 426.722656 614.429688 C 427.402344 614.429688 428.078125 614.398438 428.753906 614.332031 C 429.425781 614.265625 430.097656 614.164062 430.761719 614.035156 C 431.425781 613.902344 432.082031 613.738281 432.730469 613.539062 C 433.378906 613.34375 434.015625 613.117188 434.640625 612.855469 C 435.269531 612.597656 435.878906 612.308594 436.476562 611.988281 C 437.074219 611.667969 437.65625 611.320312 438.21875 610.945312 C 438.78125 610.566406 439.324219 610.164062 439.847656 609.734375 C 440.375 609.304688 440.875 608.851562 441.355469 608.371094 C 441.832031 607.890625 442.289062 607.390625 442.71875 606.867188 C 443.148438 606.34375 443.550781 605.800781 443.925781 605.234375 C 444.304688 604.671875 444.652344 604.09375 444.972656 603.496094 C 445.289062 602.898438 445.578125 602.285156 445.839844 601.660156 C 446.097656 601.03125 446.324219 600.394531 446.523438 599.746094 C 446.71875 599.097656 446.882812 598.441406 447.015625 597.777344 C 447.148438 597.113281 447.246094 596.445312 447.3125 595.769531 C 447.378906 595.09375 447.414062 594.417969 447.414062 593.742188 C 447.414062 593.0625 447.378906 592.386719 447.3125 591.714844 C 447.246094 591.039062 447.148438 590.371094 447.015625 589.703125 C 446.882812 589.039062 446.71875 588.382812 446.523438 587.734375 C 446.324219 587.085938 446.097656 586.449219 445.839844 585.824219 C 445.578125 585.199219 445.289062 584.585938 444.972656 583.988281 C 444.652344 583.390625 444.304688 582.808594 443.925781 582.246094 C 443.550781 581.683594 443.148438 581.140625 442.71875 580.617188 C 442.289062 580.09375 441.832031 579.589844 441.355469 579.113281 C 440.875 578.632812 440.375 578.179688 439.847656 577.746094 C 439.324219 577.316406 438.78125 576.914062 438.21875 576.539062 C 437.65625 576.160156 437.074219 575.8125 436.476562 575.496094 C 435.878906 575.175781 435.269531 574.886719 434.640625 574.625 C 434.015625 574.367188 433.378906 574.140625 432.730469 573.941406 C 432.082031 573.746094 431.425781 573.582031 430.761719 573.449219 C 430.097656 573.316406 429.425781 573.21875 428.753906 573.152344 C 428.078125 573.085938 427.402344 573.050781 426.722656 573.050781 Z M 426.722656 573.050781 " fill-opacity="1" fill-rule="nonzero"/><path fill="#8889b9" d="M 478.449219 707.535156 C 477.769531 707.535156 477.097656 707.601562 476.429688 707.734375 C 475.765625 707.867188 475.117188 708.0625 474.488281 708.320312 C 473.863281 708.582031 473.265625 708.902344 472.699219 709.277344 C 472.136719 709.65625 471.613281 710.085938 471.132812 710.5625 C 470.652344 711.042969 470.222656 711.566406 469.847656 712.132812 C 469.46875 712.695312 469.152344 713.292969 468.890625 713.921875 C 468.632812 714.546875 468.433594 715.195312 468.300781 715.859375 C 468.167969 716.527344 468.101562 717.199219 468.101562 717.878906 C 468.101562 718.558594 468.167969 719.230469 468.300781 719.898438 C 468.433594 720.5625 468.632812 721.210938 468.890625 721.839844 C 469.152344 722.464844 469.46875 723.0625 469.847656 723.625 C 470.222656 724.191406 470.652344 724.714844 471.132812 725.195312 C 471.613281 725.675781 472.136719 726.101562 472.699219 726.480469 C 473.265625 726.859375 473.863281 727.175781 474.488281 727.4375 C 475.117188 727.695312 475.765625 727.894531 476.429688 728.023438 C 477.097656 728.15625 477.769531 728.222656 478.449219 728.222656 C 479.128906 728.222656 479.800781 728.15625 480.464844 728.023438 C 481.132812 727.894531 481.78125 727.695312 482.40625 727.4375 C 483.035156 727.175781 483.628906 726.859375 484.195312 726.480469 C 484.761719 726.101562 485.28125 725.675781 485.761719 725.195312 C 486.242188 724.714844 486.671875 724.191406 487.050781 723.625 C 487.425781 723.0625 487.746094 722.464844 488.003906 721.839844 C 488.265625 721.210938 488.460938 720.5625 488.59375 719.898438 C 488.726562 719.230469 488.792969 718.558594 488.792969 717.878906 C 488.792969 717.199219 488.726562 716.527344 488.59375 715.859375 C 488.460938 715.195312 488.265625 714.546875 488.003906 713.921875 C 487.746094 713.292969 487.425781 712.695312 487.050781 712.132812 C 486.671875 711.566406 486.242188 711.042969 485.761719 710.5625 C 485.28125 710.085938 484.761719 709.65625 484.195312 709.277344 C 483.628906 708.902344 483.035156 708.582031 482.40625 708.320312 C 481.78125 708.0625 481.132812 707.867188 480.464844 707.734375 C 479.800781 707.601562 479.128906 707.535156 478.449219 707.535156 Z M 478.449219 707.535156 " fill-opacity="1" fill-rule="nonzero"/><path fill="#ffffff" d="M 444.828125 521.328125 C 443.976562 521.328125 443.136719 521.410156 442.304688 521.574219 C 441.472656 521.742188 440.664062 521.988281 439.878906 522.3125 C 439.09375 522.636719 438.347656 523.035156 437.644531 523.507812 C 436.9375 523.980469 436.285156 524.515625 435.683594 525.113281 C 435.082031 525.714844 434.546875 526.367188 434.074219 527.074219 C 433.605469 527.78125 433.207031 528.527344 432.878906 529.308594 C 432.554688 530.09375 432.3125 530.902344 432.144531 531.734375 C 431.980469 532.570312 431.898438 533.410156 431.898438 534.257812 C 431.898438 535.109375 431.980469 535.949219 432.144531 536.78125 C 432.3125 537.613281 432.554688 538.421875 432.878906 539.207031 C 433.207031 539.992188 433.605469 540.738281 434.074219 541.441406 C 434.546875 542.148438 435.082031 542.800781 435.683594 543.402344 C 436.285156 544.003906 436.9375 544.539062 437.644531 545.011719 C 438.347656 545.480469 439.09375 545.878906 439.878906 546.207031 C 440.664062 546.53125 441.472656 546.777344 442.304688 546.941406 C 443.136719 547.105469 443.976562 547.191406 444.828125 547.191406 C 445.675781 547.191406 446.515625 547.105469 447.351562 546.941406 C 448.183594 546.777344 448.992188 546.53125 449.777344 546.207031 C 450.558594 545.878906 451.304688 545.480469 452.011719 545.011719 C 452.71875 544.539062 453.371094 544.003906 453.972656 543.402344 C 454.570312 542.800781 455.109375 542.148438 455.578125 541.441406 C 456.050781 540.738281 456.449219 539.992188 456.773438 539.207031 C 457.097656 538.421875 457.34375 537.613281 457.511719 536.78125 C 457.675781 535.949219 457.757812 535.109375 457.757812 534.257812 C 457.757812 533.410156 457.675781 532.570312 457.511719 531.734375 C 457.34375 530.902344 457.097656 530.09375 456.773438 529.308594 C 456.449219 528.527344 456.050781 527.78125 455.578125 527.074219 C 455.109375 526.367188 454.570312 525.714844 453.972656 525.113281 C 453.371094 524.515625 452.71875 523.980469 452.011719 523.507812 C 451.304688 523.035156 450.558594 522.636719 449.777344 522.3125 C 448.992188 521.988281 448.183594 521.742188 447.351562 521.574219 C 446.515625 521.410156 445.675781 521.328125 444.828125 521.328125 Z M 760.34375 433.398438 C 759.835938 433.398438 759.332031 433.445312 758.832031 433.546875 C 758.332031 433.644531 757.847656 433.792969 757.375 433.988281 C 756.90625 434.183594 756.457031 434.421875 756.035156 434.703125 C 755.609375 434.988281 755.21875 435.308594 754.859375 435.667969 C 754.5 436.027344 754.175781 436.421875 753.894531 436.84375 C 753.609375 437.269531 753.371094 437.714844 753.175781 438.1875 C 752.980469 438.65625 752.835938 439.140625 752.734375 439.640625 C 752.636719 440.140625 752.585938 440.644531 752.585938 441.15625 C 752.585938 441.664062 752.636719 442.167969 752.734375 442.667969 C 752.835938 443.167969 752.980469 443.652344 753.175781 444.125 C 753.371094 444.59375 753.609375 445.042969 753.894531 445.464844 C 754.175781 445.890625 754.5 446.28125 754.859375 446.640625 C 755.21875 447 755.609375 447.324219 756.035156 447.605469 C 756.457031 447.890625 756.90625 448.128906 757.375 448.324219 C 757.847656 448.519531 758.332031 448.664062 758.832031 448.765625 C 759.332031 448.863281 759.835938 448.914062 760.34375 448.914062 C 760.855469 448.914062 761.359375 448.863281 761.859375 448.765625 C 762.359375 448.664062 762.84375 448.519531 763.3125 448.324219 C 763.785156 448.128906 764.230469 447.890625 764.65625 447.605469 C 765.078125 447.324219 765.46875 447 765.832031 446.640625 C 766.191406 446.28125 766.511719 445.890625 766.796875 445.464844 C 767.078125 445.042969 767.316406 444.59375 767.511719 444.125 C 767.707031 443.652344 767.855469 443.167969 767.953125 442.667969 C 768.054688 442.167969 768.101562 441.664062 768.101562 441.15625 C 768.101562 440.644531 768.054688 440.140625 767.953125 439.640625 C 767.855469 439.140625 767.707031 438.65625 767.511719 438.1875 C 767.316406 437.714844 767.078125 437.269531 766.796875 436.84375 C 766.511719 436.421875 766.191406 436.027344 765.832031 435.667969 C 765.46875 435.308594 765.078125 434.988281 764.65625 434.703125 C 764.230469 434.421875 763.785156 434.183594 763.3125 433.988281 C 762.84375 433.792969 762.359375 433.644531 761.859375 433.546875 C 761.359375 433.445312 760.855469 433.398438 760.34375 433.398438 Z M 760.34375 433.398438 " fill-opacity="1" fill-rule="nonzero"/><path fill="#48bed8" d="M 607.757812 400.421875 C 605.707031 400.421875 603.652344 400.472656 601.605469 400.574219 C 599.554688 400.675781 597.507812 400.824219 595.464844 401.027344 C 593.421875 401.226562 591.382812 401.480469 589.355469 401.78125 C 587.324219 402.082031 585.300781 402.433594 583.289062 402.832031 C 581.273438 403.234375 579.273438 403.683594 577.28125 404.179688 C 575.289062 404.679688 573.3125 405.226562 571.347656 405.824219 C 569.382812 406.417969 567.433594 407.0625 565.503906 407.753906 C 563.570312 408.445312 561.65625 409.183594 559.757812 409.96875 C 557.863281 410.753906 555.984375 411.585938 554.128906 412.464844 C 552.273438 413.34375 550.441406 414.265625 548.628906 415.234375 C 546.820312 416.199219 545.035156 417.210938 543.273438 418.269531 C 541.511719 419.324219 539.78125 420.421875 538.074219 421.5625 C 536.367188 422.703125 534.6875 423.882812 533.039062 425.105469 C 531.390625 426.328125 529.773438 427.589844 528.1875 428.894531 C 526.597656 430.195312 525.046875 431.535156 523.523438 432.914062 C 522.003906 434.292969 520.515625 435.707031 519.066406 437.160156 C 517.613281 438.613281 516.199219 440.097656 514.820312 441.617188 C 513.441406 443.140625 512.101562 444.695312 510.800781 446.28125 C 509.496094 447.867188 508.234375 449.484375 507.011719 451.132812 C 505.789062 452.78125 504.605469 454.460938 503.464844 456.167969 C 502.324219 457.875 501.226562 459.609375 500.171875 461.367188 C 499.117188 463.128906 498.105469 464.914062 497.136719 466.726562 C 496.171875 468.535156 495.246094 470.367188 494.371094 472.226562 C 493.492188 474.082031 492.660156 475.957031 491.875 477.851562 C 491.089844 479.75 490.351562 481.664062 489.660156 483.597656 C 488.96875 485.53125 488.324219 487.476562 487.730469 489.441406 C 487.132812 491.40625 486.585938 493.386719 486.085938 495.375 C 485.585938 497.367188 485.136719 499.371094 484.738281 501.382812 C 484.335938 503.394531 483.988281 505.417969 483.683594 507.449219 C 483.382812 509.480469 483.132812 511.515625 482.929688 513.558594 C 482.730469 515.601562 482.578125 517.648438 482.480469 519.699219 C 482.378906 521.75 482.328125 523.800781 482.328125 525.851562 C 482.328125 527.90625 482.378906 529.957031 482.480469 532.007812 C 482.578125 534.058594 482.730469 536.105469 482.929688 538.148438 C 483.132812 540.191406 483.382812 542.226562 483.683594 544.257812 C 483.988281 546.289062 484.335938 548.308594 484.738281 550.324219 C 485.136719 552.335938 485.585938 554.339844 486.085938 556.332031 C 486.585938 558.320312 487.132812 560.300781 487.730469 562.265625 C 488.324219 564.226562 488.96875 566.175781 489.660156 568.109375 C 490.351562 570.042969 491.089844 571.957031 491.875 573.855469 C 492.660156 575.75 493.492188 577.625 494.371094 579.480469 C 495.246094 581.335938 496.171875 583.171875 497.136719 584.980469 C 498.105469 586.792969 499.117188 588.578125 500.171875 590.335938 C 501.226562 592.097656 502.324219 593.832031 503.464844 595.539062 C 504.605469 597.246094 505.789062 598.921875 507.011719 600.574219 C 508.234375 602.222656 509.496094 603.839844 510.800781 605.425781 C 512.101562 607.011719 513.441406 608.566406 514.820312 610.085938 C 516.199219 611.609375 517.613281 613.09375 519.066406 614.546875 C 520.515625 616 522.003906 617.414062 523.523438 618.792969 C 525.046875 620.171875 526.597656 621.511719 528.1875 622.8125 C 529.773438 624.113281 531.390625 625.378906 533.039062 626.601562 C 534.6875 627.824219 536.367188 629.003906 538.074219 630.144531 C 539.78125 631.285156 541.511719 632.382812 543.273438 633.4375 C 545.035156 634.496094 546.820312 635.507812 548.628906 636.472656 C 550.441406 637.441406 552.273438 638.363281 554.128906 639.242188 C 555.984375 640.121094 557.863281 640.949219 559.757812 641.738281 C 561.65625 642.523438 563.570312 643.261719 565.503906 643.953125 C 567.433594 644.644531 569.382812 645.289062 571.347656 645.882812 C 573.3125 646.480469 575.289062 647.027344 577.28125 647.523438 C 579.273438 648.023438 581.273438 648.472656 583.289062 648.875 C 585.300781 649.273438 587.324219 649.625 589.355469 649.925781 C 591.382812 650.226562 593.421875 650.480469 595.464844 650.679688 C 597.507812 650.882812 599.554688 651.03125 601.605469 651.132812 C 603.652344 651.234375 605.707031 651.285156 607.757812 651.285156 C 609.8125 651.285156 611.863281 651.234375 613.914062 651.132812 C 615.964844 651.03125 618.011719 650.882812 620.054688 650.679688 C 622.097656 650.480469 624.132812 650.226562 626.164062 649.925781 C 628.195312 649.625 630.214844 649.273438 632.230469 648.875 C 634.242188 648.472656 636.246094 648.023438 638.234375 647.527344 C 640.226562 647.027344 642.203125 646.480469 644.167969 645.882812 C 646.132812 645.289062 648.082031 644.644531 650.015625 643.953125 C 651.949219 643.261719 653.863281 642.523438 655.757812 641.738281 C 657.65625 640.949219 659.53125 640.121094 661.386719 639.242188 C 663.242188 638.363281 665.074219 637.441406 666.886719 636.472656 C 668.695312 635.507812 670.480469 634.496094 672.242188 633.4375 C 674.003906 632.382812 675.738281 631.285156 677.445312 630.144531 C 679.152344 629.003906 680.828125 627.824219 682.476562 626.601562 C 684.125 625.378906 685.746094 624.113281 687.332031 622.8125 C 688.917969 621.511719 690.472656 620.171875 691.992188 618.792969 C 693.515625 617.414062 695 616 696.453125 614.546875 C 697.902344 613.09375 699.316406 611.609375 700.695312 610.085938 C 702.074219 608.566406 703.414062 607.011719 704.71875 605.425781 C 706.019531 603.839844 707.28125 602.222656 708.503906 600.574219 C 709.726562 598.921875 710.910156 597.246094 712.050781 595.539062 C 713.191406 593.832031 714.289062 592.097656 715.34375 590.335938 C 716.398438 588.578125 717.410156 586.792969 718.378906 584.980469 C 719.347656 583.171875 720.269531 581.335938 721.148438 579.480469 C 722.023438 577.625 722.855469 575.75 723.640625 573.855469 C 724.425781 571.957031 725.164062 570.042969 725.855469 568.109375 C 726.550781 566.175781 727.191406 564.226562 727.789062 562.265625 C 728.382812 560.300781 728.933594 558.320312 729.429688 556.332031 C 729.929688 554.339844 730.378906 552.335938 730.78125 550.324219 C 731.179688 548.308594 731.53125 546.289062 731.832031 544.257812 C 732.132812 542.226562 732.382812 540.191406 732.585938 538.148438 C 732.785156 536.105469 732.9375 534.058594 733.039062 532.007812 C 733.140625 529.957031 733.191406 527.90625 733.191406 525.851562 C 733.191406 523.800781 733.140625 521.75 733.039062 519.699219 C 732.9375 517.648438 732.785156 515.601562 732.585938 513.558594 C 732.382812 511.515625 732.132812 509.480469 731.832031 507.449219 C 731.53125 505.417969 731.179688 503.394531 730.78125 501.382812 C 730.378906 499.371094 729.929688 497.367188 729.429688 495.375 C 728.933594 493.386719 728.382812 491.40625 727.789062 489.441406 C 727.191406 487.476562 726.550781 485.53125 725.855469 483.597656 C 725.164062 481.664062 724.425781 479.75 723.640625 477.851562 C 722.855469 475.957031 722.023438 474.082031 721.148438 472.226562 C 720.269531 470.367188 719.347656 468.535156 718.378906 466.726562 C 717.410156 464.914062 716.398438 463.128906 715.34375 461.367188 C 714.289062 459.609375 713.191406 457.875 712.050781 456.167969 C 710.910156 454.460938 709.726562 452.78125 708.503906 451.132812 C 707.28125 449.484375 706.019531 447.867188 704.71875 446.28125 C 703.414062 444.695312 702.074219 443.140625 700.695312 441.617188 C 699.316406 440.097656 697.902344 438.613281 696.453125 437.160156 C 695 435.707031 693.515625 434.292969 691.992188 432.914062 C 690.472656 431.535156 688.917969 430.195312 687.332031 428.894531 C 685.746094 427.589844 684.125 426.328125 682.476562 425.105469 C 680.828125 423.882812 679.152344 422.703125 677.445312 421.5625 C 675.738281 420.421875 674.003906 419.324219 672.242188 418.269531 C 670.480469 417.210938 668.695312 416.199219 666.886719 415.234375 C 665.074219 414.265625 663.242188 413.34375 661.386719 412.464844 C 659.53125 411.585938 657.65625 410.753906 655.757812 409.96875 C 653.863281 409.183594 651.949219 408.445312 650.015625 407.753906 C 648.082031 407.0625 646.132812 406.417969 644.167969 405.824219 C 642.203125 405.226562 640.226562 404.679688 638.234375 404.179688 C 636.246094 403.683594 634.242188 403.234375 632.230469 402.832031 C 630.214844 402.433594 628.195312 402.082031 626.164062 401.78125 C 624.132812 401.480469 622.097656 401.226562 620.054688 401.027344 C 618.011719 400.824219 615.964844 400.675781 613.914062 400.574219 C 611.863281 400.472656 609.8125 400.421875 607.757812 400.421875 Z M 607.757812 400.421875 " fill-opacity="1" fill-rule="nonzero"/><path fill="#472b29" d="M 607.757812 654.90625 C 536.601562 654.90625 478.707031 597.015625 478.707031 525.851562 C 478.707031 454.691406 536.601562 396.800781 607.757812 396.800781 C 678.914062 396.800781 736.808594 454.691406 736.808594 525.851562 C 736.808594 597.015625 678.914062 654.90625 607.757812 654.90625 Z M 607.757812 404.042969 C 540.59375 404.042969 485.949219 458.683594 485.949219 525.851562 C 485.949219 593.023438 540.59375 647.664062 607.757812 647.664062 C 674.921875 647.664062 729.570312 593.023438 729.570312 525.851562 C 729.570312 458.683594 674.921875 404.042969 607.757812 404.042969 Z M 607.757812 404.042969 " fill-opacity="1" fill-rule="nonzero"/><path fill="#472b29" d="M 708.226562 498.699219 C 707.121094 498.699219 706.097656 497.980469 705.753906 496.867188 C 705.300781 495.382812 704.808594 493.914062 704.285156 492.457031 C 702.257812 486.796875 699.703125 481.289062 696.683594 476.0625 C 695.964844 474.832031 696.386719 473.246094 697.625 472.53125 C 698.859375 471.800781 700.441406 472.234375 701.15625 473.476562 C 704.332031 478.964844 707.023438 484.765625 709.152344 490.707031 C 709.703125 492.242188 710.21875 493.785156 710.695312 495.347656 C 711.113281 496.710938 710.347656 498.160156 708.976562 498.578125 C 708.730469 498.660156 708.476562 498.699219 708.226562 498.699219 Z M 708.226562 498.699219 " fill-opacity="1" fill-rule="nonzero"/><path fill="#472b29" d="M 607.757812 633.828125 C 548.21875 633.828125 499.785156 585.53125 499.785156 526.175781 C 499.785156 466.816406 548.21875 418.527344 607.757812 418.527344 C 638.664062 418.527344 668.140625 431.765625 688.632812 454.851562 C 690.179688 456.59375 691.675781 458.394531 693.109375 460.234375 C 693.984375 461.363281 693.78125 462.984375 692.660156 463.863281 C 691.53125 464.75 689.90625 464.539062 689.027344 463.40625 C 687.660156 461.652344 686.234375 459.945312 684.765625 458.285156 C 665.253906 436.304688 637.183594 423.691406 607.757812 423.691406 C 551.074219 423.691406 504.957031 469.664062 504.957031 526.175781 C 504.957031 582.683594 551.074219 628.65625 607.757812 628.65625 C 664.441406 628.65625 710.558594 582.683594 710.558594 526.175781 C 710.558594 521.027344 710.171875 515.851562 709.410156 510.796875 C 709.199219 509.390625 710.171875 508.070312 711.585938 507.859375 C 713.03125 507.648438 714.316406 508.617188 714.527344 510.03125 C 715.324219 515.332031 715.734375 520.769531 715.734375 526.175781 C 715.734375 585.53125 667.296875 633.828125 607.757812 633.828125 Z M 607.757812 633.828125 " fill-opacity="1" fill-rule="nonzero"/><path fill="#b5cfe4" d="M 600.808594 570.386719 L 578.28125 591.1875 C 578.28125 591.1875 576.523438 592.535156 574.59375 591.6875 L 578.90625 553.050781 Z M 600.808594 570.386719 " fill-opacity="1" fill-rule="nonzero"/><path fill="#472b29" d="M 575.910156 593.261719 C 575.335938 593.261719 574.71875 593.152344 574.082031 592.871094 L 573.210938 592.496094 L 577.886719 550.59375 L 602.796875 570.316406 L 579.160156 592.136719 C 579.019531 592.246094 577.675781 593.261719 575.910156 593.261719 Z M 579.9375 555.511719 L 576.015625 590.675781 C 576.828125 590.644531 577.46875 590.175781 577.503906 590.152344 L 598.824219 570.460938 Z M 579.9375 555.511719 " fill-opacity="1" fill-rule="nonzero"/><path fill="#ffffff" d="M 673.550781 467.089844 L 648.875 593.117188 C 648.875 593.117188 645.425781 601.855469 635.925781 597.660156 L 578.972656 553.4375 L 558.265625 543.300781 L 523.402344 531.417969 C 523.402344 531.417969 518.046875 529.5 517.53125 525.304688 C 517.015625 521.109375 523.566406 518.839844 523.566406 518.839844 L 662.160156 463.78125 C 662.160156 463.765625 673.550781 458.695312 673.550781 467.089844 Z M 673.550781 467.089844 " fill-opacity="1" fill-rule="nonzero"/><path fill="#472b29" d="M 640.777344 600.097656 C 639.085938 600.097656 637.292969 599.679688 635.40625 598.847656 L 578.183594 554.457031 L 557.699219 544.457031 L 522.992188 532.640625 C 522.722656 532.542969 516.863281 530.390625 516.253906 525.457031 C 515.613281 520.28125 522.84375 517.71875 523.152344 517.609375 L 661.6875 462.570312 L 661.703125 462.605469 C 663.417969 461.648438 667.945312 460.441406 670.820312 461.21875 C 672.324219 461.617188 674.84375 462.914062 674.84375 467.089844 L 674.820312 467.339844 L 650.140625 593.363281 C 650.011719 593.761719 648.394531 597.75 644.375 599.398438 C 643.234375 599.867188 642.035156 600.097656 640.777344 600.097656 Z M 663.308594 464.695312 L 663.308594 464.707031 L 662.644531 464.972656 L 524.046875 520.035156 C 523.941406 520.074219 518.441406 522.082031 518.8125 525.140625 C 519.222656 528.457031 523.792969 530.183594 523.839844 530.199219 L 558.683594 542.074219 L 579.542969 552.273438 L 636.722656 596.644531 C 639.082031 597.636719 641.410156 597.816406 643.398438 597.003906 C 646.410156 595.769531 647.664062 592.671875 647.675781 592.640625 L 672.257812 466.964844 C 672.238281 465.546875 671.835938 464.605469 671.039062 464.089844 C 669.09375 462.84375 665.085938 464.023438 663.308594 464.695312 Z M 663.308594 464.695312 " fill-opacity="1" fill-rule="nonzero"/><path fill="#d2e5f1" d="M 574.59375 591.691406 C 574.59375 591.691406 572.933594 591.539062 570.859375 584.890625 C 568.789062 578.25 558.257812 543.289062 558.257812 543.289062 L 641.96875 489.449219 C 641.96875 489.449219 646.800781 486.476562 646.628906 489.449219 C 646.628906 489.449219 647.488281 489.972656 644.902344 492.425781 C 642.316406 494.875 579.140625 552.378906 579.140625 552.378906 Z M 574.59375 591.691406 " fill-opacity="1" fill-rule="nonzero"/><path fill="#472b29" d="M 575.730469 593.09375 L 574.472656 592.980469 C 573.53125 592.894531 571.648438 591.78125 569.621094 585.28125 C 567.554688 578.636719 557.015625 543.667969 557.015625 543.667969 L 556.734375 542.730469 L 557.554688 542.203125 L 641.265625 488.367188 C 642.398438 487.664062 645.164062 486.1875 646.835938 487.183594 C 647.214844 487.40625 647.796875 487.917969 647.910156 488.964844 L 648.050781 489.589844 C 648.160156 490.617188 647.46875 491.789062 645.796875 493.367188 C 643.304688 495.730469 586 547.894531 580.375 553.015625 Z M 559.773438 543.847656 C 561.460938 549.445312 570.222656 578.507812 572.089844 584.503906 C 572.667969 586.359375 573.203125 587.652344 573.652344 588.542969 L 577.910156 551.746094 L 578.265625 551.421875 C 578.898438 550.847656 641.460938 493.898438 644.007812 491.476562 C 644.734375 490.785156 645.101562 490.320312 645.292969 490.042969 L 645.332031 489.425781 C 644.75 489.496094 643.578125 489.972656 642.636719 490.550781 Z M 559.773438 543.847656 " fill-opacity="1" fill-rule="nonzero"/><path fill="#472b29" d="M 640.777344 601.390625 C 638.917969 601.390625 636.941406 600.9375 634.882812 600.027344 L 634.421875 599.761719 L 599.71875 574.925781 L 580.035156 593.085938 C 579.574219 593.460938 576.957031 595.371094 573.84375 594.175781 C 570.78125 593.34375 569 587.632812 568.386719 585.660156 C 566.652344 580.101562 558.976562 554.648438 556.53125 546.539062 L 556.164062 545.324219 L 522.574219 533.871094 C 522.253906 533.757812 515.675781 531.335938 514.96875 525.621094 C 514.359375 520.664062 519.558594 517.488281 522.730469 516.394531 L 661.214844 461.375 L 661.230469 461.414062 C 663.425781 460.335938 668.507812 458.910156 671.933594 460.226562 C 673.503906 460.835938 676.144531 462.53125 676.144531 467.09375 L 651.414062 593.617188 C 651.09375 594.546875 649.3125 598.773438 644.867188 600.605469 C 643.566406 601.128906 642.207031 601.390625 640.777344 601.390625 Z M 637.210938 595.398438 C 639.398438 596.316406 641.3125 596.445312 642.898438 595.804688 C 645.332031 594.8125 646.457031 592.191406 646.46875 592.164062 L 671.015625 466.59375 C 670.96875 466.089844 670.757812 465.449219 670.339844 465.1875 C 669.203125 464.445312 666.304688 464.984375 664.214844 465.734375 L 664.210938 465.746094 L 524.523438 521.234375 C 522.824219 521.835938 519.914062 523.5 520.097656 524.980469 C 520.367188 527.152344 523.457031 528.6875 524.277344 528.976562 L 560.207031 541.226562 L 560.648438 542.332031 C 560.648438 542.339844 560.964844 543.332031 561.476562 545.03125 C 563.921875 553.136719 571.585938 578.554688 573.320312 584.121094 C 574.464844 587.792969 575.378906 589.023438 575.652344 589.328125 C 576.148438 589.527344 576.738281 589.113281 576.746094 589.101562 L 599.308594 568.265625 Z M 637.210938 595.398438 " fill-opacity="1" fill-rule="nonzero"/></svg>