<svg xmlns="http://www.w3.org/2000/svg" xmlns:xlink="http://www.w3.org/1999/xlink" width="1080" zoomAndPan="magnify" viewBox="0 0 810 809.999993" height="1080" preserveAspectRatio="xMidYMid meet" version="1.0"><defs><clipPath id="1905cbb11c"><path d="M 661 199 L 691.867188 199 L 691.867188 230 L 661 230 Z M 661 199 " clip-rule="nonzero"/></clipPath></defs><path fill="#f1bc19" d="M 603.203125 126.542969 C 602.722656 126.542969 602.246094 126.589844 601.773438 126.683594 C 601.300781 126.777344 600.84375 126.917969 600.398438 127.101562 C 599.957031 127.285156 599.53125 127.511719 599.132812 127.78125 C 598.734375 128.046875 598.363281 128.351562 598.023438 128.691406 C 597.683594 129.03125 597.378906 129.402344 597.109375 129.800781 C 596.84375 130.203125 596.617188 130.625 596.433594 131.066406 C 596.25 131.511719 596.109375 131.972656 596.015625 132.441406 C 595.921875 132.914062 595.875 133.390625 595.875 133.871094 C 595.875 134.351562 595.921875 134.828125 596.015625 135.300781 C 596.109375 135.773438 596.25 136.230469 596.433594 136.675781 C 596.617188 137.121094 596.84375 137.542969 597.109375 137.941406 C 597.378906 138.34375 597.683594 138.714844 598.023438 139.054688 C 598.363281 139.394531 598.734375 139.699219 599.132812 139.964844 C 599.53125 140.230469 599.957031 140.457031 600.398438 140.640625 C 600.84375 140.824219 601.300781 140.964844 601.773438 141.058594 C 602.246094 141.152344 602.722656 141.199219 603.203125 141.199219 C 603.683594 141.199219 604.160156 141.152344 604.632812 141.058594 C 605.105469 140.964844 605.5625 140.824219 606.007812 140.640625 C 606.453125 140.457031 606.875 140.230469 607.273438 139.964844 C 607.675781 139.699219 608.046875 139.394531 608.386719 139.054688 C 608.726562 138.714844 609.03125 138.34375 609.296875 137.941406 C 609.5625 137.542969 609.789062 137.121094 609.972656 136.675781 C 610.15625 136.230469 610.296875 135.773438 610.390625 135.300781 C 610.484375 134.828125 610.53125 134.351562 610.53125 133.871094 C 610.53125 133.390625 610.484375 132.914062 610.390625 132.441406 C 610.296875 131.972656 610.15625 131.511719 609.972656 131.066406 C 609.789062 130.625 609.5625 130.203125 609.296875 129.800781 C 609.03125 129.402344 608.726562 129.03125 608.386719 128.691406 C 608.046875 128.351562 607.675781 128.046875 607.273438 127.78125 C 606.875 127.511719 606.453125 127.285156 606.007812 127.101562 C 605.5625 126.917969 605.105469 126.777344 604.632812 126.683594 C 604.160156 126.589844 603.683594 126.542969 603.203125 126.542969 Z M 603.203125 126.542969 " fill-opacity="1" fill-rule="nonzero"/><path fill="#e4e4f9" d="M 405.359375 133.871094 C 400.921875 133.871094 396.488281 133.980469 392.054688 134.199219 C 387.625 134.417969 383.199219 134.742188 378.785156 135.179688 C 374.367188 135.613281 369.964844 136.15625 365.578125 136.808594 C 361.1875 137.457031 356.816406 138.214844 352.464844 139.082031 C 348.113281 139.949219 343.785156 140.917969 339.480469 141.996094 C 335.179688 143.074219 330.902344 144.257812 326.65625 145.546875 C 322.410156 146.835938 318.199219 148.226562 314.019531 149.722656 C 309.84375 151.214844 305.707031 152.8125 301.605469 154.511719 C 297.507812 156.207031 293.453125 158.003906 289.441406 159.902344 C 285.429688 161.800781 281.46875 163.792969 277.554688 165.886719 C 273.640625 167.976562 269.78125 170.164062 265.976562 172.445312 C 262.167969 174.726562 258.421875 177.097656 254.734375 179.5625 C 251.042969 182.03125 247.417969 184.582031 243.851562 187.226562 C 240.289062 189.871094 236.792969 192.597656 233.363281 195.414062 C 229.933594 198.230469 226.574219 201.125 223.285156 204.105469 C 219.996094 207.085938 216.785156 210.144531 213.648438 213.28125 C 210.511719 216.417969 207.453125 219.632812 204.472656 222.917969 C 201.492188 226.207031 198.59375 229.566406 195.78125 232.996094 C 192.964844 236.425781 190.234375 239.921875 187.59375 243.488281 C 184.949219 247.050781 182.394531 250.675781 179.929688 254.367188 C 177.464844 258.054688 175.09375 261.804688 172.8125 265.609375 C 170.53125 269.414062 168.34375 273.273438 166.253906 277.1875 C 164.160156 281.101562 162.167969 285.0625 160.269531 289.074219 C 158.371094 293.085938 156.574219 297.140625 154.875 301.238281 C 153.179688 305.339844 151.582031 309.476562 150.085938 313.65625 C 148.59375 317.832031 147.199219 322.042969 145.914062 326.289062 C 144.625 330.535156 143.441406 334.8125 142.363281 339.117188 C 141.285156 343.421875 140.3125 347.746094 139.449219 352.101562 C 138.582031 356.453125 137.824219 360.820312 137.171875 365.210938 C 136.523438 369.601562 135.980469 374.003906 135.542969 378.417969 C 135.109375 382.835938 134.78125 387.257812 134.566406 391.691406 C 134.347656 396.121094 134.238281 400.554688 134.238281 404.992188 C 134.238281 409.429688 134.347656 413.863281 134.566406 418.296875 C 134.78125 422.726562 135.109375 427.152344 135.542969 431.566406 C 135.980469 435.984375 136.523438 440.386719 137.171875 444.773438 C 137.824219 449.164062 138.582031 453.535156 139.449219 457.886719 C 140.3125 462.238281 141.285156 466.566406 142.363281 470.871094 C 143.441406 475.175781 144.625 479.449219 145.914062 483.695312 C 147.199219 487.941406 148.59375 492.152344 150.085938 496.332031 C 151.582031 500.507812 153.179688 504.648438 154.875 508.746094 C 156.574219 512.84375 158.371094 516.902344 160.269531 520.910156 C 162.167969 524.921875 164.160156 528.886719 166.253906 532.796875 C 168.34375 536.710938 170.53125 540.570312 172.8125 544.375 C 175.09375 548.183594 177.464844 551.929688 179.929688 555.621094 C 182.394531 559.308594 184.949219 562.933594 187.59375 566.5 C 190.234375 570.0625 192.964844 573.558594 195.78125 576.988281 C 198.59375 580.417969 201.492188 583.777344 204.472656 587.066406 C 207.453125 590.355469 210.511719 593.566406 213.648438 596.703125 C 216.785156 599.839844 219.996094 602.898438 223.285156 605.878906 C 226.574219 608.859375 229.933594 611.757812 233.363281 614.570312 C 236.792969 617.386719 240.289062 620.117188 243.851562 622.757812 C 247.417969 625.402344 251.042969 627.957031 254.734375 630.421875 C 258.421875 632.886719 262.167969 635.257812 265.976562 637.539062 C 269.78125 639.820312 273.640625 642.007812 277.554688 644.101562 C 281.46875 646.191406 285.429688 648.1875 289.441406 650.082031 C 293.453125 651.980469 297.507812 653.777344 301.605469 655.476562 C 305.707031 657.171875 309.84375 658.769531 314.019531 660.265625 C 318.199219 661.757812 322.410156 663.152344 326.65625 664.4375 C 330.902344 665.726562 335.179688 666.910156 339.480469 667.988281 C 343.785156 669.066406 348.113281 670.039062 352.464844 670.902344 C 356.816406 671.769531 361.1875 672.527344 365.578125 673.179688 C 369.964844 673.828125 374.367188 674.371094 378.785156 674.808594 C 383.199219 675.242188 387.625 675.570312 392.054688 675.785156 C 396.488281 676.003906 400.921875 676.113281 405.359375 676.113281 C 409.796875 676.113281 414.230469 676.003906 418.664062 675.785156 C 423.09375 675.570312 427.519531 675.242188 431.933594 674.808594 C 436.347656 674.371094 440.75 673.828125 445.140625 673.179688 C 449.53125 672.527344 453.898438 671.769531 458.253906 670.902344 C 462.605469 670.039062 466.933594 669.066406 471.234375 667.988281 C 475.539062 666.910156 479.816406 665.726562 484.0625 664.4375 C 488.308594 663.152344 492.519531 661.757812 496.695312 660.265625 C 500.875 658.769531 505.011719 657.171875 509.113281 655.476562 C 513.210938 653.777344 517.265625 651.980469 521.277344 650.082031 C 525.289062 648.1875 529.25 646.191406 533.164062 644.101562 C 537.078125 642.007812 540.9375 639.820312 544.742188 637.539062 C 548.550781 635.257812 552.296875 632.886719 555.984375 630.421875 C 559.675781 627.957031 563.300781 625.402344 566.867188 622.757812 C 570.429688 620.117188 573.925781 617.386719 577.355469 614.570312 C 580.785156 611.757812 584.144531 608.859375 587.433594 605.878906 C 590.71875 602.898438 593.933594 599.839844 597.070312 596.703125 C 600.207031 593.566406 603.265625 590.355469 606.246094 587.066406 C 609.226562 583.777344 612.125 580.417969 614.9375 576.988281 C 617.753906 573.558594 620.480469 570.0625 623.125 566.5 C 625.769531 562.933594 628.324219 559.308594 630.789062 555.621094 C 633.253906 551.929688 635.625 548.183594 637.90625 544.375 C 640.1875 540.570312 642.375 536.710938 644.464844 532.796875 C 646.558594 528.886719 648.550781 524.921875 650.449219 520.910156 C 652.347656 516.902344 654.144531 512.84375 655.84375 508.746094 C 657.539062 504.648438 659.136719 500.507812 660.632812 496.332031 C 662.125 492.152344 663.515625 487.941406 664.804688 483.695312 C 666.09375 479.449219 667.277344 475.175781 668.355469 470.871094 C 669.433594 466.566406 670.40625 462.238281 671.269531 457.886719 C 672.136719 453.535156 672.894531 449.164062 673.546875 444.773438 C 674.195312 440.386719 674.738281 435.984375 675.175781 431.566406 C 675.609375 427.152344 675.9375 422.726562 676.152344 418.296875 C 676.371094 413.863281 676.480469 409.429688 676.480469 404.992188 C 676.480469 400.554688 676.371094 396.121094 676.152344 391.691406 C 675.9375 387.257812 675.609375 382.835938 675.175781 378.417969 C 674.738281 374.003906 674.195312 369.601562 673.546875 365.210938 C 672.894531 360.820312 672.136719 356.453125 671.269531 352.101562 C 670.40625 347.746094 669.433594 343.421875 668.355469 339.117188 C 667.277344 334.8125 666.09375 330.535156 664.804688 326.289062 C 663.515625 322.042969 662.125 317.832031 660.632812 313.65625 C 659.136719 309.476562 657.539062 305.339844 655.84375 301.238281 C 654.144531 297.140625 652.347656 293.085938 650.449219 289.074219 C 648.550781 285.0625 646.558594 281.101562 644.464844 277.1875 C 642.375 273.273438 640.1875 269.414062 637.90625 265.609375 C 635.625 261.804688 633.253906 258.054688 630.789062 254.367188 C 628.324219 250.675781 625.769531 247.050781 623.125 243.488281 C 620.480469 239.921875 617.753906 236.425781 614.9375 232.996094 C 612.125 229.566406 609.226562 226.207031 606.246094 222.917969 C 603.265625 219.632812 600.207031 216.417969 597.070312 213.28125 C 593.933594 210.144531 590.71875 207.085938 587.433594 204.105469 C 584.144531 201.125 580.785156 198.230469 577.355469 195.414062 C 573.925781 192.597656 570.429688 189.871094 566.867188 187.226562 C 563.300781 184.582031 559.675781 182.03125 555.984375 179.5625 C 552.296875 177.097656 548.550781 174.726562 544.742188 172.445312 C 540.9375 170.164062 537.078125 167.976562 533.164062 165.886719 C 529.25 163.792969 525.289062 161.800781 521.277344 159.902344 C 517.265625 158.003906 513.210938 156.207031 509.113281 154.511719 C 505.011719 152.8125 500.875 151.214844 496.695312 149.722656 C 492.519531 148.226562 488.308594 146.835938 484.0625 145.546875 C 479.816406 144.257812 475.539062 143.074219 471.234375 141.996094 C 466.933594 140.917969 462.605469 139.949219 458.253906 139.082031 C 453.898438 138.214844 449.53125 137.457031 445.140625 136.808594 C 440.75 136.15625 436.347656 135.613281 431.933594 135.179688 C 427.519531 134.742188 423.09375 134.417969 418.664062 134.199219 C 414.230469 133.980469 409.796875 133.871094 405.359375 133.871094 Z M 405.359375 133.871094 " fill-opacity="1" fill-rule="nonzero"/><path fill="#f1bc19" d="M 647.167969 119.21875 C 646.210938 119.21875 645.25 119.265625 644.296875 119.359375 C 643.339844 119.453125 642.394531 119.59375 641.453125 119.78125 C 640.511719 119.96875 639.578125 120.199219 638.660156 120.480469 C 637.742188 120.757812 636.839844 121.082031 635.953125 121.449219 C 635.066406 121.816406 634.199219 122.226562 633.351562 122.679688 C 632.507812 123.128906 631.683594 123.625 630.886719 124.15625 C 630.085938 124.691406 629.316406 125.261719 628.574219 125.871094 C 627.832031 126.480469 627.121094 127.125 626.445312 127.800781 C 625.765625 128.480469 625.121094 129.191406 624.511719 129.933594 C 623.902344 130.675781 623.332031 131.445312 622.800781 132.242188 C 622.265625 133.042969 621.773438 133.863281 621.320312 134.710938 C 620.867188 135.558594 620.457031 136.425781 620.089844 137.3125 C 619.722656 138.199219 619.398438 139.101562 619.121094 140.019531 C 618.84375 140.9375 618.609375 141.867188 618.421875 142.808594 C 618.234375 143.75 618.09375 144.699219 618 145.65625 C 617.90625 146.609375 617.859375 147.566406 617.859375 148.527344 C 617.859375 149.488281 617.90625 150.445312 618 151.398438 C 618.09375 152.355469 618.234375 153.304688 618.421875 154.246094 C 618.609375 155.1875 618.84375 156.117188 619.121094 157.035156 C 619.398438 157.953125 619.722656 158.855469 620.089844 159.742188 C 620.457031 160.628906 620.867188 161.496094 621.320312 162.34375 C 621.773438 163.191406 622.265625 164.011719 622.800781 164.8125 C 623.332031 165.609375 623.902344 166.378906 624.511719 167.121094 C 625.121094 167.863281 625.765625 168.574219 626.445312 169.253906 C 627.121094 169.933594 627.832031 170.574219 628.574219 171.183594 C 629.316406 171.792969 630.085938 172.363281 630.886719 172.898438 C 631.683594 173.429688 632.507812 173.925781 633.351562 174.375 C 634.199219 174.828125 635.066406 175.238281 635.953125 175.605469 C 636.839844 175.972656 637.742188 176.296875 638.660156 176.574219 C 639.578125 176.855469 640.511719 177.085938 641.453125 177.273438 C 642.394531 177.460938 643.339844 177.601562 644.296875 177.695312 C 645.25 177.789062 646.210938 177.835938 647.167969 177.835938 C 648.128906 177.835938 649.085938 177.789062 650.042969 177.695312 C 650.996094 177.601562 651.945312 177.460938 652.886719 177.273438 C 653.828125 177.085938 654.757812 176.855469 655.679688 176.574219 C 656.597656 176.296875 657.5 175.972656 658.386719 175.605469 C 659.273438 175.238281 660.140625 174.828125 660.984375 174.375 C 661.832031 173.925781 662.65625 173.429688 663.453125 172.898438 C 664.25 172.363281 665.023438 171.792969 665.765625 171.183594 C 666.503906 170.574219 667.214844 169.933594 667.894531 169.253906 C 668.574219 168.574219 669.21875 167.863281 669.828125 167.121094 C 670.4375 166.378906 671.007812 165.609375 671.539062 164.8125 C 672.074219 164.011719 672.566406 163.191406 673.019531 162.34375 C 673.472656 161.496094 673.882812 160.628906 674.25 159.742188 C 674.617188 158.855469 674.9375 157.953125 675.21875 157.035156 C 675.496094 156.117188 675.730469 155.1875 675.917969 154.246094 C 676.105469 153.304688 676.246094 152.355469 676.339844 151.398438 C 676.433594 150.445312 676.480469 149.488281 676.480469 148.527344 C 676.480469 147.566406 676.433594 146.609375 676.339844 145.65625 C 676.246094 144.699219 676.105469 143.75 675.917969 142.808594 C 675.730469 141.867188 675.496094 140.9375 675.21875 140.019531 C 674.9375 139.101562 674.617188 138.199219 674.25 137.3125 C 673.882812 136.425781 673.472656 135.558594 673.019531 134.710938 C 672.566406 133.863281 672.074219 133.042969 671.539062 132.242188 C 671.007812 131.445312 670.4375 130.675781 669.828125 129.933594 C 669.21875 129.191406 668.574219 128.480469 667.894531 127.800781 C 667.214844 127.125 666.503906 126.480469 665.765625 125.871094 C 665.023438 125.261719 664.25 124.691406 663.453125 124.15625 C 662.65625 123.625 661.832031 123.128906 660.984375 122.679688 C 660.140625 122.226562 659.273438 121.816406 658.386719 121.449219 C 657.5 121.082031 656.597656 120.757812 655.679688 120.480469 C 654.757812 120.199219 653.828125 119.96875 652.886719 119.78125 C 651.945312 119.59375 650.996094 119.453125 650.042969 119.359375 C 649.085938 119.265625 648.128906 119.21875 647.167969 119.21875 Z M 647.167969 119.21875 " fill-opacity="1" fill-rule="nonzero"/><g clip-path="url(#1905cbb11c)"><path fill="#8889b9" d="M 676.480469 199.820312 C 675.519531 199.820312 674.566406 199.914062 673.621094 200.101562 C 672.675781 200.289062 671.761719 200.566406 670.871094 200.9375 C 669.984375 201.304688 669.136719 201.753906 668.335938 202.289062 C 667.539062 202.824219 666.796875 203.433594 666.117188 204.113281 C 665.4375 204.792969 664.828125 205.535156 664.292969 206.332031 C 663.761719 207.132812 663.308594 207.976562 662.941406 208.867188 C 662.570312 209.757812 662.292969 210.671875 662.105469 211.617188 C 661.917969 212.558594 661.824219 213.511719 661.824219 214.476562 C 661.824219 215.4375 661.917969 216.390625 662.105469 217.335938 C 662.292969 218.277344 662.570312 219.195312 662.941406 220.082031 C 663.308594 220.972656 663.761719 221.816406 664.292969 222.617188 C 664.828125 223.417969 665.4375 224.15625 666.117188 224.839844 C 666.796875 225.519531 667.539062 226.125 668.335938 226.660156 C 669.136719 227.195312 669.984375 227.648438 670.871094 228.015625 C 671.761719 228.382812 672.675781 228.660156 673.621094 228.847656 C 674.566406 229.035156 675.519531 229.128906 676.480469 229.128906 C 677.441406 229.128906 678.394531 229.035156 679.339844 228.847656 C 680.28125 228.660156 681.199219 228.382812 682.089844 228.015625 C 682.976562 227.648438 683.820312 227.195312 684.621094 226.660156 C 685.421875 226.125 686.160156 225.519531 686.84375 224.839844 C 687.523438 224.15625 688.128906 223.417969 688.664062 222.617188 C 689.199219 221.816406 689.652344 220.972656 690.019531 220.082031 C 690.386719 219.195312 690.664062 218.277344 690.851562 217.335938 C 691.042969 216.390625 691.136719 215.4375 691.136719 214.476562 C 691.136719 213.511719 691.042969 212.558594 690.851562 211.617188 C 690.664062 210.671875 690.386719 209.757812 690.019531 208.867188 C 689.652344 207.976562 689.199219 207.132812 688.664062 206.332031 C 688.128906 205.535156 687.523438 204.792969 686.84375 204.113281 C 686.160156 203.433594 685.421875 202.824219 684.621094 202.289062 C 683.820312 201.753906 682.976562 201.304688 682.089844 200.9375 C 681.199219 200.566406 680.28125 200.289062 679.339844 200.101562 C 678.394531 199.914062 677.441406 199.820312 676.480469 199.820312 Z M 676.480469 199.820312 " fill-opacity="1" fill-rule="nonzero"/></g><path fill="#fbcd59" d="M 632.515625 580.855469 C 631.550781 580.855469 630.597656 580.949219 629.65625 581.136719 C 628.710938 581.324219 627.796875 581.601562 626.90625 581.96875 C 626.015625 582.339844 625.171875 582.789062 624.371094 583.324219 C 623.570312 583.859375 622.832031 584.46875 622.152344 585.148438 C 621.472656 585.828125 620.863281 586.566406 620.328125 587.367188 C 619.792969 588.167969 619.34375 589.011719 618.976562 589.902344 C 618.605469 590.789062 618.328125 591.707031 618.140625 592.652344 C 617.953125 593.59375 617.859375 594.546875 617.859375 595.511719 C 617.859375 596.472656 617.953125 597.425781 618.140625 598.367188 C 618.328125 599.3125 618.605469 600.230469 618.976562 601.117188 C 619.34375 602.007812 619.792969 602.851562 620.328125 603.652344 C 620.863281 604.453125 621.472656 605.191406 622.152344 605.871094 C 622.832031 606.554688 623.570312 607.160156 624.371094 607.695312 C 625.171875 608.230469 626.015625 608.679688 626.90625 609.050781 C 627.796875 609.417969 628.710938 609.695312 629.65625 609.882812 C 630.597656 610.070312 631.550781 610.164062 632.515625 610.164062 C 633.476562 610.164062 634.429688 610.070312 635.375 609.882812 C 636.316406 609.695312 637.234375 609.417969 638.121094 609.050781 C 639.011719 608.679688 639.855469 608.230469 640.65625 607.695312 C 641.457031 607.160156 642.195312 606.554688 642.878906 605.871094 C 643.558594 605.191406 644.164062 604.453125 644.699219 603.652344 C 645.234375 602.851562 645.6875 602.007812 646.054688 601.117188 C 646.421875 600.230469 646.699219 599.3125 646.886719 598.367188 C 647.074219 597.425781 647.167969 596.472656 647.167969 595.511719 C 647.167969 594.546875 647.074219 593.59375 646.886719 592.652344 C 646.699219 591.707031 646.421875 590.789062 646.054688 589.902344 C 645.6875 589.011719 645.234375 588.167969 644.699219 587.367188 C 644.164062 586.566406 643.558594 585.828125 642.878906 585.148438 C 642.195312 584.46875 641.457031 583.859375 640.65625 583.324219 C 639.855469 582.789062 639.011719 582.339844 638.121094 581.96875 C 637.234375 581.601562 636.316406 581.324219 635.375 581.136719 C 634.429688 580.949219 633.476562 580.855469 632.515625 580.855469 Z M 148.894531 470.941406 C 147.933594 470.941406 146.976562 470.988281 146.019531 471.082031 C 145.066406 471.175781 144.117188 471.316406 143.175781 471.503906 C 142.234375 471.691406 141.304688 471.925781 140.386719 472.203125 C 139.464844 472.480469 138.5625 472.804688 137.675781 473.171875 C 136.789062 473.539062 135.921875 473.949219 135.078125 474.402344 C 134.230469 474.855469 133.40625 475.347656 132.609375 475.878906 C 131.8125 476.414062 131.042969 476.984375 130.300781 477.59375 C 129.558594 478.203125 128.847656 478.847656 128.167969 479.527344 C 127.488281 480.203125 126.84375 480.914062 126.238281 481.65625 C 125.628906 482.398438 125.054688 483.167969 124.523438 483.96875 C 123.988281 484.765625 123.496094 485.589844 123.042969 486.433594 C 122.59375 487.28125 122.183594 488.148438 121.816406 489.035156 C 121.445312 489.921875 121.125 490.824219 120.84375 491.742188 C 120.566406 492.660156 120.332031 493.59375 120.148438 494.535156 C 119.960938 495.476562 119.820312 496.421875 119.722656 497.378906 C 119.628906 498.332031 119.582031 499.292969 119.582031 500.25 C 119.582031 501.210938 119.628906 502.167969 119.722656 503.125 C 119.820312 504.078125 119.960938 505.027344 120.148438 505.96875 C 120.332031 506.910156 120.566406 507.839844 120.84375 508.761719 C 121.125 509.679688 121.445312 510.582031 121.816406 511.46875 C 122.183594 512.355469 122.59375 513.222656 123.042969 514.066406 C 123.496094 514.914062 123.988281 515.738281 124.523438 516.535156 C 125.054688 517.332031 125.628906 518.105469 126.238281 518.847656 C 126.84375 519.585938 127.488281 520.296875 128.167969 520.976562 C 128.847656 521.65625 129.558594 522.300781 130.300781 522.910156 C 131.042969 523.519531 131.8125 524.089844 132.609375 524.621094 C 133.40625 525.15625 134.230469 525.648438 135.078125 526.101562 C 135.921875 526.554688 136.789062 526.964844 137.675781 527.332031 C 138.5625 527.699219 139.464844 528.019531 140.386719 528.300781 C 141.304688 528.578125 142.234375 528.8125 143.175781 529 C 144.117188 529.1875 145.066406 529.328125 146.019531 529.421875 C 146.976562 529.515625 147.933594 529.5625 148.894531 529.5625 C 149.855469 529.5625 150.8125 529.515625 151.765625 529.421875 C 152.722656 529.328125 153.671875 529.1875 154.613281 529 C 155.554688 528.8125 156.484375 528.578125 157.402344 528.300781 C 158.320312 528.019531 159.222656 527.699219 160.109375 527.332031 C 160.996094 526.964844 161.863281 526.554688 162.710938 526.101562 C 163.558594 525.648438 164.378906 525.15625 165.175781 524.621094 C 165.976562 524.089844 166.746094 523.519531 167.488281 522.910156 C 168.230469 522.300781 168.941406 521.65625 169.621094 520.976562 C 170.296875 520.296875 170.941406 519.585938 171.550781 518.847656 C 172.160156 518.105469 172.730469 517.332031 173.265625 516.535156 C 173.796875 515.738281 174.289062 514.914062 174.742188 514.066406 C 175.195312 513.222656 175.605469 512.355469 175.972656 511.46875 C 176.339844 510.582031 176.664062 509.679688 176.941406 508.761719 C 177.21875 507.839844 177.453125 506.910156 177.640625 505.96875 C 177.828125 505.027344 177.96875 504.078125 178.0625 503.125 C 178.15625 502.167969 178.203125 501.210938 178.203125 500.25 C 178.203125 499.292969 178.15625 498.332031 178.0625 497.378906 C 177.96875 496.421875 177.828125 495.476562 177.640625 494.535156 C 177.453125 493.59375 177.21875 492.660156 176.941406 491.742188 C 176.664062 490.824219 176.339844 489.921875 175.972656 489.035156 C 175.605469 488.148438 175.195312 487.28125 174.742188 486.433594 C 174.289062 485.589844 173.796875 484.765625 173.265625 483.96875 C 172.730469 483.167969 172.160156 482.398438 171.550781 481.65625 C 170.941406 480.914062 170.296875 480.203125 169.621094 479.527344 C 168.941406 478.847656 168.230469 478.203125 167.488281 477.59375 C 166.746094 476.984375 165.976562 476.414062 165.175781 475.878906 C 164.378906 475.347656 163.558594 474.855469 162.710938 474.402344 C 161.863281 473.949219 160.996094 473.539062 160.109375 473.171875 C 159.222656 472.804688 158.320312 472.480469 157.402344 472.203125 C 156.484375 471.925781 155.554688 471.691406 154.613281 471.503906 C 153.671875 471.316406 152.722656 471.175781 151.765625 471.082031 C 150.8125 470.988281 149.855469 470.941406 148.894531 470.941406 Z M 148.894531 470.941406 " fill-opacity="1" fill-rule="nonzero"/><path fill="#8889b9" d="M 222.167969 661.457031 C 221.207031 661.457031 220.253906 661.550781 219.308594 661.738281 C 218.367188 661.925781 217.449219 662.207031 216.5625 662.574219 C 215.671875 662.941406 214.828125 663.394531 214.027344 663.929688 C 213.226562 664.460938 212.488281 665.070312 211.808594 665.75 C 211.125 666.429688 210.519531 667.171875 209.984375 667.972656 C 209.449219 668.773438 209 669.617188 208.628906 670.503906 C 208.261719 671.394531 207.984375 672.3125 207.796875 673.253906 C 207.609375 674.199219 207.515625 675.152344 207.515625 676.113281 C 207.515625 677.074219 207.609375 678.027344 207.796875 678.972656 C 207.984375 679.917969 208.261719 680.832031 208.628906 681.722656 C 209 682.609375 209.449219 683.457031 209.984375 684.253906 C 210.519531 685.054688 211.125 685.796875 211.808594 686.476562 C 212.488281 687.15625 213.226562 687.765625 214.027344 688.296875 C 214.828125 688.832031 215.671875 689.285156 216.5625 689.652344 C 217.449219 690.019531 218.367188 690.300781 219.308594 690.488281 C 220.253906 690.675781 221.207031 690.769531 222.167969 690.769531 C 223.132812 690.769531 224.085938 690.675781 225.027344 690.488281 C 225.972656 690.300781 226.890625 690.019531 227.777344 689.652344 C 228.667969 689.285156 229.511719 688.832031 230.3125 688.296875 C 231.113281 687.765625 231.851562 687.15625 232.53125 686.476562 C 233.210938 685.796875 233.820312 685.054688 234.355469 684.253906 C 234.890625 683.457031 235.339844 682.609375 235.710938 681.722656 C 236.078125 680.832031 236.355469 679.917969 236.542969 678.972656 C 236.730469 678.027344 236.824219 677.074219 236.824219 676.113281 C 236.824219 675.152344 236.730469 674.199219 236.542969 673.253906 C 236.355469 672.3125 236.078125 671.394531 235.710938 670.503906 C 235.339844 669.617188 234.890625 668.773438 234.355469 667.972656 C 233.820312 667.171875 233.210938 666.429688 232.53125 665.75 C 231.851562 665.070312 231.113281 664.460938 230.3125 663.929688 C 229.511719 663.394531 228.667969 662.941406 227.777344 662.574219 C 226.890625 662.207031 225.972656 661.925781 225.027344 661.738281 C 224.085938 661.550781 223.132812 661.457031 222.167969 661.457031 Z M 222.167969 661.457031 " fill-opacity="1" fill-rule="nonzero"/><path fill="#ffffff" d="M 174.539062 397.664062 C 173.941406 397.664062 173.34375 397.695312 172.746094 397.753906 C 172.148438 397.8125 171.554688 397.898438 170.964844 398.015625 C 170.378906 398.132812 169.796875 398.28125 169.222656 398.453125 C 168.648438 398.628906 168.085938 398.832031 167.53125 399.058594 C 166.976562 399.289062 166.433594 399.546875 165.90625 399.828125 C 165.375 400.109375 164.863281 400.417969 164.363281 400.753906 C 163.863281 401.085938 163.382812 401.441406 162.917969 401.824219 C 162.457031 402.203125 162.011719 402.605469 161.585938 403.03125 C 161.164062 403.453125 160.761719 403.898438 160.378906 404.363281 C 160 404.828125 159.640625 405.308594 159.308594 405.808594 C 158.976562 406.304688 158.667969 406.820312 158.382812 407.347656 C 158.101562 407.878906 157.84375 408.417969 157.617188 408.972656 C 157.386719 409.527344 157.183594 410.09375 157.011719 410.667969 C 156.835938 411.242188 156.691406 411.820312 156.574219 412.410156 C 156.457031 413 156.367188 413.589844 156.308594 414.1875 C 156.25 414.785156 156.222656 415.382812 156.222656 415.984375 C 156.222656 416.585938 156.25 417.183594 156.308594 417.78125 C 156.367188 418.375 156.457031 418.96875 156.574219 419.558594 C 156.691406 420.148438 156.835938 420.726562 157.011719 421.300781 C 157.183594 421.875 157.386719 422.441406 157.617188 422.996094 C 157.84375 423.550781 158.101562 424.089844 158.382812 424.621094 C 158.667969 425.148438 158.976562 425.664062 159.308594 426.160156 C 159.640625 426.660156 160 427.140625 160.378906 427.605469 C 160.761719 428.070312 161.164062 428.511719 161.585938 428.9375 C 162.011719 429.363281 162.457031 429.765625 162.917969 430.144531 C 163.382812 430.527344 163.863281 430.882812 164.363281 431.214844 C 164.863281 431.550781 165.375 431.855469 165.90625 432.140625 C 166.433594 432.421875 166.976562 432.679688 167.53125 432.910156 C 168.085938 433.136719 168.648438 433.339844 169.222656 433.515625 C 169.796875 433.6875 170.378906 433.835938 170.964844 433.949219 C 171.554688 434.066406 172.148438 434.15625 172.746094 434.214844 C 173.34375 434.273438 173.941406 434.304688 174.539062 434.304688 C 175.140625 434.304688 175.738281 434.273438 176.335938 434.214844 C 176.933594 434.15625 177.527344 434.066406 178.113281 433.953125 C 178.703125 433.835938 179.285156 433.6875 179.859375 433.515625 C 180.433594 433.339844 180.996094 433.136719 181.550781 432.910156 C 182.105469 432.679688 182.648438 432.421875 183.175781 432.140625 C 183.703125 431.855469 184.21875 431.550781 184.71875 431.214844 C 185.214844 430.882812 185.699219 430.527344 186.160156 430.144531 C 186.625 429.765625 187.070312 429.363281 187.492188 428.9375 C 187.917969 428.511719 188.320312 428.070312 188.699219 427.605469 C 189.082031 427.140625 189.4375 426.660156 189.773438 426.160156 C 190.105469 425.664062 190.414062 425.148438 190.695312 424.621094 C 190.980469 424.089844 191.234375 423.550781 191.464844 422.996094 C 191.695312 422.441406 191.894531 421.875 192.070312 421.300781 C 192.246094 420.726562 192.390625 420.148438 192.507812 419.558594 C 192.625 418.96875 192.710938 418.375 192.769531 417.78125 C 192.828125 417.183594 192.859375 416.585938 192.859375 415.984375 C 192.859375 415.382812 192.828125 414.785156 192.769531 414.1875 C 192.710938 413.589844 192.625 413 192.507812 412.410156 C 192.390625 411.820312 192.246094 411.242188 192.070312 410.667969 C 191.894531 410.09375 191.695312 409.527344 191.464844 408.972656 C 191.234375 408.417969 190.980469 407.878906 190.695312 407.347656 C 190.414062 406.820312 190.105469 406.304688 189.773438 405.808594 C 189.4375 405.308594 189.082031 404.828125 188.699219 404.363281 C 188.320312 403.898438 187.917969 403.453125 187.492188 403.03125 C 187.070312 402.605469 186.625 402.203125 186.160156 401.824219 C 185.699219 401.441406 185.214844 401.085938 184.71875 400.753906 C 184.21875 400.417969 183.703125 400.109375 183.175781 399.828125 C 182.648438 399.546875 182.105469 399.289062 181.550781 399.058594 C 180.996094 398.832031 180.433594 398.628906 179.859375 398.453125 C 179.285156 398.28125 178.703125 398.132812 178.113281 398.015625 C 177.527344 397.898438 176.933594 397.8125 176.335938 397.753906 C 175.738281 397.695312 175.140625 397.664062 174.539062 397.664062 Z M 621.523438 273.097656 C 620.800781 273.097656 620.085938 273.167969 619.378906 273.308594 C 618.671875 273.449219 617.984375 273.65625 617.316406 273.933594 C 616.648438 274.210938 616.015625 274.546875 615.417969 274.949219 C 614.816406 275.351562 614.261719 275.804688 613.75 276.316406 C 613.242188 276.824219 612.785156 277.382812 612.382812 277.980469 C 611.984375 278.582031 611.644531 279.214844 611.367188 279.882812 C 611.09375 280.546875 610.882812 281.234375 610.742188 281.945312 C 610.601562 282.652344 610.53125 283.367188 610.53125 284.085938 C 610.53125 284.808594 610.601562 285.523438 610.742188 286.230469 C 610.882812 286.941406 611.09375 287.628906 611.367188 288.292969 C 611.644531 288.960938 611.984375 289.59375 612.382812 290.195312 C 612.785156 290.792969 613.242188 291.347656 613.75 291.859375 C 614.261719 292.371094 614.816406 292.824219 615.417969 293.226562 C 616.015625 293.628906 616.648438 293.964844 617.316406 294.242188 C 617.984375 294.519531 618.671875 294.726562 619.378906 294.867188 C 620.085938 295.007812 620.800781 295.078125 621.523438 295.078125 C 622.246094 295.078125 622.960938 295.007812 623.667969 294.867188 C 624.375 294.726562 625.0625 294.519531 625.730469 294.242188 C 626.394531 293.964844 627.03125 293.628906 627.628906 293.226562 C 628.230469 292.824219 628.785156 292.371094 629.296875 291.859375 C 629.804688 291.347656 630.261719 290.792969 630.660156 290.195312 C 631.0625 289.59375 631.402344 288.960938 631.675781 288.292969 C 631.953125 287.628906 632.164062 286.941406 632.304688 286.230469 C 632.445312 285.523438 632.515625 284.808594 632.515625 284.085938 C 632.515625 283.367188 632.445312 282.652344 632.304688 281.945312 C 632.164062 281.234375 631.953125 280.546875 631.675781 279.882812 C 631.402344 279.214844 631.0625 278.582031 630.660156 277.980469 C 630.261719 277.382812 629.804688 276.824219 629.296875 276.316406 C 628.785156 275.804688 628.230469 275.351562 627.628906 274.949219 C 627.03125 274.546875 626.394531 274.210938 625.730469 273.933594 C 625.0625 273.65625 624.375 273.449219 623.667969 273.308594 C 622.960938 273.167969 622.246094 273.097656 621.523438 273.097656 Z M 621.523438 273.097656 " fill-opacity="1" fill-rule="nonzero"/><path fill="#48bed8" d="M 405.359375 226.382812 C 402.449219 226.382812 399.542969 226.453125 396.640625 226.597656 C 393.734375 226.738281 390.835938 226.953125 387.941406 227.238281 C 385.046875 227.523438 382.164062 227.878906 379.285156 228.304688 C 376.410156 228.734375 373.546875 229.230469 370.691406 229.796875 C 367.839844 230.363281 365.003906 231 362.183594 231.707031 C 359.363281 232.414062 356.558594 233.191406 353.777344 234.035156 C 350.996094 234.878906 348.234375 235.789062 345.496094 236.769531 C 342.757812 237.75 340.046875 238.796875 337.359375 239.910156 C 334.671875 241.023438 332.015625 242.199219 329.386719 243.445312 C 326.757812 244.6875 324.160156 245.992188 321.59375 247.363281 C 319.03125 248.734375 316.5 250.167969 314.007812 251.664062 C 311.511719 253.160156 309.054688 254.714844 306.636719 256.328125 C 304.21875 257.945312 301.84375 259.621094 299.507812 261.351562 C 297.171875 263.085938 294.878906 264.871094 292.632812 266.71875 C 290.382812 268.5625 288.183594 270.460938 286.027344 272.414062 C 283.871094 274.367188 281.765625 276.371094 279.710938 278.429688 C 277.652344 280.484375 275.648438 282.589844 273.695312 284.746094 C 271.742188 286.898438 269.84375 289.101562 268 291.347656 C 266.15625 293.597656 264.367188 295.890625 262.632812 298.226562 C 260.902344 300.558594 259.226562 302.9375 257.613281 305.355469 C 255.996094 307.773438 254.441406 310.230469 252.945312 312.722656 C 251.449219 315.21875 250.019531 317.746094 248.648438 320.3125 C 247.277344 322.878906 245.96875 325.472656 244.726562 328.101562 C 243.480469 330.730469 242.304688 333.390625 241.191406 336.078125 C 240.078125 338.761719 239.03125 341.476562 238.050781 344.214844 C 237.074219 346.953125 236.160156 349.710938 235.316406 352.496094 C 234.472656 355.277344 233.695312 358.078125 232.992188 360.902344 C 232.285156 363.722656 231.648438 366.558594 231.078125 369.410156 C 230.511719 372.261719 230.015625 375.128906 229.589844 378.003906 C 229.160156 380.878906 228.804688 383.765625 228.519531 386.660156 C 228.234375 389.554688 228.023438 392.453125 227.878906 395.359375 C 227.738281 398.261719 227.664062 401.167969 227.664062 404.078125 C 227.664062 406.984375 227.738281 409.890625 227.878906 412.796875 C 228.023438 415.699219 228.234375 418.601562 228.519531 421.492188 C 228.804688 424.386719 229.160156 427.273438 229.589844 430.148438 C 230.015625 433.027344 230.511719 435.890625 231.078125 438.742188 C 231.648438 441.59375 232.285156 444.433594 232.992188 447.253906 C 233.695312 450.074219 234.472656 452.875 235.316406 455.660156 C 236.160156 458.441406 237.074219 461.203125 238.050781 463.941406 C 239.03125 466.679688 240.078125 469.390625 241.191406 472.078125 C 242.304688 474.765625 243.480469 477.421875 244.726562 480.050781 C 245.96875 482.679688 247.277344 485.277344 248.648438 487.839844 C 250.019531 490.40625 251.449219 492.933594 252.945312 495.429688 C 254.441406 497.925781 255.996094 500.378906 257.613281 502.796875 C 259.226562 505.214844 260.902344 507.59375 262.632812 509.929688 C 264.367188 512.265625 266.15625 514.558594 268 516.804688 C 269.84375 519.054688 271.742188 521.253906 273.695312 523.410156 C 275.648438 525.5625 277.652344 527.667969 279.710938 529.726562 C 281.765625 531.78125 283.871094 533.785156 286.027344 535.738281 C 288.183594 537.691406 290.382812 539.589844 292.632812 541.4375 C 294.878906 543.28125 297.171875 545.070312 299.507812 546.800781 C 301.84375 548.535156 304.21875 550.207031 306.636719 551.824219 C 309.054688 553.441406 311.511719 554.996094 314.007812 556.488281 C 316.5 557.984375 319.03125 559.417969 321.59375 560.789062 C 324.160156 562.160156 326.757812 563.46875 329.386719 564.710938 C 332.015625 565.953125 334.671875 567.132812 337.359375 568.246094 C 340.046875 569.359375 342.757812 570.402344 345.496094 571.382812 C 348.234375 572.363281 350.996094 573.273438 353.777344 574.121094 C 356.558594 574.964844 359.363281 575.738281 362.183594 576.445312 C 365.003906 577.152344 367.839844 577.789062 370.691406 578.355469 C 373.546875 578.925781 376.410156 579.421875 379.285156 579.847656 C 382.164062 580.273438 385.046875 580.628906 387.941406 580.914062 C 390.835938 581.199219 393.734375 581.414062 396.640625 581.558594 C 399.542969 581.699219 402.449219 581.769531 405.359375 581.769531 C 408.265625 581.769531 411.171875 581.699219 414.078125 581.558594 C 416.984375 581.414062 419.882812 581.199219 422.777344 580.914062 C 425.671875 580.628906 428.554688 580.273438 431.433594 579.847656 C 434.308594 579.421875 437.171875 578.925781 440.027344 578.355469 C 442.878906 577.789062 445.714844 577.152344 448.535156 576.445312 C 451.355469 575.738281 454.15625 574.964844 456.941406 574.121094 C 459.722656 573.273438 462.484375 572.363281 465.222656 571.382812 C 467.960938 570.402344 470.671875 569.359375 473.359375 568.246094 C 476.046875 567.132812 478.703125 565.953125 481.332031 564.710938 C 483.960938 563.46875 486.558594 562.160156 489.125 560.789062 C 491.6875 559.417969 494.21875 557.984375 496.710938 556.488281 C 499.207031 554.996094 501.664062 553.441406 504.082031 551.824219 C 506.5 550.207031 508.875 548.535156 511.210938 546.800781 C 513.546875 545.070312 515.839844 543.28125 518.085938 541.4375 C 520.335938 539.589844 522.535156 537.691406 524.691406 535.738281 C 526.847656 533.785156 528.953125 531.78125 531.007812 529.726562 C 533.0625 527.667969 535.070312 525.5625 537.023438 523.410156 C 538.976562 521.253906 540.875 519.054688 542.71875 516.804688 C 544.5625 514.558594 546.351562 512.265625 548.085938 509.929688 C 549.816406 507.59375 551.492188 505.214844 553.105469 502.796875 C 554.722656 500.378906 556.277344 497.925781 557.773438 495.429688 C 559.265625 492.933594 560.699219 490.40625 562.070312 487.839844 C 563.441406 485.277344 564.75 482.679688 565.992188 480.050781 C 567.234375 477.421875 568.414062 474.765625 569.527344 472.078125 C 570.640625 469.390625 571.6875 466.679688 572.664062 463.941406 C 573.644531 461.203125 574.558594 458.441406 575.402344 455.660156 C 576.246094 452.875 577.019531 450.074219 577.726562 447.253906 C 578.433594 444.433594 579.070312 441.59375 579.640625 438.742188 C 580.207031 435.890625 580.703125 433.027344 581.128906 430.148438 C 581.554688 427.273438 581.914062 424.386719 582.199219 421.492188 C 582.484375 418.601562 582.695312 415.699219 582.839844 412.796875 C 582.980469 409.890625 583.054688 406.984375 583.054688 404.078125 C 583.054688 401.167969 582.980469 398.261719 582.839844 395.359375 C 582.695312 392.453125 582.484375 389.554688 582.199219 386.660156 C 581.914062 383.765625 581.554688 380.878906 581.128906 378.003906 C 580.703125 375.128906 580.207031 372.261719 579.640625 369.410156 C 579.070312 366.558594 578.433594 363.722656 577.726562 360.902344 C 577.019531 358.078125 576.246094 355.277344 575.402344 352.496094 C 574.558594 349.710938 573.644531 346.953125 572.664062 344.214844 C 571.6875 341.476562 570.640625 338.761719 569.527344 336.078125 C 568.414062 333.390625 567.234375 330.730469 565.992188 328.101562 C 564.75 325.472656 563.441406 322.878906 562.070312 320.3125 C 560.699219 317.746094 559.265625 315.21875 557.773438 312.722656 C 556.277344 310.230469 554.722656 307.773438 553.105469 305.355469 C 551.492188 302.9375 549.816406 300.558594 548.085938 298.226562 C 546.351562 295.890625 544.5625 293.597656 542.71875 291.347656 C 540.875 289.101562 538.976562 286.898438 537.023438 284.746094 C 535.070312 282.589844 533.0625 280.484375 531.007812 278.429688 C 528.953125 276.371094 526.847656 274.367188 524.691406 272.414062 C 522.535156 270.460938 520.335938 268.5625 518.085938 266.71875 C 515.839844 264.871094 513.546875 263.085938 511.210938 261.351562 C 508.875 259.621094 506.5 257.945312 504.082031 256.328125 C 501.664062 254.714844 499.207031 253.160156 496.710938 251.664062 C 494.21875 250.167969 491.6875 248.734375 489.125 247.363281 C 486.558594 245.992188 483.960938 244.6875 481.332031 243.445312 C 478.703125 242.199219 476.046875 241.023438 473.359375 239.910156 C 470.671875 238.796875 467.960938 237.75 465.222656 236.769531 C 462.484375 235.789062 459.722656 234.878906 456.941406 234.035156 C 454.15625 233.191406 451.355469 232.414062 448.535156 231.707031 C 445.714844 231 442.878906 230.363281 440.027344 229.796875 C 437.171875 229.230469 434.308594 228.734375 431.433594 228.304688 C 428.554688 227.878906 425.671875 227.523438 422.777344 227.238281 C 419.882812 226.953125 416.984375 226.738281 414.078125 226.597656 C 411.171875 226.453125 408.265625 226.382812 405.359375 226.382812 Z M 405.359375 226.382812 " fill-opacity="1" fill-rule="nonzero"/><path fill="#472b29" d="M 405.359375 586.898438 C 304.554688 586.898438 222.535156 504.890625 222.535156 404.078125 C 222.535156 303.265625 304.554688 221.253906 405.359375 221.253906 C 506.164062 221.253906 588.183594 303.265625 588.183594 404.078125 C 588.183594 504.890625 506.164062 586.898438 405.359375 586.898438 Z M 405.359375 231.511719 C 310.210938 231.511719 232.792969 308.921875 232.792969 404.078125 C 232.792969 499.234375 310.210938 576.640625 405.359375 576.640625 C 500.507812 576.640625 577.925781 499.234375 577.925781 404.078125 C 577.925781 308.921875 500.507812 231.511719 405.359375 231.511719 Z M 405.359375 231.511719 " fill-opacity="1" fill-rule="nonzero"/><path fill="#472b29" d="M 547.691406 365.605469 C 546.121094 365.605469 544.671875 364.589844 544.1875 363.011719 C 543.542969 360.910156 542.847656 358.828125 542.105469 356.761719 C 539.234375 348.746094 535.613281 340.941406 531.335938 333.542969 C 530.316406 331.796875 530.917969 329.546875 532.667969 328.535156 C 534.421875 327.503906 536.664062 328.121094 537.671875 329.878906 C 542.171875 337.652344 545.984375 345.867188 549 354.285156 C 549.777344 356.460938 550.511719 358.644531 551.183594 360.859375 C 551.777344 362.792969 550.695312 364.84375 548.753906 365.4375 C 548.402344 365.554688 548.042969 365.605469 547.691406 365.605469 Z M 547.691406 365.605469 " fill-opacity="1" fill-rule="nonzero"/><path fill="#472b29" d="M 405.359375 557.039062 C 321.011719 557.039062 252.394531 488.621094 252.394531 404.53125 C 252.394531 320.441406 321.011719 252.03125 405.359375 252.03125 C 449.140625 252.03125 490.902344 270.789062 519.933594 303.492188 C 522.125 305.960938 524.242188 308.511719 526.273438 311.121094 C 527.511719 312.714844 527.222656 315.011719 525.632812 316.253906 C 524.035156 317.515625 521.734375 317.214844 520.492188 315.609375 C 518.554688 313.125 516.535156 310.707031 514.453125 308.355469 C 486.8125 277.214844 447.046875 259.351562 405.359375 259.351562 C 325.054688 259.351562 259.722656 324.476562 259.722656 404.53125 C 259.722656 484.585938 325.054688 549.710938 405.359375 549.710938 C 485.664062 549.710938 550.996094 484.585938 550.996094 404.53125 C 550.996094 397.242188 550.445312 389.90625 549.367188 382.746094 C 549.066406 380.753906 550.445312 378.882812 552.445312 378.585938 C 554.496094 378.285156 556.316406 379.660156 556.617188 381.660156 C 557.742188 389.171875 558.324219 396.875 558.324219 404.53125 C 558.324219 488.621094 489.707031 557.039062 405.359375 557.039062 Z M 405.359375 557.039062 " fill-opacity="1" fill-rule="nonzero"/><path fill="#b5cfe4" d="M 395.511719 467.167969 L 363.597656 496.632812 C 363.597656 496.632812 361.109375 498.542969 358.375 497.34375 L 364.484375 442.605469 Z M 395.511719 467.167969 " fill-opacity="1" fill-rule="nonzero"/><path fill="#472b29" d="M 360.242188 499.570312 C 359.429688 499.570312 358.550781 499.417969 357.648438 499.019531 L 356.417969 498.484375 L 363.042969 439.125 L 398.332031 467.066406 L 364.84375 497.980469 C 364.648438 498.132812 362.742188 499.570312 360.242188 499.570312 Z M 365.945312 446.09375 L 360.390625 495.90625 C 361.539062 495.863281 362.449219 495.203125 362.5 495.167969 L 392.703125 467.269531 Z M 365.945312 446.09375 " fill-opacity="1" fill-rule="nonzero"/><path fill="#ffffff" d="M 498.566406 320.828125 L 463.605469 499.363281 C 463.605469 499.363281 458.71875 511.75 445.265625 505.804688 L 364.582031 443.15625 L 335.242188 428.792969 L 285.855469 411.960938 C 285.855469 411.960938 278.269531 409.242188 277.535156 403.300781 C 276.804688 397.359375 286.089844 394.140625 286.089844 394.140625 L 482.429688 316.136719 C 482.429688 316.117188 498.566406 308.9375 498.566406 320.828125 Z M 498.566406 320.828125 " fill-opacity="1" fill-rule="nonzero"/><path fill="#472b29" d="M 452.136719 509.257812 C 449.742188 509.257812 447.199219 508.664062 444.523438 507.484375 L 363.460938 444.597656 L 334.441406 430.433594 L 285.273438 413.691406 C 284.894531 413.550781 276.589844 410.503906 275.726562 403.511719 C 274.816406 396.183594 285.0625 392.550781 285.5 392.398438 L 481.757812 314.425781 L 481.777344 314.476562 C 484.210938 313.121094 490.621094 311.414062 494.695312 312.511719 C 496.828125 313.074219 500.398438 314.914062 500.398438 320.828125 L 500.363281 321.179688 L 465.402344 499.714844 C 465.21875 500.28125 462.925781 505.929688 457.230469 508.269531 C 455.621094 508.925781 453.917969 509.257812 452.136719 509.257812 Z M 484.058594 317.4375 L 484.058594 317.449219 L 483.113281 317.832031 L 286.769531 395.832031 C 286.617188 395.890625 278.828125 398.734375 279.355469 403.066406 C 279.933594 407.761719 286.410156 410.210938 286.476562 410.230469 L 335.835938 427.054688 L 365.386719 441.507812 L 446.394531 504.363281 C 449.734375 505.769531 453.03125 506.027344 455.847656 504.875 C 460.117188 503.125 461.890625 498.734375 461.90625 498.691406 L 496.734375 320.652344 C 496.703125 318.644531 496.132812 317.3125 495.003906 316.578125 C 492.25 314.8125 486.570312 316.484375 484.058594 317.4375 Z M 484.058594 317.4375 " fill-opacity="1" fill-rule="nonzero"/><path fill="#d2e5f1" d="M 358.375 497.351562 C 358.375 497.351562 356.023438 497.128906 353.085938 487.714844 C 350.152344 478.304688 335.234375 428.777344 335.234375 428.777344 L 453.824219 352.503906 C 453.824219 352.503906 460.667969 348.292969 460.425781 352.503906 C 460.425781 352.503906 461.640625 353.246094 457.980469 356.71875 C 454.316406 360.191406 364.816406 441.652344 364.816406 441.652344 Z M 358.375 497.351562 " fill-opacity="1" fill-rule="nonzero"/><path fill="#472b29" d="M 359.988281 499.335938 L 358.207031 499.175781 C 356.871094 499.050781 354.207031 497.472656 351.332031 488.261719 C 348.402344 478.855469 333.476562 429.3125 333.476562 429.3125 L 333.074219 427.988281 L 334.238281 427.238281 L 452.828125 350.972656 C 454.433594 349.976562 458.351562 347.882812 460.71875 349.296875 C 461.253906 349.609375 462.082031 350.335938 462.242188 351.816406 L 462.441406 352.703125 C 462.59375 354.160156 461.613281 355.816406 459.246094 358.050781 C 455.714844 361.402344 374.53125 435.300781 366.566406 442.554688 Z M 337.382812 429.570312 C 339.769531 437.5 352.183594 478.671875 354.828125 487.164062 C 355.648438 489.796875 356.402344 491.625 357.042969 492.886719 L 363.070312 440.757812 L 363.578125 440.296875 C 364.472656 439.484375 453.105469 358.808594 456.710938 355.378906 C 457.742188 354.394531 458.265625 353.738281 458.535156 353.347656 L 458.585938 352.46875 C 457.765625 352.570312 456.101562 353.246094 454.769531 354.066406 Z M 337.382812 429.570312 " fill-opacity="1" fill-rule="nonzero"/><path fill="#472b29" d="M 452.136719 511.089844 C 449.5 511.089844 446.703125 510.445312 443.785156 509.15625 L 443.132812 508.78125 L 393.972656 473.59375 L 366.082031 499.320312 C 365.429688 499.855469 361.722656 502.558594 357.3125 500.867188 C 352.972656 499.6875 350.453125 491.597656 349.582031 488.804688 C 347.125 480.929688 336.253906 444.871094 332.785156 433.378906 L 332.265625 431.65625 L 284.679688 415.433594 C 284.226562 415.273438 274.90625 411.84375 273.910156 403.746094 C 273.046875 396.726562 280.410156 392.226562 284.902344 390.675781 L 481.089844 312.730469 L 481.113281 312.789062 C 484.21875 311.257812 491.421875 309.242188 496.273438 311.105469 C 498.5 311.96875 502.238281 314.371094 502.238281 320.835938 L 467.203125 500.074219 C 466.75 501.394531 464.230469 507.382812 457.925781 509.976562 C 456.089844 510.714844 454.160156 511.089844 452.136719 511.089844 Z M 447.082031 502.597656 C 450.183594 503.902344 452.894531 504.082031 455.144531 503.175781 C 458.585938 501.769531 460.183594 498.054688 460.199219 498.015625 L 494.976562 320.125 C 494.910156 319.414062 494.609375 318.503906 494.015625 318.132812 C 492.402344 317.082031 488.300781 317.847656 485.339844 318.910156 L 485.332031 318.921875 L 287.445312 397.535156 C 285.03125 398.382812 280.914062 400.742188 281.171875 402.839844 C 281.550781 405.917969 285.933594 408.09375 287.09375 408.503906 L 337.996094 425.855469 L 338.621094 427.421875 C 338.621094 427.429688 339.066406 428.835938 339.792969 431.246094 C 343.257812 442.730469 354.117188 478.738281 356.570312 486.621094 C 358.191406 491.824219 359.488281 493.570312 359.875 494 C 360.582031 494.28125 361.414062 493.691406 361.421875 493.679688 L 393.386719 464.164062 Z M 447.082031 502.597656 " fill-opacity="1" fill-rule="nonzero"/></svg>