<svg xmlns="http://www.w3.org/2000/svg" xmlns:xlink="http://www.w3.org/1999/xlink" width="1080" zoomAndPan="magnify" viewBox="0 0 810 809.999993" height="1080" preserveAspectRatio="xMidYMid meet" version="1.0"><path fill="#5e17eb" d="M 648 729 L 162 729 C 117.289062 729 81 692.710938 81 648 L 81 162 C 81 117.289062 117.289062 81 162 81 L 648 81 C 692.710938 81 729 117.289062 729 162 L 729 648 C 729 692.710938 692.710938 729 648 729 Z M 648 729 " fill-opacity="1" fill-rule="nonzero"/><path fill="#000000" d="M 329.832031 569.59375 C 482.597656 569.59375 566.191406 442.90625 566.191406 333.234375 C 566.191406 329.671875 566.191406 326.105469 566.027344 322.542969 C 582.226562 310.878906 596.320312 296.136719 607.5 279.449219 C 592.597656 286.09375 576.558594 290.464844 559.710938 292.570312 C 576.882812 282.367188 590.003906 266.003906 596.320312 246.5625 C 580.285156 256.121094 562.464844 262.925781 543.511719 266.652344 C 528.28125 250.453125 506.734375 240.40625 482.921875 240.40625 C 437.074219 240.40625 399.816406 277.667969 399.816406 323.515625 C 399.816406 329.992188 400.625 336.3125 401.921875 342.46875 C 332.910156 339.066406 271.675781 305.855469 230.6875 255.636719 C 223.558594 267.949219 219.511719 282.203125 219.511719 297.433594 C 219.511719 326.269531 234.253906 351.703125 256.445312 366.605469 C 242.839844 366.121094 230.039062 362.394531 218.863281 356.238281 C 218.863281 356.5625 218.863281 356.886719 218.863281 357.371094 C 218.863281 397.546875 247.535156 431.242188 285.445312 438.859375 C 278.476562 440.800781 271.1875 441.773438 263.574219 441.773438 C 258.226562 441.773438 253.042969 441.289062 248.023438 440.316406 C 258.550781 473.363281 289.332031 497.339844 325.621094 497.988281 C 297.109375 520.34375 261.304688 533.628906 222.425781 533.628906 C 215.785156 533.628906 209.140625 533.304688 202.660156 532.492188 C 239.273438 555.820312 283.015625 569.59375 329.832031 569.59375 " fill-opacity="1" fill-rule="nonzero"/></svg>