<svg xmlns="http://www.w3.org/2000/svg" xmlns:xlink="http://www.w3.org/1999/xlink" width="1080" zoomAndPan="magnify" viewBox="0 0 810 809.999993" height="1080" preserveAspectRatio="xMidYMid meet" version="1.0"><path fill="#ff0000" d="M 714.855469 248.519531 C 713.925781 245.101562 712.78125 241.753906 711.417969 238.480469 C 710.054688 235.210938 708.484375 232.039062 706.707031 228.972656 C 704.929688 225.90625 702.960938 222.96875 700.800781 220.15625 C 698.640625 217.347656 696.304688 214.6875 693.800781 212.179688 C 691.292969 209.675781 688.632812 207.339844 685.824219 205.179688 C 683.011719 203.019531 680.074219 201.050781 677.003906 199.273438 C 673.9375 197.5 670.769531 195.925781 667.496094 194.5625 C 664.226562 193.199219 660.878906 192.054688 657.457031 191.125 C 607.136719 177.386719 404.59375 177.386719 404.59375 177.386719 C 404.59375 177.386719 202.042969 177.792969 151.714844 191.53125 C 148.292969 192.457031 144.945312 193.605469 141.671875 194.96875 C 138.402344 196.332031 135.230469 197.902344 132.164062 199.679688 C 129.097656 201.457031 126.15625 203.425781 123.347656 205.585938 C 120.535156 207.746094 117.878906 210.078125 115.371094 212.585938 C 112.863281 215.09375 110.53125 217.75 108.371094 220.5625 C 106.210938 223.371094 104.242188 226.3125 102.464844 229.378906 C 100.6875 232.445312 99.117188 235.613281 97.753906 238.886719 C 96.386719 242.160156 95.242188 245.503906 94.3125 248.925781 C 81 299.253906 81 404.480469 81 404.480469 C 81 404.480469 81 509.703125 94.730469 560.4375 C 95.65625 563.855469 96.804688 567.203125 98.167969 570.476562 C 99.53125 573.746094 101.101562 576.917969 102.878906 579.984375 C 104.65625 583.050781 106.625 585.988281 108.785156 588.800781 C 110.945312 591.613281 113.28125 594.269531 115.785156 596.777344 C 118.292969 599.28125 120.953125 601.617188 123.761719 603.777344 C 126.574219 605.9375 129.511719 607.90625 132.578125 609.683594 C 135.648438 611.460938 138.816406 613.03125 142.089844 614.394531 C 145.359375 615.757812 148.707031 616.902344 152.128906 617.832031 C 202.449219 631.570312 405 631.570312 405 631.570312 C 405 631.570312 607.550781 631.570312 657.882812 617.84375 C 661.304688 616.914062 664.648438 615.769531 667.921875 614.402344 C 671.195312 613.039062 674.363281 611.46875 677.429688 609.691406 C 680.5 607.914062 683.4375 605.945312 686.246094 603.785156 C 689.058594 601.625 691.71875 599.292969 694.222656 596.785156 C 696.730469 594.28125 699.0625 591.621094 701.222656 588.8125 C 703.382812 586 705.351562 583.0625 707.128906 579.996094 C 708.90625 576.925781 710.476562 573.757812 711.84375 570.484375 C 713.207031 567.214844 714.351562 563.867188 715.28125 560.445312 C 729 510.117188 729 404.480469 729 404.480469 C 729 404.480469 728.59375 299.253906 714.855469 248.519531 Z M 714.855469 248.519531 " fill-opacity="1" fill-rule="nonzero"/><path fill="#ffffff" d="M 340.117188 501.796875 L 508.144531 404.480469 L 340.109375 307.164062 Z M 340.117188 501.796875 " fill-opacity="1" fill-rule="nonzero"/></svg>