<svg xmlns="http://www.w3.org/2000/svg" xmlns:xlink="http://www.w3.org/1999/xlink" width="1080" zoomAndPan="magnify" viewBox="0 0 810 809.999993" height="1080" preserveAspectRatio="xMidYMid meet" version="1.0"><defs><g/></defs><g fill="#fae737" fill-opacity="1"><g transform="translate(18.14804, 453.562497)"><g><path d="M 38.09375 0 L 15.75 0 C 13.851562 0 12.476562 -0.421875 11.625 -1.265625 C 10.769531 -2.117188 10.34375 -3.5 10.34375 -5.40625 L 10.34375 -102.59375 C 10.34375 -104.5 10.769531 -105.875 11.625 -106.71875 C 12.476562 -107.570312 13.851562 -108 15.75 -108 L 39.90625 -108 C 41.5 -108 42.820312 -107.648438 43.875 -106.953125 C 44.925781 -106.253906 45.898438 -105.101562 46.796875 -103.5 L 60.296875 -79.046875 C 60.796875 -78.148438 61.21875 -77.5 61.5625 -77.09375 C 61.914062 -76.695312 62.394531 -76.5 63 -76.5 L 64.34375 -76.5 C 64.945312 -76.5 65.421875 -76.695312 65.765625 -77.09375 C 66.117188 -77.5 66.546875 -78.148438 67.046875 -79.046875 L 80.40625 -103.5 C 81.300781 -105.101562 82.273438 -106.253906 83.328125 -106.953125 C 84.378906 -107.648438 85.703125 -108 87.296875 -108 L 111.59375 -108 C 113.5 -108 114.875 -107.570312 115.71875 -106.71875 C 116.570312 -105.875 117 -104.5 117 -102.59375 L 117 -5.40625 C 117 -3.5 116.570312 -2.117188 115.71875 -1.265625 C 114.875 -0.421875 113.5 0 111.59375 0 L 88.5 0 C 86.601562 0 85.226562 -0.421875 84.375 -1.265625 C 83.519531 -2.117188 83.09375 -3.5 83.09375 -5.40625 L 83.09375 -58.203125 L 74.25 -41.84375 C 73.351562 -40.144531 72.28125 -38.921875 71.03125 -38.171875 C 69.78125 -37.421875 68.203125 -37.046875 66.296875 -37.046875 L 60.296875 -37.046875 C 58.398438 -37.046875 56.828125 -37.421875 55.578125 -38.171875 C 54.328125 -38.921875 53.25 -40.144531 52.34375 -41.84375 L 43.5 -58.203125 L 43.5 -5.40625 C 43.5 -3.5 43.070312 -2.117188 42.21875 -1.265625 C 41.375 -0.421875 40 0 38.09375 0 Z M 38.09375 0 "/></g></g></g><g fill="#fae737" fill-opacity="1"><g transform="translate(145.498056, 453.562497)"><g><path d="M 101.84375 -28.34375 C 101.84375 -23.75 101.164062 -19.578125 99.8125 -15.828125 C 98.46875 -12.078125 96.070312 -8.875 92.625 -6.21875 C 89.175781 -3.570312 84.425781 -1.5 78.375 0 C 72.320312 1.5 64.644531 2.25 55.34375 2.25 C 46.050781 2.25 38.351562 1.5 32.25 0 C 26.144531 -1.5 21.367188 -3.570312 17.921875 -6.21875 C 14.472656 -8.875 12.070312 -12.078125 10.71875 -15.828125 C 9.375 -19.578125 8.703125 -23.75 8.703125 -28.34375 L 8.703125 -79.5 C 8.703125 -84.101562 9.375 -88.28125 10.71875 -92.03125 C 12.070312 -95.78125 14.472656 -99.003906 17.921875 -101.703125 C 21.367188 -104.398438 26.144531 -106.5 32.25 -108 C 38.351562 -109.5 46.050781 -110.25 55.34375 -110.25 C 64.644531 -110.25 72.320312 -109.5 78.375 -108 C 84.425781 -106.5 89.175781 -104.398438 92.625 -101.703125 C 96.070312 -99.003906 98.46875 -95.78125 99.8125 -92.03125 C 101.164062 -88.28125 101.84375 -84.101562 101.84375 -79.5 Z M 42.75 -33.75 C 42.75 -31.75 43.5 -30.070312 45 -28.71875 C 46.5 -27.375 49.945312 -26.703125 55.34375 -26.703125 C 60.75 -26.703125 64.203125 -27.375 65.703125 -28.71875 C 67.203125 -30.070312 67.953125 -31.75 67.953125 -33.75 L 67.953125 -74.09375 C 67.953125 -76 67.203125 -77.625 65.703125 -78.96875 C 64.203125 -80.320312 60.75 -81 55.34375 -81 C 49.945312 -81 46.5 -80.320312 45 -78.96875 C 43.5 -77.625 42.75 -76 42.75 -74.09375 Z M 42.75 -33.75 "/></g></g></g><g fill="#fae737" fill-opacity="1"><g transform="translate(256.04808, 453.562497)"><g><path d="M 39 0 L 15.75 0 C 13.851562 0 12.476562 -0.421875 11.625 -1.265625 C 10.769531 -2.117188 10.34375 -3.5 10.34375 -5.40625 L 10.34375 -102.59375 C 10.34375 -104.5 10.769531 -105.875 11.625 -106.71875 C 12.476562 -107.570312 13.851562 -108 15.75 -108 L 39 -108 C 40.894531 -108 42.269531 -107.570312 43.125 -106.71875 C 43.976562 -105.875 44.40625 -104.5 44.40625 -102.59375 L 44.40625 -68.09375 L 50.40625 -68.09375 L 65.84375 -103.046875 C 66.550781 -104.847656 67.503906 -106.125 68.703125 -106.875 C 69.898438 -107.625 71.445312 -108 73.34375 -108 L 96.453125 -108 C 98.148438 -108 99.296875 -107.570312 99.890625 -106.71875 C 100.492188 -105.875 100.445312 -104.648438 99.75 -103.046875 L 84.453125 -68.09375 C 90.046875 -67.800781 94.519531 -65.828125 97.875 -62.171875 C 101.226562 -58.523438 102.90625 -53.703125 102.90625 -47.703125 L 102.90625 -5.40625 C 102.90625 -3.5 102.476562 -2.117188 101.625 -1.265625 C 100.769531 -0.421875 99.394531 0 97.5 0 L 74.40625 0 C 72.5 0 71.117188 -0.421875 70.265625 -1.265625 C 69.421875 -2.117188 69 -3.5 69 -5.40625 L 69 -34.65625 C 69 -36.25 68.597656 -37.492188 67.796875 -38.390625 C 66.992188 -39.296875 65.796875 -39.75 64.203125 -39.75 L 44.40625 -39.75 L 44.40625 -5.40625 C 44.40625 -3.5 43.976562 -2.117188 43.125 -1.265625 C 42.269531 -0.421875 40.894531 0 39 0 Z M 39 0 "/></g></g></g><g fill="#fae737" fill-opacity="1"><g transform="translate(367.948107, 453.562497)"><g><path d="M 85.34375 0 L 15.75 0 C 13.851562 0 12.476562 -0.421875 11.625 -1.265625 C 10.769531 -2.117188 10.34375 -3.5 10.34375 -5.40625 L 10.34375 -102.59375 C 10.34375 -104.5 10.769531 -105.875 11.625 -106.71875 C 12.476562 -107.570312 13.851562 -108 15.75 -108 L 85.34375 -108 C 87.25 -108 88.625 -107.570312 89.46875 -106.71875 C 90.320312 -105.875 90.75 -104.5 90.75 -102.59375 L 90.75 -85.046875 C 90.75 -83.148438 90.320312 -81.773438 89.46875 -80.921875 C 88.625 -80.078125 87.25 -79.65625 85.34375 -79.65625 L 43.953125 -79.65625 L 43.953125 -68.09375 L 73.203125 -68.09375 C 75.097656 -68.09375 76.46875 -67.664062 77.3125 -66.8125 C 78.164062 -65.96875 78.59375 -64.597656 78.59375 -62.703125 L 78.59375 -46.65625 C 78.59375 -44.75 78.164062 -43.367188 77.3125 -42.515625 C 76.46875 -41.671875 75.097656 -41.25 73.203125 -41.25 L 43.953125 -41.25 L 43.953125 -28.34375 L 85.34375 -28.34375 C 87.25 -28.34375 88.625 -27.914062 89.46875 -27.0625 C 90.320312 -26.21875 90.75 -24.847656 90.75 -22.953125 L 90.75 -5.40625 C 90.75 -3.5 90.320312 -2.117188 89.46875 -1.265625 C 88.625 -0.421875 87.25 0 85.34375 0 Z M 85.34375 0 "/></g></g></g><g fill="#fae737" fill-opacity="1"><g transform="translate(466.048115, 453.562497)"><g><path d="M 39 0 L 15.75 0 C 13.851562 0 12.476562 -0.421875 11.625 -1.265625 C 10.769531 -2.117188 10.34375 -3.5 10.34375 -5.40625 L 10.34375 -102.59375 C 10.34375 -104.5 10.769531 -105.875 11.625 -106.71875 C 12.476562 -107.570312 13.851562 -108 15.75 -108 L 61.65625 -108 C 75.25 -108 84.546875 -105.296875 89.546875 -99.890625 C 94.546875 -94.492188 97.046875 -87.445312 97.046875 -78.75 L 97.046875 -59.546875 C 97.046875 -50.847656 94.546875 -43.796875 89.546875 -38.390625 C 84.546875 -32.992188 75.25 -30.296875 61.65625 -30.296875 L 44.40625 -30.296875 L 44.40625 -5.40625 C 44.40625 -3.5 43.976562 -2.117188 43.125 -1.265625 C 42.269531 -0.421875 40.894531 0 39 0 Z M 44.09375 -79.953125 L 44.09375 -57.296875 L 57.59375 -57.296875 C 60.5 -57.296875 62.398438 -58.046875 63.296875 -59.546875 C 64.203125 -61.046875 64.65625 -62.75 64.65625 -64.65625 L 64.65625 -72.59375 C 64.65625 -74.5 64.203125 -76.203125 63.296875 -77.703125 C 62.398438 -79.203125 60.5 -79.953125 57.59375 -79.953125 Z M 44.09375 -79.953125 "/></g></g></g><g fill="#fae737" fill-opacity="1"><g transform="translate(568.348128, 453.562497)"><g><path d="M 101.84375 -28.34375 C 101.84375 -23.75 101.164062 -19.578125 99.8125 -15.828125 C 98.46875 -12.078125 96.070312 -8.875 92.625 -6.21875 C 89.175781 -3.570312 84.425781 -1.5 78.375 0 C 72.320312 1.5 64.644531 2.25 55.34375 2.25 C 46.050781 2.25 38.351562 1.5 32.25 0 C 26.144531 -1.5 21.367188 -3.570312 17.921875 -6.21875 C 14.472656 -8.875 12.070312 -12.078125 10.71875 -15.828125 C 9.375 -19.578125 8.703125 -23.75 8.703125 -28.34375 L 8.703125 -79.5 C 8.703125 -84.101562 9.375 -88.28125 10.71875 -92.03125 C 12.070312 -95.78125 14.472656 -99.003906 17.921875 -101.703125 C 21.367188 -104.398438 26.144531 -106.5 32.25 -108 C 38.351562 -109.5 46.050781 -110.25 55.34375 -110.25 C 64.644531 -110.25 72.320312 -109.5 78.375 -108 C 84.425781 -106.5 89.175781 -104.398438 92.625 -101.703125 C 96.070312 -99.003906 98.46875 -95.78125 99.8125 -92.03125 C 101.164062 -88.28125 101.84375 -84.101562 101.84375 -79.5 Z M 42.75 -33.75 C 42.75 -31.75 43.5 -30.070312 45 -28.71875 C 46.5 -27.375 49.945312 -26.703125 55.34375 -26.703125 C 60.75 -26.703125 64.203125 -27.375 65.703125 -28.71875 C 67.203125 -30.070312 67.953125 -31.75 67.953125 -33.75 L 67.953125 -74.09375 C 67.953125 -76 67.203125 -77.625 65.703125 -78.96875 C 64.203125 -80.320312 60.75 -81 55.34375 -81 C 49.945312 -81 46.5 -80.320312 45 -78.96875 C 43.5 -77.625 42.75 -76 42.75 -74.09375 Z M 42.75 -33.75 "/></g></g></g><g fill="#fae737" fill-opacity="1"><g transform="translate(678.898141, 453.562497)"><g><path d="M 38.25 0 L 15.75 0 C 13.851562 0 12.476562 -0.421875 11.625 -1.265625 C 10.769531 -2.117188 10.34375 -3.5 10.34375 -5.40625 L 10.34375 -102.59375 C 10.34375 -104.5 10.769531 -105.875 11.625 -106.71875 C 12.476562 -107.570312 13.851562 -108 15.75 -108 L 31.34375 -108 C 33.25 -108 34.875 -107.695312 36.21875 -107.09375 C 37.570312 -106.5 38.898438 -105.453125 40.203125 -103.953125 L 69.296875 -70.65625 L 69.296875 -102.59375 C 69.296875 -104.5 69.71875 -105.875 70.5625 -106.71875 C 71.414062 -107.570312 72.796875 -108 74.703125 -108 L 97.203125 -108 C 99.097656 -108 100.46875 -107.570312 101.3125 -106.71875 C 102.164062 -105.875 102.59375 -104.5 102.59375 -102.59375 L 102.59375 -5.40625 C 102.59375 -3.5 102.164062 -2.117188 101.3125 -1.265625 C 100.46875 -0.421875 99.097656 0 97.203125 0 L 74.703125 0 C 72.796875 0 71.414062 -0.421875 70.5625 -1.265625 C 69.71875 -2.117188 69.296875 -3.5 69.296875 -5.40625 L 69.296875 -23.84375 L 43.65625 -54.90625 L 43.65625 -5.40625 C 43.65625 -3.5 43.226562 -2.117188 42.375 -1.265625 C 41.519531 -0.421875 40.144531 0 38.25 0 Z M 38.25 0 "/></g></g></g><path stroke-linecap="butt" transform="matrix(0.75, 0, 0, 0.75, -237.531635, 348.750002)" fill="none" stroke-linejoin="miter" d="M 391.688033 147.000004 L 361.901573 147.000004 C 359.365115 147.000004 357.526573 146.432296 356.385948 145.291671 C 355.276573 144.151046 354.724489 142.328129 354.724489 139.82292 L 354.724489 10.182289 C 354.724489 7.67708 355.276573 5.854164 356.385948 4.713539 C 357.526573 3.578122 359.365115 3.005205 361.901573 3.005205 L 394.130741 3.005205 C 396.245325 3.005205 398.000533 3.479164 399.401575 4.421872 C 400.802617 5.33333 402.1047 6.86458 403.307825 9.010414 L 421.328659 41.578124 C 421.979701 42.786457 422.531785 43.661457 422.98491 44.218749 C 423.474493 44.739582 424.10991 44.999999 424.89116 44.999999 L 426.698451 44.999999 C 427.510951 44.999999 428.146368 44.739582 428.599493 44.218749 C 429.057827 43.661457 429.625535 42.786457 430.313035 41.578124 L 448.083869 9.010414 C 449.286994 6.86458 450.589078 5.33333 451.990119 4.421872 C 453.391161 3.479164 455.161994 3.005205 457.313036 3.005205 L 489.688038 3.005205 C 492.224496 3.005205 494.063038 3.578122 495.203663 4.713539 C 496.344288 5.854164 496.911997 7.67708 496.911997 10.182289 L 496.911997 139.82292 C 496.911997 142.328129 496.344288 144.151046 495.203663 145.291671 C 494.063038 146.432296 492.224496 147.000004 489.688038 147.000004 L 458.922411 147.000004 C 456.385953 147.000004 454.547411 146.432296 453.406786 145.291671 C 452.266161 144.151046 451.698453 142.328129 451.698453 139.82292 L 451.698453 69.411459 L 439.927619 91.187501 C 438.724494 93.468751 437.276577 95.109377 435.583869 96.119793 C 433.92241 97.09896 431.823452 97.583335 429.286993 97.583335 L 421.328659 97.583335 C 418.786993 97.583335 416.672409 97.09896 414.979701 96.119793 C 413.318242 95.109377 411.901576 93.468751 410.729701 91.187501 L 398.911992 69.411459 L 398.911992 139.82292 C 398.911992 142.328129 398.344283 144.151046 397.203658 145.291671 C 396.068242 146.432296 394.224491 147.000004 391.688033 147.000004 Z M 646.495337 109.208336 C 646.495337 115.328128 645.604712 120.890628 643.813046 125.906253 C 642.021379 130.88542 638.813045 135.151045 634.193254 138.69792 C 629.604712 142.244796 623.271378 145.015629 615.198461 147.000004 C 607.125544 148.984379 596.88596 149.979171 584.484918 149.979171 C 572.083875 149.979171 561.813042 148.984379 553.677624 147.000004 C 545.568249 145.015629 539.203665 142.244796 534.583873 138.69792 C 529.995332 135.151045 526.802623 130.88542 525.010956 125.906253 C 523.224498 120.890628 522.328665 115.328128 522.328665 109.208336 L 522.328665 40.99479 C 522.328665 34.874998 523.224498 29.322915 525.010956 24.343748 C 526.802623 19.333331 529.995332 15.015622 534.583873 11.406247 C 539.203665 7.791664 545.568249 4.98958 553.677624 3.005205 C 561.813042 0.98958 572.083875 -0.0208366 584.484918 -0.0208366 C 596.88596 -0.0208366 607.125544 0.98958 615.198461 3.005205 C 623.271378 4.98958 629.604712 7.791664 634.193254 11.406247 C 638.813045 15.015622 642.021379 19.333331 643.813046 24.343748 C 645.604712 29.322915 646.495337 34.874998 646.495337 40.99479 Z M 567.688042 101.979169 C 567.688042 104.651044 568.682834 106.895835 570.667209 108.718752 C 572.688042 110.510419 577.292209 111.406252 584.484918 111.406252 C 591.714085 111.406252 596.318252 110.510419 598.302627 108.718752 C 600.29221 106.895835 601.281794 104.651044 601.281794 101.979169 L 601.281794 48.218749 C 601.281794 45.682291 600.29221 43.515624 598.302627 41.729165 C 596.318252 39.906249 591.714085 38.99479 584.484918 38.99479 C 577.292209 38.99479 572.688042 39.906249 570.667209 41.729165 C 568.682834 43.515624 567.688042 45.682291 567.688042 48.218749 Z M 710.109924 147.000004 L 679.104714 147.000004 C 676.563047 147.000004 674.724506 146.432296 673.58388 145.291671 C 672.479714 144.151046 671.922422 142.328129 671.922422 139.82292 L 671.922422 10.182289 C 671.922422 7.67708 672.479714 5.854164 673.58388 4.713539 C 674.724506 3.578122 676.563047 3.005205 679.104714 3.005205 L 710.109924 3.005205 C 712.646382 3.005205 714.469299 3.578122 715.578674 4.713539 C 716.714091 5.854164 717.287008 7.67708 717.287008 10.182289 L 717.287008 56.182291 L 725.292216 56.182291 L 745.901592 9.598956 C 746.844301 7.187497 748.115134 5.494789 749.708884 4.52083 C 751.302634 3.510414 753.370343 3.005205 755.906801 3.005205 L 786.719303 3.005205 C 788.964095 3.005205 790.495345 3.578122 791.307845 4.713539 C 792.125553 5.854164 792.057845 7.484372 791.115136 9.598956 L 770.703677 56.182291 C 778.156802 56.604166 784.115136 59.255208 788.57347 64.140625 C 793.068261 68.989584 795.313053 75.401042 795.313053 83.375001 L 795.313053 139.82292 C 795.313053 142.328129 794.745345 144.151046 793.60472 145.291671 C 792.464095 146.432296 790.625553 147.000004 788.089095 147.000004 L 757.323468 147.000004 C 754.78701 147.000004 752.948468 146.432296 751.807843 145.291671 C 750.667218 144.151046 750.099509 142.328129 750.099509 139.82292 L 750.099509 100.807293 C 750.099509 98.66146 749.563051 97.000002 748.484926 95.828127 C 747.443259 94.625001 745.849509 94.020835 743.703676 94.020835 L 717.287008 94.020835 L 717.287008 139.82292 C 717.287008 142.328129 716.714091 144.151046 715.578674 145.291671 C 714.469299 146.432296 712.646382 147.000004 710.109924 147.000004 Z M 921.12556 147.000004 L 828.302638 147.000004 C 825.760971 147.000004 823.92243 146.432296 822.787013 145.291671 C 821.677638 144.151046 821.125555 142.328129 821.125555 139.82292 L 821.125555 10.182289 C 821.125555 7.67708 821.677638 5.854164 822.787013 4.713539 C 823.92243 3.578122 825.760971 3.005205 828.302638 3.005205 L 921.12556 3.005205 C 923.630768 3.005205 925.453685 3.578122 926.59431 4.713539 C 927.734935 5.854164 928.302643 7.67708 928.302643 10.182289 L 928.302643 33.61979 C 928.302643 36.130207 927.734935 37.953124 926.59431 39.08854 C 925.453685 40.229165 923.630768 40.796874 921.12556 40.796874 L 865.901598 40.796874 L 865.901598 56.182291 L 904.912017 56.182291 C 907.453684 56.182291 909.276601 56.75 910.380767 57.890625 C 911.521392 59.026041 912.089101 60.869791 912.089101 63.40625 L 912.089101 84.791668 C 912.089101 87.333334 911.521392 89.171876 910.380767 90.312501 C 909.276601 91.447918 907.453684 92.020835 904.912017 92.020835 L 865.901598 92.020835 L 865.901598 109.208336 L 921.12556 109.208336 C 923.630768 109.208336 925.453685 109.776044 926.59431 110.916669 C 927.734935 112.020836 928.302643 113.843752 928.302643 116.385419 L 928.302643 139.82292 C 928.302643 142.328129 927.734935 144.151046 926.59431 145.291671 C 925.453685 146.432296 923.630768 147.000004 921.12556 147.000004 Z M 990.109938 147.000004 L 959.104728 147.000004 C 956.563061 147.000004 954.72452 146.432296 953.583895 145.291671 C 952.479728 144.151046 951.922436 142.328129 951.922436 139.82292 L 951.922436 10.182289 C 951.922436 7.67708 952.479728 5.854164 953.583895 4.713539 C 954.72452 3.578122 956.563061 3.005205 959.104728 3.005205 L 1020.281815 3.005205 C 1038.448482 3.005205 1050.849524 6.604164 1057.49015 13.796872 C 1064.162025 20.989581 1067.500567 30.40104 1067.500567 42.020832 L 1067.500567 67.604167 C 1067.500567 79.192709 1064.162025 88.59896 1057.49015 95.828127 C 1050.849524 103.020835 1038.448482 106.619794 1020.281815 106.619794 L 997.287022 106.619794 L 997.287022 139.82292 C 997.287022 142.328129 996.714105 144.151046 995.578688 145.291671 C 994.469313 146.432296 992.646397 147.000004 990.109938 147.000004 Z M 996.896397 40.406249 L 996.896397 70.583334 L 1014.912023 70.583334 C 1018.787023 70.583334 1021.307856 69.59375 1022.479731 67.604167 C 1023.688065 65.588542 1024.287023 63.322917 1024.287023 60.817708 L 1024.287023 50.223958 C 1024.287023 47.682291 1023.688065 45.421874 1022.479731 43.437499 C 1021.307856 41.416665 1018.787023 40.406249 1014.912023 40.406249 Z M 1210.297449 109.208336 C 1210.297449 115.328128 1209.401616 120.890628 1207.609949 125.906253 C 1205.823491 130.88542 1202.615157 135.151045 1197.990157 138.69792 C 1193.401615 142.244796 1187.07349 145.015629 1179.000573 147.000004 C 1170.927656 148.984379 1160.688072 149.979171 1148.287029 149.979171 C 1135.880779 149.979171 1125.615153 148.984379 1117.474528 147.000004 C 1109.370361 145.015629 1103.005777 142.244796 1098.380777 138.69792 C 1093.792235 135.151045 1090.604735 130.88542 1088.813068 125.906253 C 1087.021401 120.890628 1086.125568 115.328128 1086.125568 109.208336 L 1086.125568 40.99479 C 1086.125568 34.874998 1087.021401 29.322915 1088.813068 24.343748 C 1090.604735 19.333331 1093.792235 15.015622 1098.380777 11.406247 C 1103.005777 7.791664 1109.370361 4.98958 1117.474528 3.005205 C 1125.615153 0.98958 1135.880779 -0.0208366 1148.287029 -0.0208366 C 1160.688072 -0.0208366 1170.927656 0.98958 1179.000573 3.005205 C 1187.07349 4.98958 1193.401615 7.791664 1197.990157 11.406247 C 1202.615157 15.015622 1205.823491 19.333331 1207.609949 24.343748 C 1209.401616 29.322915 1210.297449 34.874998 1210.297449 40.99479 Z M 1131.490154 101.979169 C 1131.490154 104.651044 1132.479737 106.895835 1134.46932 108.718752 C 1136.484945 110.510419 1141.089112 111.406252 1148.287029 111.406252 C 1155.510988 111.406252 1160.120363 110.510419 1162.104738 108.718752 C 1164.089113 106.895835 1165.083905 104.651044 1165.083905 101.979169 L 1165.083905 48.218749 C 1165.083905 45.682291 1164.089113 43.515624 1162.104738 41.729165 C 1160.120363 39.906249 1155.510988 38.99479 1148.287029 38.99479 C 1141.089112 38.99479 1136.484945 39.906249 1134.46932 41.729165 C 1132.479737 43.515624 1131.490154 45.682291 1131.490154 48.218749 Z M 1272.880786 147.000004 L 1242.901617 147.000004 C 1240.365159 147.000004 1238.526617 146.432296 1237.385992 145.291671 C 1236.276617 144.151046 1235.724534 142.328129 1235.724534 139.82292 L 1235.724534 10.182289 C 1235.724534 7.67708 1236.276617 5.854164 1237.385992 4.713539 C 1238.526617 3.578122 1240.365159 3.005205 1242.901617 3.005205 L 1263.703702 3.005205 C 1266.24016 3.005205 1268.406827 3.411455 1270.198494 4.229164 C 1271.990161 5.010414 1273.760994 6.390622 1275.521411 8.374997 L 1314.287038 52.812499 L 1314.287038 10.182289 C 1314.287038 7.67708 1314.859954 5.854164 1316.000579 4.713539 C 1317.135996 3.578122 1318.974538 3.005205 1321.516205 3.005205 L 1351.495373 3.005205 C 1354.03704 3.005205 1355.875581 3.578122 1357.016207 4.713539 C 1358.151623 5.854164 1358.72454 7.67708 1358.72454 10.182289 L 1358.72454 139.82292 C 1358.72454 142.328129 1358.151623 144.151046 1357.016207 145.291671 C 1355.875581 146.432296 1354.03704 147.000004 1351.495373 147.000004 L 1321.516205 147.000004 C 1318.974538 147.000004 1317.135996 146.432296 1316.000579 145.291671 C 1314.859954 144.151046 1314.287038 142.328129 1314.287038 139.82292 L 1314.287038 115.213544 L 1280.109953 73.807292 L 1280.109953 139.82292 C 1280.109953 142.328129 1279.542244 144.151046 1278.401619 145.291671 C 1277.260994 146.432296 1275.422452 147.000004 1272.880786 147.000004 Z M 1272.880786 147.000004 " stroke="#190d1b" stroke-width="10.75" stroke-opacity="1" stroke-miterlimit="4"/></svg>