<svg xmlns="http://www.w3.org/2000/svg" xmlns:xlink="http://www.w3.org/1999/xlink" width="1080" zoomAndPan="magnify" viewBox="0 0 810 809.999993" height="1080" preserveAspectRatio="xMidYMid meet" version="1.0"><defs><clipPath id="8c7c87b5d5"><path d="M 34 156.476562 L 776 156.476562 L 776 653.726562 L 34 653.726562 Z M 34 156.476562 " clip-rule="nonzero"/></clipPath></defs><path fill="#ffffff" d="M 35.324219 157.515625 L 774.308594 157.515625 L 774.308594 652.691406 L 35.324219 652.691406 Z M 35.324219 157.515625 " fill-opacity="1" fill-rule="nonzero"/><path fill="#c4c4c4" d="M 67.410156 550.132812 L 249.570312 550.132812 L 249.570312 574.996094 L 67.410156 574.996094 Z M 413.097656 550.132812 L 413.097656 574.996094 L 595.257812 574.996094 L 595.257812 550.132812 Z M 413.097656 550.132812 " fill-opacity="1" fill-rule="nonzero"/><g clip-path="url(#8c7c87b5d5)"><path fill="#000000" d="M 363.417969 226.921875 L 67.410156 226.921875 L 67.410156 193.773438 L 363.417969 193.773438 Z M 67.410156 533.558594 L 363.417969 533.558594 L 363.417969 508.695312 L 67.410156 508.695312 Z M 775.34375 156.476562 L 775.34375 653.726562 L 34.289062 653.726562 L 34.289062 156.476562 Z M 773.273438 264.214844 L 36.359375 264.214844 L 36.359375 651.65625 L 773.273438 651.65625 Z M 773.273438 158.550781 L 36.359375 158.550781 L 36.359375 262.144531 L 773.273438 262.144531 Z M 742.226562 487.976562 L 413.097656 487.976562 L 413.097656 322.226562 L 742.226562 322.226562 Z M 740.15625 324.300781 L 415.167969 324.300781 L 415.167969 485.90625 L 740.15625 485.90625 Z M 709.105469 508.695312 L 413.097656 508.695312 L 413.097656 533.558594 L 709.105469 533.558594 Z M 396.539062 487.976562 L 67.410156 487.976562 L 67.410156 322.226562 L 396.539062 322.226562 Z M 394.46875 324.300781 L 69.480469 324.300781 L 69.480469 485.90625 L 394.46875 485.90625 Z M 236.050781 394.039062 C 236.050781 391.078125 238.535156 388.671875 241.621094 388.671875 C 244.703125 388.671875 247.1875 391.078125 247.1875 394.039062 C 247.1875 397.003906 244.703125 399.40625 241.621094 399.40625 C 238.535156 399.40625 236.050781 397.023438 236.050781 394.039062 Z M 238.121094 394.039062 C 238.121094 395.863281 239.695312 397.332031 241.621094 397.332031 C 243.546875 397.332031 245.117188 395.84375 245.117188 394.039062 C 245.117188 392.238281 243.546875 390.746094 241.621094 390.746094 C 239.695312 390.746094 238.121094 392.238281 238.121094 394.039062 Z M 209.785156 419.542969 L 209.785156 390.683594 C 209.785156 386.871094 212.867188 383.785156 216.675781 383.785156 L 247.273438 383.785156 C 251.082031 383.785156 254.164062 386.871094 254.164062 390.683594 L 254.164062 419.542969 C 254.164062 423.355469 251.082031 426.445312 247.273438 426.445312 L 216.675781 426.445312 C 212.867188 426.445312 209.785156 423.335938 209.785156 419.542969 Z M 211.855469 413.847656 L 223.550781 402.636719 C 223.757812 402.453125 224.003906 402.347656 224.273438 402.347656 C 224.542969 402.347656 224.792969 402.453125 225 402.636719 L 237.230469 414.386719 L 244.289062 407.609375 C 244.683594 407.214844 245.324219 407.214844 245.71875 407.609375 L 252.09375 413.722656 L 252.09375 390.683594 C 252.09375 388.011719 249.921875 385.855469 247.273438 385.855469 L 216.675781 385.855469 C 214.007812 385.855469 211.855469 388.03125 211.855469 390.683594 Z M 211.855469 419.542969 C 211.855469 422.21875 214.027344 424.371094 216.675781 424.371094 L 247.273438 424.371094 C 249.941406 424.371094 252.09375 422.21875 252.09375 419.542969 L 252.09375 416.601562 L 244.996094 409.785156 L 237.9375 416.5625 C 237.542969 416.953125 236.902344 416.953125 236.507812 416.5625 L 224.273438 404.8125 L 211.875 416.726562 L 211.875 419.542969 Z M 581.738281 394.039062 C 581.738281 391.078125 584.222656 388.671875 587.285156 388.671875 C 590.351562 388.671875 592.835938 391.078125 592.835938 394.039062 C 592.835938 397.003906 590.351562 399.40625 587.285156 399.40625 C 584.222656 399.40625 581.738281 397.023438 581.738281 394.039062 Z M 583.808594 394.039062 C 583.808594 395.863281 585.382812 397.332031 587.285156 397.332031 C 589.191406 397.332031 590.765625 395.84375 590.765625 394.039062 C 590.765625 392.238281 589.191406 390.746094 587.285156 390.746094 C 585.382812 390.746094 583.808594 392.238281 583.808594 394.039062 Z M 555.472656 419.542969 L 555.472656 390.683594 C 555.472656 386.871094 558.554688 383.785156 562.363281 383.785156 L 592.957031 383.785156 C 596.765625 383.785156 599.851562 386.871094 599.851562 390.683594 L 599.851562 419.523438 C 599.851562 423.335938 596.765625 426.421875 592.957031 426.421875 L 562.363281 426.421875 C 558.554688 426.445312 555.472656 423.335938 555.472656 419.542969 Z M 557.542969 413.847656 L 569.238281 402.636719 C 569.445312 402.453125 569.691406 402.347656 569.960938 402.347656 C 570.230469 402.347656 570.480469 402.453125 570.6875 402.636719 L 582.917969 414.386719 L 590 407.609375 C 590.390625 407.214844 591.035156 407.214844 591.425781 407.609375 L 597.800781 413.722656 L 597.800781 390.683594 C 597.800781 388.011719 595.628906 385.855469 592.980469 385.855469 L 562.386719 385.855469 C 559.714844 385.855469 557.5625 388.03125 557.5625 390.683594 L 557.5625 413.847656 Z M 557.542969 419.542969 C 557.542969 422.21875 559.714844 424.371094 562.363281 424.371094 L 592.957031 424.371094 C 595.628906 424.371094 597.78125 422.21875 597.78125 419.542969 L 597.78125 416.601562 L 590.683594 409.785156 L 583.601562 416.5625 C 583.210938 416.953125 582.566406 416.953125 582.175781 416.5625 L 569.941406 404.8125 L 557.519531 416.726562 L 557.519531 419.542969 Z M 557.542969 419.542969 " fill-opacity="1" fill-rule="nonzero"/></g></svg>