<?xml version="1.0" encoding="UTF-8"?>
<svg xmlns="http://www.w3.org/2000/svg" xmlns:xlink="http://www.w3.org/1999/xlink" width="30pt" height="30.000001pt" viewBox="0 0 30 30.000001" version="1.2">
<g id="surface1">
<path style=" stroke:none;fill-rule:nonzero;fill:rgb(0%,0%,0%);fill-opacity:1;" d="M 9.179688 9.085938 C 8.773438 9.085938 8.550781 9.25 8.433594 9.390625 C 7.804688 10.136719 8.765625 11.730469 9.152344 12.234375 C 9.183594 12.277344 9.21875 12.316406 9.25 12.359375 C 9.238281 12.371094 9.230469 12.382812 9.21875 12.390625 C 9.097656 12.519531 8.964844 12.753906 9.011719 13.148438 C 9.070312 13.691406 9.472656 14.472656 10.132812 14.984375 C 9.796875 15.652344 10.746094 16.429688 10.941406 16.582031 C 11.085938 16.691406 11.242188 16.789062 11.410156 16.871094 C 10.277344 17.804688 9.476562 18.015625 8.941406 18.15625 C 8.796875 18.191406 8.320312 18.222656 8.300781 18.375 C 8.28125 18.5 8.558594 18.632812 8.691406 18.695312 C 10.746094 19.65625 12.84375 19.96875 13.75 19.949219 C 14.53125 19.929688 17.589844 19.851562 19.515625 17.449219 C 20.640625 16.042969 21.144531 14.15625 20.863281 12.457031 C 20.960938 12.355469 21.054688 12.253906 21.140625 12.140625 C 21.589844 11.554688 21.730469 10.933594 21.773438 10.519531 C 21.789062 10.351562 21.722656 10.191406 21.59375 10.082031 C 21.5 10.003906 21.386719 9.964844 21.269531 9.964844 C 21.222656 9.964844 21.179688 9.96875 21.136719 9.984375 L 20.453125 10.171875 L 19.902344 10.320312 C 19.347656 9.707031 18.609375 9.371094 17.785156 9.371094 C 16.074219 9.371094 15.152344 10.453125 14.558594 11.554688 C 10.875 9.347656 9.726562 9.082031 9.179688 9.082031 Z M 9.179688 9.589844 C 9.839844 9.589844 11.394531 10.21875 14.765625 12.269531 C 15.382812 10.949219 16.191406 9.875 17.785156 9.875 C 18.613281 9.875 19.269531 10.269531 19.71875 10.894531 C 20.234375 10.753906 20.753906 10.613281 21.269531 10.46875 C 21.242188 10.734375 21.152344 11.296875 20.738281 11.835938 C 20.597656 12.015625 20.449219 12.160156 20.3125 12.269531 C 20.945312 15.105469 19.125 19.441406 13.75 19.441406 C 12.355469 19.441406 10.722656 19.148438 8.832031 18.464844 C 8.832031 18.464844 8.847656 18.464844 8.878906 18.464844 C 9.15625 18.464844 10.613281 18.375 12.445312 16.652344 C 12.019531 16.59375 11.601562 16.453125 11.25 16.179688 C 10.921875 15.929688 10.46875 15.429688 10.585938 15.207031 C 10.640625 15.105469 10.804688 15.074219 11 15.074219 C 11.320312 15.074219 11.71875 15.160156 11.828125 15.160156 C 11.84375 15.160156 11.855469 15.160156 11.855469 15.152344 C 11.863281 15.109375 11.15625 15.070312 10.558594 14.667969 C 9.757812 14.125 9.316406 13.023438 9.585938 12.738281 C 9.632812 12.6875 9.710938 12.652344 9.835938 12.652344 C 10.007812 12.652344 10.273438 12.71875 10.683594 12.902344 C 10.390625 12.738281 9.945312 12.433594 9.550781 11.925781 C 9.007812 11.21875 8.527344 10.0625 8.820312 9.714844 C 8.886719 9.636719 9 9.589844 9.179688 9.589844 "/>
<path style=" stroke:none;fill-rule:nonzero;fill:rgb(99.609375%,66.668701%,20.779419%);fill-opacity:1;" d="M 19.296875 11.011719 C 19.953125 10.832031 20.609375 10.652344 21.269531 10.46875 C 21.242188 10.734375 21.152344 11.296875 20.738281 11.835938 C 20.503906 12.140625 20.242188 12.335938 20.050781 12.457031 C 19.914062 12.257812 19.777344 12.03125 19.640625 11.773438 C 19.5 11.503906 19.386719 11.246094 19.296875 11.011719 "/>
<path style=" stroke:none;fill-rule:nonzero;fill:rgb(0%,56.469727%,82.348633%);fill-opacity:1;" d="M 17.785156 9.875 C 22.589844 9.875 21.550781 23.078125 8.832031 18.464844 C 8.832031 18.464844 10.527344 18.582031 12.675781 16.429688 C 14.546875 14.558594 14.457031 9.875 17.785156 9.875 "/>
<path style=" stroke:none;fill-rule:nonzero;fill:rgb(0%,0%,0%);fill-opacity:1;" d="M 18.542969 11.011719 C 18.351562 11.011719 18.199219 11.164062 18.199219 11.355469 C 18.199219 11.542969 18.351562 11.699219 18.542969 11.699219 C 18.734375 11.699219 18.886719 11.542969 18.886719 11.355469 C 18.886719 11.164062 18.734375 11.011719 18.542969 11.011719 "/>
<path style=" stroke:none;fill-rule:nonzero;fill:rgb(0%,56.469727%,82.348633%);fill-opacity:1;" d="M 8.820312 9.714844 C 8.527344 10.0625 9.007812 11.21875 9.550781 11.925781 C 9.945312 12.433594 10.390625 12.738281 10.683594 12.902344 C 9.976562 12.585938 9.699219 12.621094 9.585938 12.738281 C 9.316406 13.023438 9.757812 14.125 10.558594 14.667969 C 11.15625 15.070312 11.863281 15.109375 11.855469 15.152344 C 11.84375 15.210938 10.742188 14.914062 10.585938 15.207031 C 10.46875 15.429688 10.925781 15.929688 11.25 16.179688 C 12.4375 17.09375 14.316406 16.546875 15.085938 16.277344 L 16.191406 13.15625 C 10.753906 9.722656 9.15625 9.3125 8.820312 9.714844 "/>
<path style=" stroke:none;fill-rule:nonzero;fill:rgb(0%,0%,0%);fill-opacity:1;" d="M 14.699219 16.613281 C 14.699219 16.613281 14.511719 16.699219 14.21875 16.789062 C 13.921875 16.882812 13.515625 16.972656 13.097656 17.007812 C 12.894531 17.023438 12.675781 17.027344 12.480469 17.019531 C 12.28125 17.011719 12.097656 16.992188 11.9375 16.96875 C 11.621094 16.925781 11.414062 16.867188 11.414062 16.867188 L 11.402344 16.863281 C 11.265625 16.828125 11.1875 16.6875 11.222656 16.554688 C 11.261719 16.417969 11.398438 16.339844 11.535156 16.375 C 11.546875 16.378906 11.558594 16.382812 11.570312 16.386719 C 11.570312 16.386719 11.75 16.46875 12.03125 16.554688 C 12.171875 16.597656 12.335938 16.640625 12.519531 16.675781 C 12.703125 16.710938 12.894531 16.738281 13.097656 16.753906 C 13.292969 16.769531 13.496094 16.769531 13.683594 16.761719 C 13.871094 16.753906 14.050781 16.734375 14.199219 16.714844 C 14.5 16.667969 14.699219 16.613281 14.699219 16.613281 "/>
</g>
</svg>
